<svg width="279" height="83" viewBox="0 0 279 83" fill="none" xmlns="http://www.w3.org/2000/svg">
<path d="M60.5963 62.2625L56.8143 62.279C54.3678 62.2925 53.2975 58.8745 55.1512 56.9885C55.6583 56.4697 56.3084 56.1834 56.9762 56.1819L60.7582 56.1655C63.2046 56.1519 64.275 59.5699 62.4213 61.4559C61.9097 61.968 61.2641 62.2611 60.5963 62.2625Z" fill="#95A5E0"/>
<path d="M100.844 6.9398L98.9201 9.01257C98.3111 9.67181 97.4601 10.0527 96.5665 10.0746C93.7791 10.1449 92.3485 6.94715 94.247 4.89909L96.1713 2.82632C96.7803 2.16708 97.6313 1.78624 98.5249 1.76428C101.309 1.68838 102.743 4.89174 100.844 6.9398Z" fill="#D7DBEB"/>
<path d="M13.6399 74.352L12.7293 72.9676C12.2185 72.1909 12.1081 71.2132 12.4231 70.3168C13.2945 67.8674 16.6435 67.397 18.0472 69.531L18.9577 70.9155C19.4686 71.6921 19.5789 72.6698 19.264 73.5662C18.3881 76.0089 15.0391 76.4793 13.6399 74.352Z" fill="#FFCACD"/>
<path d="M45.2101 20.1968L46.2853 18.8544C46.8923 18.1046 47.8046 17.6503 48.7682 17.6268C51.4106 17.5623 52.8567 20.5129 51.201 22.5686L50.1259 23.911C49.5189 24.6608 48.6065 25.1151 47.6429 25.1386C45.0077 25.1985 43.5544 22.2525 45.2101 20.1968Z" fill="#FDE39A"/>
<path d="M97.4929 38.8341L98.3431 37.7726C98.8231 37.1797 99.5445 36.8205 100.307 36.8019C102.396 36.7509 103.54 39.0841 102.23 40.7097L101.38 41.7712C100.9 42.3641 100.179 42.7233 99.4166 42.7419C97.3328 42.7893 96.1836 40.4597 97.4929 38.8341Z" fill="#FDE39A"/>
<path d="M231.896 77.0689L229.107 74.2774C227.305 72.4736 229.012 69.0379 231.75 68.9606C232.496 68.9435 233.191 69.2011 233.68 69.6993L236.469 72.4908C238.271 74.2945 236.564 77.7302 233.826 77.8075C233.08 77.8247 232.393 77.5585 231.896 77.0689Z" fill="#D7DBEB"/>
<path d="M257.705 32.0909H255.007C254.154 32.0909 253.341 31.7378 252.761 31.1115C250.956 29.1594 252.342 25.9946 255.007 25.9946H257.705C258.558 25.9946 259.371 26.3477 259.95 26.974C261.749 28.9195 260.363 32.0909 257.705 32.0909Z" fill="#95A5E0"/>
<path d="M166.705 42.6644L168.97 41.2053C169.69 40.7456 170.176 40.0061 170.322 39.1666C170.782 36.5482 167.904 34.636 165.665 36.0751L163.4 37.5342C162.68 37.994 162.194 38.7335 162.048 39.573C161.594 42.1914 164.473 44.1036 166.705 42.6644Z" fill="#95A5E0"/>
<path d="M206.242 48.8912V47.0037C206.242 45.9449 206.709 44.9413 207.501 44.2784C209.675 42.4737 212.879 44.0942 212.879 47.0037V48.8912C212.879 49.9501 212.412 50.9537 211.62 51.6166C209.446 53.412 206.242 51.7915 206.242 48.8912Z" fill="#FFCACD"/>
<path d="M189.663 10.1869L190.912 11.4345C191.61 12.1315 191.955 13.121 191.843 14.1018C191.533 16.795 188.242 17.9393 186.321 16.0206L185.072 14.773C184.374 14.076 184.03 13.0865 184.142 12.1057C184.452 9.41255 187.743 8.26819 189.663 10.1869Z" fill="#FDE39A"/>
<path d="M271.662 75.3136L273.472 74.6814C274.49 74.3323 275.609 74.4644 276.515 75.0494C278.997 76.6535 278.54 80.4466 275.759 81.409L273.948 82.0412C272.931 82.3903 271.811 82.2582 270.906 81.6732C268.433 80.0692 268.881 76.2761 271.662 75.3136Z" fill="#FDE39A"/>
</svg>
