<svg width="84" height="23" viewBox="0 0 84 23" fill="none" xmlns="http://www.w3.org/2000/svg">
<path d="M11.5447 1.7372C11.5447 0.777769 12.3224 0 13.2819 0C14.2413 0 15.0191 0.77777 15.0191 1.7372V16.2244C15.0191 17.1535 14.2659 17.9066 13.3368 17.9066C12.4078 17.9066 11.6546 17.1535 11.6546 16.2244V15.301C11.3907 15.6315 11.0682 15.926 10.6871 16.1846C10.3059 16.4576 9.88809 16.6803 9.43364 16.8527C8.99384 17.0394 8.53205 17.1759 8.04828 17.2621C7.5645 17.3627 7.08806 17.4058 6.61894 17.3914C5.72469 17.3771 4.87441 17.1975 4.06812 16.8527C3.27648 16.5078 2.57281 16.0409 1.9571 15.4519C1.35604 14.8628 0.879593 14.166 0.527756 13.3614C0.175919 12.5425 0 11.6589 0 10.7107C0 9.73374 0.183249 8.83579 0.549746 8.01687C0.916243 7.18357 1.40735 6.4724 2.02306 5.88335C2.63878 5.27993 3.34245 4.81299 4.13409 4.48255C4.92572 4.13774 5.74668 3.96533 6.59695 3.96533C7.6378 3.96533 8.58337 4.13774 9.43364 4.48255C10.2839 4.81299 10.9876 5.27993 11.5447 5.88335V1.7372ZM7.30062 14.7622C7.82838 14.7622 8.32682 14.6689 8.79593 14.4821C9.26505 14.2953 9.6682 14.0295 10.0054 13.6847C10.3572 13.3255 10.6284 12.8945 10.819 12.3917C11.0242 11.8888 11.1269 11.3285 11.1269 10.7107C11.1269 10.0642 11.0242 9.4895 10.819 8.98665C10.6284 8.4838 10.3572 8.05997 10.0054 7.71516C9.6682 7.35598 9.26505 7.083 8.79593 6.89623C8.32682 6.70946 7.82838 6.61607 7.30062 6.61607C6.77287 6.61607 6.27443 6.70946 5.80532 6.89623C5.3362 7.083 4.92572 7.35598 4.57389 7.71516C4.23671 8.05997 3.9655 8.4838 3.76026 8.98665C3.56968 9.4895 3.47439 10.0642 3.47439 10.7107C3.47439 11.3285 3.56968 11.8888 3.76026 12.3917C3.9655 12.8945 4.23671 13.3255 4.57389 13.6847C4.92572 14.0295 5.3362 14.2953 5.80532 14.4821C6.27443 14.6689 6.77287 14.7622 7.30062 14.7622Z" fill="#F6F7FC"/>
<path d="M29.0466 5.3062C29.2023 4.5266 29.8867 3.96533 30.6817 3.96533C31.6025 3.96533 32.3489 4.7118 32.3489 5.63261V16.9604H29.4023L28.9845 15.301C28.7206 15.6315 28.3981 15.926 28.0169 16.1846C27.6358 16.4576 27.218 16.6803 26.7635 16.8527C26.3237 17.0394 25.8619 17.1759 25.3782 17.2621C24.8944 17.3627 24.4179 17.4058 23.9488 17.3914C23.0546 17.3771 22.2043 17.1975 21.398 16.8527C20.6064 16.5078 19.9027 16.0409 19.287 15.4519C18.6859 14.8628 18.2095 14.166 17.8576 13.3614C17.5058 12.5425 17.3299 11.6589 17.3299 10.7107C17.3299 9.73374 17.5131 8.83579 17.8796 8.01687C18.2461 7.18357 18.7372 6.4724 19.3529 5.88335C19.9687 5.27993 20.6723 4.81299 21.464 4.48255C22.2556 4.13774 23.0766 3.96533 23.9268 3.96533C24.9823 3.96533 25.9426 4.13774 26.8075 4.48255C27.6724 4.82736 28.3761 5.31584 28.9185 5.948L29.0466 5.3062ZM24.6305 14.7622C25.1583 14.7622 25.6567 14.6689 26.1258 14.4821C26.5949 14.2953 26.9981 14.0295 27.3353 13.6847C27.6871 13.3255 27.9583 12.8945 28.1489 12.3917C28.3541 11.8888 28.4567 11.3285 28.4567 10.7107C28.4567 10.0642 28.3541 9.4895 28.1489 8.98665C27.9583 8.4838 27.6871 8.05997 27.3353 7.71516C26.9981 7.35598 26.5949 7.083 26.1258 6.89623C25.6567 6.70946 25.1583 6.61607 24.6305 6.61607C24.1027 6.61607 23.6043 6.70946 23.1352 6.89623C22.6661 7.083 22.2556 7.35598 21.9038 7.71516C21.5666 8.05997 21.2954 8.4838 21.0901 8.98665C20.8996 9.4895 20.8043 10.0642 20.8043 10.7107C20.8043 11.3285 20.8996 11.8888 21.0901 12.3917C21.2954 12.8945 21.5666 13.3255 21.9038 13.6847C22.2556 14.0295 22.6661 14.2953 23.1352 14.4821C23.6043 14.6689 24.1027 14.7622 24.6305 14.7622Z" fill="#F6F7FC"/>
<path d="M38.7615 5.71094C38.9961 5.43796 39.282 5.19372 39.6191 4.97822C39.971 4.76271 40.3448 4.58312 40.7406 4.43945C41.1364 4.28141 41.5469 4.16647 41.9721 4.09464C42.3972 4.00843 42.8077 3.96533 43.2035 3.96533C44.0098 3.96533 44.7648 4.08745 45.4684 4.33169C46.1721 4.57594 46.7878 4.92075 47.3156 5.36613C47.8433 5.79714 48.2538 6.32873 48.547 6.96088C48.8549 7.57867 49.0088 8.26829 49.0088 9.02975V16.9604H45.5344V10.1935C45.5344 8.92918 45.2559 8.01687 44.6988 7.45655C44.1417 6.88186 43.3794 6.59452 42.4119 6.59452C41.5762 6.59452 40.8432 6.87468 40.2129 7.435C39.5972 7.98095 39.194 8.74241 39.0034 9.71937V16.9604H35.529V5.55849C35.529 4.67861 36.2423 3.96533 37.1222 3.96533C37.9027 3.96533 38.5683 4.53078 38.6944 5.30102L38.7615 5.71094Z" fill="#F6F7FC"/>
<path d="M66.343 16.4216C66.343 17.4273 66.1671 18.3253 65.8152 19.1155C65.478 19.92 65.0016 20.6025 64.3859 21.1628C63.7702 21.7375 63.0372 22.1829 62.1869 22.4989C61.3366 22.815 60.4057 22.9802 59.3942 22.9946C58.456 23.0233 57.5544 22.9371 56.6894 22.736C55.8392 22.5349 55.0769 22.226 54.4025 21.8093C53.7281 21.3927 53.1711 20.8539 52.7313 20.193C52.2915 19.5465 52.0276 18.7707 51.9396 17.8655H55.458C55.5167 18.6845 55.8538 19.3094 56.4695 19.7405C57.0999 20.1715 57.9062 20.387 58.8884 20.387C59.4602 20.387 59.9879 20.308 60.4717 20.1499C60.9555 19.9919 61.3733 19.7476 61.7251 19.4172C62.0916 19.0868 62.3701 18.6701 62.5607 18.1673C62.766 17.6788 62.8686 17.0897 62.8686 16.4001V14.8915C62.3262 15.5955 61.6225 16.1128 60.7576 16.4432C59.8926 16.788 58.9544 16.9604 57.9429 16.9604C57.0486 16.9604 56.1983 16.8024 55.392 16.4863C54.6004 16.1702 53.8967 15.7248 53.281 15.1502C52.68 14.5755 52.2035 13.893 51.8517 13.1028C51.4998 12.3126 51.3239 11.4434 51.3239 10.4952C51.3239 9.51823 51.5072 8.62747 51.8737 7.82291C52.2402 7.01835 52.7313 6.33591 53.347 5.77559C53.9627 5.20091 54.6664 4.75552 55.458 4.43945C56.2496 4.12337 57.0706 3.96533 57.9209 3.96533C58.9764 3.96533 59.9366 4.13774 60.8015 4.48255C61.6665 4.82736 62.3701 5.31584 62.9126 5.948L63.1039 4.64564C63.2214 3.84643 63.907 3.25416 64.7148 3.25416C65.614 3.25416 66.343 3.98312 66.343 4.88233V16.4216ZM58.6245 14.3312C59.1523 14.3312 59.6507 14.2378 60.1199 14.0511C60.589 13.8643 60.9921 13.6057 61.3293 13.2752C61.6811 12.9304 61.9523 12.521 62.1429 12.0468C62.3482 11.5727 62.4508 11.0555 62.4508 10.4952C62.4508 9.90614 62.3482 9.37456 62.1429 8.90044C61.9523 8.42633 61.6811 8.02405 61.3293 7.69361C60.9921 7.34879 60.589 7.083 60.1199 6.89623C59.6507 6.70946 59.1523 6.61607 58.6245 6.61607C58.0968 6.61607 57.5984 6.70946 57.1292 6.89623C56.6601 7.083 56.2496 7.34879 55.8978 7.69361C55.5606 8.02405 55.2894 8.42633 55.0842 8.90044C54.8936 9.37456 54.7983 9.90614 54.7983 10.4952C54.7983 11.0555 54.8936 11.5727 55.0842 12.0468C55.2894 12.521 55.5606 12.9304 55.8978 13.2752C56.2496 13.6057 56.6601 13.8643 57.1292 14.0511C57.5984 14.2378 58.0968 14.3312 58.6245 14.3312Z" fill="#F6F7FC"/>
<path d="M72.8418 8.16321C72.8418 7.43296 72.985 6.71751 73.2715 6.01686C73.558 5.31621 73.959 4.69451 74.4747 4.15175C74.9999 3.59913 75.6301 3.15999 76.3654 2.83434C77.1007 2.49882 77.9124 2.33105 78.8004 2.33105C80.6846 2.33105 82.2428 3.07 83.475 4.54789C83.7649 4.89559 83.6858 5.40706 83.3338 5.69163C82.9075 6.03618 82.276 5.89615 81.9099 5.4883C81.6448 5.19298 81.3388 4.9399 80.9919 4.72905C80.3426 4.32445 79.6216 4.12215 78.8291 4.12215C78.2848 4.12215 77.7835 4.23563 77.3251 4.4626C76.8667 4.68957 76.4704 4.99056 76.1362 5.36555C75.8116 5.74055 75.5585 6.17475 75.3771 6.66817C75.1956 7.15171 75.1049 7.65006 75.1049 8.16321C75.1049 8.6961 75.2004 9.20925 75.3914 9.70266C75.5824 10.1862 75.8545 10.6155 76.2078 10.9905C76.5612 11.3556 76.9813 11.6516 77.4683 11.8786C77.9553 12.0957 78.4996 12.2043 79.1012 12.2043C79.4736 12.2043 79.827 12.1451 80.1612 12.0266C80.4954 11.9082 80.8057 11.7454 81.0922 11.5382C81.3882 11.3309 81.6604 11.0892 81.9087 10.8128C81.9169 10.8034 81.9251 10.7938 81.9333 10.7843C82.3032 10.3526 82.9641 10.2394 83.3935 10.6121C83.7398 10.9127 83.8126 11.4288 83.521 11.7828C83.0055 12.4085 82.4298 12.9042 81.7941 13.27C80.9537 13.7536 79.9559 13.9954 78.8004 13.9954C77.9601 13.9954 77.1771 13.8375 76.4514 13.5217C75.7256 13.2158 75.0954 12.7964 74.5606 12.2635C74.0259 11.7306 73.6057 11.1138 73.3002 10.4132C72.9946 9.70266 72.8418 8.95267 72.8418 8.16321Z" fill="#F6F7FC"/>
<ellipse cx="70.6098" cy="1.60159" rx="1.48775" ry="1.45804" fill="#F6F7FC"/>
</svg>
