<?xml version="1.0" standalone="no"?>
<!DOCTYPE svg PUBLIC "-//W3C//DTD SVG 20010904//EN"
 "http://www.w3.org/TR/2001/REC-SVG-20010904/DTD/svg10.dtd">
<svg version="1.0" xmlns="http://www.w3.org/2000/svg"
 width="700.000000pt" height="700.000000pt" viewBox="0 0 700.000000 700.000000"
 preserveAspectRatio="xMidYMid meet">
<metadata>
Created by potrace 1.14, written by Peter Selinger 2001-2017
</metadata>
<g transform="translate(0.000000,700.000000) scale(0.100000,-0.100000)"
fill="#000000" stroke="none">
<path d="M4358 5725 c-2 -2 -22 -5 -45 -9 -143 -19 -292 -157 -333 -309 -20
-75 -21 -143 -2 -139 8 1 11 -2 7 -8 -3 -6 -10 -8 -15 -5 -12 8 -9 -138 4
-154 8 -11 8 -13 -1 -8 -9 6 -11 -28 -11 -137 1 -109 5 -147 15 -150 7 -3 17
3 22 12 6 9 10 13 10 7 0 -13 -24 -45 -33 -45 -4 0 -4 5 -1 10 3 6 1 10 -4 10
-16 0 -13 -27 4 -33 18 -8 57 45 49 66 -3 8 0 18 6 22 9 6 9 9 0 15 -8 5 -6 9
6 14 10 4 15 4 11 0 -4 -4 0 -12 8 -18 11 -8 12 -15 4 -26 -9 -13 -10 -12 -5
3 6 19 -9 24 -20 6 -4 -7 3 -19 16 -29 l23 -17 -33 -30 -33 -30 32 0 c21 0 28
4 22 10 -7 7 -5 14 7 23 14 10 19 8 35 -18 10 -17 20 -28 23 -25 7 7 -21 60
-40 76 -9 8 -16 18 -16 24 0 6 7 1 16 -11 15 -22 17 -22 29 -5 7 10 17 15 21
10 4 -4 2 -7 -4 -7 -7 0 -12 -5 -12 -11 0 -5 5 -7 12 -3 6 4 8 3 4 -4 -3 -5
-3 -12 1 -15 5 -2 2 -2 -4 -1 -7 2 -13 0 -13 -5 0 -13 42 -63 48 -57 3 3 -3
15 -13 26 -10 11 -13 20 -8 20 6 0 13 -7 17 -15 3 -8 10 -15 16 -15 8 0 8 6 0
20 -7 14 -7 20 0 20 5 0 10 -7 10 -15 0 -8 5 -15 10 -15 6 0 10 7 10 15 0 8 4
15 10 15 18 0 5 -25 -22 -42 -30 -19 -38 -34 -12 -24 8 3 13 2 10 -3 -3 -5 1
-11 9 -15 10 -4 14 1 12 17 -2 19 3 22 31 21 21 0 31 4 28 11 -2 7 7 25 20 40
37 43 29 55 -10 15 -18 -19 -32 -38 -29 -42 2 -5 -1 -8 -6 -8 -16 0 -13 16 5
31 14 12 14 14 -2 26 -10 7 -13 13 -7 13 7 0 15 -5 18 -11 8 -11 32 11 53 46
9 17 10 13 7 -23 -3 -37 -2 -42 11 -31 8 6 12 20 9 30 -3 9 -1 21 6 24 8 6 8
9 -1 15 -8 5 -6 9 6 14 10 4 15 4 11 0 -4 -4 0 -12 8 -18 11 -8 12 -15 4 -26
-9 -13 -10 -12 -5 3 6 19 -9 24 -20 6 -4 -7 4 -20 17 -30 23 -18 23 -18 5 -32
-22 -16 -32 -57 -13 -58 6 0 20 -2 30 -4 11 -2 16 1 14 8 -2 7 -13 11 -23 9
-16 -2 -17 -1 -4 7 13 9 13 11 1 11 -11 0 -10 4 4 14 17 12 21 11 36 -8 10
-11 20 -18 23 -15 3 3 -8 21 -24 40 -16 19 -29 38 -30 44 0 5 7 -1 16 -14 15
-21 18 -21 26 -7 5 9 14 16 19 16 6 0 3 -7 -5 -16 -12 -11 -13 -20 -6 -34 11
-20 37 -17 53 4 5 6 6 2 2 -10 -3 -13 1 -26 10 -34 8 -7 13 -16 10 -20 -5 -8
25 -24 32 -17 2 2 -5 15 -15 28 -10 13 -18 38 -19 54 0 17 1 22 4 12 2 -9 9
-15 14 -12 5 4 9 2 9 -4 0 -5 -6 -11 -12 -14 -7 -2 -10 -8 -5 -12 4 -5 13 -3
19 3 15 15 28 16 28 2 0 -5 -5 -9 -11 -7 -6 1 -14 -4 -16 -11 -3 -8 1 -10 11
-6 9 3 16 1 16 -6 0 -6 -4 -8 -10 -5 -5 3 -10 2 -10 -2 0 -5 9 -14 20 -21 19
-12 20 -10 16 15 -3 15 0 33 6 40 7 9 7 13 -1 13 -6 0 -11 5 -11 11 0 5 4 8 9
4 5 -3 12 3 15 12 2 10 3 3 1 -15 -2 -22 0 -32 8 -29 7 2 11 13 10 23 -1 10 0
13 3 6 5 -10 9 -10 20 -1 10 8 14 8 14 0 0 -6 -5 -11 -11 -11 -8 0 -8 -4 1
-15 13 -15 5 -39 -11 -30 -5 4 -9 2 -9 -4 0 -5 4 -12 9 -16 17 -10 38 34 36
73 -2 20 -1 29 2 19 2 -9 9 -15 14 -12 5 4 9 1 9 -4 0 -6 -4 -11 -10 -11 -5 0
-10 -5 -10 -10 0 -7 7 -7 21 1 17 9 23 8 30 -2 5 -8 9 -17 9 -20 0 -14 -28
-28 -49 -24 -14 2 -21 0 -19 -7 7 -21 49 -15 68 10 15 18 17 29 10 42 -14 26
-12 33 4 18 8 -7 12 -16 9 -20 -2 -5 0 -8 6 -8 18 0 21 17 6 30 -8 7 -15 17
-15 23 0 5 9 0 20 -13 11 -13 23 -20 26 -17 4 3 -5 20 -19 36 -13 16 -28 27
-31 23 -4 -3 -4 2 0 11 4 12 2 17 -7 15 -9 -2 -14 6 -14 20 0 12 4 22 9 21 5
0 13 5 18 13 8 10 9 10 5 -2 -2 -8 -10 -14 -16 -13 -6 2 -11 -6 -11 -18 0 -11
4 -17 10 -14 5 3 15 -5 21 -19 7 -14 17 -23 23 -19 6 3 8 3 4 -1 -4 -5 2 -17
12 -29 20 -20 19 -21 -13 -40 -50 -30 -62 -55 -25 -53 12 0 23 8 25 16 4 12 3
12 -5 1 -7 -9 -12 -10 -16 -2 -6 10 0 13 20 10 4 0 11 5 15 13 5 7 9 9 9 3 0
-5 -4 -17 -9 -24 -6 -9 -6 -22 0 -32 6 -12 5 -20 -2 -24 -6 -5 -4 -12 8 -21
15 -11 15 -14 3 -15 -8 -1 -18 -1 -22 0 -5 0 -8 -2 -8 -5 0 -11 25 -29 45 -32
l20 -4 -20 17 c-11 9 -14 13 -6 9 9 -4 12 -3 7 4 -3 6 -2 13 4 17 6 4 7 12 3
18 -4 7 -6 23 -5 37 2 21 1 22 -8 10 -10 -13 -11 -12 -6 3 3 10 6 21 6 23 0 3
6 2 13 -2 9 -6 8 -3 -1 8 -10 13 -11 22 -2 37 7 15 7 21 0 21 -6 0 -8 10 -4
24 3 15 -1 34 -11 50 -11 16 -13 26 -6 26 6 0 11 -8 11 -17 0 -12 3 -14 11 -6
7 7 8 17 3 25 -11 17 -12 28 -3 54 4 12 5 25 2 28 -11 11 -9 56 2 56 5 0 2 7
-8 14 -12 9 -14 15 -6 18 14 5 18 43 8 79 -4 16 -2 32 4 38 8 8 7 11 -2 11
-10 0 -11 3 -2 13 8 10 7 17 -1 25 -9 9 -9 12 0 12 8 0 9 7 3 23 -5 13 -5 30
-1 37 5 8 7 18 4 22 -3 4 -7 21 -9 38 -19 151 -151 302 -304 347 -49 14 -164
26 -173 18z m87 -204 c3 -5 2 -12 -3 -15 -5 -3 -9 1 -9 9 0 17 3 19 12 6z
m322 -76 c0 -8 -4 -12 -9 -9 -5 3 -6 10 -3 15 9 13 12 11 12 -6z m-162 -34 c3
-5 2 -12 -3 -15 -5 -3 -9 1 -9 9 0 17 3 19 12 6z m-335 -91 c0 -5 -5 -10 -11
-10 -5 0 -7 5 -4 10 3 6 8 10 11 10 2 0 4 -4 4 -10z m334 -26 c3 -8 2 -12 -4
-9 -6 3 -10 10 -10 16 0 14 7 11 14 -7z m72 -12 c-17 -16 -18 -16 -5 5 7 12
15 20 18 17 3 -2 -3 -12 -13 -22z m-476 2 c0 -8 -19 -13 -24 -6 -3 5 1 9 9 9
8 0 15 -2 15 -3z m625 -13 c3 -5 2 -12 -3 -15 -5 -3 -9 1 -9 9 0 17 3 19 12 6z
m-758 -8 c-4 -3 -1 -13 6 -22 11 -14 10 -14 -5 -2 -16 12 -16 31 -1 31 4 0 3
-3 0 -7z m87 -1 c3 -5 -1 -9 -9 -9 -8 0 -12 4 -9 9 3 4 7 8 9 8 2 0 6 -4 9 -8z
m152 -4 c3 -4 -1 -5 -10 -4 -8 1 -18 5 -22 8 -3 4 1 5 10 4 8 -1 18 -5 22 -8z
m119 3 c-9 -8 -36 -10 -30 -2 2 4 11 8 20 8 8 0 13 -3 10 -6z m120 0 c-9 -8
-36 -10 -30 -2 2 4 11 8 20 8 8 0 13 -3 10 -6z m221 -3 c3 -4 -1 -5 -10 -4 -8
1 -18 5 -22 8 -3 4 1 5 10 4 8 -1 18 -5 22 -8z m-559 -13 c0 -8 -4 -12 -9 -9
-5 3 -6 10 -3 15 9 13 12 11 12 -6z m183 -19 c0 -3 -4 -8 -10 -11 -5 -3 -10
-1 -10 4 0 6 5 11 10 11 6 0 10 -2 10 -4z m40 -6 c0 -5 -2 -10 -4 -10 -3 0 -8
5 -11 10 -3 6 -1 10 4 10 6 0 11 -4 11 -10z m120 0 c0 -5 -5 -10 -11 -10 -5 0
-7 5 -4 10 3 6 8 10 11 10 2 0 4 -4 4 -10z m200 6 c0 -3 -4 -8 -10 -11 -5 -3
-10 -1 -10 4 0 6 5 11 10 11 6 0 10 -2 10 -4z m-579 -23 c13 -16 12 -17 -3 -4
-10 7 -18 15 -18 17 0 8 8 3 21 -13z m-156 -3 c3 -6 -1 -7 -9 -4 -18 7 -21 14
-7 14 6 0 13 -4 16 -10z m30 1 c3 -5 2 -12 -3 -15 -5 -3 -9 1 -9 9 0 17 3 19
12 6z m51 -3 c3 -4 -1 -5 -10 -4 -8 1 -18 5 -22 8 -3 4 1 5 10 4 8 -1 18 -5
22 -8z m109 3 c3 -5 2 -12 -3 -15 -5 -3 -9 1 -9 9 0 17 3 19 12 6z m122 -26
c0 -8 -4 -12 -9 -9 -5 3 -6 10 -3 15 9 13 12 11 12 -6z m-240 -10 c0 -8 -4
-12 -9 -9 -5 3 -6 10 -3 15 9 13 12 11 12 -6z m160 2 c0 -8 -6 -14 -14 -14 -9
0 -10 4 -2 14 6 7 12 13 14 13 1 0 2 -6 2 -13z m-63 -13 c3 -8 2 -12 -4 -9 -6
3 -10 10 -10 16 0 14 7 11 14 -7z m101 -22 c-1 -9 1 -22 6 -28 5 -6 4 -11 -4
-11 -8 0 -13 13 -13 33 0 18 3 31 7 28 4 -2 6 -12 4 -22z m200 5 c1 -7 7 -11
14 -9 7 1 9 -2 6 -9 -9 -13 -28 3 -31 27 -1 9 1 13 4 9 4 -4 7 -12 7 -18z
m-305 -13 c0 -8 -19 -13 -24 -6 -3 5 1 9 9 9 8 0 15 -2 15 -3z m390 -4 c0 -5
-5 -10 -11 -10 -5 0 -7 5 -4 10 3 6 8 10 11 10 2 0 4 -4 4 -10z m40 -4 c-7 -7
-13 -7 -20 0 -6 6 -3 10 10 10 13 0 16 -4 10 -10z m114 5 c-8 -8 -34 -10 -38
-2 -3 4 6 7 19 7 14 0 22 -2 19 -5z m-593 -18 c13 -16 12 -17 -3 -4 -17 13
-22 21 -14 21 2 0 10 -8 17 -17z m319 13 c0 -2 -8 -10 -17 -17 -16 -13 -17
-12 -4 4 13 16 21 21 21 13z m57 -29 c0 -8 -6 -14 -14 -14 -9 0 -10 4 -2 14 6
7 12 13 14 13 1 0 2 -6 2 -13z m239 -7 c0 -12 -4 -16 -9 -11 -5 5 -6 14 -3 20
10 15 12 14 12 -9z m-622 -1 c3 -3 -5 -5 -19 -5 -13 0 -22 3 -19 7 4 8 30 6
38 -2z m142 -1 c3 -4 -1 -5 -10 -4 -8 1 -18 5 -22 8 -3 4 1 5 10 4 8 -1 18 -5
22 -8z m324 8 c0 -2 -7 -7 -16 -10 -8 -3 -12 -2 -9 4 6 10 25 14 25 6z m240 0
c0 -2 -7 -7 -16 -10 -8 -3 -12 -2 -9 4 6 10 25 14 25 6z m-220 -10 c0 -2 -8
-10 -17 -17 -16 -13 -17 -12 -4 4 13 16 21 21 21 13z m-600 -12 c0 -8 -19 -13
-24 -6 -3 5 1 9 9 9 8 0 15 -2 15 -3z m35 -2 c-3 -3 0 -11 7 -19 6 -7 9 -15 7
-17 -2 -2 -12 6 -21 18 -13 18 -14 23 -2 23 8 0 12 -3 9 -5z m121 -8 c-1 -8
-6 -17 -12 -21 -5 -4 -6 -4 -2 1 4 5 3 14 -2 21 -7 8 -5 12 4 12 8 0 13 -6 12
-13z m41 -1 c0 -9 -4 -10 -14 -2 -7 6 -13 12 -13 14 0 1 6 2 13 2 8 0 14 -6
14 -14z m119 1 c-1 -8 -6 -17 -12 -21 -5 -4 -6 -4 -2 1 4 5 3 14 -2 21 -7 8
-5 12 4 12 8 0 13 -6 12 -13z m39 8 c-3 -3 0 -11 7 -19 6 -7 9 -15 7 -17 -2
-2 -12 6 -21 18 -13 18 -14 23 -2 23 8 0 12 -3 9 -5z m142 -17 c0 -8 -5 -11
-10 -8 -7 4 -8 -1 -3 -12 5 -15 4 -16 -9 -5 -14 11 -13 14 2 26 10 7 18 14 19
14 0 0 1 -7 1 -15z m119 -4 c0 -11 -5 -17 -13 -14 -10 4 -11 9 -2 19 15 18 15
18 15 -5z m61 4 c0 -8 -3 -13 -5 -10 -3 3 -10 0 -17 -5 -8 -7 -12 -5 -12 5 0
8 4 12 8 9 4 -2 10 0 14 6 9 14 12 13 12 -5z m38 5 c3 -6 -1 -7 -9 -4 -18 7
-21 14 -7 14 6 0 13 -4 16 -10z m-485 -14 c0 -2 -7 -7 -16 -10 -8 -3 -12 -2
-9 4 6 10 25 14 25 6z m577 -12 c-3 -3 -12 -4 -19 -1 -8 3 -5 6 6 6 11 1 17
-2 13 -5z m-114 -19 c-3 -9 -8 -14 -10 -11 -3 3 -2 9 2 15 9 16 15 13 8 -4z
m-179 -11 c3 -8 2 -12 -4 -9 -6 3 -10 10 -10 16 0 14 7 11 14 -7z m123 -4 c-1
-11 -5 -20 -9 -20 -10 0 -10 4 -2 24 8 22 13 20 11 -4z m123 10 c0 -5 -4 -10
-10 -10 -5 0 -10 5 -10 10 0 6 5 10 10 10 6 0 10 -4 10 -10z m-204 -33 c1 -9
-2 -15 -7 -11 -5 3 -7 9 -4 14 3 4 0 11 -5 13 -6 3 -5 4 1 3 7 -1 13 -10 15
-19z m168 9 c-3 -9 -12 -12 -22 -9 -15 6 -9 11 25 22 1 1 0 -5 -3 -13z m66 -5
c7 -15 7 -19 -5 -17 -8 1 -18 6 -22 11 -5 4 -2 5 6 0 11 -6 13 -4 8 8 -9 23 0
21 13 -2z m-714 -19 c-17 -16 -18 -16 -5 5 7 12 15 20 18 17 3 -2 -3 -12 -13
-22z m42 3 c-3 -3 -9 2 -12 12 -6 14 -5 15 5 6 7 -7 10 -15 7 -18z m552 10
c-7 -9 -15 -13 -19 -10 -3 3 1 10 9 15 21 14 24 12 10 -5z m-620 -5 c0 -5 -5
-10 -11 -10 -5 0 -7 5 -4 10 3 6 8 10 11 10 2 0 4 -4 4 -10z m250 6 c0 -2 -7
-7 -16 -10 -8 -3 -12 -2 -9 4 6 10 25 14 25 6z m160 0 c0 -2 -7 -7 -16 -10 -8
-3 -12 -2 -9 4 6 10 25 14 25 6z m58 -16 c-7 -10 -14 -17 -17 -15 -4 4 18 35
25 35 2 0 -1 -9 -8 -20z m92 10 c0 -5 -5 -10 -11 -10 -5 0 -7 5 -4 10 3 6 8
10 11 10 2 0 4 -4 4 -10z m-395 -9 c3 -5 0 -13 -6 -17 -7 -4 -9 -3 -5 4 3 5 0
13 -6 15 -9 4 -10 6 -1 6 6 1 14 -3 18 -8z m160 0 c3 -5 0 -13 -6 -17 -7 -4
-9 -3 -5 4 3 5 0 13 -6 15 -9 4 -10 6 -1 6 6 1 14 -3 18 -8z m-386 -29 c-1
-15 -2 -15 -6 1 -2 9 -9 14 -15 11 -7 -4 -8 -2 -4 5 10 15 26 4 25 -17z m41 2
c0 -8 -5 -14 -11 -14 -5 0 -7 -5 -3 -12 5 -7 3 -8 -5 -3 -9 5 -10 10 -2 18 15
15 14 30 -1 21 -7 -4 -8 -3 -4 5 9 14 26 5 26 -15z m67 19 c-4 -3 1 -12 11
-20 9 -8 12 -12 5 -9 -6 4 -13 1 -15 -6 -5 -14 -45 -21 -52 -9 -3 5 2 15 12
22 15 13 16 12 4 -3 -12 -15 -11 -17 8 -15 12 1 20 8 19 17 -2 22 0 30 8 30 3
0 3 -3 0 -7z m72 -29 c10 -9 10 -13 0 -19 -7 -5 -10 -4 -7 1 6 12 -28 44 -38
36 -4 -4 -4 -1 1 7 7 12 10 12 19 0 7 -8 18 -19 25 -25z m20 13 c0 -9 -2 -8
-6 1 -2 6 -10 9 -15 6 -7 -4 -8 -2 -4 5 9 13 26 5 25 -12z m64 8 c-3 -9 -8
-14 -10 -11 -3 3 -2 9 2 15 9 16 15 13 8 -4z m56 -13 c-1 -15 -2 -15 -6 1 -2
9 -9 14 -15 11 -7 -4 -8 -2 -4 5 10 15 26 4 25 -17z m41 2 c0 -8 -5 -14 -11
-14 -5 0 -7 -5 -3 -12 5 -7 3 -8 -5 -3 -9 5 -10 10 -2 18 15 15 14 30 -1 21
-7 -4 -8 -3 -4 5 9 14 26 5 26 -15z m63 9 c-4 -10 -2 -14 5 -9 6 3 14 1 18 -5
4 -7 3 -9 -4 -5 -5 3 -12 1 -14 -6 -5 -14 -45 -21 -52 -9 -3 5 2 15 12 22 15
13 16 12 4 -3 -12 -15 -11 -17 7 -15 14 1 20 6 16 15 -3 8 -3 18 1 23 9 15 14
10 7 -8z m63 -28 c-2 -5 -8 -9 -14 -8 -6 2 -10 -6 -9 -17 1 -11 8 -20 15 -20
8 0 12 -6 9 -15 -10 -26 10 -25 22 1 6 15 16 22 22 18 8 -5 10 1 7 20 -4 18
-2 24 4 18 14 -14 5 -48 -11 -44 -9 2 -11 -3 -7 -15 4 -9 4 -14 0 -10 -4 4
-13 -2 -21 -13 -19 -27 -34 -25 -29 4 3 14 -1 27 -8 29 -17 7 -14 53 2 50 14
-3 14 -1 6 21 -3 9 -11 13 -17 9 -6 -4 -7 -1 -2 7 6 10 11 9 22 -6 7 -10 12
-23 9 -29z m60 36 c-3 -5 1 -12 10 -15 9 -4 14 -9 11 -13 -9 -8 -38 17 -31 28
3 5 7 9 10 9 3 0 3 -4 0 -9z m102 -16 c0 -14 -4 -25 -7 -25 -4 0 -7 11 -7 25
0 14 3 25 7 25 3 0 7 -11 7 -25z m122 15 c0 -5 -4 -10 -10 -10 -5 0 -10 5 -10
10 0 6 5 10 10 10 6 0 10 -4 10 -10z m55 0 c-3 -5 -12 -10 -18 -10 -7 0 -6 4
3 10 19 12 23 12 15 0z m-220 -40 c-4 -6 -11 -8 -16 -5 -5 4 -9 -3 -9 -15 0
-12 4 -19 9 -15 11 6 36 -33 27 -43 -3 -3 -6 0 -6 7 0 7 -4 9 -10 6 -6 -3 -7
1 -4 10 4 10 2 15 -7 13 -9 -2 -14 6 -14 22 0 15 5 24 13 22 10 -2 12 4 7 20
-5 20 -4 21 5 5 6 -9 8 -22 5 -27z m80 20 c-4 -14 -2 -20 7 -18 8 2 13 -7 13
-22 0 -16 -5 -24 -14 -22 -9 2 -11 -3 -7 -13 3 -9 2 -13 -4 -10 -6 3 -10 1
-10 -6 0 -7 -3 -10 -6 -7 -9 10 16 49 27 43 5 -4 9 3 9 15 0 12 -4 19 -9 15
-6 -3 -15 4 -21 16 -8 15 -9 19 -1 15 6 -4 11 -2 11 3 0 6 3 11 6 11 3 0 2 -9
-1 -20z m-445 0 c0 -5 -5 -10 -11 -10 -5 0 -7 5 -4 10 3 6 8 10 11 10 2 0 4
-4 4 -10z m55 -21 c6 1 10 -8 10 -19 0 -11 -4 -20 -10 -19 -5 0 -13 -10 -17
-23 -7 -22 -7 -22 -5 2 1 14 8 24 15 23 6 -2 12 6 12 17 0 11 -5 19 -12 18 -6
-2 -13 6 -15 17 -3 18 -2 18 5 2 4 -10 12 -18 17 -18z m440 21 c-3 -5 -11 -10
-16 -10 -6 0 -7 5 -4 10 3 6 11 10 16 10 6 0 7 -4 4 -10z m84 -17 c2 -2 -3 -3
-11 -3 -9 0 -19 7 -22 16 -6 15 -4 15 11 3 10 -7 20 -15 22 -16z m-829 -23 c0
-10 -3 -21 -7 -23 -5 -3 -8 8 -8 23 0 15 3 26 8 23 4 -2 7 -13 7 -23z m166 18
c4 -6 3 -8 -4 -4 -7 4 -10 -1 -9 -14 1 -21 12 -27 20 -10 3 6 4 5 3 -2 -4 -20
-29 -15 -32 6 -4 31 9 46 22 24z m40 -16 c-17 -16 -18 -16 -5 5 7 12 15 20 18
17 3 -2 -3 -12 -13 -22z m-79 -14 c-3 -8 -6 -5 -6 6 -1 11 2 17 5 13 3 -3 4
-12 1 -19z m120 13 c-10 -4 -18 -11 -18 -16 0 -6 -11 -13 -24 -17 -14 -3 -23
-2 -19 3 3 5 14 9 25 9 10 0 18 3 18 8 -3 16 2 22 19 21 16 0 16 -1 -1 -8z
m28 -10 c-3 -6 -11 -11 -16 -11 -5 0 -4 6 3 14 14 16 24 13 13 -3z m172 -3
c-3 -8 -6 -5 -6 6 -1 11 2 17 5 13 3 -3 4 -12 1 -19z m73 12 c0 -5 -4 -10 -10
-10 -5 0 -10 5 -10 10 0 6 5 10 10 10 6 0 10 -4 10 -10z m120 0 c0 -5 -4 -10
-10 -10 -5 0 -10 5 -10 10 0 6 5 10 10 10 6 0 10 -4 10 -10z m40 0 c0 -5 -4
-10 -10 -10 -5 0 -10 5 -10 10 0 6 5 10 10 10 6 0 10 -4 10 -10z m120 0 c0 -5
-4 -10 -10 -10 -5 0 -10 5 -10 10 0 6 5 10 10 10 6 0 10 -4 10 -10z m-700 -10
c0 -5 -2 -10 -4 -10 -3 0 -8 5 -11 10 -3 6 -1 10 4 10 6 0 11 -4 11 -10z m320
0 c0 -5 -2 -10 -4 -10 -3 0 -8 5 -11 10 -3 6 -1 10 4 10 6 0 11 -4 11 -10z
m-414 -32 c-9 -12 -16 -19 -16 -15 0 11 24 47 28 42 2 -2 -3 -14 -12 -27z
m810 23 c-4 -5 0 -12 6 -14 8 -3 6 -6 -4 -6 -18 -1 -24 10 -11 22 9 10 15 8 9
-2z m-156 -11 c0 -5 -4 -10 -10 -10 -5 0 -10 5 -10 10 0 6 5 10 10 10 6 0 10
-4 10 -10z m-540 -10 c0 -5 -4 -10 -10 -10 -5 0 -10 5 -10 10 0 6 5 10 10 10
6 0 10 -4 10 -10z m124 -14 c-3 -9 -10 -16 -15 -16 -5 0 -4 9 3 20 14 22 21
20 12 -4z m196 14 c0 -5 -4 -10 -10 -10 -5 0 -10 5 -10 10 0 6 5 10 10 10 6 0
10 -4 10 -10z m148 -11 c19 -30 8 -34 -12 -4 -9 14 -13 25 -9 25 5 0 14 -9 21
-21z m136 -4 c-9 -14 -19 -24 -21 -21 -6 6 20 46 30 46 4 0 0 -11 -9 -25z
m-514 -19 c16 -21 3 -21 -17 -1 -8 9 -18 13 -21 10 -4 -3 0 -11 8 -16 13 -9
13 -10 0 -6 -8 2 -16 13 -16 25 -1 17 2 19 16 12 9 -5 22 -16 30 -24z m342 2
c-7 -7 -12 -8 -12 -2 0 6 3 14 7 17 3 4 9 5 12 2 2 -3 -1 -11 -7 -17z m208 1
c0 -6 -4 -7 -10 -4 -5 3 -10 11 -10 16 0 6 5 7 10 4 6 -3 10 -11 10 -16z m80
11 c0 -5 -2 -10 -4 -10 -3 0 -8 5 -11 10 -3 6 -1 10 4 10 6 0 11 -4 11 -10z
m-366 -25 c3 -8 1 -15 -4 -15 -6 0 -10 7 -10 15 0 8 2 15 4 15 2 0 6 -7 10
-15z m189 8 c-7 -2 -19 -2 -25 0 -7 3 -2 5 12 5 14 0 19 -2 13 -5z m-406 -9
c-3 -3 -12 -4 -19 -1 -8 3 -5 6 6 6 11 1 17 -2 13 -5z m323 -4 c0 -5 -4 -10
-10 -10 -5 0 -10 5 -10 10 0 6 5 10 10 10 6 0 10 -4 10 -10z m160 0 c0 -5 -4
-10 -10 -10 -5 0 -10 5 -10 10 0 6 5 10 10 10 6 0 10 -4 10 -10z"/>
<path d="M3247 4844 c-1 -1 -39 -5 -85 -8 -109 -8 -265 -41 -372 -78 -524
-184 -900 -618 -1012 -1168 -29 -145 -31 -436 -3 -570 2 -14 7 -38 11 -55 16
-83 71 -242 119 -340 208 -430 602 -741 1065 -839 126 -26 141 -28 271 -31 98
-3 138 0 180 13 181 57 304 212 315 397 9 160 -67 311 -199 396 -73 47 -136
66 -254 74 -236 15 -411 111 -533 292 -291 432 4 1013 522 1028 193 6 361 -59
492 -191 118 -117 180 -259 192 -434 11 -170 53 -271 149 -357 295 -267 758
-44 739 357 -5 92 -16 203 -27 255 -4 17 -9 41 -11 55 -3 14 -9 40 -15 59 -6
18 -10 36 -9 40 1 3 -4 19 -10 34 -7 16 -10 33 -6 38 3 5 1 9 -3 9 -5 0 -15
17 -22 38 -19 54 -102 221 -113 228 -5 3 -1 12 9 19 17 13 17 14 -3 9 -12 -3
-25 0 -30 7 -5 9 -2 10 10 6 10 -4 15 -3 11 3 -3 6 -13 10 -21 10 -8 0 -14 5
-14 11 0 6 7 8 16 5 9 -3 12 -2 9 5 -4 6 -13 8 -21 5 -7 -3 -18 3 -24 14 -12
23 4 56 32 63 10 3 18 11 18 19 0 9 -2 10 -8 1 -10 -16 -65 -26 -59 -10 2 7
12 11 21 9 9 -2 19 4 22 12 3 9 11 13 17 9 6 -3 7 -1 3 5 -4 7 1 10 14 9 11
-1 20 -7 20 -14 0 -7 4 -13 8 -13 5 0 17 -7 28 -15 17 -13 17 -14 2 -15 -10 0
-26 8 -37 19 -18 18 -19 18 -17 -22 0 -24 6 -41 14 -43 7 -1 8 0 2 3 -5 2 -10
9 -10 14 0 6 5 7 10 4 6 -3 10 -1 10 4 0 6 -4 11 -10 11 -5 0 -10 5 -10 10 0
7 6 7 18 1 24 -13 116 -8 135 7 9 8 18 9 21 3 4 -5 -3 -12 -14 -16 -23 -7 -27
-22 -5 -22 8 0 12 4 9 9 -5 7 10 12 29 9 5 -1 6 3 3 8 -4 5 -3 11 1 14 5 2 2
2 -4 1 -7 -2 -13 0 -13 4 0 5 6 14 13 21 6 8 -7 1 -30 -14 -23 -15 -48 -25
-55 -23 -7 3 6 15 30 27 47 24 52 35 22 51 -11 6 -20 16 -20 22 0 7 4 7 13 -1
10 -8 17 -7 27 2 10 10 12 9 7 -4 -3 -9 -1 -22 5 -30 8 -11 9 -11 5 2 -3 9 0
22 6 28 6 6 7 11 1 11 -5 0 -10 11 -10 25 0 14 5 25 11 25 6 0 7 3 0 8 -14 10
-14 72 -1 72 8 0 8 3 1 8 -6 4 -11 27 -10 52 0 28 -4 44 -11 43 -16 -3 -47 34
-39 47 3 5 12 7 18 3 9 -5 9 -3 0 8 -10 12 -10 18 -1 27 9 9 9 12 -1 12 -7 0
-10 3 -7 8 2 4 -12 7 -32 7 -22 0 -37 -5 -40 -15 -4 -13 -3 -13 11 -2 14 12
15 10 12 -17 -3 -25 -1 -29 16 -26 11 2 17 0 14 -6 -4 -5 -11 -6 -17 -3 -6 4
-9 1 -6 -7 3 -8 10 -14 15 -14 21 0 22 -11 3 -12 -11 -1 -20 4 -20 10 0 7 -4
6 -10 -3 -15 -23 -12 -28 15 -25 14 1 28 -2 31 -7 3 -5 15 -6 27 -3 16 5 18 4
8 -3 -10 -7 -10 -11 -1 -14 9 -3 7 -8 -4 -17 -14 -12 -16 -12 -10 3 7 19 -6
21 -25 4 -8 -7 -11 -8 -8 -2 4 6 -7 10 -29 9 -26 -2 -32 1 -24 10 14 17 -16
29 -38 15 -14 -9 -13 -10 6 -5 13 4 22 2 22 -5 0 -6 -4 -9 -8 -6 -4 2 -14 1
-22 -4 -9 -5 -20 -4 -29 3 -12 10 -13 9 -7 -3 4 -8 0 -6 -10 5 -14 17 -16 18
-10 2 3 -10 2 -16 -3 -13 -5 3 -14 0 -20 -8 -13 -15 -28 -16 -50 -2 -11 7 -12
6 -6 -5 7 -11 5 -11 -10 1 -17 13 -18 13 -10 0 5 -9 5 -12 -1 -7 -9 8 -10 12
-13 40 -1 8 -4 8 -10 -3 -6 -8 -7 -18 -4 -24 4 -5 0 -6 -8 -1 -11 7 -11 5 1
-10 12 -15 12 -17 1 -10 -9 5 -12 4 -7 -3 3 -6 2 -13 -4 -17 -16 -10 -11 -26
8 -23 9 2 16 -2 15 -7 -1 -6 7 -11 18 -11 18 0 19 2 4 12 -9 7 -12 15 -7 18 5
3 15 -1 22 -8 16 -21 -5 -60 -28 -52 -15 5 -15 4 -2 -7 16 -13 24 -37 12 -37
-18 1 -29 17 -27 40 2 16 -5 31 -18 42 -17 13 -19 19 -9 31 10 12 10 17 1 23
-8 5 -9 3 -4 -7 7 -11 5 -11 -10 1 -17 13 -18 13 -11 0 4 -8 0 -6 -10 5 -14
17 -16 17 -11 3 9 -25 0 -22 -14 3 -9 17 -8 20 2 14 8 -5 10 -4 5 3 -12 19
-28 14 -21 -7 3 -10 -1 -23 -9 -30 -8 -7 -13 -17 -12 -24 6 -26 19 -47 26 -42
5 3 12 0 16 -6 5 -8 3 -9 -5 -4 -7 4 -5 -5 5 -21 24 -38 29 -43 21 -21 -4 11
-3 16 4 12 6 -4 8 -14 5 -22 -3 -8 -1 -11 4 -8 6 4 7 -1 3 -11 -5 -13 -2 -15
18 -10 23 7 23 7 5 -9 -19 -14 -21 -13 -39 15 -10 16 -23 28 -27 25 -5 -3 -11
4 -15 15 -3 11 -10 20 -16 20 -5 0 -8 10 -6 21 1 12 -5 24 -13 26 -13 4 -13 3
0 -6 8 -5 11 -13 6 -18 -4 -4 -12 0 -17 10 -6 9 -15 14 -21 11 -7 -4 -8 -2 -4
4 4 7 2 12 -3 12 -6 0 -19 8 -30 18 -29 27 -82 66 -100 74 -14 6 -14 7 2 7 9
1 17 5 17 10 0 6 -9 8 -20 6 -11 -2 -27 3 -35 11 -8 9 -15 12 -15 8 0 -4 -8 0
-18 9 -10 10 -22 14 -27 10 -4 -5 -4 -1 1 7 5 8 10 26 12 40 3 24 3 24 -12 5
-8 -11 -12 -23 -10 -27 3 -5 0 -8 -5 -8 -6 0 -12 6 -12 13 -1 6 -2 17 -4 22
-1 6 -3 15 -3 20 -1 6 -11 11 -22 11 -13 0 -19 -5 -15 -14 3 -7 5 -17 5 -20 0
-4 5 0 10 8 7 11 9 10 7 -9 l-1 -23 -18 22 c-11 14 -18 17 -18 9 0 -11 -2 -11
-10 1 -5 8 -10 11 -10 6 0 -5 -6 -4 -12 1 -16 13 -164 70 -243 93 -56 17 -82
23 -145 35 -14 3 -36 7 -49 10 -52 10 -286 25 -294 19z m1532 -170 c4 3 7 -4
7 -14 0 -26 -22 -14 -23 13 0 12 1 16 4 9 3 -6 8 -10 12 -8z m26 -94 c3 -5 1
-10 -4 -10 -6 0 -11 5 -11 10 0 6 2 10 4 10 3 0 8 -4 11 -10z m-67 -46 c35 -2
38 -12 12 -37 l-24 -22 19 25 20 25 -22 -19 c-13 -10 -20 -23 -17 -27 3 -5 0
-9 -5 -9 -14 0 -14 12 -1 28 7 9 7 9 -2 2 -8 -7 -18 -4 -32 8 -21 17 -21 17
-3 -4 9 -11 17 -24 17 -29 0 -5 -11 6 -25 25 -14 19 -25 28 -25 21 0 -8 -6
-11 -15 -7 -23 9 -18 0 13 -20 26 -17 27 -17 12 2 -14 18 -14 18 2 5 10 -7 15
-17 12 -22 -3 -5 0 -9 6 -9 6 0 8 -5 5 -11 -5 -6 -12 -4 -22 8 -8 10 -11 12
-7 4 5 -9 3 -12 -4 -7 -7 4 -18 4 -24 -1 -17 -10 -32 -10 -39 0 -4 5 -10 4
-13 -2 -4 -6 -2 -11 5 -11 7 0 4 -7 -7 -15 -10 -8 -15 -15 -10 -15 5 0 3 -7
-4 -15 -10 -12 -10 -15 1 -15 8 -1 2 -8 -14 -16 -15 -8 -33 -12 -39 -8 -7 4
-8 3 -4 -5 4 -6 16 -9 25 -6 10 3 18 0 18 -7 0 -7 2 -19 4 -27 2 -7 -1 -15 -7
-18 -7 -2 -11 4 -10 14 0 10 -6 18 -14 18 -8 0 -14 -8 -14 -17 1 -10 -2 -18
-8 -18 -5 0 -6 -6 -2 -12 4 -7 -1 -5 -11 4 -17 15 -17 18 -1 33 18 19 12 39
-11 31 -8 -3 -11 -1 -8 4 3 5 -5 21 -18 34 -14 14 -23 27 -20 30 3 2 -6 12
-20 21 -25 16 -28 29 -13 53 5 8 12 10 19 4 7 -5 20 -8 30 -7 9 2 15 -1 12 -5
-3 -5 -1 -18 5 -30 24 -48 27 -56 24 -72 -2 -14 4 -17 27 -14 29 3 54 16 32
16 -16 0 -10 30 8 41 8 5 10 9 5 9 -6 0 -5 5 1 11 9 9 6 16 -10 29 -12 10 -26
15 -32 12 -5 -4 -16 -7 -23 -8 -10 -2 -10 2 2 15 9 10 13 21 9 26 -5 4 -1 4 7
-1 23 -13 79 -12 91 2 5 6 25 10 44 8 19 -1 37 1 40 7 4 5 12 6 18 2 7 -4 22
-8 35 -9z m56 -9 c-7 -17 7 -20 22 -5 6 6 10 -6 10 -34 0 -25 -4 -42 -8 -40
-4 3 -8 -1 -8 -8 -1 -7 -7 -2 -14 11 -9 16 -16 20 -20 12 -6 -9 -12 -9 -24 1
-9 7 -13 8 -9 2 4 -7 0 -17 -8 -24 -28 -23 -15 7 23 54 40 50 44 53 36 31z
m-79 -83 c1 -11 -6 -18 -16 -18 -10 0 -15 5 -13 11 3 5 -2 1 -10 -9 -9 -11
-17 -17 -17 -13 -1 4 -2 12 -3 19 0 6 -8 13 -16 15 -13 4 -13 3 0 -6 14 -10 8
-13 -17 -10 -3 0 -10 -6 -15 -15 -5 -9 -14 -13 -20 -10 -7 5 -8 2 -2 -7 14
-23 13 -38 -2 -32 -17 6 -17 1 -2 -31 9 -20 14 -23 25 -15 9 9 13 8 13 0 0 -6
-7 -14 -15 -17 -8 -4 -15 -12 -15 -20 0 -8 -5 -14 -11 -14 -6 0 -8 7 -5 16 3
8 1 25 -6 37 -17 31 -18 45 -3 51 7 2 11 16 10 29 -3 21 16 43 29 34 1 -1 10
4 19 11 11 10 21 11 35 3 15 -8 23 -7 32 4 15 17 23 13 25 -13z m79 -8 c3 -7
11 -11 19 -8 8 3 14 -2 14 -11 0 -21 -13 -19 -35 6 -17 18 -20 18 -26 4 -3 -9
-10 -14 -15 -11 -5 3 -14 -1 -21 -8 -6 -8 -20 -13 -31 -11 -13 3 -17 0 -13 -8
5 -8 2 -8 -7 1 -12 11 -12 14 0 21 8 5 21 7 28 4 8 -3 20 3 28 13 16 23 51 28
59 8z m-128 -45 c8 -17 11 -28 5 -25 -6 4 -11 2 -11 -4 0 -6 -5 -8 -11 -4 -7
4 -7 10 -1 16 6 6 8 17 5 25 -4 11 -9 9 -20 -7 -17 -25 -32 -26 -28 -2 1 9 8
16 14 15 6 -2 11 2 11 7 0 21 20 9 36 -21z m164 -8 c3 -2 -2 -2 -11 2 -9 3
-22 0 -28 -6 -8 -8 -11 -7 -11 3 0 7 -3 10 -7 7 -3 -4 -11 -3 -18 1 -6 4 -4 0
5 -8 8 -8 16 -28 16 -45 1 -16 -1 -24 -3 -17 -4 10 -8 10 -19 1 -11 -9 -18 -9
-29 1 -8 7 -15 17 -15 22 0 6 7 5 16 -2 12 -11 18 -10 32 5 9 10 12 15 6 11
-7 -3 -15 1 -18 10 -4 9 -11 12 -18 7 -7 -4 -17 -8 -23 -8 -5 0 -9 -12 -9 -28
1 -17 -4 -27 -12 -27 -17 0 -18 12 -1 30 10 12 9 12 -6 0 -10 -7 -16 -19 -13
-26 3 -8 -3 -12 -15 -11 -11 1 -19 9 -19 20 0 13 -5 17 -19 12 -11 -3 -21 0
-24 9 -4 9 0 13 11 12 9 -2 23 5 32 14 8 9 12 11 7 4 -4 -6 -1 -17 7 -23 12
-10 19 -8 38 11 12 12 28 22 34 20 7 -1 14 5 18 13 3 9 10 14 15 10 5 -3 12
-1 16 5 5 8 43 -8 65 -29z m-11 -28 c-8 -9 -16 -10 -22 -4 -13 13 0 31 19 24
11 -4 12 -8 3 -20z m-84 7 c-3 -5 -1 -10 6 -10 7 0 10 -3 6 -6 -9 -9 -28 6
-22 17 4 5 8 9 11 9 3 0 2 -4 -1 -10z m-205 -40 c0 -5 -4 -10 -10 -10 -5 0
-10 5 -10 10 0 6 5 10 10 10 6 0 10 -4 10 -10z m243 -14 c20 3 37 1 37 -3 0
-12 -61 -37 -90 -39 -35 -1 -65 15 -52 28 13 13 35 0 25 -15 -4 -7 0 -6 10 2
14 11 20 11 35 0 15 -13 16 -12 3 4 -8 10 -20 16 -27 13 -8 -3 -12 3 -11 14 1
17 3 17 17 6 9 -9 29 -12 53 -10z m-217 -31 c-17 -26 -13 -51 6 -39 6 4 9 1 6
-6 -2 -8 -11 -16 -19 -18 -8 -3 -11 -1 -7 3 4 4 -3 16 -16 26 -16 13 -22 26
-19 39 6 23 23 27 23 5 0 -8 -5 -15 -11 -15 -5 0 -7 -5 -3 -11 3 -6 14 2 26
21 10 18 22 30 25 26 3 -3 -2 -17 -11 -31z m174 -25 c0 -5 -4 -10 -10 -10 -5
0 -10 5 -10 10 0 6 5 10 10 10 6 0 10 -4 10 -10z"/>
<path d="M4686 4532 c-3 -6 1 -15 8 -21 10 -8 16 -9 21 -1 3 6 10 8 15 5 5 -3
11 -1 14 4 4 5 -2 8 -11 6 -10 -1 -23 2 -30 7 -7 5 -13 5 -17 0z"/>
<path d="M4601 4516 c-6 -7 -25 -12 -41 -11 -25 2 -28 0 -19 -11 6 -8 15 -11
20 -8 5 3 9 0 9 -7 0 -7 7 -4 16 7 8 10 12 13 8 5 -9 -19 16 -31 37 -18 17 10
17 12 -2 25 -11 7 -17 18 -14 23 9 14 -1 11 -14 -5z m25 -33 c-10 -11 -19 -7
-22 10 -2 15 0 16 12 6 8 -6 12 -14 10 -16z"/>
<path d="M4399 4499 c-7 -37 -7 -40 5 -30 13 11 26 5 26 -11 0 -5 -6 -6 -12
-2 -9 5 -8 2 1 -9 11 -14 17 -15 28 -5 13 10 13 13 -1 23 -9 7 -12 16 -8 21 4
5 3 6 -2 2 -5 -4 -15 -3 -23 3 -7 6 -13 10 -14 8z"/>
<path d="M4446 4422 c-3 -5 3 -17 13 -27 17 -15 19 -15 17 -1 -3 22 -22 40
-30 28z"/>
<path d="M4764 4489 c-9 -10 -11 -19 -5 -23 5 -4 12 -2 16 3 8 14 36 1 28 -13
-3 -6 -2 -7 3 -3 4 4 9 18 9 30 2 28 -28 31 -51 6z m46 -6 c0 -3 -6 -3 -14 0
-7 3 -20 0 -27 -6 -11 -10 -11 -9 0 5 11 15 41 15 41 1z"/>
<path d="M4766 4402 c-3 -5 1 -9 9 -9 8 0 12 4 9 9 -3 4 -7 8 -9 8 -2 0 -6 -4
-9 -8z"/>
<path d="M4011 4779 c-13 -17 -29 -28 -36 -25 -18 7 -15 -34 4 -54 17 -18 21
-17 34 5 6 11 5 21 -2 28 -7 7 -12 6 -17 -6 -3 -9 -10 -15 -14 -12 -5 3 12 25
38 50 27 26 40 45 31 45 -8 0 -25 -14 -38 -31z"/>
<path d="M4340 4795 c-17 -21 -19 -63 -4 -76 8 -6 25 -12 38 -13 24 -1 24 -2
10 -23 -8 -13 -10 -23 -5 -23 6 0 15 8 20 18 6 9 11 11 11 5 0 -18 17 -16 17
2 0 14 -17 25 -45 31 -35 7 -42 14 -38 40 3 14 13 32 23 40 16 12 16 13 2 14
-9 0 -22 -7 -29 -15z"/>
<path d="M4297 4772 c-10 -10 -13 -23 -8 -30 4 -8 7 -24 5 -38 -1 -13 2 -26 7
-30 9 -5 13 8 10 36 -2 13 -1 13 8 0 5 -8 7 -18 4 -24 -3 -5 -1 -6 5 -2 7 4
12 1 12 -6 0 -9 3 -9 10 2 7 11 10 11 10 2 0 -7 5 -10 10 -7 13 8 2 27 -13 22
-20 -6 -47 38 -41 67 5 31 3 32 -19 8z"/>
<path d="M4070 4760 c0 -5 5 -10 12 -10 6 0 4 -6 -6 -13 -15 -11 -17 -17 -7
-35 7 -13 9 -28 6 -35 -7 -13 11 9 33 40 7 10 10 12 7 6 -3 -7 -1 -22 5 -33 8
-15 8 -20 -1 -20 -7 0 -10 -2 -7 -5 9 -9 58 17 52 27 -3 5 -13 3 -22 -4 -14
-10 -15 -10 -4 2 18 21 15 34 -5 19 -17 -13 -17 -12 -4 4 15 18 15 18 29 0 7
-10 17 -17 22 -16 5 1 7 -10 5 -26 -3 -19 1 -28 11 -28 9 0 12 8 10 24 -5 22
-4 22 24 8 15 -8 31 -20 33 -27 3 -7 5 -1 4 15 -1 17 -6 26 -14 23 -7 -3 -15
-1 -18 5 -4 5 -10 7 -15 4 -4 -2 -24 6 -44 20 -20 14 -40 24 -44 24 -20 -3
-31 3 -37 21 -7 21 -25 28 -25 10z m25 -40 c-3 -5 -12 -10 -18 -10 -7 0 -6 4
3 10 19 12 23 12 15 0z"/>
<path d="M4407 4751 c14 -12 18 -22 12 -28 -6 -6 0 -14 17 -22 23 -10 26 -9
21 4 -4 8 -4 22 -1 30 5 12 10 13 20 4 9 -8 14 -8 14 -1 0 18 -20 24 -36 11
-11 -9 -18 -8 -32 5 -10 9 -23 16 -28 16 -5 -1 1 -9 13 -19z"/>
<path d="M4624 4745 c-5 -12 -9 -13 -21 -3 -12 10 -14 9 -11 -8 1 -10 11 -24
22 -30 13 -8 15 -13 7 -18 -6 -4 -11 -2 -11 5 0 9 -3 9 -14 0 -9 -8 -16 -8
-20 -2 -4 5 -20 8 -36 6 -27 -3 -34 3 -32 26 1 4 -10 7 -23 7 -14 0 -25 -4
-25 -9 0 -9 16 -13 34 -10 5 1 4 -4 -3 -13 -7 -9 -8 -17 -2 -20 5 -3 12 0 15
6 3 7 3 3 0 -9 -4 -18 -2 -22 10 -17 9 4 18 0 22 -10 3 -9 11 -13 17 -9 6 3 7
1 3 -5 -4 -7 -2 -12 3 -12 21 0 11 27 -14 40 -14 7 -25 18 -25 23 0 5 6 4 14
-2 8 -7 16 -8 18 -4 3 4 3 2 2 -4 -2 -7 1 -13 6 -13 6 0 10 4 10 8 0 5 7 9 15
9 8 0 12 -4 10 -8 -3 -4 6 -6 20 -5 15 0 23 6 21 13 -5 12 12 12 33 -1 9 -6
12 -5 9 5 -3 8 -12 14 -21 14 -9 0 -21 5 -28 12 -13 13 -3 37 12 28 5 -4 9 -2
9 4 0 18 -20 23 -26 6z"/>
<path d="M4697 4749 c-9 -6 -17 -14 -17 -18 0 -12 43 -6 47 6 6 17 -10 23 -30
12z"/>
<path d="M4030 4725 c0 -8 5 -15 10 -15 6 0 10 7 10 15 0 8 -4 15 -10 15 -5 0
-10 -7 -10 -15z"/>
<path d="M4220 4721 c1 -16 21 -36 37 -36 10 0 17 -6 16 -12 -2 -7 2 -13 7
-13 7 0 7 -6 0 -20 -6 -11 -16 -17 -25 -14 -8 4 -13 10 -10 14 6 9 -25 23 -33
15 -3 -3 0 -5 8 -5 10 0 10 -3 0 -15 -7 -8 -17 -12 -23 -8 -7 4 -8 -1 -4 -13
7 -18 7 -18 -8 0 -8 11 -13 29 -9 40 4 15 3 17 -4 8 -5 -8 -11 -13 -13 -11 -2
1 -14 -1 -26 -5 -18 -6 -20 -10 -10 -21 6 -7 14 -11 16 -9 2 2 11 -2 19 -9 8
-6 23 -13 34 -13 40 -3 41 -3 29 -18 -9 -11 0 -22 44 -55 30 -23 55 -38 55
-34 0 4 5 0 11 -9 5 -9 16 -15 24 -12 8 4 13 10 10 14 -3 4 2 13 10 20 9 7 13
21 10 31 -8 25 13 34 34 15 10 -9 28 -18 40 -21 18 -3 20 -1 11 14 -5 10 -6
21 -3 25 3 3 3 6 -2 6 -4 0 -14 -8 -22 -17 -13 -16 -13 -15 -3 7 10 23 10 23
-3 7 -10 -12 -17 -14 -22 -8 -3 6 -1 11 6 11 8 0 8 4 -1 15 -7 8 -17 12 -22 9
-6 -4 -5 -10 3 -15 8 -5 10 -9 5 -9 -16 0 -45 31 -40 44 2 6 -5 12 -16 13 -20
2 -20 2 -1 -26 13 -18 17 -32 10 -42 -5 -8 -9 -9 -9 -3 0 17 -28 25 -36 12 -5
-7 -2 -8 6 -3 9 6 11 4 5 -5 -6 -9 -4 -11 5 -5 9 6 11 4 5 -5 -6 -9 -4 -11 6
-5 12 8 12 6 0 -8 -14 -18 -26 -23 -17 -8 7 11 -13 9 -33 -3 -8 -6 -12 -5 -8
0 5 9 -20 51 -28 47 -12 -7 -26 -2 -20 6 3 5 -1 16 -9 24 -15 14 -12 27 6 27
5 0 6 -5 3 -10 -4 -6 -1 -9 7 -8 8 2 12 -5 10 -21 -2 -20 0 -22 13 -11 9 7 14
19 11 27 -4 9 -1 12 7 7 6 -4 9 -4 5 1 -4 4 -3 16 3 27 7 12 7 24 1 31 -5 7
-8 21 -7 32 1 17 -5 21 -32 22 -18 0 -33 -2 -33 -6z m50 -5 c0 -2 -8 -10 -17
-17 -16 -13 -17 -12 -4 4 13 16 21 21 21 13z m-96 -102 c5 -14 4 -15 -9 -4
-17 14 -19 20 -6 20 5 0 12 -7 15 -16z m106 -79 c0 -10 -16 -4 -40 16 l-25 20
33 -16 c17 -8 32 -18 32 -20z m100 20 c-6 -8 -9 -19 -5 -25 3 -5 -3 -21 -13
-35 -17 -21 -21 -23 -26 -9 -4 9 -9 14 -13 11 -9 -10 -34 13 -27 25 3 5 11 5
19 -2 10 -8 19 -4 36 19 13 16 28 30 33 30 5 1 3 -6 -4 -14z"/>
<path d="M4341 4517 c-6 -8 -8 -17 -4 -20 7 -8 33 11 33 24 0 13 -16 11 -29
-4z"/>
<path d="M4465 4690 c-3 -5 -3 -15 0 -20 4 -6 1 -17 -5 -25 -15 -18 1 -20 19
-2 10 8 12 8 7 0 -3 -6 -1 -15 5 -19 8 -5 9 -3 4 5 -6 10 -3 11 14 1 12 -6 19
-15 16 -20 -3 -5 -1 -11 4 -14 5 -3 12 1 15 9 3 9 -1 18 -9 21 -8 4 -12 11 -8
17 4 6 0 8 -10 4 -16 -6 -44 27 -39 46 3 10 -6 9 -13 -3z"/>
<path d="M4433 4678 c1 -7 -5 -13 -14 -13 -9 0 -23 -6 -31 -13 -13 -10 -17
-10 -21 0 -2 8 -16 14 -30 16 -19 1 -28 -4 -33 -21 -4 -12 -6 -23 -5 -25 2 -2
-4 -13 -12 -26 -17 -25 -9 -48 18 -52 11 -2 13 1 6 10 -6 7 -6 17 -1 26 8 13
12 13 32 1 22 -14 22 -13 8 5 -7 10 -21 25 -29 32 -9 7 -11 12 -3 12 7 0 12 5
12 11 0 5 -5 7 -12 3 -7 -4 -8 -3 -4 5 6 9 11 9 23 -1 8 -6 22 -13 30 -14 9
-2 21 -8 27 -14 6 -6 7 -10 1 -8 -5 2 -11 0 -12 -4 -6 -17 -2 -20 11 -9 10 9
16 8 26 -4 7 -8 16 -12 22 -9 12 7 39 -16 32 -27 -3 -5 -1 -9 4 -9 6 0 13 8
17 18 6 16 8 16 21 -3 8 -11 19 -21 24 -21 6 -1 11 -2 13 -4 14 -11 41 -4 54
16 15 23 17 24 39 9 14 -9 24 -12 23 -8 -4 23 4 31 26 28 30 -3 37 6 41 53 2
25 0 31 -6 22 -5 -8 -7 -22 -5 -30 2 -8 0 -22 -6 -30 -8 -12 -9 -11 -5 6 5 15
2 21 -9 21 -9 0 -14 -6 -11 -13 3 -8 0 -16 -6 -20 -7 -5 -8 -2 -3 7 8 12 6 12
-8 0 -9 -7 -17 -10 -17 -6 0 4 -6 3 -12 -2 -19 -14 -43 -10 -44 7 -3 33 -5 34
-16 16 -9 -15 -7 -22 8 -33 13 -10 14 -13 3 -14 -8 -1 -18 -1 -22 0 -5 1 -6
-2 -3 -7 3 -5 -1 -9 -9 -9 -11 0 -12 4 -4 14 9 10 8 13 0 13 -8 0 -7 6 3 16
20 19 20 25 2 18 -8 -3 -17 -12 -20 -21 -5 -12 -9 -13 -21 -3 -8 7 -12 16 -9
21 3 5 -1 6 -9 3 -8 -3 -18 0 -22 5 -3 6 -11 9 -16 6 -16 -10 -31 5 -19 20 6
7 8 20 4 29 -7 19 -25 22 -21 4z m17 -18 c0 -5 -5 -10 -11 -10 -5 0 -7 5 -4
10 3 6 8 10 11 10 2 0 4 -4 4 -10z m-26 -34 c-3 -9 4 -12 25 -11 20 1 28 -2
24 -11 -3 -9 2 -12 15 -9 12 2 26 -3 32 -11 7 -7 16 -11 21 -8 5 3 6 -2 3 -11
-6 -14 -9 -13 -21 5 -11 15 -18 18 -27 11 -9 -8 -18 -5 -31 9 -20 22 -40 27
-30 8 4 -7 -5 0 -19 16 -14 17 -22 34 -20 38 8 13 34 -11 28 -26z m-95 -19
c-2 -1 -15 -11 -28 -22 l-24 -20 14 23 c8 12 20 22 28 22 8 0 12 -1 10 -3z"/>
<path d="M4700 4675 c11 -13 10 -14 -5 -9 -15 6 -16 5 -4 -14 11 -17 15 -19
21 -8 9 17 0 46 -14 46 -6 0 -5 -7 2 -15z"/>
<path d="M4647 4667 c-4 -10 -17 -13 -41 -12 -26 3 -33 0 -29 -11 3 -8 9 -12
13 -9 5 3 11 1 14 -4 3 -5 15 -7 26 -4 11 3 18 9 15 13 -9 15 12 20 23 7 7 -8
7 -18 2 -27 -7 -10 -10 -11 -10 -3 0 10 -6 10 -25 1 -29 -13 -34 -28 -7 -23 9
2 19 4 22 5 3 1 8 2 12 1 4 0 12 9 19 20 9 18 7 25 -9 41 -16 16 -20 17 -25 5z
m-17 -21 c0 -3 -4 -8 -10 -11 -5 -3 -10 -1 -10 4 0 6 5 11 10 11 6 0 10 -2 10
-4z"/>
<path d="M4735 4560 c-2 -3 9 -6 25 -6 17 0 27 2 25 5 -8 7 -45 9 -50 1z"/>
<path d="M4510 4440 c0 -5 5 -10 10 -10 6 0 10 5 10 10 0 6 -4 10 -10 10 -5 0
-10 -4 -10 -10z"/>
<path d="M4391 4413 c7 -12 15 -20 18 -17 3 2 -3 12 -13 22 -17 16 -18 16 -5
-5z"/>
<path d="M4590 4226 c0 -2 7 -6 15 -10 8 -3 15 -1 15 4 0 6 -7 10 -15 10 -8 0
-15 -2 -15 -4z"/>
<path d="M4673 4209 c3 -9 -1 -26 -8 -37 -8 -10 -11 -22 -8 -26 3 -3 1 -6 -4
-6 -6 0 -14 5 -16 10 -3 6 -4 5 -3 -2 3 -15 31 -18 31 -3 1 6 6 19 12 31 8 14
8 25 1 35 -8 12 -9 11 -5 -2z"/>
<path d="M4695 4210 c3 -5 8 -10 11 -10 2 0 4 5 4 10 0 6 -5 10 -11 10 -5 0
-7 -4 -4 -10z"/>
<path d="M4729 4213 c0 -5 -2 -16 -4 -26 -2 -10 1 -14 7 -11 6 4 8 1 6 -7 -3
-8 -11 -13 -17 -11 -6 1 -11 -2 -11 -8 0 -13 17 -13 26 1 4 8 9 7 15 -2 5 -8
9 -9 9 -3 0 5 -6 19 -14 30 -10 13 -11 23 -4 31 7 9 7 13 -1 13 -6 0 -11 -3
-12 -7z"/>
<path d="M4757 4206 c-3 -7 -1 -18 4 -23 6 -6 12 -19 13 -29 2 -10 9 -20 17
-22 11 -3 11 -1 -1 7 -8 6 -11 11 -7 11 4 0 2 10 -5 23 -7 12 -11 28 -10 35 4
16 -5 15 -11 -2z"/>
<path d="M4820 4206 c0 -8 4 -17 9 -20 5 -4 7 3 4 14 -6 23 -13 26 -13 6z"/>
<path d="M4580 4195 c0 -8 2 -15 4 -15 2 0 6 7 10 15 3 8 1 15 -4 15 -6 0 -10
-7 -10 -15z"/>
<path d="M4610 4191 c0 -5 5 -13 10 -16 6 -3 10 -2 10 4 0 5 -4 13 -10 16 -5
3 -10 2 -10 -4z"/>
<path d="M4788 4193 c6 -2 9 -10 6 -15 -4 -7 -2 -8 4 -4 18 11 14 26 -5 25
-11 0 -13 -3 -5 -6z"/>
<path d="M4691 4172 c-17 -31 -13 -40 5 -14 9 13 14 26 11 29 -3 2 -10 -4 -16
-15z"/>
<path d="M4805 4160 c-4 -6 1 -7 12 -3 16 6 16 5 4 -10 -7 -9 -9 -17 -3 -17
12 0 23 26 15 34 -9 9 -21 7 -28 -4z"/>
<path d="M4704 4118 c9 -5 23 -5 32 0 12 6 7 9 -16 9 -23 0 -28 -3 -16 -9z"/>
<path d="M4749 4111 c-12 -11 -14 -22 -8 -36 l9 -20 -3 20 c-1 11 4 25 13 32
8 6 13 13 10 16 -3 2 -12 -3 -21 -12z"/>
<path d="M4792 4111 c-10 -6 -9 -10 7 -14 12 -3 24 0 28 5 3 6 1 8 -5 4 -5 -3
-12 -2 -14 4 -2 5 -9 6 -16 1z"/>
<path d="M4657 4103 c-3 -5 0 -17 4 -28 9 -19 9 -19 5 2 -3 16 2 23 18 26 l21
4 -22 2 c-12 0 -24 -2 -26 -6z"/>
<path d="M4690 4075 c0 -8 2 -15 4 -15 2 0 6 7 10 15 3 8 1 15 -4 15 -6 0 -10
-7 -10 -15z"/>
<path d="M4770 4079 c0 -5 5 -7 10 -4 6 3 10 8 10 11 0 2 -4 4 -10 4 -5 0 -10
-5 -10 -11z"/>
<path d="M4717 4073 c-10 -9 -9 -23 1 -23 5 0 9 7 9 15 0 17 -1 18 -10 8z"/>
<path d="M4790 4059 c0 -5 5 -7 10 -4 6 3 10 8 10 11 0 2 -4 4 -10 4 -5 0 -10
-5 -10 -11z"/>
<path d="M4666 4037 c3 -10 9 -15 12 -12 3 3 0 11 -7 18 -10 9 -11 8 -5 -6z"/>
<path d="M4740 4035 c-11 -13 -10 -14 5 -9 14 6 16 4 10 -6 -5 -8 -4 -11 3 -6
6 4 9 13 5 21 -7 19 -8 19 -23 0z"/>
<path d="M4810 4046 c0 -2 7 -7 16 -10 8 -3 12 -2 9 4 -6 10 -25 14 -25 6z"/>
<path d="M4710 4025 c0 -5 5 -17 10 -25 5 -8 10 -10 10 -5 0 6 -5 17 -10 25
-5 8 -10 11 -10 5z"/>
<path d="M4805 4010 c-16 -7 -17 -9 -3 -9 9 -1 20 4 23 9 7 11 7 11 -20 0z"/>
<path d="M4780 3986 c0 -2 9 -6 20 -9 11 -3 18 -1 14 4 -5 9 -34 13 -34 5z"/>
<path d="M4746 3958 c3 -5 10 -6 15 -3 13 9 11 12 -6 12 -8 0 -12 -4 -9 -9z"/>
<path d="M4779 3953 c-13 -16 -12 -17 4 -4 16 13 21 21 13 21 -2 0 -10 -8 -17
-17z"/>
<path d="M4803 3938 c-11 -19 -13 -39 -1 -32 5 3 7 9 4 12 -3 3 -1 11 5 19 6
7 9 13 6 13 -3 0 -9 -6 -14 -12z"/>
<path d="M4750 3916 c0 -2 8 -10 18 -17 15 -13 16 -12 3 4 -13 16 -21 21 -21
13z"/>
<path d="M4332 2628 c-114 -17 -238 -97 -300 -195 -194 -305 32 -696 392 -679
238 11 403 184 420 439 3 45 -25 152 -56 209 -87 163 -270 253 -456 226z"/>
</g>
</svg>
