<svg width="159" height="123" viewBox="0 0 159 123" fill="none" xmlns="http://www.w3.org/2000/svg">
<g filter="url(#filter0_d_353_57680)">
<g filter="url(#filter1_f_353_57680)">
<circle cx="103.303" cy="49.3709" r="32.2201" fill="url(#paint0_linear_353_57680)"/>
</g>
<g filter="url(#filter2_f_353_57680)">
<path fill-rule="evenodd" clip-rule="evenodd" d="M78.3543 25.5114C84.9513 26.8679 92.0889 29.1689 98.7007 33.836C109.057 41.1465 116.153 51.0968 118.263 55.1243V80.4915C113.737 82.6709 108.663 83.8922 103.304 83.8922C84.2381 83.8922 68.7822 68.4363 68.7822 49.3706C68.7822 40.115 72.4247 31.7102 78.3543 25.5114Z" fill="#F45C65"/>
</g>
<path fill-rule="evenodd" clip-rule="evenodd" d="M28.5049 63.3167C28.682 63.4368 28.9041 63.5016 29.1565 63.4779L118.261 55.1244L118.261 55.1244V88.7709C118.261 90.8807 116.622 92.6278 114.517 92.7628L32.7608 98.0035C30.4557 98.1513 28.5049 96.3215 28.5049 94.0117V63.3167Z" fill="url(#paint1_linear_353_57680)"/>
<path d="M98.7004 33.8362C89.6078 27.4179 79.5209 25.4745 71.2127 24.3082C70.0368 24.1432 68.8517 24.5199 67.9778 25.3239L28.3882 61.7464C27.6835 62.3947 28.2052 63.5673 29.1586 63.478L118.263 55.1245C116.153 51.0969 109.057 41.1466 98.7004 33.8362Z" fill="url(#paint2_radial_353_57680)"/>
<path d="M82.5887 26.592C82.5887 31.0604 78.9822 33.2608 74.5337 33.2608C70.0852 33.2608 66.4795 31.0604 66.4795 26.592C66.4795 22.1235 70.507 20.0456 74.5345 16C78.4574 19.9405 82.5896 22.1235 82.5896 26.592H82.5887Z" fill="url(#paint3_linear_353_57680)"/>
<path d="M94.0985 32.3456C94.0985 36.8141 90.4919 39.0144 86.0434 39.0144C81.5949 39.0144 77.9893 36.8141 77.9893 32.3456C77.9893 27.8772 82.0168 25.7992 86.0443 21.7537C89.9672 25.6942 94.0985 27.8772 94.0985 32.3456Z" fill="url(#paint4_linear_353_57680)"/>
<path d="M105.605 38.099C105.605 42.5675 101.999 44.7679 97.5503 44.7679C93.1018 44.7679 89.4961 42.5675 89.4961 38.099C89.4961 33.6306 93.5236 31.5527 97.5511 27.5071C101.474 31.4476 105.606 33.6306 105.606 38.099H105.605Z" fill="url(#paint5_linear_353_57680)"/>
<path d="M115.962 47.3049C115.962 51.7733 112.355 53.9737 107.907 53.9737C103.458 53.9737 99.8525 51.7733 99.8525 47.3049C99.8525 42.8364 103.88 40.7585 107.908 36.7129C111.83 40.6534 115.963 42.8364 115.963 47.3049H115.962Z" fill="url(#paint6_linear_353_57680)"/>
<g style="mix-blend-mode:screen" filter="url(#filter3_f_353_57680)">
<path fill-rule="evenodd" clip-rule="evenodd" d="M28.2459 61.9061C28.4353 62.1805 28.7591 62.3648 29.1587 62.3273L117.651 54.0311C117.887 54.4315 118.091 54.7975 118.263 55.1244L29.1587 63.4779C28.2794 63.5604 27.7673 62.5693 28.2459 61.9061Z" fill="url(#paint7_linear_353_57680)" fill-opacity="0.8"/>
</g>
<g filter="url(#filter4_f_353_57680)">
<path d="M25.7297 50.5215L26.0913 58.8896L34.458 59.2512L26.0913 59.6128L25.7297 67.9795L25.3681 59.6128L17 59.2512L25.3681 58.8896L25.7297 50.5215Z" fill="white"/>
</g>
<g style="mix-blend-mode:screen" filter="url(#filter5_f_353_57680)">
<path d="M25.7297 50.5215L26.0913 58.8896L34.458 59.2512L26.0913 59.6128L25.7297 67.9795L25.3681 59.6128L17 59.2512L25.3681 58.8896L25.7297 50.5215Z" fill="white"/>
</g>
<g filter="url(#filter6_f_353_57680)">
<path d="M117.689 63.1794L118.046 71.453L126.318 71.8105L118.046 72.168L117.689 80.4402L117.331 72.168L109.058 71.8105L117.331 71.453L117.689 63.1794Z" fill="white"/>
</g>
<g style="mix-blend-mode:screen" filter="url(#filter7_f_353_57680)">
<path d="M117.689 63.1794L118.046 71.453L126.318 71.8105L118.046 72.168L117.689 80.4402L117.331 72.168L109.058 71.8105L117.331 71.453L117.689 63.1794Z" fill="white"/>
</g>
</g>
<defs>
<filter id="filter0_d_353_57680" x="0" y="0" width="158.523" height="122.012" filterUnits="userSpaceOnUse" color-interpolation-filters="sRGB">
<feFlood flood-opacity="0" result="BackgroundImageFix"/>
<feColorMatrix in="SourceAlpha" type="matrix" values="0 0 0 0 0 0 0 0 0 0 0 0 0 0 0 0 0 0 127 0" result="hardAlpha"/>
<feOffset dx="3" dy="4"/>
<feGaussianBlur stdDeviation="10"/>
<feComposite in2="hardAlpha" operator="out"/>
<feColorMatrix type="matrix" values="0 0 0 0 0.9 0 0 0 0 0.45375 0 0 0 0 0.534075 0 0 0 0.32 0"/>
<feBlend mode="normal" in2="BackgroundImageFix" result="effect1_dropShadow_353_57680"/>
<feBlend mode="normal" in="SourceGraphic" in2="effect1_dropShadow_353_57680" result="shape"/>
</filter>
<filter id="filter1_f_353_57680" x="70.083" y="16.1508" width="66.4404" height="66.4403" filterUnits="userSpaceOnUse" color-interpolation-filters="sRGB">
<feFlood flood-opacity="0" result="BackgroundImageFix"/>
<feBlend mode="normal" in="SourceGraphic" in2="BackgroundImageFix" result="shape"/>
<feGaussianBlur stdDeviation="0.5" result="effect1_foregroundBlur_353_57680"/>
</filter>
<filter id="filter2_f_353_57680" x="64.7822" y="21.5114" width="57.4805" height="66.3809" filterUnits="userSpaceOnUse" color-interpolation-filters="sRGB">
<feFlood flood-opacity="0" result="BackgroundImageFix"/>
<feBlend mode="normal" in="SourceGraphic" in2="BackgroundImageFix" result="shape"/>
<feGaussianBlur stdDeviation="2" result="effect1_foregroundBlur_353_57680"/>
</filter>
<filter id="filter3_f_353_57680" x="27.8625" y="53.8311" width="90.6002" height="9.85166" filterUnits="userSpaceOnUse" color-interpolation-filters="sRGB">
<feFlood flood-opacity="0" result="BackgroundImageFix"/>
<feBlend mode="normal" in="SourceGraphic" in2="BackgroundImageFix" result="shape"/>
<feGaussianBlur stdDeviation="0.1" result="effect1_foregroundBlur_353_57680"/>
</filter>
<filter id="filter4_f_353_57680" x="15" y="48.5215" width="21.458" height="21.458" filterUnits="userSpaceOnUse" color-interpolation-filters="sRGB">
<feFlood flood-opacity="0" result="BackgroundImageFix"/>
<feBlend mode="normal" in="SourceGraphic" in2="BackgroundImageFix" result="shape"/>
<feGaussianBlur stdDeviation="1" result="effect1_foregroundBlur_353_57680"/>
</filter>
<filter id="filter5_f_353_57680" x="16.9" y="50.4215" width="17.658" height="17.658" filterUnits="userSpaceOnUse" color-interpolation-filters="sRGB">
<feFlood flood-opacity="0" result="BackgroundImageFix"/>
<feBlend mode="normal" in="SourceGraphic" in2="BackgroundImageFix" result="shape"/>
<feGaussianBlur stdDeviation="0.05" result="effect1_foregroundBlur_353_57680"/>
</filter>
<filter id="filter6_f_353_57680" x="107.058" y="61.1794" width="21.2607" height="21.2607" filterUnits="userSpaceOnUse" color-interpolation-filters="sRGB">
<feFlood flood-opacity="0" result="BackgroundImageFix"/>
<feBlend mode="normal" in="SourceGraphic" in2="BackgroundImageFix" result="shape"/>
<feGaussianBlur stdDeviation="1" result="effect1_foregroundBlur_353_57680"/>
</filter>
<filter id="filter7_f_353_57680" x="108.958" y="63.0794" width="17.4607" height="17.4607" filterUnits="userSpaceOnUse" color-interpolation-filters="sRGB">
<feFlood flood-opacity="0" result="BackgroundImageFix"/>
<feBlend mode="normal" in="SourceGraphic" in2="BackgroundImageFix" result="shape"/>
<feGaussianBlur stdDeviation="0.05" result="effect1_foregroundBlur_353_57680"/>
</filter>
<linearGradient id="paint0_linear_353_57680" x1="88.041" y1="31.6498" x2="122.214" y2="59.8968" gradientUnits="userSpaceOnUse">
<stop stop-color="#F1424D"/>
<stop offset="1" stop-color="#FF747D"/>
</linearGradient>
<linearGradient id="paint1_linear_353_57680" x1="29.6556" y1="83.2434" x2="111.355" y2="78.0517" gradientUnits="userSpaceOnUse">
<stop stop-color="white" stop-opacity="0.89"/>
<stop offset="0.598958" stop-color="white" stop-opacity="0.46"/>
<stop offset="1" stop-color="white" stop-opacity="0.58"/>
</linearGradient>
<radialGradient id="paint2_radial_353_57680" cx="0" cy="0" r="1" gradientUnits="userSpaceOnUse" gradientTransform="translate(110.783 39.5897) rotate(165.094) scale(82.7598 189.861)">
<stop stop-color="white" stop-opacity="0.4"/>
<stop offset="0.546875" stop-color="white" stop-opacity="0.78"/>
<stop offset="1" stop-color="white" stop-opacity="0.49"/>
</radialGradient>
<linearGradient id="paint3_linear_353_57680" x1="78.562" y1="32.1101" x2="69.3563" y2="22.9043" gradientUnits="userSpaceOnUse">
<stop stop-color="#BCC3FF" stop-opacity="0.79"/>
<stop offset="1" stop-color="white"/>
</linearGradient>
<linearGradient id="paint4_linear_353_57680" x1="90.0718" y1="37.8637" x2="80.8661" y2="28.658" gradientUnits="userSpaceOnUse">
<stop stop-color="#BCC3FF" stop-opacity="0.79"/>
<stop offset="1" stop-color="white"/>
</linearGradient>
<linearGradient id="paint5_linear_353_57680" x1="101.579" y1="43.6171" x2="92.3729" y2="34.4114" gradientUnits="userSpaceOnUse">
<stop stop-color="#BCC3FF" stop-opacity="0.79"/>
<stop offset="1" stop-color="white"/>
</linearGradient>
<linearGradient id="paint6_linear_353_57680" x1="111.935" y1="52.823" x2="102.729" y2="43.6172" gradientUnits="userSpaceOnUse">
<stop stop-color="#BCC3FF" stop-opacity="0.79"/>
<stop offset="1" stop-color="white"/>
</linearGradient>
<linearGradient id="paint7_linear_353_57680" x1="39.1929" y1="61.4857" x2="115.955" y2="55.1448" gradientUnits="userSpaceOnUse">
<stop stop-color="white"/>
<stop offset="1" stop-color="white" stop-opacity="0.45"/>
</linearGradient>
</defs>
</svg>
