<svg width="current" height="current" viewBox="0 0 135 38" fill="none" xmlns="http://www.w3.org/2000/svg">
<path d="M18.7329 2.77947C18.7329 1.24441 19.9773 0 21.5123 0C23.0474 0 24.2918 1.24441 24.2918 2.77947V26.5424C24.2918 28.0289 23.0868 29.2339 21.6003 29.2339C20.1138 29.2339 18.9088 28.0289 18.9088 26.5424V24.98C18.4866 25.5195 17.9706 26.0004 17.3607 26.4226C16.7509 26.8682 16.0824 27.2318 15.3553 27.5132C14.6516 27.8181 13.9128 28.041 13.1388 28.1817C12.3647 28.3459 11.6024 28.4163 10.8518 28.3928C9.42107 28.3694 8.06065 28.0762 6.7706 27.5132C5.50401 26.9503 4.37815 26.188 3.39302 25.2263C2.43135 24.2647 1.66904 23.1271 1.10611 21.8136C0.543184 20.4766 0.261719 19.0341 0.261719 17.486C0.261719 15.8911 0.554912 14.4251 1.1413 13.0881C1.72768 11.7277 2.51344 10.5667 3.49857 9.605C4.4837 8.61987 5.60956 7.85757 6.87615 7.3181C8.14275 6.75517 9.45625 6.4737 10.8167 6.4737C12.482 6.4737 13.9949 6.75517 15.3553 7.3181C16.7157 7.85757 17.8416 8.61987 18.7329 9.605V2.77947ZM11.9425 24.1005C12.7869 24.1005 13.5844 23.948 14.335 23.6431C15.0856 23.3382 15.7306 22.9042 16.2701 22.3413C16.833 21.7549 17.2669 21.0513 17.5718 20.2303C17.9002 19.4094 18.0644 18.4946 18.0644 17.486C18.0644 16.4305 17.9002 15.4923 17.5718 14.6714C17.2669 13.8504 16.833 13.1585 16.2701 12.5956C15.7306 12.0092 15.0856 11.5635 14.335 11.2586C13.5844 10.9537 12.7869 10.8012 11.9425 10.8012C11.0981 10.8012 10.3006 10.9537 9.55007 11.2586C8.7995 11.5635 8.14275 12.0092 7.57981 12.5956C7.04034 13.1585 6.60641 13.8504 6.27804 14.6714C5.97312 15.4923 5.82066 16.4305 5.82066 17.486C5.82066 18.4946 5.97312 19.4094 6.27804 20.2303C6.60641 21.0513 7.04034 21.7549 7.57981 22.3413C8.14275 22.9042 8.7995 23.3382 9.55007 23.6431C10.3006 23.948 11.0981 24.1005 11.9425 24.1005Z" fill="white"/>
<path d="M46.7429 8.62529C46.9875 7.37545 48.0827 6.4737 49.3563 6.4737C50.8269 6.4737 52.0192 7.66592 52.0192 9.13659V27.6891H47.3046L46.6361 24.98C46.2139 25.5195 45.6979 26.0004 45.0881 26.4226C44.4782 26.8682 43.8098 27.2318 43.0826 27.5132C42.379 27.8181 41.6401 28.041 40.8661 28.1817C40.0921 28.3459 39.3298 28.4163 38.5792 28.3928C37.1484 28.3694 35.788 28.0762 34.498 27.5132C33.2314 26.9503 32.1055 26.188 31.1204 25.2263C30.1587 24.2647 29.3964 23.1271 28.8335 21.8136C28.2705 20.4766 27.9891 19.0341 27.9891 17.486C27.9891 15.8911 28.2823 14.4251 28.8686 13.0881C29.455 11.7277 30.2408 10.5667 31.2259 9.605C32.211 8.61987 33.3369 7.85757 34.6035 7.3181C35.8701 6.75517 37.1836 6.4737 38.544 6.4737C40.2328 6.4737 41.7691 6.75517 43.153 7.3181C44.5369 7.88103 45.6627 8.67851 46.5306 9.71055L46.7429 8.62529ZM39.6699 24.1005C40.5143 24.1005 41.3118 23.948 42.0623 23.6431C42.8129 23.3382 43.4579 22.9042 43.9974 22.3413C44.5603 21.7549 44.9943 21.0513 45.2992 20.2303C45.6276 19.4094 45.7917 18.4946 45.7917 17.486C45.7917 16.4305 45.6276 15.4923 45.2992 14.6714C44.9943 13.8504 44.5603 13.1585 43.9974 12.5956C43.4579 12.0092 42.8129 11.5635 42.0623 11.2586C41.3118 10.9537 40.5143 10.8012 39.6699 10.8012C38.8255 10.8012 38.028 10.9537 37.2774 11.2586C36.5268 11.5635 35.8701 12.0092 35.3072 12.5956C34.7677 13.1585 34.3338 13.8504 34.0054 14.6714C33.7005 15.4923 33.548 16.4305 33.548 17.486C33.548 18.4946 33.7005 19.4094 34.0054 20.2303C34.3338 21.0513 34.7677 21.7549 35.3072 22.3413C35.8701 22.9042 36.5268 23.3382 37.2774 23.6431C38.028 23.948 38.8255 24.1005 39.6699 24.1005Z" fill="white"/>
<path d="M62.2792 9.32354C62.6545 8.87788 63.1118 8.47914 63.6513 8.12731C64.2142 7.77548 64.8124 7.48228 65.4456 7.24773C66.0789 6.98972 66.7357 6.80208 67.4159 6.6848C68.0961 6.54407 68.7529 6.4737 69.3862 6.4737C70.6762 6.4737 71.8842 6.67307 73.01 7.07182C74.1359 7.47056 75.121 8.03349 75.9654 8.76061C76.8098 9.46427 77.4666 10.3321 77.9357 11.3642C78.4282 12.3727 78.6745 13.4986 78.6745 14.7417V27.6891H73.1156V16.6416C73.1156 14.5776 72.6699 13.0881 71.7786 12.1734C70.8873 11.2352 69.6676 10.766 68.1196 10.766C66.7826 10.766 65.6098 11.2234 64.6013 12.1382C63.6161 13.0295 62.9711 14.2726 62.6662 15.8676V27.6891H57.1073V9.01893C57.1073 7.61324 58.2468 6.4737 59.6525 6.4737C60.9025 6.4737 61.9675 7.3814 62.1656 8.61561L62.2792 9.32354Z" fill="white"/>
<path d="M106.409 26.8096C106.409 28.4514 106.127 29.9174 105.564 31.2075C105.025 32.521 104.263 33.6351 103.277 34.5499C102.292 35.4881 101.12 36.2152 99.7591 36.7312C98.3987 37.2472 96.9093 37.517 95.2909 37.5404C93.7897 37.5873 92.3472 37.4466 90.9633 37.1182C89.6029 36.7899 88.3832 36.2856 87.3043 35.6054C86.2253 34.9251 85.334 34.0456 84.6304 32.9666C83.9267 31.9111 83.5045 30.6445 83.3638 29.1668H88.9931C89.0869 30.5038 89.6264 31.5241 90.6115 32.2278C91.6201 32.9314 92.9101 33.2833 94.4817 33.2833C95.3964 33.2833 96.2408 33.1543 97.0148 32.8963C97.7889 32.6382 98.4573 32.2395 99.0203 31.7C99.6067 31.1606 100.052 30.4803 100.357 29.6594C100.686 28.8619 100.85 27.9002 100.85 26.7744V24.3116C99.9819 25.4609 98.8561 26.3053 97.4722 26.8447C96.0883 27.4077 94.5872 27.6891 92.9688 27.6891C91.538 27.6891 90.1776 27.4311 88.8875 26.9151C87.6209 26.3991 86.4951 25.672 85.5099 24.7338C84.5483 23.7955 83.786 22.6814 83.223 21.3914C82.6601 20.1013 82.3786 18.6823 82.3786 17.1342C82.3786 15.5392 82.6718 14.085 83.2582 12.7715C83.8446 11.458 84.6304 10.3438 85.6155 9.42909C86.6006 8.49087 87.7265 7.76375 88.9931 7.24773C90.2597 6.73171 91.5732 6.4737 92.9336 6.4737C94.6224 6.4737 96.1587 6.75517 97.5426 7.3181C98.9265 7.88103 100.052 8.67851 100.92 9.71055L101.307 7.0276C101.448 6.0433 102.292 5.31266 103.286 5.31266H104.409C105.513 5.31266 106.409 6.20809 106.409 7.31266V26.8096ZM94.0594 23.3968C94.9038 23.3968 95.7013 23.2443 96.4519 22.9394C97.2025 22.6345 97.8475 22.2123 98.387 21.6728C98.9499 21.1099 99.3838 20.4414 99.6888 19.6674C100.017 18.8934 100.181 18.049 100.181 17.1342C100.181 16.1725 100.017 15.3047 99.6888 14.5306C99.3838 13.7566 98.9499 13.0999 98.387 12.5604C97.8475 11.9975 97.2025 11.5635 96.4519 11.2586C95.7013 10.9537 94.9038 10.8012 94.0594 10.8012C93.215 10.8012 92.4176 10.9537 91.667 11.2586C90.9164 11.5635 90.2597 11.9975 89.6967 12.5604C89.1573 13.0999 88.7233 13.7566 88.395 14.5306C88.09 15.3047 87.9376 16.1725 87.9376 17.1342C87.9376 18.049 88.09 18.8934 88.395 19.6674C88.7233 20.4414 89.1573 21.1099 89.6967 21.6728C90.2597 22.2123 90.9164 22.6345 91.667 22.9394C92.4176 23.2443 93.215 23.3968 94.0594 23.3968Z" fill="white"/>
<path d="M116.807 13.3261C116.807 12.1339 117.036 10.9659 117.494 9.82204C117.953 8.67818 118.594 7.6632 119.419 6.77712C120.26 5.87492 121.268 5.15799 122.444 4.62633C123.621 4.07857 124.919 3.80469 126.34 3.80469C129.366 3.80469 131.866 5.01985 133.841 7.45017C134.294 8.00747 134.169 8.8165 133.615 9.27341C132.927 9.84116 131.895 9.61383 131.303 8.94555C130.882 8.46924 130.396 8.06058 129.847 7.71959C128.808 7.05905 127.654 6.72878 126.386 6.72878C125.515 6.72878 124.713 6.91406 123.98 7.2846C123.246 7.65515 122.612 8.14653 122.078 8.75873C121.558 9.37094 121.153 10.0798 120.863 10.8853C120.573 11.6748 120.428 12.4884 120.428 13.3261C120.428 14.1961 120.58 15.0339 120.886 15.8394C121.192 16.6288 121.627 17.3296 122.192 17.9418C122.758 18.5379 123.43 19.0213 124.209 19.3918C124.988 19.7462 125.859 19.9235 126.822 19.9235C127.417 19.9235 127.983 19.8268 128.517 19.6335C129.052 19.4401 129.549 19.1743 130.007 18.836C130.481 18.4977 130.916 18.1029 131.313 17.6518C131.322 17.6416 131.331 17.6312 131.34 17.6209C131.937 16.913 133.017 16.7291 133.711 17.3431C134.255 17.8254 134.37 18.6415 133.915 19.2086C133.084 20.2427 132.156 21.061 131.13 21.6634C129.786 22.4528 128.189 22.8476 126.34 22.8476C124.996 22.8476 123.743 22.5898 122.582 22.0742C121.421 21.5748 120.412 20.8901 119.557 20.0201C118.701 19.1501 118.029 18.1432 117.54 16.9994C117.051 15.8394 116.807 14.615 116.807 13.3261Z" fill="white"/>
<circle cx="113.236" cy="2.61449" r="2.38036" fill="white"/>
</svg>
