<svg width="360" height="242" viewBox="0 0 360 242" fill="none" xmlns="http://www.w3.org/2000/svg">
<rect width="360" height="7" fill="#F2F2F2"/>
<path d="M28.2188 35.7656H26.4688V49.9062H28.2188V35.7656ZM16.9219 41.7812C16.9141 44.8516 18.4688 46.7812 20.6094 46.7812C22.7266 46.7812 24.2891 44.8516 24.2969 41.7812C24.2891 38.7344 22.7266 36.7969 20.6094 36.7969C18.4688 36.7969 16.9141 38.7344 16.9219 41.7812ZM18.5938 41.7812C18.5938 39.625 19.4141 38.3594 20.6094 38.3594C21.7969 38.3594 22.6094 39.625 22.6094 41.7812C22.6094 43.9531 21.7969 45.2109 20.6094 45.2188C19.4141 45.2109 18.5938 43.9531 18.5938 41.7812ZM37.2188 36.7344H30.8281V38.125H35.4844V39.7656H30.8438V44.2969H32C34.7188 44.2891 36.4375 44.2422 38.3906 43.9375L38.25 42.5156C36.4922 42.8047 34.9297 42.8828 32.5938 42.8906V41.1094H37.2188V36.7344ZM32.7812 49.6094H42.5V48.2031H34.5156V45.3438H32.7812V49.6094ZM37.9844 40.7344H40.3906V46.1719H42.125V35.7812H40.3906V39.2656H37.9844V40.7344ZM55 36.7812H48.4062V43.2188H55V36.7812ZM49.1875 48.4531L49.875 49.8125C52.0625 49.4609 53.7656 48.4609 54.6328 47.0547C55.4844 48.4609 57.1875 49.4609 59.375 49.8125L60.0625 48.4531C57.2188 48.0547 55.4688 46.5391 55.4844 44.8281V44.4375H53.75V44.8281C53.75 46.5391 52.0156 48.0547 49.1875 48.4531ZM50.1094 41.8281V38.1719H53.2812V41.8281H50.1094ZM57.3281 45.1094H59.0625V40.8594H61.0312V39.4062H59.0625V35.7656H57.3281V45.1094ZM74.6406 41.4219H61.75V42.7969H74.6406V41.4219ZM63.2656 45.0781H71.3125V46.0625H63.2812V49.75H73.4062V48.3906H64.9844V47.3125H73.0156V43.7656H63.2656V45.0781ZM63.3906 40.5156H73.1094V39.1406H65.125V37.5156H72.9844V36.125H63.3906V40.5156ZM87.3281 35.7656H85.5781V49.9062H87.3281V35.7656ZM76.0312 41.7812C76.0234 44.8516 77.5781 46.7812 79.7188 46.7812C81.8359 46.7812 83.3984 44.8516 83.4062 41.7812C83.3984 38.7344 81.8359 36.7969 79.7188 36.7969C77.5781 36.7969 76.0234 38.7344 76.0312 41.7812ZM77.7031 41.7812C77.7031 39.625 78.5234 38.3594 79.7188 38.3594C80.9062 38.3594 81.7188 39.625 81.7188 41.7812C81.7188 43.9531 80.9062 45.2109 79.7188 45.2188C78.5234 45.2109 77.7031 43.9531 77.7031 41.7812ZM98.2188 44.9531V44.375H96.5312V44.9531C96.5234 46.3281 95.6406 47.7656 93.8125 48.4062L94.6719 49.6719C95.9766 49.2031 96.875 48.3203 97.3828 47.2344C97.8281 48.3516 98.6719 49.3047 100.016 49.7969C101.297 49.2812 102.125 48.2969 102.586 47.1797C103.078 48.3125 103.984 49.2109 105.359 49.6719L106.203 48.4062C104.352 47.8203 103.477 46.4297 103.484 44.9531V44.375H101.781V44.9531C101.773 46.0234 101.203 47.3047 99.9688 48.1406C98.7578 47.3594 98.2188 46.1328 98.2188 44.9531ZM93.4531 39.8906C93.4531 41.8516 95.0781 43.2422 97.2656 43.2344C99.4453 43.2422 101.07 41.8516 101.062 39.8906C101.07 37.9062 99.4453 36.5312 97.2656 36.5312C95.0781 36.5312 93.4531 37.9062 93.4531 39.8906ZM95.1562 39.8906C95.1484 38.7344 96.0312 37.9922 97.2656 38C98.4766 37.9922 99.3594 38.7344 99.3594 39.8906C99.3594 41.0469 98.4766 41.7891 97.2656 41.7969C96.0312 41.7891 95.1484 41.0469 95.1562 39.8906ZM103.219 43.7812H104.969V35.7812H103.219V43.7812ZM110.891 36.7969C108.766 36.7969 107.258 38.7344 107.266 41.7812C107.258 44.8516 108.766 46.7812 110.891 46.7812C112.852 46.7812 114.289 45.1016 114.477 42.375H117.156V49.9062H118.875V35.7656H117.156V40.9688H114.461C114.211 38.3906 112.797 36.7969 110.891 36.7969ZM108.938 41.7812C108.93 39.625 109.727 38.3594 110.891 38.3594C112.062 38.3594 112.852 39.625 112.859 41.7812C112.852 43.9531 112.062 45.2109 110.891 45.2188C109.727 45.2109 108.93 43.9531 108.938 41.7812ZM133.766 46.75H130.797V43.1406C131.891 42.4922 132.555 41.5 132.547 40.2656C132.555 38.0156 130.336 36.5312 127.281 36.5312C124.242 36.5312 122.039 38.0156 122.047 40.2656C122.039 41.5156 122.719 42.5312 123.844 43.1797V46.75H120.859V48.1719H133.766V46.75ZM123.75 40.2656C123.742 38.7969 125.172 37.8984 127.281 37.9062C129.383 37.8984 130.844 38.7969 130.844 40.2656C130.844 41.7109 129.383 42.6328 127.281 42.625C125.172 42.6328 123.742 41.7109 123.75 40.2656ZM125.562 46.75V43.8125C126.094 43.9219 126.672 43.9844 127.281 43.9844C127.906 43.9844 128.492 43.9219 129.031 43.8047V46.75H125.562ZM137.594 37.1875H135.469L135.656 45.1719H137.422L137.594 37.1875ZM135.328 47.4062C135.32 48.0781 135.875 48.625 136.547 48.625C137.195 48.625 137.75 48.0781 137.75 47.4062C137.75 46.75 137.195 46.2109 136.547 46.2031C135.875 46.2109 135.32 46.75 135.328 47.4062Z" fill="#202020"/>
<g clip-path="url(#clip0_123_16501)">
<path d="M154.999 53.4983C162 53.4983 165.498 48.7977 165.498 42.9992C165.498 37.2006 162 32.5 154.999 32.5C147.998 32.5 144.5 37.2006 144.5 42.9992C144.5 48.7977 147.998 53.4983 154.999 53.4983Z" fill="url(#paint0_radial_123_16501)"/>
<path d="M154.999 53.4983C162 53.4983 165.498 48.7977 165.498 42.9992C165.498 37.2006 162 32.5 154.999 32.5C147.998 32.5 144.5 37.2006 144.5 42.9992C144.5 48.7977 147.998 53.4983 154.999 53.4983Z" fill="url(#paint1_radial_123_16501)"/>
<path d="M154.999 53.4983C162 53.4983 165.498 48.7977 165.498 42.9992C165.498 37.2006 162 32.5 154.999 32.5C147.998 32.5 144.5 37.2006 144.5 42.9992C144.5 48.7977 147.998 53.4983 154.999 53.4983Z" fill="url(#paint2_radial_123_16501)" fill-opacity="0.6"/>
<path d="M154.999 53.4983C162 53.4983 165.498 48.7977 165.498 42.9992C165.498 37.2006 162 32.5 154.999 32.5C147.998 32.5 144.5 37.2006 144.5 42.9992C144.5 48.7977 147.998 53.4983 154.999 53.4983Z" fill="url(#paint3_radial_123_16501)"/>
<path d="M154.999 53.4983C162 53.4983 165.498 48.7977 165.498 42.9992C165.498 37.2006 162 32.5 154.999 32.5C147.998 32.5 144.5 37.2006 144.5 42.9992C144.5 48.7977 147.998 53.4983 154.999 53.4983Z" fill="url(#paint4_radial_123_16501)"/>
<path d="M154.999 53.4983C162 53.4983 165.498 48.7977 165.498 42.9992C165.498 37.2006 162 32.5 154.999 32.5C147.998 32.5 144.5 37.2006 144.5 42.9992C144.5 48.7977 147.998 53.4983 154.999 53.4983Z" fill="url(#paint5_radial_123_16501)"/>
<path d="M154.999 53.4983C162 53.4983 165.498 48.7977 165.498 42.9992C165.498 37.2006 162 32.5 154.999 32.5C147.998 32.5 144.5 37.2006 144.5 42.9992C144.5 48.7977 147.998 53.4983 154.999 53.4983Z" fill="url(#paint6_radial_123_16501)"/>
<g opacity="0.5" filter="url(#filter0_f_123_16501)">
<path d="M148.625 39.625C148.625 39.625 148.812 38.125 150.5 38.125C152.188 38.125 152.375 39.625 152.375 39.625" stroke="#9A4609" stroke-width="1.6" stroke-linecap="round"/>
</g>
<g opacity="0.5" filter="url(#filter1_f_123_16501)">
<path d="M156.875 39.625C156.875 39.625 157.25 38.125 158.75 38.125C160.25 38.125 160.625 39.625 160.625 39.625" stroke="#9A4609" stroke-width="1.6" stroke-linecap="round"/>
</g>
<path d="M149 39.25C149 39.25 149.188 37.75 150.875 37.75C152.562 37.75 152.75 39.25 152.75 39.25" stroke="#43273B" stroke-width="1.6" stroke-linecap="round" stroke-linejoin="round"/>
<g opacity="0.26" filter="url(#filter2_f_123_16501)">
<path d="M149.188 39.0625C149.188 39.0625 149.375 37.5625 151.062 37.5625C152.75 37.5625 152.938 39.0625 152.938 39.0625" stroke="white" stroke-width="1.6" stroke-linecap="round" stroke-linejoin="round"/>
</g>
<path d="M157.25 39.25C157.25 39.25 157.625 37.75 159.125 37.75C160.625 37.75 161 39.25 161 39.25" stroke="#43273B" stroke-width="1.6" stroke-linecap="round" stroke-linejoin="round"/>
<g opacity="0.26" filter="url(#filter3_f_123_16501)">
<path d="M157.438 39.0625C157.438 39.0625 157.625 37.5625 159.312 37.5625C161 37.5625 161.188 39.0625 161.188 39.0625" stroke="white" stroke-width="1.6" stroke-linecap="round" stroke-linejoin="round"/>
</g>
<path d="M151.715 44.875H156.575L160.625 47.125L157.79 53.125L150.5 50.5L151.715 44.875Z" fill="url(#paint7_radial_123_16501)"/>
<path d="M156.776 47.7762L154.625 45.625L160.625 43L161.341 44.719C161.967 46.2209 161.185 47.9382 159.642 48.4527C158.636 48.7881 157.526 48.5262 156.776 47.7762Z" fill="url(#paint8_linear_123_16501)"/>
<path d="M149.75 43C150.125 43.5 151.625 44.875 155 44.875C158.375 44.875 159.875 43.5 160.25 43" stroke="url(#paint9_radial_123_16501)" stroke-width="1.6" stroke-linecap="round"/>
<path fill-rule="evenodd" clip-rule="evenodd" d="M156.632 47.6316L156.776 47.7762C157.526 48.5262 158.636 48.7881 159.642 48.4527C161.185 47.9382 161.967 46.2209 161.341 44.719L161.141 44.2381C160.669 43.9295 160.106 43.75 159.5 43.75C159.182 43.75 158.876 43.7994 158.588 43.891L158.021 44.139C157.113 44.6546 156.5 45.6307 156.5 46.75C156.5 47.0568 156.546 47.3529 156.632 47.6316Z" fill="url(#paint10_radial_123_16501)"/>
</g>
<path d="M20.7715 70.1543V68.6641H19.4863V70.1133C19.4795 71.959 18.3447 73.6611 16.4375 74.3379L17.1348 75.3633C18.5771 74.8096 19.623 73.6953 20.1494 72.2871C20.6758 73.5518 21.6807 74.5635 23.0137 75.0762L23.7246 74.0645C21.8789 73.415 20.7783 71.8154 20.7715 70.1543ZM18.666 79.9023H26.9375V78.8496H19.9785V76.0332H18.666V79.9023ZM22.7812 71.7812H25.3652V77.0586H26.6641V67.9258H25.3652V70.7148H22.7812V71.7812ZM33.8418 68.7871H29.0566V74.7617H29.8496C31.7979 74.7686 32.9668 74.7139 34.4023 74.4473L34.2793 73.3809C33.0146 73.6201 31.9414 73.6816 30.3008 73.6953V72.2051H33.7051V71.207H30.3008V69.8398H33.8418V68.7871ZM30.6699 77.0039H37.7109V80.1621H38.9961V75.9512H30.6699V77.0039ZM35.0449 75.2676H36.2617V72.0957H37.7656V75.3633H38.9961V67.9258H37.7656V71.043H36.2617V68.1445H35.0449V75.2676ZM45.1621 71.5215V70.2227H47.9512V69.1426H41.0469V70.2227H43.8496V71.5215C43.8359 73.6338 42.4688 75.9307 40.623 76.7988L41.375 77.8242C42.8037 77.127 43.9521 75.6367 44.5195 73.8867C45.0869 75.5205 46.2354 76.874 47.6777 77.5098L48.3887 76.498C46.502 75.6914 45.1553 73.5723 45.1621 71.5215ZM49.4961 80.1621H50.7949V67.9121H49.4961V80.1621ZM66.3125 67.9121H65.0137V80.1895H66.3125V67.9121ZM56.5918 73.1211C56.5918 75.7666 57.9111 77.4346 59.7637 77.4277C61.582 77.4346 62.9219 75.7666 62.9219 73.1211C62.9219 70.5029 61.582 68.835 59.7637 68.8281C57.9111 68.835 56.5918 70.5029 56.5918 73.1211ZM57.8496 73.1211C57.8428 71.2002 58.6221 69.9971 59.7637 69.9902C60.8848 69.9971 61.6641 71.2002 61.6641 73.1211C61.6641 75.0693 60.8848 76.2656 59.7637 76.2656C58.6221 76.2656 57.8428 75.0693 57.8496 73.1211ZM72.2598 68.6914C70.332 68.6914 68.917 69.8809 68.9238 71.6035C68.917 73.1211 70.0176 74.2285 71.6035 74.4678V76.457C70.4209 76.4912 69.2998 76.498 68.3359 76.498L68.5 77.5645C70.6875 77.5576 73.6611 77.5439 76.4297 77.0312L76.334 76.0879C75.2334 76.2451 74.0576 76.3477 72.9023 76.4023V74.4678C74.4951 74.2354 75.5889 73.1279 75.5957 71.6035C75.5889 69.8809 74.1943 68.6914 72.2598 68.6914ZM70.209 71.6035C70.1953 70.5098 71.0703 69.8125 72.2598 69.8125C73.4492 69.8125 74.3242 70.5098 74.3242 71.6035C74.3242 72.6768 73.4492 73.4082 72.2598 73.3945C71.0703 73.4082 70.1953 72.6768 70.209 71.6035ZM77.0996 80.1895H78.3984V67.9121H77.0996V80.1895ZM84.3594 68.7871C82.4316 68.7803 81.0166 69.9766 81.0234 71.6992C81.0166 73.4219 82.4316 74.6182 84.3594 74.625C86.2939 74.6182 87.6885 73.4219 87.6953 71.6992C87.6885 69.9766 86.2939 68.7803 84.3594 68.7871ZM80.4355 76.4707L80.5996 77.5508C82.7871 77.5508 85.7607 77.5371 88.5293 77.0039L88.4336 76.0605C85.7539 76.4502 82.6641 76.4707 80.4355 76.4707ZM82.3086 71.6992C82.2949 70.626 83.1699 69.9082 84.3594 69.9082C85.5488 69.9082 86.4238 70.626 86.4238 71.6992C86.4238 72.7861 85.5488 73.4902 84.3594 73.4902C83.1699 73.4902 82.2949 72.7861 82.3086 71.6992ZM89.1992 80.1895H90.498V67.9121H89.1992V80.1895ZM101.996 68.8145H96.3633V74.3242H101.996V68.8145ZM97.0332 79.082L97.5391 80.1074C99.4053 79.7861 100.978 78.8838 101.729 77.5713C102.468 78.8838 104.04 79.7861 105.906 80.1074L106.426 79.082C104.108 78.7266 102.352 77.4277 102.365 75.8008V75.4453H101.08V75.8008C101.073 77.4277 99.3301 78.7266 97.0332 79.082ZM97.6348 73.2852V69.8672H100.711V73.2852H97.6348ZM104.211 76.0332H105.51V72.2598H107.287V71.166H105.51V67.9121H104.211V76.0332ZM121.615 67.9258H120.316V70.0996H117.637V68.7324H116.352V70.8105H113.289V68.7324H111.99V74.9395H117.637V73.791H120.316V76.9766H121.615V67.9258ZM113.289 73.8867V71.8086H116.352V73.8867H113.289ZM113.617 79.9023H121.889V78.8496H114.93V76.0879H113.617V79.9023ZM117.637 72.7383V71.166H120.316V72.7383H117.637ZM133.715 67.9258H132.416V70.0996H129.757C129.839 69.6895 129.887 69.252 129.887 68.8008H124.281V69.8672H128.479C128.246 71.8428 126.551 73.4014 123.652 74.2285L124.172 75.2402C126.824 74.4814 128.663 73.0938 129.456 71.125H132.416V72.6152H129.326V73.6816H132.416V75.1719H133.715V67.9258ZM125.553 77.7012C125.553 79.1914 127.166 80.1074 129.682 80.1074C132.163 80.1074 133.79 79.1914 133.797 77.7012C133.79 76.2178 132.163 75.3154 129.682 75.3086C127.166 75.3154 125.553 76.2178 125.553 77.7012ZM126.838 77.7012C126.838 76.8262 127.932 76.3271 129.682 76.334C131.397 76.3271 132.491 76.8262 132.498 77.7012C132.491 78.5625 131.397 79.0615 129.682 79.0684C127.932 79.0615 126.838 78.5625 126.838 77.7012ZM146.771 74.3105H135.602V75.3496H146.771V74.3105ZM136.805 70.7695C136.798 72.3145 138.514 73.251 141.18 73.2578C143.832 73.251 145.548 72.3145 145.555 70.7695C145.548 69.2314 143.832 68.3154 141.18 68.3223C138.514 68.3154 136.798 69.2314 136.805 70.7695ZM137.01 79.9023H145.514V78.8496H138.322V76.3477H137.01V79.9023ZM138.145 70.7695C138.138 69.8945 139.3 69.3613 141.18 69.3613C143.053 69.3613 144.222 69.8945 144.215 70.7695C144.222 71.6787 143.053 72.1914 141.18 72.1914C139.3 72.1914 138.138 71.6787 138.145 70.7695ZM153.867 68.1035H152.582V72.1641H160.84V68.1035H159.541V69.1699H153.867V68.1035ZM151.119 74.1055H156.041V75.1582H152.459V76.1289H159.596V77.0859H152.473V80.0391H161.223V79.041H153.744V78.0156H160.881V75.1582H157.34V74.1055H162.289V73.0527H151.119V74.1055ZM153.867 71.1797V70.127H159.541V71.1797H153.867ZM172.762 67.9121H171.463V80.1484H172.762V73.873H174.662V72.793H172.762V67.9121ZM163.232 76.8809L163.957 77.8926C167.99 75.9033 169.549 72.7383 169.562 69.1973H163.848V70.2773H168.236C167.97 73.1348 166.302 75.3496 163.232 76.8809ZM185.217 71.2207H178.094V68.1309H176.809V72.2734H185.217V71.2207ZM175.318 74.6387H186.502V73.5723H175.318V74.6387ZM176.645 77.8652C176.645 79.3008 178.237 80.1074 180.896 80.1074C183.535 80.1074 185.114 79.3008 185.121 77.8652C185.114 76.4365 183.535 75.6299 180.896 75.6367C178.237 75.6299 176.645 76.4365 176.645 77.8652ZM177.957 77.8652C177.95 77.0723 179.023 76.6553 180.896 76.6484C182.742 76.6553 183.822 77.0723 183.822 77.8652C183.822 78.6514 182.742 79.1025 180.896 79.1094C179.023 79.1025 177.95 78.6514 177.957 77.8652ZM193.475 69.9355H191.082V68.2676H189.797V69.9355H187.391V70.9883H193.475V69.9355ZM187.787 74.543C187.78 76.2178 188.901 77.3936 190.439 77.3867C191.991 77.3936 193.099 76.2178 193.105 74.543C193.099 72.8955 191.991 71.7266 190.439 71.7266C188.901 71.7266 187.78 72.8955 187.787 74.543ZM188.936 74.543C188.929 73.5244 189.558 72.8135 190.439 72.8066C191.321 72.8135 191.957 73.5244 191.957 74.543C191.957 75.582 191.321 76.2793 190.439 76.2793C189.558 76.2793 188.929 75.582 188.936 74.543ZM194.035 79.5879H195.266V74.0781H196.674V80.1621H197.904V67.9121H196.674V73.0117H195.266V68.1855H194.035V79.5879ZM210.729 77.5508H208.049V74.3242C209.033 73.7705 209.621 72.9023 209.621 71.8223C209.621 69.8945 207.728 68.6299 205.096 68.623C202.471 68.6299 200.577 69.8945 200.584 71.8223C200.577 72.9229 201.192 73.7979 202.197 74.3516V77.5508H199.518V78.6309H210.729V77.5508ZM201.842 71.8223C201.842 70.5029 203.175 69.6621 205.096 69.6621C207.003 69.6621 208.356 70.5029 208.363 71.8223C208.356 73.1348 207.003 73.9893 205.096 73.9961C203.175 73.9893 201.842 73.1348 201.842 71.8223ZM203.482 77.5508V74.8301C203.975 74.9463 204.521 75.0078 205.096 75.0078C205.684 75.0078 206.237 74.9463 206.736 74.8301V77.5508H203.482ZM216.43 79.0957C216.956 79.0889 217.394 78.6582 217.4 78.125C217.394 77.5918 216.956 77.1543 216.43 77.1543C215.896 77.1543 215.452 77.5918 215.459 78.125C215.452 78.6582 215.896 79.0889 216.43 79.0957ZM215.473 72.7246C215.466 73.2578 215.91 73.6885 216.443 73.6953C216.97 73.6885 217.407 73.2578 217.414 72.7246C217.407 72.1914 216.97 71.7539 216.443 71.7539C215.91 71.7539 215.466 72.1914 215.473 72.7246ZM221.967 74.8984C221.967 72.4717 221.317 70.4551 220.094 68.7324H218.754C219.704 70.0107 220.456 72.6016 220.463 74.8984C220.456 77.1953 219.704 79.793 218.754 81.0645H220.094C221.317 79.3418 221.967 77.3252 221.967 74.8984Z" fill="#525252"/>
<path d="M16 92H344" stroke="#EEEEEE" stroke-width="0.6"/>
<rect x="16" y="119.5" width="22" height="22" rx="11" fill="#0E1B47"/>
<path d="M28.1348 126.102H26.6582L24.1973 127.715V129.15L26.5625 127.605H26.6172V136H28.1348V126.102Z" fill="white"/>
<path d="M59.9941 114.912H58.6953V127.162H59.9941V120.75H61.9629V119.656H59.9941V114.912ZM50.916 124.25H56.7266V115.938H55.4414V119.082H52.2012V115.938H50.916V124.25ZM52.2012 123.184V120.107H55.4414V123.184H52.2012ZM64.5879 115.5H63.3027V120.504H64.3145C66.4746 120.497 68.2998 120.367 70.3301 119.957L70.166 118.904C68.293 119.287 66.5635 119.431 64.5879 119.451V115.5ZM64.6562 122.637H71.4102V123.758H64.6973V127.012H73.1191V125.973H65.9824V124.715H72.709V121.611H64.6562V122.637ZM71.4102 121.023H72.709V114.912H71.4102V121.023ZM84.1934 114.912H82.9082V127.189H84.1934V120.791H86.1621V119.697H84.1934V114.912ZM75.1289 117.072H79.4492V119.465H75.1562V124.264H76.1543C78.4512 124.25 80.1055 124.168 82.0195 123.812L81.8965 122.76C80.1055 123.088 78.54 123.163 76.4414 123.17V120.518H80.7344V116.02H75.1289V117.072ZM91.248 118.029V115.938H89.9355V118.029C89.9355 120.367 88.582 122.712 86.6543 123.566L87.4473 124.66C88.917 123.942 90.0449 122.466 90.6123 120.668C91.1865 122.343 92.3008 123.717 93.709 124.387L94.4883 123.361C92.5879 122.521 91.2344 120.265 91.248 118.029ZM95.5957 127.189H96.8945V114.912H95.5957V127.189ZM108.789 121.434H101.57V119.656H108.406V118.631H101.57V116.977H108.666V115.924H100.258V122.473H108.789V121.434ZM98.8496 125.617H110.061V124.551H98.8496V125.617ZM118.578 115.637H117.279L114.094 127.49H115.393L118.578 115.637ZM128.887 115.76V115.227H127.561V115.76C127.554 117.339 125.605 118.781 123.281 119.137L123.773 120.162C125.729 119.841 127.451 118.829 128.23 117.435C129.017 118.809 130.726 119.813 132.674 120.135L133.18 119.109C130.855 118.774 128.894 117.291 128.887 115.76ZM122.625 122.131H127.684V124.496H128.969V122.131H133.836V121.078H122.625V122.131ZM124.02 126.902H132.592V125.85H125.318V123.348H124.02V126.902ZM145.936 121.871H134.725V122.951H139.66V127.162H140.932V122.951H145.936V121.871ZM135.941 118.098C135.948 119.745 137.712 120.791 140.303 120.791C142.894 120.791 144.671 119.745 144.664 118.098C144.671 116.43 142.894 115.377 140.303 115.377C137.712 115.377 135.948 116.43 135.941 118.098ZM137.281 118.098C137.274 117.065 138.484 116.423 140.303 116.416C142.128 116.423 143.331 117.065 143.338 118.098C143.331 119.116 142.128 119.752 140.303 119.752C138.484 119.752 137.274 119.116 137.281 118.098ZM158.035 121.83H146.824V122.896H149.613V127.162H150.953V122.896H153.879V127.162H155.191V122.896H158.035V121.83ZM148.041 118.084C148.048 119.718 149.812 120.75 152.402 120.736C154.993 120.75 156.771 119.718 156.764 118.084C156.771 116.43 154.993 115.377 152.402 115.377C149.812 115.377 148.048 116.43 148.041 118.084ZM149.381 118.084C149.374 117.052 150.584 116.423 152.402 116.416C154.228 116.423 155.431 117.052 155.438 118.084C155.431 119.089 154.228 119.711 152.402 119.711C150.584 119.711 149.374 119.089 149.381 118.084ZM166.102 117.264V115.678H164.844V117.264C164.844 118.624 163.955 120.183 162.301 120.9L163.012 121.912C164.201 121.399 165.035 120.415 165.486 119.28C165.924 120.285 166.724 121.119 167.865 121.557L168.549 120.559C166.956 119.957 166.102 118.604 166.102 117.264ZM164.557 124.92C164.543 126.314 166.136 127.142 168.699 127.135C171.256 127.142 172.862 126.314 172.869 124.92C172.862 123.525 171.256 122.698 168.699 122.691C166.136 122.698 164.543 123.525 164.557 124.92ZM165.842 124.92C165.828 124.134 166.915 123.683 168.699 123.689C170.477 123.683 171.563 124.134 171.57 124.92C171.563 125.699 170.477 126.15 168.699 126.137C166.915 126.15 165.828 125.699 165.842 124.92ZM168.932 122.076H170.135V119.178H171.57V122.459H172.801V114.926H171.57V118.111H170.135V115.145H168.932V122.076ZM184.312 116.102H175.781V117.168H183.055V117.592C183.048 118.221 183.048 118.85 183.021 119.506L175.439 119.793L175.604 120.859L182.959 120.47C182.891 121.379 182.754 122.356 182.494 123.484L183.779 123.607C184.312 121.064 184.312 119.383 184.312 117.592V116.102ZM174.455 125.521H185.625V124.455H174.455V125.521ZM196.713 114.926H195.414V122.186H196.713V114.926ZM187.17 116.689H191.518V118.084H187.197V121.639H188.223C190.54 121.646 192.208 121.577 194.211 121.27L194.047 120.203C192.181 120.511 190.615 120.572 188.469 120.572V119.096H192.803V115.65H187.17V116.689ZM188.66 127.012H196.713V122.801H188.66V127.012ZM189.945 125.959V123.84H195.441V125.959H189.945Z" fill="#0E1B47"/>
<path d="M56.043 136.605H50.9395V141.62H56.043V136.605ZM51.5488 146.19L51.9424 146.978C53.6182 146.667 55.1733 145.81 55.8652 144.508C56.5381 145.81 58.0869 146.667 59.7627 146.978L60.1689 146.19C58.1694 145.854 56.3413 144.673 56.3477 143.042V142.699H55.3574V143.042C55.3574 144.673 53.5356 145.854 51.5488 146.19ZM51.917 140.808V137.431H55.0527V140.808H51.917ZM58.29 143.258H59.2803V139.678H60.9814V138.84H59.2803V135.742H58.29V143.258ZM71.0488 135.742H70.0459V137.824H67.5322V138.649H70.0459V141.582H71.0488V135.742ZM61.6797 140.808L62.2256 141.607C63.5586 141.125 64.5806 140.141 65.063 138.853C65.5645 139.995 66.561 140.884 67.8115 141.328L68.3447 140.554C66.6943 140.014 65.5264 138.656 65.5391 137.177V136.11H64.5615V137.177C64.5488 138.827 63.3809 140.243 61.6797 140.808ZM63.7363 142.953H70.0586V144.083H63.7617V146.876H71.4678V146.076H64.7393V144.845H71.0488V142.153H63.7363V142.953ZM82.2842 135.742H81.2812V137.583H78.6406V136.605H73.4609V141.62H78.6406V140.655H81.2812V142.433H82.2842V135.742ZM74.4512 140.808V137.418H77.6631V140.808H74.4512ZM74.7559 144.896C74.7495 146.241 76.1904 147.003 78.5391 147.003C80.8813 147.003 82.3223 146.241 82.3223 144.896C82.3223 143.537 80.8813 142.756 78.5391 142.763C76.1904 142.756 74.7495 143.537 74.7559 144.896ZM75.7461 144.896C75.7397 144.045 76.8062 143.55 78.5391 143.537C80.2656 143.55 81.332 144.045 81.332 144.896C81.332 145.714 80.2656 146.216 78.5391 146.216C76.8062 146.216 75.7397 145.714 75.7461 144.896ZM78.6406 139.817V138.408H81.2812V139.817H78.6406ZM91.082 136.809H89.9268L87.6416 138.332V139.487L89.876 138.002H89.9268V146H91.082V136.809ZM103.409 140.465H93.126V141.277H97.7725V142.42H94.3701V143.182H101.111V144.248H94.3955V146.901H102.432V146.114H95.3857V144.984H102.089V142.42H98.75V141.277H103.409V140.465ZM93.6846 139.145L94.0146 139.906C95.8618 139.716 97.5947 138.999 98.2676 137.856C98.9468 138.999 100.686 139.716 102.533 139.906L102.863 139.145C100.876 138.967 98.9912 138.104 98.8452 136.936H102.495V136.148H94.0654V136.936H97.6963C97.5376 138.11 95.6587 138.967 93.6846 139.145ZM113.21 136.605H108.106V141.62H113.21V136.605ZM108.716 146.19L109.109 146.978C110.785 146.667 112.34 145.81 113.032 144.508C113.705 145.81 115.254 146.667 116.93 146.978L117.336 146.19C115.336 145.854 113.508 144.673 113.515 143.042V142.699H112.524V143.042C112.524 144.673 110.703 145.854 108.716 146.19ZM109.084 140.808V137.431H112.22V140.808H109.084ZM115.457 143.258H116.447V139.678H118.148V138.84H116.447V135.742H115.457V143.258ZM128.216 135.742H127.213V137.824H124.699V138.649H127.213V141.582H128.216V135.742ZM118.847 140.808L119.393 141.607C120.726 141.125 121.748 140.141 122.23 138.853C122.731 139.995 123.728 140.884 124.979 141.328L125.512 140.554C123.861 140.014 122.693 138.656 122.706 137.177V136.11H121.729V137.177C121.716 138.827 120.548 140.243 118.847 140.808ZM120.903 142.953H127.226V144.083H120.929V146.876H128.635V146.076H121.906V144.845H128.216V142.153H120.903V142.953ZM139.451 135.742H138.448V137.583H135.808V136.605H130.628V141.62H135.808V140.655H138.448V142.433H139.451V135.742ZM131.618 140.808V137.418H134.83V140.808H131.618ZM131.923 144.896C131.917 146.241 133.357 147.003 135.706 147.003C138.048 147.003 139.489 146.241 139.489 144.896C139.489 143.537 138.048 142.756 135.706 142.763C133.357 142.756 131.917 143.537 131.923 144.896ZM132.913 144.896C132.907 144.045 133.973 143.55 135.706 143.537C137.433 143.55 138.499 144.045 138.499 144.896C138.499 145.714 137.433 146.216 135.706 146.216C133.973 146.216 132.907 145.714 132.913 144.896ZM135.808 139.817V138.408H138.448V139.817H135.808ZM148.249 136.809H147.094L144.809 138.332V139.487L147.043 138.002H147.094V146H148.249V136.809ZM160.576 140.465H150.293V141.277H154.939V142.42H151.537V143.182H158.278V144.248H151.562V146.901H159.599V146.114H152.553V144.984H159.256V142.42H155.917V141.277H160.576V140.465ZM150.852 139.145L151.182 139.906C153.029 139.716 154.762 138.999 155.435 137.856C156.114 138.999 157.853 139.716 159.7 139.906L160.03 139.145C158.043 138.967 156.158 138.104 156.012 136.936H159.662V136.148H151.232V136.936H154.863C154.705 138.11 152.826 138.967 150.852 139.145ZM170.377 136.605H165.273V141.62H170.377V136.605ZM165.883 146.19L166.276 146.978C167.952 146.667 169.507 145.81 170.199 144.508C170.872 145.81 172.421 146.667 174.097 146.978L174.503 146.19C172.503 145.854 170.675 144.673 170.682 143.042V142.699H169.691V143.042C169.691 144.673 167.87 145.854 165.883 146.19ZM166.251 140.808V137.431H169.387V140.808H166.251ZM172.624 143.258H173.614V139.678H175.315V138.84H173.614V135.742H172.624V143.258ZM185.383 135.742H184.38V137.824H181.866V138.649H184.38V141.582H185.383V135.742ZM176.014 140.808L176.56 141.607C177.893 141.125 178.915 140.141 179.397 138.853C179.898 139.995 180.895 140.884 182.146 141.328L182.679 140.554C181.028 140.014 179.86 138.656 179.873 137.177V136.11H178.896V137.177C178.883 138.827 177.715 140.243 176.014 140.808ZM178.07 142.953H184.393V144.083H178.096V146.876H185.802V146.076H179.073V144.845H185.383V142.153H178.07V142.953ZM196.618 135.742H195.615V137.583H192.975V136.605H187.795V141.62H192.975V140.655H195.615V142.433H196.618V135.742ZM188.785 140.808V137.418H191.997V140.808H188.785ZM189.09 144.896C189.083 146.241 190.524 147.003 192.873 147.003C195.215 147.003 196.656 146.241 196.656 144.896C196.656 143.537 195.215 142.756 192.873 142.763C190.524 142.756 189.083 143.537 189.09 144.896ZM190.08 144.896C190.074 144.045 191.14 143.55 192.873 143.537C194.6 143.55 195.666 144.045 195.666 144.896C195.666 145.714 194.6 146.216 192.873 146.216C191.14 146.216 190.074 145.714 190.08 144.896ZM192.975 139.817V138.408H195.615V139.817H192.975ZM205.416 136.809H204.261L201.976 138.332V139.487L204.21 138.002H204.261V146H205.416V136.809ZM217.743 140.465H207.46V141.277H212.106V142.42H208.704V143.182H215.445V144.248H208.729V146.901H216.766V146.114H209.72V144.984H216.423V142.42H213.084V141.277H217.743V140.465ZM208.019 139.145L208.349 139.906C210.196 139.716 211.929 138.999 212.602 137.856C213.281 138.999 215.02 139.716 216.867 139.906L217.197 139.145C215.21 138.967 213.325 138.104 213.179 136.936H216.829V136.148H208.399V136.936H212.03C211.872 138.11 209.993 138.967 208.019 139.145ZM227.544 136.605H222.44V141.62H227.544V136.605ZM223.05 146.19L223.443 146.978C225.119 146.667 226.674 145.81 227.366 144.508C228.039 145.81 229.588 146.667 231.264 146.978L231.67 146.19C229.67 145.854 227.842 144.673 227.849 143.042V142.699H226.858V143.042C226.858 144.673 225.037 145.854 223.05 146.19ZM223.418 140.808V137.431H226.554V140.808H223.418ZM229.791 143.258H230.781V139.678H232.482V138.84H230.781V135.742H229.791V143.258ZM242.55 135.742H241.547V137.824H239.033V138.649H241.547V141.582H242.55V135.742ZM233.181 140.808L233.727 141.607C235.06 141.125 236.082 140.141 236.564 138.853C237.065 139.995 238.062 140.884 239.312 141.328L239.846 140.554C238.195 140.014 237.027 138.656 237.04 137.177V136.11H236.062V137.177C236.05 138.827 234.882 140.243 233.181 140.808ZM235.237 142.953H241.56V144.083H235.263V146.876H242.969V146.076H236.24V144.845H242.55V142.153H235.237V142.953ZM253.785 135.742H252.782V137.583H250.142V136.605H244.962V141.62H250.142V140.655H252.782V142.433H253.785V135.742ZM245.952 140.808V137.418H249.164V140.808H245.952ZM246.257 144.896C246.25 146.241 247.691 147.003 250.04 147.003C252.382 147.003 253.823 146.241 253.823 144.896C253.823 143.537 252.382 142.756 250.04 142.763C247.691 142.756 246.25 143.537 246.257 144.896ZM247.247 144.896C247.241 144.045 248.307 143.55 250.04 143.537C251.767 143.55 252.833 144.045 252.833 144.896C252.833 145.714 251.767 146.216 250.04 146.216C248.307 146.216 247.241 145.714 247.247 144.896ZM250.142 139.817V138.408H252.782V139.817H250.142ZM262.583 136.809H261.428L259.143 138.332V139.487L261.377 138.002H261.428V146H262.583V136.809ZM274.91 140.465H264.627V141.277H269.273V142.42H265.871V143.182H272.612V144.248H265.896V146.901H273.933V146.114H266.887V144.984H273.59V142.42H270.251V141.277H274.91V140.465ZM265.186 139.145L265.516 139.906C267.363 139.716 269.096 138.999 269.769 137.856C270.448 138.999 272.187 139.716 274.034 139.906L274.364 139.145C272.377 138.967 270.492 138.104 270.346 136.936H273.996V136.148H265.566V136.936H269.197C269.039 138.11 267.16 138.967 265.186 139.145ZM284.711 136.605H279.607V141.62H284.711V136.605ZM280.217 146.19L280.61 146.978C282.286 146.667 283.841 145.81 284.533 144.508C285.206 145.81 286.755 146.667 288.431 146.978L288.837 146.19C286.837 145.854 285.009 144.673 285.016 143.042V142.699H284.025V143.042C284.025 144.673 282.204 145.854 280.217 146.19ZM280.585 140.808V137.431H283.721V140.808H280.585ZM286.958 143.258H287.948V139.678H289.649V138.84H287.948V135.742H286.958V143.258ZM299.717 135.742H298.714V137.824H296.2V138.649H298.714V141.582H299.717V135.742ZM290.348 140.808L290.894 141.607C292.227 141.125 293.249 140.141 293.731 138.853C294.232 139.995 295.229 140.884 296.479 141.328L297.013 140.554C295.362 140.014 294.194 138.656 294.207 137.177V136.11H293.229V137.177C293.217 138.827 292.049 140.243 290.348 140.808ZM292.404 142.953H298.727V144.083H292.43V146.876H300.136V146.076H293.407V144.845H299.717V142.153H292.404V142.953ZM310.952 135.742H309.949V137.583H307.309V136.605H302.129V141.62H307.309V140.655H309.949V142.433H310.952V135.742ZM303.119 140.808V137.418H306.331V140.808H303.119ZM303.424 144.896C303.417 146.241 304.858 147.003 307.207 147.003C309.549 147.003 310.99 146.241 310.99 144.896C310.99 143.537 309.549 142.756 307.207 142.763C304.858 142.756 303.417 143.537 303.424 144.896ZM304.414 144.896C304.408 144.045 305.474 143.55 307.207 143.537C308.934 143.55 310 144.045 310 144.896C310 145.714 308.934 146.216 307.207 146.216C305.474 146.216 304.408 145.714 304.414 144.896ZM307.309 139.817V138.408H309.949V139.817H307.309ZM319.75 136.809H318.595L316.31 138.332V139.487L318.544 138.002H318.595V146H319.75V136.809ZM332.077 140.465H321.794V141.277H326.44V142.42H323.038V143.182H329.779V144.248H323.063V146.901H331.1V146.114H324.054V144.984H330.757V142.42H327.418V141.277H332.077V140.465ZM322.353 139.145L322.683 139.906C324.53 139.716 326.263 138.999 326.936 137.856C327.615 138.999 329.354 139.716 331.201 139.906L331.531 139.145C329.544 138.967 327.659 138.104 327.513 136.936H331.163V136.148H322.733V136.936H326.364C326.206 138.11 324.327 138.967 322.353 139.145Z" fill="#7C7C7C"/>
<rect x="16" y="172.5" width="22" height="22" rx="11" fill="#0E1B47"/>
<path d="M23.375 188H30.0332V186.715H25.4668V186.633L27.4766 184.596C29.3359 182.771 29.8555 181.889 29.8691 180.781C29.8555 179.175 28.5361 177.965 26.6289 177.965C24.7422 177.965 23.3613 179.161 23.375 180.973H24.7969C24.8037 179.92 25.501 179.223 26.6016 179.223C27.6406 179.223 28.4336 179.845 28.4336 180.822C28.4336 181.69 27.8936 182.319 26.8066 183.447L23.375 186.906V188Z" fill="white"/>
<path d="M60.6504 166.912H59.3652V169.551H56.9727C56.7061 168.204 55.4619 167.309 53.8418 167.309C51.9893 167.309 50.6221 168.45 50.6289 170.084C50.6221 171.745 51.9893 172.9 53.8418 172.9C55.4619 172.9 56.7129 171.984 56.9795 170.617H59.3652V173.105H60.6504V166.912ZM51.873 170.084C51.8662 169.072 52.6934 168.368 53.8418 168.375C54.9561 168.368 55.7832 169.072 55.7832 170.084C55.7832 171.137 54.9561 171.834 53.8418 171.834C52.6934 171.834 51.8662 171.137 51.873 170.084ZM52.6387 174.76H59.3652V175.826H52.666V179.012H61.0879V177.973H53.9648V176.797H60.6504V173.748H52.6387V174.76ZM72.2578 168.156H63.7539V169.223H70.9727V169.469C70.9727 171.014 70.9727 172.812 70.4805 175.266L71.8066 175.389C72.2578 172.771 72.2578 171.055 72.2578 169.469V168.156ZM62.5508 177.426H73.7207V176.346H62.5508V177.426ZM79.3945 168.225H75.0195V169.277H78.1504V171.547H75.0332V176.195H75.8809C77.4189 176.182 78.8135 176.147 80.5156 175.84L80.4062 174.773C78.8955 175.04 77.624 175.095 76.291 175.102V172.586H79.3945V168.225ZM79.9688 172.299H81.418V178.533H82.6484V167.186H81.418V171.246H79.9688V172.299ZM83.9199 179.162H85.1641V166.912H83.9199V179.162ZM96.8945 166.912H95.5957V179.189H96.8945V166.912ZM87.1738 172.121C87.1738 174.767 88.4932 176.435 90.3457 176.428C92.1641 176.435 93.5039 174.767 93.5039 172.121C93.5039 169.503 92.1641 167.835 90.3457 167.828C88.4932 167.835 87.1738 169.503 87.1738 172.121ZM88.4316 172.121C88.4248 170.2 89.2041 168.997 90.3457 168.99C91.4668 168.997 92.2461 170.2 92.2461 172.121C92.2461 174.069 91.4668 175.266 90.3457 175.266C89.2041 175.266 88.4248 174.069 88.4316 172.121ZM106.766 170.029V167.938H105.453V170.029C105.453 172.367 104.1 174.712 102.172 175.566L102.965 176.66C104.435 175.942 105.562 174.466 106.13 172.668C106.704 174.343 107.818 175.717 109.227 176.387L110.006 175.361C108.105 174.521 106.752 172.265 106.766 170.029ZM111.113 179.189H112.412V166.912H111.113V179.189ZM124.307 173.434H117.088V171.656H123.924V170.631H117.088V168.977H124.184V167.924H115.775V174.473H124.307V173.434ZM114.367 177.617H125.578V176.551H114.367V177.617ZM134.096 167.637H132.797L129.611 179.49H130.91L134.096 167.637ZM147.699 166.912H146.4V179.162H147.699V172.75H149.668V171.656H147.699V166.912ZM138.621 176.25H144.432V167.938H143.146V171.082H139.906V167.938H138.621V176.25ZM139.906 175.184V172.107H143.146V175.184H139.906ZM152.293 167.5H151.008V172.504H152.02C154.18 172.497 156.005 172.367 158.035 171.957L157.871 170.904C155.998 171.287 154.269 171.431 152.293 171.451V167.5ZM152.361 174.637H159.115V175.758H152.402V179.012H160.824V177.973H153.688V176.715H160.414V173.611H152.361V174.637ZM159.115 173.023H160.414V166.912H159.115V173.023ZM171.898 166.912H170.613V179.189H171.898V172.791H173.867V171.697H171.898V166.912ZM162.834 169.072H167.154V171.465H162.861V176.264H163.859C166.156 176.25 167.811 176.168 169.725 175.812L169.602 174.76C167.811 175.088 166.245 175.163 164.146 175.17V172.518H168.439V168.02H162.834V169.072ZM181.619 169.264V167.678H180.361V169.264C180.361 170.624 179.473 172.183 177.818 172.9L178.529 173.912C179.719 173.399 180.553 172.415 181.004 171.28C181.441 172.285 182.241 173.119 183.383 173.557L184.066 172.559C182.474 171.957 181.619 170.604 181.619 169.264ZM180.074 176.92C180.061 178.314 181.653 179.142 184.217 179.135C186.773 179.142 188.38 178.314 188.387 176.92C188.38 175.525 186.773 174.698 184.217 174.691C181.653 174.698 180.061 175.525 180.074 176.92ZM181.359 176.92C181.346 176.134 182.433 175.683 184.217 175.689C185.994 175.683 187.081 176.134 187.088 176.92C187.081 177.699 185.994 178.15 184.217 178.137C182.433 178.15 181.346 177.699 181.359 176.92ZM184.449 174.076H185.652V171.178H187.088V174.459H188.318V166.926H187.088V170.111H185.652V167.145H184.449V174.076ZM199.83 168.102H191.299V169.168H198.572V169.592C198.565 170.221 198.565 170.85 198.538 171.506L190.957 171.793L191.121 172.859L198.477 172.47C198.408 173.379 198.271 174.356 198.012 175.484L199.297 175.607C199.83 173.064 199.83 171.383 199.83 169.592V168.102ZM189.973 177.521H201.143V176.455H189.973V177.521ZM212.23 166.926H210.932V174.186H212.23V166.926ZM202.688 168.689H207.035V170.084H202.715V173.639H203.74C206.058 173.646 207.726 173.577 209.729 173.27L209.564 172.203C207.698 172.511 206.133 172.572 203.986 172.572V171.096H208.32V167.65H202.688V168.689ZM204.178 179.012H212.23V174.801H204.178V179.012ZM205.463 177.959V175.84H210.959V177.959H205.463Z" fill="#0E1B47"/>
<path d="M56.043 189.605H50.9395V194.62H56.043V189.605ZM51.5488 199.19L51.9424 199.978C53.6182 199.667 55.1733 198.81 55.8652 197.508C56.5381 198.81 58.0869 199.667 59.7627 199.978L60.1689 199.19C58.1694 198.854 56.3413 197.673 56.3477 196.042V195.699H55.3574V196.042C55.3574 197.673 53.5356 198.854 51.5488 199.19ZM51.917 193.808V190.431H55.0527V193.808H51.917ZM58.29 196.258H59.2803V192.678H60.9814V191.84H59.2803V188.742H58.29V196.258ZM71.0488 188.742H70.0459V190.824H67.5322V191.649H70.0459V194.582H71.0488V188.742ZM61.6797 193.808L62.2256 194.607C63.5586 194.125 64.5806 193.141 65.063 191.853C65.5645 192.995 66.561 193.884 67.8115 194.328L68.3447 193.554C66.6943 193.014 65.5264 191.656 65.5391 190.177V189.11H64.5615V190.177C64.5488 191.827 63.3809 193.243 61.6797 193.808ZM63.7363 195.953H70.0586V197.083H63.7617V199.876H71.4678V199.076H64.7393V197.845H71.0488V195.153H63.7363V195.953ZM82.2842 188.742H81.2812V190.583H78.6406V189.605H73.4609V194.62H78.6406V193.655H81.2812V195.433H82.2842V188.742ZM74.4512 193.808V190.418H77.6631V193.808H74.4512ZM74.7559 197.896C74.7495 199.241 76.1904 200.003 78.5391 200.003C80.8813 200.003 82.3223 199.241 82.3223 197.896C82.3223 196.537 80.8813 195.756 78.5391 195.763C76.1904 195.756 74.7495 196.537 74.7559 197.896ZM75.7461 197.896C75.7397 197.045 76.8062 196.55 78.5391 196.537C80.2656 196.55 81.332 197.045 81.332 197.896C81.332 198.714 80.2656 199.216 78.5391 199.216C76.8062 199.216 75.7397 198.714 75.7461 197.896ZM78.6406 192.817V191.408H81.2812V192.817H78.6406ZM91.082 189.809H89.9268L87.6416 191.332V192.487L89.876 191.002H89.9268V199H91.082V189.809ZM103.409 193.465H93.126V194.277H97.7725V195.42H94.3701V196.182H101.111V197.248H94.3955V199.901H102.432V199.114H95.3857V197.984H102.089V195.42H98.75V194.277H103.409V193.465ZM93.6846 192.145L94.0146 192.906C95.8618 192.716 97.5947 191.999 98.2676 190.856C98.9468 191.999 100.686 192.716 102.533 192.906L102.863 192.145C100.876 191.967 98.9912 191.104 98.8452 189.936H102.495V189.148H94.0654V189.936H97.6963C97.5376 191.11 95.6587 191.967 93.6846 192.145ZM113.21 189.605H108.106V194.62H113.21V189.605ZM108.716 199.19L109.109 199.978C110.785 199.667 112.34 198.81 113.032 197.508C113.705 198.81 115.254 199.667 116.93 199.978L117.336 199.19C115.336 198.854 113.508 197.673 113.515 196.042V195.699H112.524V196.042C112.524 197.673 110.703 198.854 108.716 199.19ZM109.084 193.808V190.431H112.22V193.808H109.084ZM115.457 196.258H116.447V192.678H118.148V191.84H116.447V188.742H115.457V196.258ZM128.216 188.742H127.213V190.824H124.699V191.649H127.213V194.582H128.216V188.742ZM118.847 193.808L119.393 194.607C120.726 194.125 121.748 193.141 122.23 191.853C122.731 192.995 123.728 193.884 124.979 194.328L125.512 193.554C123.861 193.014 122.693 191.656 122.706 190.177V189.11H121.729V190.177C121.716 191.827 120.548 193.243 118.847 193.808ZM120.903 195.953H127.226V197.083H120.929V199.876H128.635V199.076H121.906V197.845H128.216V195.153H120.903V195.953ZM139.451 188.742H138.448V190.583H135.808V189.605H130.628V194.62H135.808V193.655H138.448V195.433H139.451V188.742ZM131.618 193.808V190.418H134.83V193.808H131.618ZM131.923 197.896C131.917 199.241 133.357 200.003 135.706 200.003C138.048 200.003 139.489 199.241 139.489 197.896C139.489 196.537 138.048 195.756 135.706 195.763C133.357 195.756 131.917 196.537 131.923 197.896ZM132.913 197.896C132.907 197.045 133.973 196.55 135.706 196.537C137.433 196.55 138.499 197.045 138.499 197.896C138.499 198.714 137.433 199.216 135.706 199.216C133.973 199.216 132.907 198.714 132.913 197.896ZM135.808 192.817V191.408H138.448V192.817H135.808ZM148.249 189.809H147.094L144.809 191.332V192.487L147.043 191.002H147.094V199H148.249V189.809ZM160.576 193.465H150.293V194.277H154.939V195.42H151.537V196.182H158.278V197.248H151.562V199.901H159.599V199.114H152.553V197.984H159.256V195.42H155.917V194.277H160.576V193.465ZM150.852 192.145L151.182 192.906C153.029 192.716 154.762 191.999 155.435 190.856C156.114 191.999 157.853 192.716 159.7 192.906L160.03 192.145C158.043 191.967 156.158 191.104 156.012 189.936H159.662V189.148H151.232V189.936H154.863C154.705 191.11 152.826 191.967 150.852 192.145ZM170.377 189.605H165.273V194.62H170.377V189.605ZM165.883 199.19L166.276 199.978C167.952 199.667 169.507 198.81 170.199 197.508C170.872 198.81 172.421 199.667 174.097 199.978L174.503 199.19C172.503 198.854 170.675 197.673 170.682 196.042V195.699H169.691V196.042C169.691 197.673 167.87 198.854 165.883 199.19ZM166.251 193.808V190.431H169.387V193.808H166.251ZM172.624 196.258H173.614V192.678H175.315V191.84H173.614V188.742H172.624V196.258ZM185.383 188.742H184.38V190.824H181.866V191.649H184.38V194.582H185.383V188.742ZM176.014 193.808L176.56 194.607C177.893 194.125 178.915 193.141 179.397 191.853C179.898 192.995 180.895 193.884 182.146 194.328L182.679 193.554C181.028 193.014 179.86 191.656 179.873 190.177V189.11H178.896V190.177C178.883 191.827 177.715 193.243 176.014 193.808ZM178.07 195.953H184.393V197.083H178.096V199.876H185.802V199.076H179.073V197.845H185.383V195.153H178.07V195.953ZM196.618 188.742H195.615V190.583H192.975V189.605H187.795V194.62H192.975V193.655H195.615V195.433H196.618V188.742ZM188.785 193.808V190.418H191.997V193.808H188.785ZM189.09 197.896C189.083 199.241 190.524 200.003 192.873 200.003C195.215 200.003 196.656 199.241 196.656 197.896C196.656 196.537 195.215 195.756 192.873 195.763C190.524 195.756 189.083 196.537 189.09 197.896ZM190.08 197.896C190.074 197.045 191.14 196.55 192.873 196.537C194.6 196.55 195.666 197.045 195.666 197.896C195.666 198.714 194.6 199.216 192.873 199.216C191.14 199.216 190.074 198.714 190.08 197.896ZM192.975 192.817V191.408H195.615V192.817H192.975ZM205.416 189.809H204.261L201.976 191.332V192.487L204.21 191.002H204.261V199H205.416V189.809ZM217.743 193.465H207.46V194.277H212.106V195.42H208.704V196.182H215.445V197.248H208.729V199.901H216.766V199.114H209.72V197.984H216.423V195.42H213.084V194.277H217.743V193.465ZM208.019 192.145L208.349 192.906C210.196 192.716 211.929 191.999 212.602 190.856C213.281 191.999 215.02 192.716 216.867 192.906L217.197 192.145C215.21 191.967 213.325 191.104 213.179 189.936H216.829V189.148H208.399V189.936H212.03C211.872 191.11 209.993 191.967 208.019 192.145ZM227.544 189.605H222.44V194.62H227.544V189.605ZM223.05 199.19L223.443 199.978C225.119 199.667 226.674 198.81 227.366 197.508C228.039 198.81 229.588 199.667 231.264 199.978L231.67 199.19C229.67 198.854 227.842 197.673 227.849 196.042V195.699H226.858V196.042C226.858 197.673 225.037 198.854 223.05 199.19ZM223.418 193.808V190.431H226.554V193.808H223.418ZM229.791 196.258H230.781V192.678H232.482V191.84H230.781V188.742H229.791V196.258ZM242.55 188.742H241.547V190.824H239.033V191.649H241.547V194.582H242.55V188.742ZM233.181 193.808L233.727 194.607C235.06 194.125 236.082 193.141 236.564 191.853C237.065 192.995 238.062 193.884 239.312 194.328L239.846 193.554C238.195 193.014 237.027 191.656 237.04 190.177V189.11H236.062V190.177C236.05 191.827 234.882 193.243 233.181 193.808ZM235.237 195.953H241.56V197.083H235.263V199.876H242.969V199.076H236.24V197.845H242.55V195.153H235.237V195.953ZM253.785 188.742H252.782V190.583H250.142V189.605H244.962V194.62H250.142V193.655H252.782V195.433H253.785V188.742ZM245.952 193.808V190.418H249.164V193.808H245.952ZM246.257 197.896C246.25 199.241 247.691 200.003 250.04 200.003C252.382 200.003 253.823 199.241 253.823 197.896C253.823 196.537 252.382 195.756 250.04 195.763C247.691 195.756 246.25 196.537 246.257 197.896ZM247.247 197.896C247.241 197.045 248.307 196.55 250.04 196.537C251.767 196.55 252.833 197.045 252.833 197.896C252.833 198.714 251.767 199.216 250.04 199.216C248.307 199.216 247.241 198.714 247.247 197.896ZM250.142 192.817V191.408H252.782V192.817H250.142ZM262.583 189.809H261.428L259.143 191.332V192.487L261.377 191.002H261.428V199H262.583V189.809ZM274.91 193.465H264.627V194.277H269.273V195.42H265.871V196.182H272.612V197.248H265.896V199.901H273.933V199.114H266.887V197.984H273.59V195.42H270.251V194.277H274.91V193.465ZM265.186 192.145L265.516 192.906C267.363 192.716 269.096 191.999 269.769 190.856C270.448 191.999 272.187 192.716 274.034 192.906L274.364 192.145C272.377 191.967 270.492 191.104 270.346 189.936H273.996V189.148H265.566V189.936H269.197C269.039 191.11 267.16 191.967 265.186 192.145ZM284.711 189.605H279.607V194.62H284.711V189.605ZM280.217 199.19L280.61 199.978C282.286 199.667 283.841 198.81 284.533 197.508C285.206 198.81 286.755 199.667 288.431 199.978L288.837 199.19C286.837 198.854 285.009 197.673 285.016 196.042V195.699H284.025V196.042C284.025 197.673 282.204 198.854 280.217 199.19ZM280.585 193.808V190.431H283.721V193.808H280.585ZM286.958 196.258H287.948V192.678H289.649V191.84H287.948V188.742H286.958V196.258ZM299.717 188.742H298.714V190.824H296.2V191.649H298.714V194.582H299.717V188.742ZM290.348 193.808L290.894 194.607C292.227 194.125 293.249 193.141 293.731 191.853C294.232 192.995 295.229 193.884 296.479 194.328L297.013 193.554C295.362 193.014 294.194 191.656 294.207 190.177V189.11H293.229V190.177C293.217 191.827 292.049 193.243 290.348 193.808ZM292.404 195.953H298.727V197.083H292.43V199.876H300.136V199.076H293.407V197.845H299.717V195.153H292.404V195.953ZM310.952 188.742H309.949V190.583H307.309V189.605H302.129V194.62H307.309V193.655H309.949V195.433H310.952V188.742ZM303.119 193.808V190.418H306.331V193.808H303.119ZM303.424 197.896C303.417 199.241 304.858 200.003 307.207 200.003C309.549 200.003 310.99 199.241 310.99 197.896C310.99 196.537 309.549 195.756 307.207 195.763C304.858 195.756 303.417 196.537 303.424 197.896ZM304.414 197.896C304.408 197.045 305.474 196.55 307.207 196.537C308.934 196.55 310 197.045 310 197.896C310 198.714 308.934 199.216 307.207 199.216C305.474 199.216 304.408 198.714 304.414 197.896ZM307.309 192.817V191.408H309.949V192.817H307.309ZM319.75 189.809H318.595L316.31 191.332V192.487L318.544 191.002H318.595V199H319.75V189.809ZM332.077 193.465H321.794V194.277H326.44V195.42H323.038V196.182H329.779V197.248H323.063V199.901H331.1V199.114H324.054V197.984H330.757V195.42H327.418V194.277H332.077V193.465ZM322.353 192.145L322.683 192.906C324.53 192.716 326.263 191.999 326.936 190.856C327.615 191.999 329.354 192.716 331.201 192.906L331.531 192.145C329.544 191.967 327.659 191.104 327.513 189.936H331.163V189.148H322.733V189.936H326.364C326.206 191.11 324.327 191.967 322.353 192.145Z" fill="#7C7C7C"/>
<defs>
<filter id="filter0_f_123_16501" x="146.325" y="35.8252" width="8.34961" height="6.09961" filterUnits="userSpaceOnUse" color-interpolation-filters="sRGB">
<feFlood flood-opacity="0" result="BackgroundImageFix"/>
<feBlend mode="normal" in="SourceGraphic" in2="BackgroundImageFix" result="shape"/>
<feGaussianBlur stdDeviation="0.75" result="effect1_foregroundBlur_123_16501"/>
</filter>
<filter id="filter1_f_123_16501" x="154.575" y="35.8252" width="8.34961" height="6.09961" filterUnits="userSpaceOnUse" color-interpolation-filters="sRGB">
<feFlood flood-opacity="0" result="BackgroundImageFix"/>
<feBlend mode="normal" in="SourceGraphic" in2="BackgroundImageFix" result="shape"/>
<feGaussianBlur stdDeviation="0.75" result="effect1_foregroundBlur_123_16501"/>
</filter>
<filter id="filter2_f_123_16501" x="146.888" y="35.2627" width="8.34961" height="6.09961" filterUnits="userSpaceOnUse" color-interpolation-filters="sRGB">
<feFlood flood-opacity="0" result="BackgroundImageFix"/>
<feBlend mode="normal" in="SourceGraphic" in2="BackgroundImageFix" result="shape"/>
<feGaussianBlur stdDeviation="0.75" result="effect1_foregroundBlur_123_16501"/>
</filter>
<filter id="filter3_f_123_16501" x="155.138" y="35.2627" width="8.34961" height="6.09961" filterUnits="userSpaceOnUse" color-interpolation-filters="sRGB">
<feFlood flood-opacity="0" result="BackgroundImageFix"/>
<feBlend mode="normal" in="SourceGraphic" in2="BackgroundImageFix" result="shape"/>
<feGaussianBlur stdDeviation="0.75" result="effect1_foregroundBlur_123_16501"/>
</filter>
<radialGradient id="paint0_radial_123_16501" cx="0" cy="0" r="1" gradientUnits="userSpaceOnUse" gradientTransform="translate(162.125 37.75) rotate(131.878) scale(29.2115)">
<stop stop-color="#FFF478"/>
<stop offset="0.474827" stop-color="#FFCB76"/>
<stop offset="1" stop-color="#FF82C7"/>
</radialGradient>
<radialGradient id="paint1_radial_123_16501" cx="0" cy="0" r="1" gradientUnits="userSpaceOnUse" gradientTransform="translate(155 40.375) rotate(101.31) scale(13.3849 17.1435)">
<stop offset="0.787821" stop-color="#F59639" stop-opacity="0"/>
<stop offset="0.972509" stop-color="#FF7DCE"/>
</radialGradient>
<radialGradient id="paint2_radial_123_16501" cx="0" cy="0" r="1" gradientUnits="userSpaceOnUse" gradientTransform="translate(156.5 41.5) rotate(135) scale(30.7591)">
<stop offset="0.314853" stop-opacity="0"/>
<stop offset="1"/>
</radialGradient>
<radialGradient id="paint3_radial_123_16501" cx="0" cy="0" r="1" gradientUnits="userSpaceOnUse" gradientTransform="translate(155 43.75) rotate(77.692) scale(21.1102)">
<stop offset="0.507903" stop-color="#7D6133" stop-opacity="0"/>
<stop offset="1" stop-color="#715B32"/>
</radialGradient>
<radialGradient id="paint4_radial_123_16501" cx="0" cy="0" r="1" gradientUnits="userSpaceOnUse" gradientTransform="translate(155.375 43.375) rotate(55.7131) scale(9.98515 7.23774)">
<stop stop-color="#FFB849"/>
<stop offset="1" stop-color="#FFB847" stop-opacity="0"/>
</radialGradient>
<radialGradient id="paint5_radial_123_16501" cx="0" cy="0" r="1" gradientUnits="userSpaceOnUse" gradientTransform="translate(158.375 44.5) rotate(9.86581) scale(8.75446)">
<stop stop-color="#FFA64B"/>
<stop offset="0.900412" stop-color="#FFAE46" stop-opacity="0"/>
</radialGradient>
<radialGradient id="paint6_radial_123_16501" cx="0" cy="0" r="1" gradientUnits="userSpaceOnUse" gradientTransform="translate(156.125 42.25) rotate(43.9708) scale(44.2897)">
<stop offset="0.185425" stop-opacity="0"/>
<stop offset="1" stop-opacity="0.4"/>
</radialGradient>
<radialGradient id="paint7_radial_123_16501" cx="0" cy="0" r="1" gradientUnits="userSpaceOnUse" gradientTransform="translate(157.79 44.875) rotate(129.007) scale(5.79103 3.91222)">
<stop stop-color="#F63711"/>
<stop offset="1" stop-color="#E24A2C" stop-opacity="0"/>
</radialGradient>
<linearGradient id="paint8_linear_123_16501" x1="160.625" y1="47.875" x2="158.287" y2="43.0043" gradientUnits="userSpaceOnUse">
<stop stop-color="#D40F31"/>
<stop offset="0.340515" stop-color="#FF2375"/>
<stop offset="1" stop-color="#FF278E"/>
</linearGradient>
<radialGradient id="paint9_radial_123_16501" cx="0" cy="0" r="1" gradientUnits="userSpaceOnUse" gradientTransform="translate(155 41.5) rotate(90) scale(4.5 6.8879)">
<stop offset="0.517632" stop-color="#4E2553"/>
<stop offset="0.702876" stop-color="#5B4852"/>
<stop offset="1" stop-color="#4E2553"/>
<stop offset="1" stop-color="#4E2553"/>
</radialGradient>
<radialGradient id="paint10_radial_123_16501" cx="0" cy="0" r="1" gradientUnits="userSpaceOnUse" gradientTransform="translate(160 46.75) rotate(56.3099) scale(1.80278 5.40832)">
<stop stop-color="#FF7291"/>
<stop offset="1" stop-color="#FF7291" stop-opacity="0"/>
</radialGradient>
<clipPath id="clip0_123_16501">
<rect width="24" height="24" fill="white" transform="translate(143 31)"/>
</clipPath>
</defs>
</svg>
