<svg width="268" height="170" viewBox="0 0 268 170" fill="none" xmlns="http://www.w3.org/2000/svg">
<path d="M194.047 142.5C194.047 156.583 163.827 168 126.547 168C89.2682 168 59.0474 156.583 59.0474 142.5C59.0474 138.561 59.0462 138 59.0474 133.5C69.9192 124.923 99.6952 119 126.547 119C153.4 119 183.176 124.923 194.047 133.5C194.047 138 194.047 138.561 194.047 142.5Z" fill="url(#paint0_linear_455_100135)"/>
<ellipse cx="126.547" cy="134.5" rx="67.5" ry="25.5" fill="url(#paint1_linear_455_100135)"/>
<g filter="url(#filter0_f_455_100135)">
<circle cx="153.35" cy="89.3709" r="32.2201" fill="url(#paint2_linear_455_100135)"/>
</g>
<g filter="url(#filter1_f_455_100135)">
<path fill-rule="evenodd" clip-rule="evenodd" d="M128.4 65.5114C134.997 66.8679 142.135 69.1689 148.747 73.836C159.103 81.1465 166.199 91.0968 168.309 95.1243V120.492C163.783 122.671 158.709 123.892 153.35 123.892C134.284 123.892 118.828 108.436 118.828 89.3706C118.828 80.115 122.471 71.7102 128.4 65.5114Z" fill="#F45C65"/>
</g>
<path fill-rule="evenodd" clip-rule="evenodd" d="M78.5508 103.317C78.7279 103.437 78.95 103.502 79.2024 103.478L168.306 95.1244L168.307 95.1244V128.771C168.307 130.881 166.668 132.628 164.563 132.763L82.8067 138.004C80.5016 138.151 78.5508 136.322 78.5508 134.012V103.317Z" fill="url(#paint3_linear_455_100135)"/>
<path d="M148.747 73.8362C139.655 67.4179 129.568 65.4745 121.26 64.3082C120.084 64.1432 118.899 64.5199 118.025 65.3239L78.4351 101.746C77.7303 102.395 78.2521 103.567 79.2055 103.478L168.309 95.1245C166.2 91.0969 159.104 81.1466 148.747 73.8362Z" fill="url(#paint4_radial_455_100135)"/>
<path d="M132.636 66.592C132.636 71.0604 129.029 73.2608 124.581 73.2608C120.132 73.2608 116.526 71.0604 116.526 66.592C116.526 62.1235 120.554 60.0456 124.581 56C128.504 59.9405 132.636 62.1235 132.636 66.592H132.636Z" fill="url(#paint5_linear_455_100135)"/>
<path d="M144.144 72.3456C144.144 76.8141 140.538 79.0144 136.089 79.0144C131.641 79.0144 128.035 76.8141 128.035 72.3456C128.035 67.8772 132.063 65.7992 136.09 61.7537C140.013 65.6942 144.144 67.8772 144.144 72.3456Z" fill="url(#paint6_linear_455_100135)"/>
<path d="M155.652 78.099C155.652 82.5675 152.046 84.7679 147.597 84.7679C143.149 84.7679 139.543 82.5675 139.543 78.099C139.543 73.6306 143.57 71.5527 147.598 67.5071C151.521 71.4476 155.653 73.6306 155.653 78.099H155.652Z" fill="url(#paint7_linear_455_100135)"/>
<path d="M166.009 87.3049C166.009 91.7733 162.402 93.9737 157.954 93.9737C153.505 93.9737 149.899 91.7733 149.899 87.3049C149.899 82.8364 153.927 80.7585 157.954 76.7129C161.877 80.6534 166.009 82.8364 166.009 87.3049H166.009Z" fill="url(#paint8_linear_455_100135)"/>
<g style="mix-blend-mode:screen" filter="url(#filter2_f_455_100135)">
<path fill-rule="evenodd" clip-rule="evenodd" d="M78.2918 101.906C78.4812 102.181 78.805 102.365 79.2046 102.327L167.697 94.0311C167.933 94.4315 168.137 94.7975 168.309 95.1244L79.2046 103.478C78.3253 103.56 77.8132 102.569 78.2918 101.906Z" fill="url(#paint9_linear_455_100135)" fill-opacity="0.8"/>
</g>
<g filter="url(#filter3_f_455_100135)">
<path d="M161.777 73L162.138 81.3681L170.505 81.7297L162.138 82.0913L161.777 90.458L161.415 82.0913L153.047 81.7297L161.415 81.3681L161.777 73Z" fill="white"/>
</g>
<g style="mix-blend-mode:screen" filter="url(#filter4_f_455_100135)">
<path d="M161.777 73L162.138 81.3681L170.505 81.7297L162.138 82.0913L161.777 90.458L161.415 82.0913L153.047 81.7297L161.415 81.3681L161.777 73Z" fill="white"/>
</g>
<g filter="url(#filter5_f_455_100135)">
<path d="M78.6779 129L79.0355 137.274L87.3077 137.631L79.0355 137.989L78.6779 146.261L78.3204 137.989L70.0469 137.631L78.3204 137.274L78.6779 129Z" fill="white"/>
</g>
<g style="mix-blend-mode:screen" filter="url(#filter6_f_455_100135)">
<path d="M78.6779 129L79.0355 137.274L87.3077 137.631L79.0355 137.989L78.6779 146.261L78.3204 137.989L70.0469 137.631L78.3204 137.274L78.6779 129Z" fill="white"/>
</g>
<path d="M44.2198 56.0492L40.8918 55.2639C38.7385 54.7584 38.5204 51.5276 40.5487 50.2617C41.1042 49.9128 41.7362 49.7986 42.3235 49.9386L45.6515 50.7239C47.8049 51.2293 48.0229 54.4602 45.9947 55.726C45.4367 56.0681 44.8071 56.1891 44.2198 56.0492Z" fill="#95A5E0"/>
<path d="M92.3561 11.5348L90.2263 12.9499C89.5515 13.4006 88.723 13.5554 87.9328 13.3857C85.4678 12.8581 84.8865 9.74466 86.9884 8.34582L89.1182 6.93071C89.793 6.48 90.6215 6.32518 91.4117 6.49486C93.8747 7.01679 94.458 10.1359 92.3561 11.5348Z" fill="#D7DBEB"/>
<path d="M1.44457 52.3513L0.936895 50.9418C0.652104 50.1511 0.761837 49.2684 1.22825 48.547C2.51225 46.5781 5.55561 46.8728 6.33817 49.0456L6.84584 50.4551C7.13063 51.2458 7.0209 52.1286 6.55449 52.85C5.26801 54.8119 2.22465 54.5172 1.44457 52.3513Z" fill="#FFCACD"/>
<path d="M40.6476 11.4233L41.8766 10.4707C42.5687 9.93996 43.4668 9.73356 44.3188 9.91668C46.6551 10.4187 47.3024 13.3182 45.4123 14.7751L44.1833 15.7277C43.4912 16.2585 42.5931 16.4649 41.7411 16.2818C39.412 15.7772 38.7575 12.8802 40.6476 11.4233Z" fill="#FDE39A"/>
<path d="M82.6646 38.8622L83.6365 38.1089C84.1838 37.6892 84.8939 37.526 85.5677 37.6708C87.4152 38.0678 87.927 40.3606 86.4324 41.5127L85.4605 42.266C84.9132 42.6857 84.2031 42.8489 83.5293 42.7041C81.6875 42.3051 81.17 40.0143 82.6646 38.8622Z" fill="#FDE39A"/>
<path d="M225.24 61.3315L222.719 58.8076C221.089 57.1769 222.633 54.0706 225.108 54.0007C225.783 53.9852 226.412 54.2182 226.854 54.6686L229.375 57.1924C231.004 58.8232 229.461 61.9294 226.986 61.9993C226.311 62.0148 225.69 61.7741 225.24 61.3315Z" fill="#D7DBEB"/>
<path d="M248.575 20.6665H246.135C245.364 20.6665 244.629 20.3472 244.105 19.781C242.473 18.0161 243.726 15.1548 246.135 15.1548H248.575C249.346 15.1548 250.081 15.474 250.605 16.0403C252.231 17.7992 250.978 20.6665 248.575 20.6665Z" fill="#95A5E0"/>
<path d="M166.3 30.2261L168.349 28.9069C168.999 28.4913 169.439 27.8226 169.571 27.0636C169.987 24.6963 167.385 22.9675 165.361 24.2686L163.313 25.5878C162.662 26.0035 162.222 26.6721 162.09 27.4311C161.68 29.7984 164.283 31.5272 166.3 30.2261Z" fill="#95A5E0"/>
<path d="M202.047 35.8558V34.1493C202.047 33.192 202.469 32.2846 203.185 31.6853C205.15 30.0537 208.047 31.5188 208.047 34.1493V35.8558C208.047 36.8131 207.625 37.7205 206.909 38.3198C204.943 39.9431 202.047 38.478 202.047 35.8558Z" fill="#FFCACD"/>
<path d="M187.058 0.862869L188.187 1.99085C188.818 2.62096 189.129 3.51556 189.028 4.40238C188.748 6.83725 185.773 7.87188 184.036 6.13713L182.907 5.00915C182.276 4.37904 181.964 3.48444 182.066 2.59762C182.346 0.162746 185.321 -0.871881 187.058 0.862869Z" fill="#FDE39A"/>
<path d="M261.193 59.7445L262.83 59.173C263.75 58.8573 264.762 58.9768 265.581 59.5057C267.825 60.9559 267.411 64.3853 264.897 65.2555L263.26 65.827C262.341 66.1427 261.328 66.0232 260.51 65.4943C258.274 64.0441 258.679 60.6147 261.193 59.7445Z" fill="#FDE39A"/>
<defs>
<filter id="filter0_f_455_100135" x="120.13" y="56.1508" width="66.4404" height="66.4403" filterUnits="userSpaceOnUse" color-interpolation-filters="sRGB">
<feFlood flood-opacity="0" result="BackgroundImageFix"/>
<feBlend mode="normal" in="SourceGraphic" in2="BackgroundImageFix" result="shape"/>
<feGaussianBlur stdDeviation="0.5" result="effect1_foregroundBlur_455_100135"/>
</filter>
<filter id="filter1_f_455_100135" x="114.828" y="61.5114" width="57.4805" height="66.3809" filterUnits="userSpaceOnUse" color-interpolation-filters="sRGB">
<feFlood flood-opacity="0" result="BackgroundImageFix"/>
<feBlend mode="normal" in="SourceGraphic" in2="BackgroundImageFix" result="shape"/>
<feGaussianBlur stdDeviation="2" result="effect1_foregroundBlur_455_100135"/>
</filter>
<filter id="filter2_f_455_100135" x="77.9084" y="93.8311" width="90.6002" height="9.85166" filterUnits="userSpaceOnUse" color-interpolation-filters="sRGB">
<feFlood flood-opacity="0" result="BackgroundImageFix"/>
<feBlend mode="normal" in="SourceGraphic" in2="BackgroundImageFix" result="shape"/>
<feGaussianBlur stdDeviation="0.1" result="effect1_foregroundBlur_455_100135"/>
</filter>
<filter id="filter3_f_455_100135" x="151.047" y="71" width="21.458" height="21.458" filterUnits="userSpaceOnUse" color-interpolation-filters="sRGB">
<feFlood flood-opacity="0" result="BackgroundImageFix"/>
<feBlend mode="normal" in="SourceGraphic" in2="BackgroundImageFix" result="shape"/>
<feGaussianBlur stdDeviation="1" result="effect1_foregroundBlur_455_100135"/>
</filter>
<filter id="filter4_f_455_100135" x="152.947" y="72.9" width="17.658" height="17.658" filterUnits="userSpaceOnUse" color-interpolation-filters="sRGB">
<feFlood flood-opacity="0" result="BackgroundImageFix"/>
<feBlend mode="normal" in="SourceGraphic" in2="BackgroundImageFix" result="shape"/>
<feGaussianBlur stdDeviation="0.05" result="effect1_foregroundBlur_455_100135"/>
</filter>
<filter id="filter5_f_455_100135" x="68.0469" y="127" width="21.2607" height="21.2607" filterUnits="userSpaceOnUse" color-interpolation-filters="sRGB">
<feFlood flood-opacity="0" result="BackgroundImageFix"/>
<feBlend mode="normal" in="SourceGraphic" in2="BackgroundImageFix" result="shape"/>
<feGaussianBlur stdDeviation="1" result="effect1_foregroundBlur_455_100135"/>
</filter>
<filter id="filter6_f_455_100135" x="69.9469" y="128.9" width="17.4607" height="17.4607" filterUnits="userSpaceOnUse" color-interpolation-filters="sRGB">
<feFlood flood-opacity="0" result="BackgroundImageFix"/>
<feBlend mode="normal" in="SourceGraphic" in2="BackgroundImageFix" result="shape"/>
<feGaussianBlur stdDeviation="0.05" result="effect1_foregroundBlur_455_100135"/>
</filter>
<linearGradient id="paint0_linear_455_100135" x1="59" y1="153" x2="191" y2="153" gradientUnits="userSpaceOnUse">
<stop stop-color="#C8D2F5"/>
<stop offset="0.252" stop-color="#EDF1FF"/>
<stop offset="1" stop-color="#ACBBF4"/>
</linearGradient>
<linearGradient id="paint1_linear_455_100135" x1="140.5" y1="104" x2="127" y2="160" gradientUnits="userSpaceOnUse">
<stop stop-color="#C3CDEF"/>
<stop offset="0.791667" stop-color="#DEE5FE"/>
<stop offset="0.994792" stop-color="#E8EDFF"/>
</linearGradient>
<linearGradient id="paint2_linear_455_100135" x1="138.088" y1="71.6498" x2="172.26" y2="99.8968" gradientUnits="userSpaceOnUse">
<stop stop-color="#F1424D"/>
<stop offset="1" stop-color="#FF747D"/>
</linearGradient>
<linearGradient id="paint3_linear_455_100135" x1="79.7015" y1="123.243" x2="161.401" y2="118.052" gradientUnits="userSpaceOnUse">
<stop stop-color="#DCD9FF" stop-opacity="0.89"/>
<stop offset="0.598958" stop-color="white" stop-opacity="0.46"/>
<stop offset="1" stop-color="white" stop-opacity="0.83"/>
</linearGradient>
<radialGradient id="paint4_radial_455_100135" cx="0" cy="0" r="1" gradientUnits="userSpaceOnUse" gradientTransform="translate(160.83 79.5897) rotate(165.094) scale(82.7598 189.861)">
<stop stop-color="white" stop-opacity="0.4"/>
<stop offset="0.546875" stop-color="#F0ECFF" stop-opacity="0.78"/>
<stop offset="1" stop-color="#D1CBF7" stop-opacity="0.49"/>
</radialGradient>
<linearGradient id="paint5_linear_455_100135" x1="128.609" y1="72.1101" x2="119.403" y2="62.9043" gradientUnits="userSpaceOnUse">
<stop stop-color="#BCC3FF" stop-opacity="0.79"/>
<stop offset="1" stop-color="white"/>
</linearGradient>
<linearGradient id="paint6_linear_455_100135" x1="140.118" y1="77.8637" x2="130.912" y2="68.658" gradientUnits="userSpaceOnUse">
<stop stop-color="#BCC3FF" stop-opacity="0.79"/>
<stop offset="1" stop-color="white"/>
</linearGradient>
<linearGradient id="paint7_linear_455_100135" x1="151.626" y1="83.6171" x2="142.42" y2="74.4114" gradientUnits="userSpaceOnUse">
<stop stop-color="#BCC3FF" stop-opacity="0.79"/>
<stop offset="1" stop-color="white"/>
</linearGradient>
<linearGradient id="paint8_linear_455_100135" x1="161.982" y1="92.823" x2="152.776" y2="83.6172" gradientUnits="userSpaceOnUse">
<stop stop-color="#BCC3FF" stop-opacity="0.79"/>
<stop offset="1" stop-color="white"/>
</linearGradient>
<linearGradient id="paint9_linear_455_100135" x1="89.2388" y1="101.486" x2="166.001" y2="95.1448" gradientUnits="userSpaceOnUse">
<stop stop-color="white"/>
<stop offset="1" stop-color="white" stop-opacity="0.45"/>
</linearGradient>
</defs>
</svg>
