<svg width="360" height="158" viewBox="0 0 360 158" fill="none" xmlns="http://www.w3.org/2000/svg">
<rect width="360" height="7" fill="#F2F2F2"/>
<path d="M29.375 46.75H23.75V43.6719H27.8906V36.8594H17.8906V43.6719H22.0312V46.75H16.4688V48.1719H29.375V46.75ZM19.5938 42.3125V38.25H26.1719V42.3125H19.5938ZM43.3594 37.6562H41.4375V35.7656H39.7031V44.0625H41.4375V42.125H43.3594V40.6875H41.4375V39.0781H43.3594V37.6562ZM30.4531 39.9531C30.4453 41.9375 32.0859 43.3359 34.2656 43.3438C36.4375 43.3359 38.0625 41.9375 38.0781 39.9531C38.0625 37.9609 36.4375 36.5625 34.2656 36.5781C32.0859 36.5625 30.4453 37.9609 30.4531 39.9531ZM32.0625 47.1406C32.0625 48.8516 33.9219 49.875 36.8438 49.875C39.7422 49.875 41.5703 48.8516 41.5781 47.1406C41.5703 45.4141 39.7422 44.3984 36.8438 44.3906C33.9219 44.3984 32.0625 45.4141 32.0625 47.1406ZM32.1562 39.9531C32.1484 38.7891 33.0469 38.0234 34.2656 38.0312C35.4688 38.0234 36.3672 38.7891 36.375 39.9531C36.3672 41.125 35.4688 41.8672 34.2656 41.875C33.0469 41.8672 32.1484 41.125 32.1562 39.9531ZM33.7969 47.1406C33.7969 46.2578 34.9062 45.7812 36.8438 45.7812C38.7734 45.7812 39.8594 46.2578 39.8594 47.1406C39.8594 48.0312 38.7734 48.4844 36.8438 48.4844C34.9062 48.4844 33.7969 48.0312 33.7969 47.1406ZM55.9531 35.7812H54.2188V38.2188H51.375V36.7031H49.6562V38.9844H46.5V36.7031H44.7656V43.9062H51.375V42.6562H54.2188V46.2031H55.9531V35.7812ZM46.5 42.5312V40.3281H49.6562V42.5312H46.5ZM46.6406 49.6094H56.2656V48.2031H48.4062V45.1719H46.6406V49.6094ZM51.375 41.25V39.625H54.2188V41.25H51.375ZM69.7812 35.7812H68.0469V38.1719H65.2109C65.2891 37.7266 65.3281 37.2578 65.3281 36.7656H58.8438V38.1719H63.4297C63.1641 40.2734 61.3984 41.9531 58.0938 42.8438L58.7969 44.2188C61.8672 43.3594 63.9297 41.7891 64.8203 39.5469H68.0469V41.0625H64.6875V42.4688H68.0469V44.0312H69.7812V35.7812ZM60.3125 47C60.3125 48.7344 62.2109 49.8203 65.1094 49.8125C67.9688 49.8203 69.875 48.7344 69.875 47C69.875 45.2656 67.9688 44.1953 65.1094 44.1875C62.2109 44.1953 60.3125 45.2656 60.3125 47ZM62.0469 47C62.0469 46.0547 63.2109 45.5469 65.1094 45.5469C66.9766 45.5469 68.1328 46.0547 68.1406 47C68.1328 47.9297 66.9766 48.4375 65.1094 48.4375C63.2109 48.4375 62.0469 47.9297 62.0469 47ZM83.5312 35.7656H81.7812V49.9062H83.5312V35.7656ZM72.2344 41.7812C72.2266 44.8516 73.7812 46.7812 75.9219 46.7812C78.0391 46.7812 79.6016 44.8516 79.6094 41.7812C79.6016 38.7344 78.0391 36.7969 75.9219 36.7969C73.7812 36.7969 72.2266 38.7344 72.2344 41.7812ZM73.9062 41.7812C73.9062 39.625 74.7266 38.3594 75.9219 38.3594C77.1094 38.3594 77.9219 39.625 77.9219 41.7812C77.9219 43.9531 77.1094 45.2109 75.9219 45.2188C74.7266 45.2109 73.9062 43.9531 73.9062 41.7812ZM100.469 35.7656H98.7344V49.8594H100.469V42.7344H102.562V41.2812H100.469V35.7656ZM89.3281 46L90.3125 47.3438C95.0078 45.0312 96.7266 41.3828 96.7344 37.2344H90.0938V38.6719H94.9688C94.625 41.8906 92.7656 44.2812 89.3281 46ZM114.656 39.4375H106.641V36.0156H104.906V40.8438H114.656V39.4375ZM103.234 43.6094H116.125V42.2031H103.234V43.6094ZM104.734 47.2344C104.734 48.8906 106.586 49.8281 109.656 49.8281C112.703 49.8281 114.539 48.8906 114.547 47.2344C114.539 45.5703 112.703 44.6328 109.656 44.625C106.586 44.6328 104.734 45.5703 104.734 47.2344ZM106.5 47.2344C106.492 46.3984 107.602 45.9922 109.656 45.9844C111.68 45.9922 112.797 46.3984 112.812 47.2344C112.797 48.0469 111.68 48.4922 109.656 48.5C107.602 48.4922 106.492 48.0469 106.5 47.2344ZM128.203 35.7812H126.469V46.3281H128.203V41.6562H130.172V40.2188H128.203V35.7812ZM117.078 38.7344H125.453V37.3438H122.141V35.7656H120.406V37.3438H117.078V38.7344ZM117.797 42.0156C117.797 43.6328 119.211 44.6875 121.266 44.6875C123.305 44.6875 124.711 43.6328 124.719 42.0156C124.711 40.3906 123.305 39.3125 121.266 39.3125C119.211 39.3125 117.797 40.3906 117.797 42.0156ZM119.156 49.6094H128.766V48.2031H120.891V45.5H119.156V49.6094ZM119.484 42.0156C119.477 41.1562 120.195 40.6562 121.266 40.6562C122.336 40.6562 123.062 41.1562 123.062 42.0156C123.062 42.8672 122.336 43.3516 121.266 43.3438C120.195 43.3516 119.477 42.8672 119.484 42.0156ZM141.953 35.7656H140.219V49.8594H141.953V42.7344H144.047V41.2812H141.953V35.7656ZM130.812 46L131.797 47.3438C136.492 45.0312 138.211 41.3828 138.219 37.2344H131.578V38.6719H136.453C136.109 41.8906 134.25 44.2812 130.812 46ZM157.625 46.75H154.656V43.1406C155.75 42.4922 156.414 41.5 156.406 40.2656C156.414 38.0156 154.195 36.5312 151.141 36.5312C148.102 36.5312 145.898 38.0156 145.906 40.2656C145.898 41.5156 146.578 42.5312 147.703 43.1797V46.75H144.719V48.1719H157.625V46.75ZM147.609 40.2656C147.602 38.7969 149.031 37.8984 151.141 37.9062C153.242 37.8984 154.703 38.7969 154.703 40.2656C154.703 41.7109 153.242 42.6328 151.141 42.625C149.031 42.6328 147.602 41.7109 147.609 40.2656ZM149.422 46.75V43.8125C149.953 43.9219 150.531 43.9844 151.141 43.9844C151.766 43.9844 152.352 43.9219 152.891 43.8047V46.75H149.422ZM160.938 45.0312V45.1719H162.766V45.0312C162.781 43.8594 163.156 43.3203 164.062 42.7656C165.078 42.1641 165.711 41.3359 165.719 40.0625C165.711 38.2031 164.266 37.0312 162.156 37.0312C160.227 37.0312 158.664 38.1016 158.609 40.2031H160.562C160.617 39.1562 161.367 38.6562 162.141 38.6562C162.992 38.6562 163.68 39.2188 163.672 40.0938C163.68 40.875 163.164 41.3984 162.5 41.8281C161.516 42.4297 160.953 43.0391 160.938 45.0312ZM160.688 47.4062C160.68 48.0781 161.234 48.625 161.906 48.625C162.555 48.625 163.109 48.0781 163.109 47.4062C163.109 46.75 162.555 46.2109 161.906 46.2031C161.234 46.2109 160.68 46.75 160.688 47.4062Z" fill="#202020"/>
<g clip-path="url(#clip0_123_16513)">
<path d="M182.999 53.4983C190 53.4983 193.498 48.7977 193.498 42.9992C193.498 37.2006 190 32.5 182.999 32.5C175.998 32.5 172.5 37.2006 172.5 42.9992C172.5 48.7977 175.998 53.4983 182.999 53.4983Z" fill="url(#paint0_radial_123_16513)"/>
<path d="M182.999 53.4983C190 53.4983 193.498 48.7977 193.498 42.9992C193.498 37.2006 190 32.5 182.999 32.5C175.998 32.5 172.5 37.2006 172.5 42.9992C172.5 48.7977 175.998 53.4983 182.999 53.4983Z" fill="url(#paint1_radial_123_16513)"/>
<path d="M182.999 53.4983C190 53.4983 193.498 48.7977 193.498 42.9992C193.498 37.2006 190 32.5 182.999 32.5C175.998 32.5 172.5 37.2006 172.5 42.9992C172.5 48.7977 175.998 53.4983 182.999 53.4983Z" fill="url(#paint2_radial_123_16513)" fill-opacity="0.6"/>
<path d="M182.999 53.4983C190 53.4983 193.498 48.7977 193.498 42.9992C193.498 37.2006 190 32.5 182.999 32.5C175.998 32.5 172.5 37.2006 172.5 42.9992C172.5 48.7977 175.998 53.4983 182.999 53.4983Z" fill="url(#paint3_radial_123_16513)"/>
<path d="M182.999 53.4983C190 53.4983 193.498 48.7977 193.498 42.9992C193.498 37.2006 190 32.5 182.999 32.5C175.998 32.5 172.5 37.2006 172.5 42.9992C172.5 48.7977 175.998 53.4983 182.999 53.4983Z" fill="url(#paint4_radial_123_16513)"/>
<path d="M182.999 53.4983C190 53.4983 193.498 48.7977 193.498 42.9992C193.498 37.2006 190 32.5 182.999 32.5C175.998 32.5 172.5 37.2006 172.5 42.9992C172.5 48.7977 175.998 53.4983 182.999 53.4983Z" fill="url(#paint5_radial_123_16513)"/>
<path d="M182.999 53.4983C190 53.4983 193.498 48.7977 193.498 42.9992C193.498 37.2006 190 32.5 182.999 32.5C175.998 32.5 172.5 37.2006 172.5 42.9992C172.5 48.7977 175.998 53.4983 182.999 53.4983Z" fill="url(#paint6_radial_123_16513)"/>
<path d="M178.5 47.125V44.8295C178.5 44.2333 178.017 43.75 177.421 43.75C176.79 43.75 176.292 44.2886 176.283 44.9191C176.268 45.9402 176.127 47.2912 175.5 47.5C173.25 48.25 172.5 51.625 174.375 53.125C175.875 54.3251 177.375 54.25 178.5 54.25H180.573C181.085 54.25 181.5 53.8349 181.5 53.3229C181.5 52.9718 181.302 52.6508 180.988 52.4938L180.75 52.375H181.29C181.634 52.375 181.934 52.1408 182.017 51.8069L182.068 51.6026C182.161 51.233 181.881 50.875 181.5 50.875L181.747 50.7516C182.055 50.5974 182.25 50.2822 182.25 49.9375C182.25 49.5928 182.055 49.2776 181.747 49.1234L181.5 49H182.813C183.33 49 183.75 48.5803 183.75 48.0625C183.75 47.5447 183.33 47.125 182.813 47.125H178.5Z" fill="url(#paint7_radial_123_16513)"/>
<path d="M180.75 45.25C180.75 45.25 181.593 44.2729 183.188 44.5001C184.782 44.7272 185.25 46 185.25 46" stroke="#402A32" stroke-width="2" stroke-linecap="round" stroke-linejoin="round"/>
<circle cx="177.763" cy="41.0655" r="3.50497" fill="url(#paint8_radial_123_16513)"/>
<ellipse cx="185.433" cy="41.4576" rx="3.18323" ry="3.18323" fill="url(#paint9_radial_123_16513)"/>
<path d="M178.815 43.1683C180.557 43.1683 181.969 41.756 181.969 40.0138C181.969 38.2717 180.557 36.8594 178.815 36.8594C177.072 36.8594 175.66 38.2717 175.66 40.0138C175.66 41.756 177.072 43.1683 178.815 43.1683Z" fill="white"/>
<path d="M187.177 43.2258C188.935 43.2258 190.36 41.8007 190.36 40.0426C190.36 38.2846 188.935 36.8594 187.177 36.8594C185.418 36.8594 183.993 38.2846 183.993 40.0426C183.993 41.8007 185.418 43.2258 187.177 43.2258Z" fill="white"/>
<path fill-rule="evenodd" clip-rule="evenodd" d="M180.75 39.625C180.75 40.8676 179.743 41.875 178.5 41.875C177.257 41.875 176.25 40.8676 176.25 39.625C176.25 38.3824 177.257 37.375 178.5 37.375C179.743 37.375 180.75 38.3824 180.75 39.625ZM189 39.625C189 40.8676 187.993 41.875 186.75 41.875C185.507 41.875 184.5 40.8676 184.5 39.625C184.5 38.3824 185.507 37.375 186.75 37.375C187.993 37.375 189 38.3824 189 39.625Z" fill="url(#paint10_linear_123_16513)"/>
<g filter="url(#filter0_f_123_16513)">
<path fill-rule="evenodd" clip-rule="evenodd" d="M180.527 52.5161L180.568 52.3526C180.66 51.983 180.381 51.625 180 51.625L180.247 51.5016C180.555 51.3474 180.75 51.0322 180.75 50.6875C180.75 50.3428 180.555 50.0276 180.247 49.8734L180 49.75H181.312C181.83 49.75 182.25 49.3303 182.25 48.8125C182.25 48.2947 181.83 47.875 181.312 47.875H177V45.5795C177 44.9833 176.517 44.5 175.92 44.5C175.29 44.5 174.792 45.0386 174.782 45.6691C174.771 46.4624 174.683 47.455 174.351 47.9562C175.503 50.2377 177.562 51.9218 180.527 52.5161Z" fill="#E4694E"/>
</g>
<path d="M178.5 47.125V44.8295C178.5 44.2333 178.017 43.75 177.421 43.75C176.79 43.75 176.292 44.2886 176.283 44.9191C176.268 45.9402 176.127 47.2912 175.5 47.5C173.25 48.25 172.5 51.625 174.375 53.125C175.875 54.3251 177.375 54.25 178.5 54.25H180.573C181.085 54.25 181.5 53.8349 181.5 53.3229C181.5 52.9718 181.302 52.6508 180.988 52.4938L180.75 52.375H181.29C181.634 52.375 181.934 52.1408 182.017 51.8069L182.068 51.6026C182.161 51.233 181.881 50.875 181.5 50.875L181.747 50.7516C182.055 50.5974 182.25 50.2822 182.25 49.9375C182.25 49.5928 182.055 49.2776 181.747 49.1234L181.5 49H182.813C183.33 49 183.75 48.5803 183.75 48.0625C183.75 47.5447 183.33 47.125 182.813 47.125H178.5Z" fill="url(#paint11_radial_123_16513)"/>
<path d="M178.5 47.125V44.8295C178.5 44.2333 178.017 43.75 177.421 43.75C176.79 43.75 176.292 44.2886 176.283 44.9191C176.268 45.9402 176.127 47.2912 175.5 47.5C173.25 48.25 172.5 51.625 174.375 53.125C175.875 54.3251 177.375 54.25 178.5 54.25H180.573C181.085 54.25 181.5 53.8349 181.5 53.3229C181.5 52.9718 181.302 52.6508 180.988 52.4938L180.75 52.375H181.29C181.634 52.375 181.934 52.1408 182.017 51.8069L182.068 51.6026C182.161 51.233 181.881 50.875 181.5 50.875L181.747 50.7516C182.055 50.5974 182.25 50.2822 182.25 49.9375C182.25 49.5928 182.055 49.2776 181.747 49.1234L181.5 49H182.813C183.33 49 183.75 48.5803 183.75 48.0625C183.75 47.5447 183.33 47.125 182.813 47.125H178.5Z" fill="url(#paint12_radial_123_16513)"/>
<path d="M180.375 34.375C180.125 34.125 179.4 33.625 178.5 33.625C177.6 33.625 176.875 34.125 176.625 34.375" stroke="#402A32" stroke-linecap="round" stroke-linejoin="round"/>
<path d="M184.875 37.375C184.875 37.375 185.625 36.625 187.125 36.625C188.625 36.625 189.375 37.375 189.375 37.375" stroke="#402A32" stroke-linecap="round" stroke-linejoin="round"/>
<g opacity="0.8" filter="url(#filter1_f_123_16513)">
<rect x="178.5" y="48.25" width="5.25" height="0.75" fill="#FFA048"/>
</g>
<path d="M179.25 49H181.5C181.914 49 182.25 49.3358 182.25 49.75L179.25 49Z" fill="url(#paint13_linear_123_16513)"/>
<path d="M179.25 52.375H180.75C181.164 52.375 181.5 52.7108 181.5 53.125L179.25 52.375Z" fill="url(#paint14_linear_123_16513)"/>
<path d="M179.25 50.875H181.5C181.914 50.875 182.25 51.2108 182.25 51.625L179.25 50.875Z" fill="url(#paint15_linear_123_16513)"/>
</g>
<path d="M26.8105 77.0615H25.1992V90.3037H26.8105V83.6826H28.8467V82.335H26.8105V77.0615ZM16.3662 80.4014H24.1738V79.0977H21.127V77.252H19.501V79.0977H16.3662V80.4014ZM16.9814 84.3857C16.9668 86.2095 18.3877 87.4912 20.3213 87.4912C22.2256 87.4912 23.6392 86.2095 23.6465 84.3857C23.6392 82.5547 22.2256 81.2583 20.3213 81.2656C18.3877 81.2583 16.9668 82.5547 16.9814 84.3857ZM18.5342 84.3857C18.5269 83.3091 19.2812 82.5986 20.3213 82.5986C21.3394 82.5986 22.0791 83.3091 22.0938 84.3857C22.0791 85.4624 21.3394 86.1509 20.3213 86.1436C19.2812 86.1509 18.5269 85.4624 18.5342 84.3857ZM40.1699 84.0049H32.5381V82.291H39.7451V81.0166H32.5381V79.4199H40.0527V78.1016H30.8828V85.2939H40.1699V84.0049ZM29.4033 88.6924H41.5029V87.3594H29.4033V88.6924ZM54.4668 87.3594H49.1934V84.4736H53.0752V78.0869H43.7002V84.4736H47.582V87.3594H42.3672V88.6924H54.4668V87.3594ZM45.2969 83.1992V79.3906H51.4639V83.1992H45.2969ZM67.5771 78.834H65.7754V77.0615H64.1494V84.8398H65.7754V83.0234H67.5771V81.6758H65.7754V80.167H67.5771V78.834ZM55.4775 80.9873C55.4702 82.8477 57.0083 84.1587 59.0518 84.166C61.0879 84.1587 62.6113 82.8477 62.626 80.9873C62.6113 79.1196 61.0879 77.8086 59.0518 77.8232C57.0083 77.8086 55.4702 79.1196 55.4775 80.9873ZM56.9863 87.7256C56.9863 89.3296 58.7295 90.2891 61.4688 90.2891C64.186 90.2891 65.8999 89.3296 65.9072 87.7256C65.8999 86.1069 64.186 85.1548 61.4688 85.1475C58.7295 85.1548 56.9863 86.1069 56.9863 87.7256ZM57.0742 80.9873C57.0669 79.896 57.9092 79.1782 59.0518 79.1855C60.1797 79.1782 61.022 79.896 61.0293 80.9873C61.022 82.0859 60.1797 82.7817 59.0518 82.7891C57.9092 82.7817 57.0669 82.0859 57.0742 80.9873ZM58.6123 87.7256C58.6123 86.8979 59.6523 86.4512 61.4688 86.4512C63.2778 86.4512 64.2959 86.8979 64.2959 87.7256C64.2959 88.5605 63.2778 88.9854 61.4688 88.9854C59.6523 88.9854 58.6123 88.5605 58.6123 87.7256ZM82.9434 77.0762H81.3174V79.3613H78.6514V77.9404H77.04V80.0791H74.0811V77.9404H72.4551V84.6934H78.6514V83.5215H81.3174V86.8467H82.9434V77.0762ZM74.0811 83.4043V81.3389H77.04V83.4043H74.0811ZM74.2129 90.04H83.2363V88.7217H75.8682V85.8799H74.2129V90.04ZM78.6514 82.2031V80.6797H81.3174V82.2031H78.6514ZM95.9072 77.0762H94.2812V79.3174H91.6226C91.6958 78.8999 91.7324 78.4604 91.7324 77.999H85.6533V79.3174H89.9526C89.7036 81.2876 88.0483 82.8623 84.9502 83.6973L85.6094 84.9863C88.4878 84.1807 90.4214 82.7085 91.2563 80.6064H94.2812V82.0273H91.1318V83.3457H94.2812V84.8105H95.9072V77.0762ZM87.0303 87.5938C87.0303 89.2197 88.8101 90.2378 91.5273 90.2305C94.208 90.2378 95.9951 89.2197 95.9951 87.5938C95.9951 85.9678 94.208 84.9644 91.5273 84.957C88.8101 84.9644 87.0303 85.9678 87.0303 87.5938ZM88.6562 87.5938C88.6562 86.7075 89.7476 86.2314 91.5273 86.2314C93.2778 86.2314 94.3618 86.7075 94.3691 87.5938C94.3618 88.4653 93.2778 88.9414 91.5273 88.9414C89.7476 88.9414 88.6562 88.4653 88.6562 87.5938Z" fill="#0E1B47"/>
<path d="M102.133 84.957C102.133 87.7183 102.953 90.0107 104.33 91.9883H106.088C105.077 90.5234 104.066 87.5791 104.066 84.957C104.066 82.335 105.077 79.3979 106.088 77.9404H104.33C102.953 79.9033 102.133 82.2031 102.133 84.957ZM110.541 88.3701H112.152V85.6016H114.936V83.9756H112.152V81.207H110.541V83.9756H107.772V85.6016H110.541V88.3701ZM121.366 78.3945H119.535L116.913 80.0938V81.8369L119.389 80.2549H119.447V89H121.366V78.3945ZM125.497 87.96H123.637L122.875 92.0615H124.267L125.497 87.96ZM131.005 89.1465C133.554 89.1465 135.077 87.1763 135.077 83.6973C135.077 80.2402 133.546 78.248 131.005 78.248C128.463 78.248 126.925 80.2402 126.933 83.6973C126.925 87.1689 128.449 89.1465 131.005 89.1465ZM128.852 83.6973C128.859 81.1704 129.679 79.8374 131.005 79.8301C132.331 79.8374 133.151 81.1704 133.158 83.6973C133.158 86.2461 132.331 87.5425 131.005 87.5498C129.672 87.5425 128.852 86.2461 128.852 83.6973ZM140.585 89.1465C143.134 89.1465 144.657 87.1763 144.657 83.6973C144.657 80.2402 143.126 78.248 140.585 78.248C138.043 78.248 136.505 80.2402 136.513 83.6973C136.505 87.1689 138.029 89.1465 140.585 89.1465ZM138.432 83.6973C138.439 81.1704 139.259 79.8374 140.585 79.8301C141.911 79.8374 142.731 81.1704 142.738 83.6973C142.738 86.2461 141.911 87.5425 140.585 87.5498C139.252 87.5425 138.432 86.2461 138.432 83.6973ZM150.165 89.1465C152.714 89.1465 154.237 87.1763 154.237 83.6973C154.237 80.2402 152.707 78.248 150.165 78.248C147.624 78.248 146.085 80.2402 146.093 83.6973C146.085 87.1689 147.609 89.1465 150.165 89.1465ZM148.012 83.6973C148.019 81.1704 148.839 79.8374 150.165 79.8301C151.491 79.8374 152.311 81.1704 152.318 83.6973C152.318 86.2461 151.491 87.5425 150.165 87.5498C148.832 87.5425 148.012 86.2461 148.012 83.6973ZM166.498 77.0762H164.857V84.7959H162.265V85.9385H164.857V87.0957H166.498V77.0762ZM155.336 83.0234L155.541 84.3271C156.581 84.3271 157.76 84.3198 158.998 84.2686V86.7295H160.624V84.1807C161.745 84.1001 162.873 83.9829 163.964 83.7998L163.876 82.6279C161.063 82.9868 157.775 83.0088 155.336 83.0234ZM156.347 79.9033C156.347 81.3242 157.694 82.2251 159.657 82.2324C161.583 82.2251 162.938 81.3242 162.953 79.9033C162.938 78.5044 161.583 77.5522 159.657 77.5596C157.694 77.5522 156.347 78.5044 156.347 79.9033ZM157.094 90.04H166.806V88.7217H158.72V86.1289H157.094V90.04ZM157.885 79.9033C157.885 79.1855 158.595 78.7534 159.657 78.7607C160.668 78.7534 161.393 79.1855 161.4 79.9033C161.393 80.6211 160.668 81.0386 159.657 81.0459C158.595 81.0386 157.885 80.6211 157.885 79.9033ZM172.299 84.957C172.299 82.2031 171.479 79.9033 170.102 77.9404H168.344C169.354 79.3979 170.365 82.335 170.365 84.957C170.365 87.5791 169.354 90.5234 168.344 91.9883H170.102C171.479 90.0107 172.299 87.7183 172.299 84.957Z" fill="#F1424D"/>
<path d="M25.8984 103.953H24.832V116.107H25.8984V109.859H27.9355V108.971H25.8984V103.953ZM16.4238 106.797H23.6562V105.908H20.6211V104.104H19.5547V105.908H16.4238V106.797ZM17.1211 110.598C17.1143 112.245 18.3721 113.387 20.1016 113.387C21.8174 113.387 23.0684 112.245 23.082 110.598C23.0684 108.957 21.8174 107.809 20.1016 107.809C18.3721 107.809 17.1143 108.957 17.1211 110.598ZM18.1465 110.598C18.1396 109.497 18.9668 108.704 20.1016 108.711C21.2227 108.704 22.043 109.497 22.0566 110.598C22.043 111.705 21.2227 112.484 20.1016 112.471C18.9668 112.484 18.1396 111.705 18.1465 110.598ZM38.4355 110.529H31.1211V108.574H38.0391V107.713H31.1211V105.908H38.2988V105.006H30.0273V111.404H38.4355V110.529ZM28.5918 114.521H39.7207V113.633H28.5918V114.521ZM51.8203 113.646H46.748V110.68H50.4395V104.979H42.0039V110.68H45.6953V113.646H40.6914V114.549H51.8203V113.646ZM43.0566 109.818V105.84H49.4004V109.818H43.0566ZM64.0977 105.799H62.293V103.953H61.2266V111.172H62.293V109.285H64.0977V108.383H62.293V106.688H64.0977V105.799ZM53.0234 107.549C53.0166 109.237 54.3701 110.399 56.209 110.406C58.0615 110.399 59.3945 109.237 59.4082 107.549C59.3945 105.854 58.0615 104.685 56.209 104.691C54.3701 104.685 53.0166 105.854 53.0234 107.549ZM54.0762 107.549C54.0693 106.407 54.9785 105.594 56.209 105.607C57.4531 105.594 58.3486 106.407 58.3555 107.549C58.3486 108.697 57.4531 109.49 56.209 109.504C54.9785 109.49 54.0693 108.697 54.0762 107.549ZM54.3633 113.824C54.3701 115.239 55.915 116.08 58.3965 116.08C60.8779 116.08 62.4023 115.239 62.4023 113.824C62.4023 112.382 60.8779 111.548 58.3965 111.541C55.915 111.548 54.3701 112.382 54.3633 113.824ZM55.4434 113.824C55.4297 112.942 56.5645 112.416 58.3965 112.416C60.2354 112.416 61.3564 112.942 61.3633 113.824C61.3564 114.699 60.2354 115.212 58.3965 115.219C56.5645 115.212 55.4297 114.699 55.4434 113.824ZM78.4805 103.967H77.4004V106.195H74.5293V104.773H73.4766V106.934H70.0859V104.773H69.0195V110.885H74.5293V109.695H77.4004V112.963H78.4805V103.967ZM70.0859 109.996V107.781H73.4766V109.996H70.0859ZM70.6191 115.848H78.7539V114.945H71.6992V112.074H70.6191V115.848ZM74.5293 108.807V107.098H77.4004V108.807H74.5293ZM90.5801 103.967H89.5V106.236H86.6631C86.7656 105.806 86.8203 105.348 86.8203 104.869H81.2832V105.771H85.6514C85.4395 107.877 83.6006 109.524 80.668 110.393L81.1191 111.24C83.7236 110.468 85.5967 109.053 86.3965 107.098H89.5V108.738H86.2734V109.627H89.5V111.268H90.5801V103.967ZM82.541 113.715C82.5342 115.171 84.1133 116.053 86.6016 116.053C89.0625 116.053 90.6484 115.171 90.6484 113.715C90.6484 112.266 89.0625 111.391 86.6016 111.391C84.1133 111.391 82.5342 112.266 82.541 113.715ZM83.5938 113.715C83.6006 112.799 84.7695 112.245 86.6016 112.252C88.4062 112.245 89.5752 112.799 89.582 113.715C89.5752 114.631 88.4062 115.185 86.6016 115.178C84.7695 115.185 83.6006 114.631 83.5938 113.715ZM100.438 107.221V105.006H99.3711V107.221C99.3574 109.524 97.8604 111.849 96.0488 112.676L96.7324 113.578C98.1543 112.86 99.3506 111.322 99.9111 109.49C100.492 111.22 101.688 112.662 103.076 113.332L103.732 112.484C101.941 111.671 100.431 109.442 100.438 107.221ZM105.059 116.135H106.139V103.953H105.059V116.135ZM110.213 114.084H108.887L108.135 117.803H109.146L110.213 114.084ZM125.43 111.021H117.568V115.943H125.662V115.109H118.648V113.852H125.238V113.031H118.648V111.842H125.43V111.021ZM115.477 109.887L115.887 110.762C119.482 109.839 121.608 107.747 121.615 104.691H116.092V105.566H120.446C120.248 107.576 118.498 109.142 115.477 109.887ZM121.67 107.932H124.309V110.529H125.389V103.953H124.309V107.043H121.67V107.932ZM133.564 105.02H127.986V110.693H133.564V109.6H136.408V112.84H137.488V103.967H136.408V106.1H133.564V105.02ZM129.053 109.832V105.908H132.512V109.832H129.053ZM129.627 115.848H137.762V114.945H130.707V112.047H129.627V115.848ZM133.564 108.711V107.002H136.408V108.711H133.564ZM150.586 110.365H139.512V111.24H150.586V110.365ZM140.742 106.797C140.742 108.308 142.41 109.217 145.049 109.217C147.66 109.217 149.335 108.308 149.342 106.797C149.335 105.272 147.66 104.377 145.049 104.391C142.41 104.377 140.742 105.272 140.742 106.797ZM140.947 115.848H149.355V114.945H142.027V112.307H140.947V115.848ZM141.85 106.797C141.843 105.847 143.087 105.252 145.049 105.252C146.997 105.252 148.241 105.847 148.248 106.797C148.241 107.761 146.997 108.342 145.049 108.342C143.087 108.342 141.843 107.761 141.85 106.797ZM164.818 105.197H156.465V106.1H163.779V106.701C163.779 107.323 163.772 107.945 163.752 108.588L156.137 108.902L156.287 109.791L163.704 109.388C163.636 110.331 163.506 111.343 163.232 112.512L164.312 112.607C164.825 110.146 164.825 108.492 164.818 106.701V105.197ZM155.125 114.398H166.199V113.496H155.125V114.398ZM177.26 103.967H176.193V111.172H177.26V103.967ZM167.84 105.566H172.324V107.152H167.867V110.584H168.852C171.094 110.584 172.755 110.516 174.799 110.201L174.676 109.299C172.7 109.627 171.08 109.695 168.906 109.682V108H173.391V104.705H167.84V105.566ZM169.357 115.943H177.26V111.828H169.357V115.943ZM170.41 115.068V112.703H176.207V115.068H170.41ZM189.346 103.953H188.266V116.107H189.346V103.953ZM179.57 112.922L180.172 113.756C181.58 113.093 182.756 111.691 183.303 109.996C183.87 111.603 185.053 112.915 186.461 113.537L187.062 112.703C185.23 111.924 183.809 109.955 183.809 107.918V106.947H186.639V106.072H183.809V104.186H182.742V106.072H179.898V106.947H182.756V107.918C182.756 110.051 181.375 112.102 179.57 112.922ZM202.553 113.592H191.424V114.494H202.553V113.592ZM191.971 110.611L192.422 111.473C194.247 111.097 196.202 109.88 196.981 108.191C197.761 109.873 199.723 111.062 201.582 111.418L202.02 110.57C199.921 110.222 197.528 108.567 197.521 106.633V106.072H201.596V105.184H192.34V106.072H196.414V106.633C196.414 108.567 194.028 110.263 191.971 110.611ZM209.662 105.061H204.043V110.652H209.662V105.061ZM205.096 109.791V105.936H208.623V109.791H205.096ZM205.424 115.848H213.586V114.945H206.477V112.02H205.424V115.848ZM211.959 112.867H213.025V108.561H214.857V107.658H213.025V103.953H211.959V112.867ZM228.543 103.953H227.477V116.107H228.543V109.805H230.512V108.902H228.543V103.953ZM219.219 112.949L219.82 113.797C223.778 111.842 225.392 108.704 225.398 105.266H219.779V106.168H224.312C224.065 109.046 222.356 111.391 219.219 112.949ZM241.053 107.357H233.82V104.199H232.754V108.246H241.053V107.357ZM231.236 110.557H242.324V109.668H231.236V110.557ZM232.576 113.852C232.569 115.26 234.148 116.053 236.773 116.053C239.378 116.053 240.943 115.26 240.957 113.852C240.943 112.437 239.378 111.644 236.773 111.65C234.148 111.644 232.569 112.437 232.576 113.852ZM233.67 113.852C233.656 112.99 234.825 112.505 236.773 112.498C238.701 112.505 239.87 112.99 239.877 113.852C239.87 114.699 238.701 115.212 236.773 115.219C234.825 115.212 233.656 114.699 233.67 113.852ZM252.838 103.953H251.771V111.021H252.838V107.986H254.67V107.07H252.838V103.953ZM243.363 106.1H250.609V105.211H247.52V103.844H246.453V105.211H243.363V106.1ZM244.061 108.793C244.054 110.092 245.223 110.933 246.986 110.926C248.729 110.933 249.898 110.092 249.912 108.793C249.898 107.494 248.729 106.667 246.986 106.66C245.223 106.667 244.054 107.494 244.061 108.793ZM245.086 108.793C245.079 108.007 245.838 107.48 246.986 107.494C248.121 107.48 248.887 108.007 248.9 108.793C248.887 109.586 248.121 110.105 246.986 110.105C245.838 110.105 245.079 109.586 245.086 108.793ZM245.154 115.943H252.838V111.555H251.771V112.854H246.221V111.555H245.154V115.943ZM246.221 115.082V113.701H251.771V115.082H246.221ZM265.457 103.953H264.391V116.107H265.457V103.953ZM256.229 112.977H257.213C259.161 112.977 261.082 112.826 263.242 112.375L263.092 111.459C261.055 111.89 259.141 112.033 257.281 112.047V105.156H256.229V112.977ZM276.941 103.953H275.875V116.135H276.941V109.668H278.979V108.766H276.941V103.953ZM268.068 113.086H269.025C271.336 113.086 272.929 113.018 274.836 112.676L274.699 111.746C272.888 112.081 271.336 112.177 269.135 112.184V106.031H273.742V105.143H268.068V113.086ZM280.92 115.082C281.405 115.075 281.802 114.679 281.795 114.193C281.802 113.715 281.405 113.318 280.92 113.318C280.441 113.318 280.031 113.715 280.045 114.193C280.031 114.679 280.441 115.075 280.92 115.082Z" fill="#525252"/>
<defs>
<filter id="filter0_f_123_16513" x="172.351" y="42.5" width="11.8994" height="12.0156" filterUnits="userSpaceOnUse" color-interpolation-filters="sRGB">
<feFlood flood-opacity="0" result="BackgroundImageFix"/>
<feBlend mode="normal" in="SourceGraphic" in2="BackgroundImageFix" result="shape"/>
<feGaussianBlur stdDeviation="1" result="effect1_foregroundBlur_123_16513"/>
</filter>
<filter id="filter1_f_123_16513" x="177" y="46.75" width="8.25" height="3.75" filterUnits="userSpaceOnUse" color-interpolation-filters="sRGB">
<feFlood flood-opacity="0" result="BackgroundImageFix"/>
<feBlend mode="normal" in="SourceGraphic" in2="BackgroundImageFix" result="shape"/>
<feGaussianBlur stdDeviation="0.75" result="effect1_foregroundBlur_123_16513"/>
</filter>
<radialGradient id="paint0_radial_123_16513" cx="0" cy="0" r="1" gradientUnits="userSpaceOnUse" gradientTransform="translate(190.125 37.75) rotate(131.878) scale(29.2115)">
<stop stop-color="#FFF478"/>
<stop offset="0.474827" stop-color="#FFB02E"/>
<stop offset="1" stop-color="#F70A8D"/>
</radialGradient>
<radialGradient id="paint1_radial_123_16513" cx="0" cy="0" r="1" gradientUnits="userSpaceOnUse" gradientTransform="translate(183 40.375) rotate(101.31) scale(13.3849 17.1435)">
<stop offset="0.787821" stop-color="#F59639" stop-opacity="0"/>
<stop offset="0.972509" stop-color="#FF7DCE"/>
</radialGradient>
<radialGradient id="paint2_radial_123_16513" cx="0" cy="0" r="1" gradientUnits="userSpaceOnUse" gradientTransform="translate(184.5 41.5) rotate(135) scale(30.7591)">
<stop offset="0.314853" stop-opacity="0"/>
<stop offset="1"/>
</radialGradient>
<radialGradient id="paint3_radial_123_16513" cx="0" cy="0" r="1" gradientUnits="userSpaceOnUse" gradientTransform="translate(183 43.75) rotate(77.692) scale(21.1102)">
<stop offset="0.507903" stop-color="#7D6133" stop-opacity="0"/>
<stop offset="1" stop-color="#715B32"/>
</radialGradient>
<radialGradient id="paint4_radial_123_16513" cx="0" cy="0" r="1" gradientUnits="userSpaceOnUse" gradientTransform="translate(183.375 43.375) rotate(55.7131) scale(9.98515 7.23774)">
<stop stop-color="#FFB849"/>
<stop offset="1" stop-color="#FFB847" stop-opacity="0"/>
</radialGradient>
<radialGradient id="paint5_radial_123_16513" cx="0" cy="0" r="1" gradientUnits="userSpaceOnUse" gradientTransform="translate(186.375 44.5) rotate(9.86581) scale(8.75446)">
<stop stop-color="#FFA64B"/>
<stop offset="0.900412" stop-color="#FFAE46" stop-opacity="0"/>
</radialGradient>
<radialGradient id="paint6_radial_123_16513" cx="0" cy="0" r="1" gradientUnits="userSpaceOnUse" gradientTransform="translate(184.125 42.25) rotate(43.9708) scale(44.2897)">
<stop offset="0.185425" stop-opacity="0"/>
<stop offset="1" stop-opacity="0.4"/>
</radialGradient>
<radialGradient id="paint7_radial_123_16513" cx="0" cy="0" r="1" gradientUnits="userSpaceOnUse" gradientTransform="translate(182.625 47.5) rotate(-178.264) scale(12.3807 11.5452)">
<stop offset="0.0661917" stop-color="#FFEA67"/>
<stop offset="0.593499" stop-color="#FFC13F"/>
<stop offset="0.904482" stop-color="#DF9030"/>
</radialGradient>
<radialGradient id="paint8_radial_123_16513" cx="0" cy="0" r="1" gradientUnits="userSpaceOnUse" gradientTransform="translate(180.489 38.3394) rotate(135) scale(7.65192 3.96038)">
<stop stop-color="#392108"/>
<stop offset="1" stop-color="#C87928" stop-opacity="0"/>
</radialGradient>
<radialGradient id="paint9_radial_123_16513" cx="0" cy="0" r="1" gradientUnits="userSpaceOnUse" gradientTransform="translate(187.909 38.9818) rotate(133.664) scale(7.11016 4.0138)">
<stop stop-color="#392108"/>
<stop offset="1" stop-color="#C87928" stop-opacity="0"/>
</radialGradient>
<linearGradient id="paint10_linear_123_16513" x1="183.375" y1="36.25" x2="182.625" y2="41.5" gradientUnits="userSpaceOnUse">
<stop stop-color="#553B3E"/>
<stop offset="1" stop-color="#3D2432"/>
</linearGradient>
<radialGradient id="paint11_radial_123_16513" cx="0" cy="0" r="1" gradientUnits="userSpaceOnUse" gradientTransform="translate(182.625 47.5) rotate(-178.264) scale(12.3807 11.5452)">
<stop offset="0.0661917" stop-color="#FFEA67"/>
<stop offset="0.593499" stop-color="#FFC13F"/>
<stop offset="0.904482" stop-color="#DF9030"/>
</radialGradient>
<radialGradient id="paint12_radial_123_16513" cx="0" cy="0" r="1" gradientUnits="userSpaceOnUse" gradientTransform="translate(178.875 47.875) rotate(172.235) scale(8.32635 8.53766)">
<stop offset="0.499571" stop-color="#FFEA67" stop-opacity="0"/>
<stop offset="0.851196" stop-color="#F9708E"/>
</radialGradient>
<linearGradient id="paint13_linear_123_16513" x1="180.375" y1="49" x2="181.5" y2="50.125" gradientUnits="userSpaceOnUse">
<stop stop-color="#FA9428"/>
<stop offset="1" stop-color="#FA9428" stop-opacity="0"/>
</linearGradient>
<linearGradient id="paint14_linear_123_16513" x1="179.625" y1="52.375" x2="180.75" y2="53.5" gradientUnits="userSpaceOnUse">
<stop stop-color="#FA9428"/>
<stop offset="1" stop-color="#FA9428" stop-opacity="0"/>
</linearGradient>
<linearGradient id="paint15_linear_123_16513" x1="179.625" y1="50.875" x2="180.75" y2="52" gradientUnits="userSpaceOnUse">
<stop stop-color="#FA9428"/>
<stop offset="1" stop-color="#FA9428" stop-opacity="0"/>
</linearGradient>
<clipPath id="clip0_123_16513">
<rect width="24" height="24" fill="white" transform="translate(171 31)"/>
</clipPath>
</defs>
</svg>
