<svg width="360" height="220" viewBox="0 0 360 220" fill="none" xmlns="http://www.w3.org/2000/svg">
<path d="M21.5156 32.1562V29.9062H19.7812V32.1562C19.7734 34.7656 18.4766 37.4688 16.2031 38.5469L17.2656 39.9375C18.8828 39.125 20.0391 37.5312 20.6562 35.6094C21.2578 37.4062 22.3594 38.8984 23.8906 39.6719L24.9531 38.2812C22.7656 37.2266 21.5 34.6797 21.5156 32.1562ZM25.7969 42.8906H27.5312V35.7812H29.7031V34.2969H27.5312V28.7656H25.7969V42.8906ZM42.0469 28.7656H40.2969V42.9062H42.0469V28.7656ZM30.75 34.7812C30.7422 37.8516 32.2969 39.7812 34.4375 39.7812C36.5547 39.7812 38.1172 37.8516 38.125 34.7812C38.1172 31.7344 36.5547 29.7969 34.4375 29.7969C32.2969 29.7969 30.7422 31.7344 30.75 34.7812ZM32.4219 34.7812C32.4219 32.625 33.2422 31.3594 34.4375 31.3594C35.625 31.3594 36.4375 32.625 36.4375 34.7812C36.4375 36.9531 35.625 38.2109 34.4375 38.2188C33.2422 38.2109 32.4219 36.9531 32.4219 34.7812ZM57.0312 39.6875H44.125V41.125H57.0312V39.6875ZM44.6875 36.1094L45.375 37.5156C47.7266 37.0703 49.6641 35.7578 50.5703 33.9688C51.4922 35.7344 53.4453 37.0078 55.8281 37.4375L56.5156 36.0625C53.5781 35.6094 51.4688 33.7266 51.4688 31.6562V31.4375H55.9219V30.0469H45.2031V31.4375H49.6406V31.6562C49.6484 33.7266 47.5391 35.6641 44.6875 36.1094ZM69.3906 32.7656H61.3281V29.2812H59.6094V34.1406H69.3906V32.7656ZM57.9375 37.1562H70.8438V35.7812H57.9375V37.1562ZM59.4844 42.5625H69.4844V41.1562H61.2188V38.4062H59.4844V42.5625ZM87.3281 28.7656H85.5781V42.9062H87.3281V28.7656ZM76.0312 34.7812C76.0234 37.8516 77.5781 39.7812 79.7188 39.7812C81.8359 39.7812 83.3984 37.8516 83.4062 34.7812C83.3984 31.7344 81.8359 29.7969 79.7188 29.7969C77.5781 29.7969 76.0234 31.7344 76.0312 34.7812ZM77.7031 34.7812C77.7031 32.625 78.5234 31.3594 79.7188 31.3594C80.9062 31.3594 81.7188 32.625 81.7188 34.7812C81.7188 36.9531 80.9062 38.2109 79.7188 38.2188C78.5234 38.2109 77.7031 36.9531 77.7031 34.7812ZM101.234 28.7656H99.5V31.3281H97.0938V32.7344H99.5V36.4375H101.234V28.7656ZM89.9375 30.7031H94.5938V31.875H89.9531V35.6875H91.0781C93.7266 35.6953 95.4688 35.6406 97.5 35.2969L97.3438 33.9375C95.5391 34.2734 93.9688 34.3359 91.7031 34.3438V33.1094H96.3281V29.3906H89.9375V30.7031ZM91.5156 38.4688H101.484V37.1562H97.375V36.0156H95.6406V37.1562H91.5156V38.4688ZM92.4844 40.8906C92.4766 42.2109 93.9453 42.875 96.5 42.875C99.0547 42.875 100.539 42.2109 100.531 40.8906C100.539 39.6016 99.0547 38.9297 96.5 38.9219C93.9453 38.9297 92.4766 39.6016 92.4844 40.8906ZM94.1719 40.8906C94.1641 40.4062 94.9297 40.1328 96.5 40.125C98.0625 40.1328 98.8359 40.4062 98.8438 40.8906C98.8359 41.4219 98.0625 41.6719 96.5 41.6719C94.9297 41.6719 94.1641 41.4219 94.1719 40.8906ZM115.422 28.7656H113.766V42.8906H115.422V28.7656ZM103.125 38.6719L104.109 39.9062C106.102 38.75 107.43 37.3359 108.25 35.7188H110.781V42.2188H112.422V29.1094H110.781V34.3281H108.82C109.203 33.1328 109.375 31.8516 109.375 30.4844H103.844V31.8906H107.656C107.391 34.7344 106.047 36.9453 103.125 38.6719ZM125.875 37.9531V37.375H124.188V37.9531C124.18 39.3281 123.297 40.7656 121.469 41.4062L122.328 42.6719C123.633 42.2031 124.531 41.3203 125.039 40.2344C125.484 41.3516 126.328 42.3047 127.672 42.7969C128.953 42.2812 129.781 41.2969 130.242 40.1797C130.734 41.3125 131.641 42.2109 133.016 42.6719L133.859 41.4062C132.008 40.8203 131.133 39.4297 131.141 37.9531V37.375H129.438V37.9531C129.43 39.0234 128.859 40.3047 127.625 41.1406C126.414 40.3594 125.875 39.1328 125.875 37.9531ZM121.109 32.8906C121.109 34.8516 122.734 36.2422 124.922 36.2344C127.102 36.2422 128.727 34.8516 128.719 32.8906C128.727 30.9062 127.102 29.5312 124.922 29.5312C122.734 29.5312 121.109 30.9062 121.109 32.8906ZM122.812 32.8906C122.805 31.7344 123.688 30.9922 124.922 31C126.133 30.9922 127.016 31.7344 127.016 32.8906C127.016 34.0469 126.133 34.7891 124.922 34.7969C123.688 34.7891 122.805 34.0469 122.812 32.8906ZM130.875 36.7812H132.625V28.7812H130.875V36.7812ZM138.547 29.7969C136.422 29.7969 134.914 31.7344 134.922 34.7812C134.914 37.8516 136.422 39.7812 138.547 39.7812C140.508 39.7812 141.945 38.1016 142.133 35.375H144.812V42.9062H146.531V28.7656H144.812V33.9688H142.117C141.867 31.3906 140.453 29.7969 138.547 29.7969ZM136.594 34.7812C136.586 32.625 137.383 31.3594 138.547 31.3594C139.719 31.3594 140.508 32.625 140.516 34.7812C140.508 36.9531 139.719 38.2109 138.547 38.2188C137.383 38.2109 136.586 36.9531 136.594 34.7812ZM161.422 39.75H158.453V36.1406C159.547 35.4922 160.211 34.5 160.203 33.2656C160.211 31.0156 157.992 29.5312 154.938 29.5312C151.898 29.5312 149.695 31.0156 149.703 33.2656C149.695 34.5156 150.375 35.5312 151.5 36.1797V39.75H148.516V41.1719H161.422V39.75ZM151.406 33.2656C151.398 31.7969 152.828 30.8984 154.938 30.9062C157.039 30.8984 158.5 31.7969 158.5 33.2656C158.5 34.7109 157.039 35.6328 154.938 35.625C152.828 35.6328 151.398 34.7109 151.406 33.2656ZM153.219 39.75V36.8125C153.75 36.9219 154.328 36.9844 154.938 36.9844C155.562 36.9844 156.148 36.9219 156.688 36.8047V39.75H153.219ZM165.25 30.1875H163.125L163.312 38.1719H165.078L165.25 30.1875ZM162.984 40.4062C162.977 41.0781 163.531 41.625 164.203 41.625C164.852 41.625 165.406 41.0781 165.406 40.4062C165.406 39.75 164.852 39.2109 164.203 39.2031C163.531 39.2109 162.977 39.75 162.984 40.4062Z" fill="#202020"/>
<g clip-path="url(#clip0_123_16442)">
<path d="M189.197 40.8352L189.081 33.7927C189.007 33.1244 188.64 32.2264 187.387 32.2264C185.925 32.2961 185.867 33.7927 185.867 33.7927L183.64 29.8132C183.083 28.9662 182.169 28.9073 181.598 29.2563C181.026 29.6053 180.902 30.3121 180.902 30.3121L180.437 29.7088C180.088 29.137 179.044 29.0704 178.511 29.3955C177.627 29.9351 177.499 31.0523 178.071 31.6695C178.033 31.6291 177.596 31.4778 176.864 31.9248C176.292 32.2738 176.116 33.3171 176.435 33.9088C176.754 34.5004 176.8 34.5933 176.8 34.5933C176.8 34.5933 176.307 34.3612 175.53 34.8833C174.974 35.2568 174.775 36.3652 175.124 36.9369L176.996 40.0935L179.572 44.3037C181.087 46.4507 184.317 47.192 186.664 45.7665C188.264 44.7944 189.349 42.7403 189.197 40.8352Z" fill="#FF9D25"/>
<path d="M189.197 40.8352L189.081 33.7927C189.007 33.1244 188.64 32.2264 187.387 32.2264C185.925 32.2961 185.867 33.7927 185.867 33.7927L183.64 29.8132C183.083 28.9662 182.169 28.9073 181.598 29.2563C181.026 29.6053 180.902 30.3121 180.902 30.3121L180.437 29.7088C180.088 29.137 179.044 29.0704 178.511 29.3955C177.627 29.9351 177.499 31.0523 178.071 31.6695C178.033 31.6291 177.596 31.4778 176.864 31.9248C176.292 32.2738 176.116 33.3171 176.435 33.9088C176.754 34.5004 176.8 34.5933 176.8 34.5933C176.8 34.5933 176.307 34.3612 175.53 34.8833C174.974 35.2568 174.775 36.3652 175.124 36.9369L176.996 40.0935L179.572 44.3037C181.087 46.4507 184.317 47.192 186.664 45.7665C188.264 44.7944 189.349 42.7403 189.197 40.8352Z" fill="url(#paint0_linear_123_16442)"/>
<path d="M189.197 40.8352L189.081 33.7927C189.007 33.1244 188.64 32.2264 187.387 32.2264C185.925 32.2961 185.867 33.7927 185.867 33.7927L183.64 29.8132C183.083 28.9662 182.169 28.9073 181.598 29.2563C181.026 29.6053 180.902 30.3121 180.902 30.3121L180.437 29.7088C180.088 29.137 179.044 29.0704 178.511 29.3955C177.627 29.9351 177.499 31.0523 178.071 31.6695C178.033 31.6291 177.596 31.4778 176.864 31.9248C176.292 32.2738 176.116 33.3171 176.435 33.9088C176.754 34.5004 176.8 34.5933 176.8 34.5933C176.8 34.5933 176.307 34.3612 175.53 34.8833C174.974 35.2568 174.775 36.3652 175.124 36.9369L176.996 40.0935L179.572 44.3037C181.087 46.4507 184.317 47.192 186.664 45.7665C188.264 44.7944 189.349 42.7403 189.197 40.8352Z" fill="url(#paint1_radial_123_16442)"/>
<path d="M189.197 40.8352L189.081 33.7927C189.007 33.1244 188.64 32.2264 187.387 32.2264C185.925 32.2961 185.867 33.7927 185.867 33.7927L183.64 29.8132C183.083 28.9662 182.169 28.9073 181.598 29.2563C181.026 29.6053 180.902 30.3121 180.902 30.3121L180.437 29.7088C180.088 29.137 179.044 29.0704 178.511 29.3955C177.627 29.9351 177.499 31.0523 178.071 31.6695C178.033 31.6291 177.596 31.4778 176.864 31.9248C176.292 32.2738 176.116 33.3171 176.435 33.9088C176.754 34.5004 176.8 34.5933 176.8 34.5933C176.8 34.5933 176.307 34.3612 175.53 34.8833C174.974 35.2568 174.775 36.3652 175.124 36.9369L176.996 40.0935L179.572 44.3037C181.087 46.4507 184.317 47.192 186.664 45.7665C188.264 44.7944 189.349 42.7403 189.197 40.8352Z" fill="url(#paint2_radial_123_16442)"/>
<path d="M189.197 40.8352L189.081 33.7927C189.007 33.1244 188.64 32.2264 187.387 32.2264C185.925 32.2961 185.867 33.7927 185.867 33.7927L183.64 29.8132C183.083 28.9662 182.169 28.9073 181.598 29.2563C181.026 29.6053 180.902 30.3121 180.902 30.3121L180.437 29.7088C180.088 29.137 179.044 29.0704 178.511 29.3955C177.627 29.9351 177.499 31.0523 178.071 31.6695C178.033 31.6291 177.596 31.4778 176.864 31.9248C176.292 32.2738 176.116 33.3171 176.435 33.9088C176.754 34.5004 176.8 34.5933 176.8 34.5933C176.8 34.5933 176.307 34.3612 175.53 34.8833C174.974 35.2568 174.775 36.3652 175.124 36.9369L176.996 40.0935L179.572 44.3037C181.087 46.4507 184.317 47.192 186.664 45.7665C188.264 44.7944 189.349 42.7403 189.197 40.8352Z" fill="url(#paint3_radial_123_16442)"/>
<path d="M189.197 40.8352L189.081 33.7927C189.007 33.1244 188.64 32.2264 187.387 32.2264C185.925 32.2961 185.867 33.7927 185.867 33.7927L183.64 29.8132C183.083 28.9662 182.169 28.9073 181.598 29.2563C181.026 29.6053 180.902 30.3121 180.902 30.3121L180.437 29.7088C180.088 29.137 179.044 29.0704 178.511 29.3955C177.627 29.9351 177.499 31.0523 178.071 31.6695C178.033 31.6291 177.596 31.4778 176.864 31.9248C176.292 32.2738 176.116 33.3171 176.435 33.9088C176.754 34.5004 176.8 34.5933 176.8 34.5933C176.8 34.5933 176.307 34.3612 175.53 34.8833C174.974 35.2568 174.775 36.3652 175.124 36.9369L176.996 40.0935L179.572 44.3037C181.087 46.4507 184.317 47.192 186.664 45.7665C188.264 44.7944 189.349 42.7403 189.197 40.8352Z" fill="url(#paint4_radial_123_16442)"/>
<path d="M189.197 40.8352L189.081 33.7927C189.007 33.1244 188.64 32.2264 187.387 32.2264C185.925 32.2961 185.867 33.7927 185.867 33.7927L183.64 29.8132C183.083 28.9662 182.169 28.9073 181.598 29.2563C181.026 29.6053 180.902 30.3121 180.902 30.3121L180.437 29.7088C180.088 29.137 179.044 29.0704 178.511 29.3955C177.627 29.9351 177.499 31.0523 178.071 31.6695C178.033 31.6291 177.596 31.4778 176.864 31.9248C176.292 32.2738 176.116 33.3171 176.435 33.9088C176.754 34.5004 176.8 34.5933 176.8 34.5933C176.8 34.5933 176.307 34.3612 175.53 34.8833C174.974 35.2568 174.775 36.3652 175.124 36.9369L176.996 40.0935L179.572 44.3037C181.087 46.4507 184.317 47.192 186.664 45.7665C188.264 44.7944 189.349 42.7403 189.197 40.8352Z" fill="url(#paint5_radial_123_16442)"/>
<path d="M189.197 40.8352L189.081 33.7927C189.007 33.1244 188.64 32.2264 187.387 32.2264C185.925 32.2961 185.867 33.7927 185.867 33.7927L183.64 29.8132C183.083 28.9662 182.169 28.9073 181.598 29.2563C181.026 29.6053 180.902 30.3121 180.902 30.3121L180.437 29.7088C180.088 29.137 179.044 29.0704 178.511 29.3955C177.627 29.9351 177.499 31.0523 178.071 31.6695C178.033 31.6291 177.596 31.4778 176.864 31.9248C176.292 32.2738 176.116 33.3171 176.435 33.9088C176.754 34.5004 176.8 34.5933 176.8 34.5933C176.8 34.5933 176.307 34.3612 175.53 34.8833C174.974 35.2568 174.775 36.3652 175.124 36.9369L176.996 40.0935L179.572 44.3037C181.087 46.4507 184.317 47.192 186.664 45.7665C188.264 44.7944 189.349 42.7403 189.197 40.8352Z" fill="url(#paint6_radial_123_16442)"/>
<path d="M189.197 40.8352L189.081 33.7927C189.007 33.1244 188.64 32.2264 187.387 32.2264C185.925 32.2961 185.867 33.7927 185.867 33.7927L183.64 29.8132C183.083 28.9662 182.169 28.9073 181.598 29.2563C181.026 29.6053 180.902 30.3121 180.902 30.3121L180.437 29.7088C180.088 29.137 179.044 29.0704 178.511 29.3955C177.627 29.9351 177.499 31.0523 178.071 31.6695C178.033 31.6291 177.596 31.4778 176.864 31.9248C176.292 32.2738 176.116 33.3171 176.435 33.9088C176.754 34.5004 176.8 34.5933 176.8 34.5933C176.8 34.5933 176.307 34.3612 175.53 34.8833C174.974 35.2568 174.775 36.3652 175.124 36.9369L176.996 40.0935L179.572 44.3037C181.087 46.4507 184.317 47.192 186.664 45.7665C188.264 44.7944 189.349 42.7403 189.197 40.8352Z" fill="url(#paint7_radial_123_16442)"/>
<path d="M189.197 40.8352L189.081 33.7927C189.007 33.1244 188.64 32.2264 187.387 32.2264C185.925 32.2961 185.867 33.7927 185.867 33.7927L183.64 29.8132C183.083 28.9662 182.169 28.9073 181.598 29.2563C181.026 29.6053 180.902 30.3121 180.902 30.3121L180.437 29.7088C180.088 29.137 179.044 29.0704 178.511 29.3955C177.627 29.9351 177.499 31.0523 178.071 31.6695C178.033 31.6291 177.596 31.4778 176.864 31.9248C176.292 32.2738 176.116 33.3171 176.435 33.9088C176.754 34.5004 176.8 34.5933 176.8 34.5933C176.8 34.5933 176.307 34.3612 175.53 34.8833C174.974 35.2568 174.775 36.3652 175.124 36.9369L176.996 40.0935L179.572 44.3037C181.087 46.4507 184.317 47.192 186.664 45.7665C188.264 44.7944 189.349 42.7403 189.197 40.8352Z" fill="url(#paint8_radial_123_16442)"/>
<path fill-rule="evenodd" clip-rule="evenodd" d="M176.049 34.6206C176.124 34.6537 176.208 34.6688 176.295 34.6608C176.396 34.6517 176.603 34.6645 176.836 34.7268C177.07 34.7889 177.275 34.8857 177.406 35.0027C177.471 35.06 177.579 35.1887 177.726 35.398C177.868 35.5982 178.025 35.8428 178.189 36.1069C178.32 36.3176 178.457 36.5458 178.592 36.7692C178.785 37.0876 178.971 37.3963 179.123 37.6311C179.273 37.863 179.583 37.9293 179.815 37.7793C180.047 37.6293 180.113 37.3197 179.963 37.0879C179.815 36.8599 179.646 36.5801 179.464 36.2778L179.464 36.2778C179.329 36.0534 179.186 35.8166 179.038 35.5795C178.871 35.3097 178.702 35.0457 178.543 34.8216C178.392 34.6065 178.228 34.395 178.071 34.2553C177.78 33.9974 177.413 33.8454 177.094 33.7604C176.829 33.6899 176.558 33.6554 176.335 33.6584C176.36 33.748 176.393 33.8324 176.434 33.9093C176.754 34.501 176.8 34.5938 176.8 34.5938C176.8 34.5938 176.52 34.4619 176.049 34.6206Z" fill="url(#paint9_radial_123_16442)"/>
<path fill-rule="evenodd" clip-rule="evenodd" d="M177.361 31.6894C177.439 31.726 177.527 31.743 177.619 31.7346C177.828 31.7156 178.214 31.7423 178.718 32.1904M177.724 30.7305C177.718 31.0783 177.835 31.4165 178.07 31.6702C178.042 31.64 177.791 31.548 177.361 31.6894M177.724 30.7305C178.179 30.7332 178.76 30.89 179.383 31.443C179.483 31.5325 179.581 31.6592 179.666 31.7785C179.757 31.9066 179.857 32.0614 179.962 32.2308C180.171 32.57 180.411 32.9887 180.649 33.4133C180.784 33.6542 180.917 33.8952 181.045 34.1258C181.378 34.7252 181.671 35.2546 181.849 35.5295C181.999 35.7613 181.933 36.0709 181.701 36.2209C181.469 36.3709 181.16 36.3046 181.01 36.0727C180.812 35.767 180.489 35.1857 180.148 34.5706L180.148 34.5706C180.025 34.3485 179.9 34.1219 179.777 33.9023C179.54 33.4796 179.309 33.0763 179.111 32.756C179.012 32.5957 178.925 32.4613 178.851 32.3581C178.815 32.3066 178.784 32.2661 178.759 32.2357C178.746 32.2206 178.736 32.2093 178.729 32.2012" fill="url(#paint10_radial_123_16442)"/>
<path fill-rule="evenodd" clip-rule="evenodd" d="M180.38 29.6275C180.389 29.6952 180.412 29.7621 180.451 29.8239L180.501 29.7925L180.437 29.7088C180.419 29.6805 180.4 29.6533 180.38 29.6275ZM180.501 29.7926L180.451 29.824L180.451 29.8241L180.451 29.8247L180.453 29.827L180.458 29.8359L180.48 29.871L180.563 30.0048L180.864 30.4885C181.114 30.8921 181.454 31.4387 181.81 32.0102C182.521 33.1506 183.3 34.3976 183.561 34.8006C183.711 35.0324 184.021 35.0988 184.253 34.9487C184.484 34.7987 184.551 34.4892 184.401 34.2573C184.146 33.8635 183.372 32.6261 182.659 31.4813C182.303 30.9102 181.964 30.364 181.713 29.9606L181.412 29.4772L181.379 29.4238C180.992 29.792 180.901 30.3121 180.901 30.3121L180.501 29.7926Z" fill="url(#paint11_radial_123_16442)"/>
<g filter="url(#filter0_f_123_16442)">
<path fill-rule="evenodd" clip-rule="evenodd" d="M188.364 34.2531L188.471 40.7343C188.611 42.4875 187.612 44.378 186.139 45.2725C185.862 45.4413 185.57 45.5771 185.271 45.6814C183.655 45.6979 182.043 44.9508 181.119 43.6404L179.29 41.1477L178.099 39.081C177.774 38.5495 177.959 37.5192 178.476 37.172C179.199 36.6867 179.657 36.9024 179.657 36.9024C179.657 36.9024 179.065 35.9487 178.768 35.3987C178.471 34.8488 178.63 34.0101 179.162 33.6857C179.842 33.2702 180.398 33.7594 180.433 33.797C179.988 33.1935 179.951 31.8376 180.773 31.3361C181.268 31.0339 182.164 30.9632 182.489 31.4947L182.92 32.0555C182.92 32.0555 183.036 31.3985 183.567 31.074C183.582 31.065 183.597 31.0563 183.612 31.0479L185.406 34.2531C185.406 34.2531 185.443 33.3057 186.223 32.9458L187.536 35.2909C187.536 35.2909 187.572 34.3679 188.319 33.9905C188.34 34.0802 188.355 34.1687 188.364 34.2531Z" fill="#F06B0C"/>
</g>
<path d="M193.465 40.7788V33.6655C193.39 32.9905 192.903 32.0835 191.637 32.0835C190.161 32.1538 190.102 33.6655 190.102 33.6655L187.852 29.646C187.289 28.7905 186.367 28.731 185.789 29.0835C185.212 29.436 185.086 30.1499 185.086 30.1499L184.618 29.5405C184.265 28.963 183.21 28.8958 182.672 29.2241C181.779 29.7691 181.65 30.8975 182.227 31.521C182.189 31.4801 181.543 31.3979 181.008 31.7788C180.412 32.2036 180.252 33.1851 180.575 33.7827C180.897 34.3803 180.944 34.4741 180.944 34.4741C180.944 34.4741 180.446 34.2397 179.661 34.7671C179.099 35.1443 178.898 36.2638 179.25 36.8413L181.141 40.0296L183.744 44.2821C185.274 46.4507 188.536 47.1995 190.906 45.7596C192.523 44.7778 193.619 42.703 193.465 40.7788Z" fill="#FFC03C"/>
<path d="M193.465 40.7788V33.6655C193.39 32.9905 192.903 32.0835 191.637 32.0835C190.161 32.1538 190.102 33.6655 190.102 33.6655L187.852 29.646C187.289 28.7905 186.367 28.731 185.789 29.0835C185.212 29.436 185.086 30.1499 185.086 30.1499L184.618 29.5405C184.265 28.963 183.21 28.8958 182.672 29.2241C181.779 29.7691 181.65 30.8975 182.227 31.521C182.189 31.4801 181.543 31.3979 181.008 31.7788C180.412 32.2036 180.252 33.1851 180.575 33.7827C180.897 34.3803 180.944 34.4741 180.944 34.4741C180.944 34.4741 180.446 34.2397 179.661 34.7671C179.099 35.1443 178.898 36.2638 179.25 36.8413L181.141 40.0296L183.744 44.2821C185.274 46.4507 188.536 47.1995 190.906 45.7596C192.523 44.7778 193.619 42.703 193.465 40.7788Z" fill="url(#paint12_radial_123_16442)"/>
<path d="M193.465 40.7788V33.6655C193.39 32.9905 192.903 32.0835 191.637 32.0835C190.161 32.1538 190.102 33.6655 190.102 33.6655L187.852 29.646C187.289 28.7905 186.367 28.731 185.789 29.0835C185.212 29.436 185.086 30.1499 185.086 30.1499L184.618 29.5405C184.265 28.963 183.21 28.8958 182.672 29.2241C181.779 29.7691 181.65 30.8975 182.227 31.521C182.189 31.4801 181.543 31.3979 181.008 31.7788C180.412 32.2036 180.252 33.1851 180.575 33.7827C180.897 34.3803 180.944 34.4741 180.944 34.4741C180.944 34.4741 180.446 34.2397 179.661 34.7671C179.099 35.1443 178.898 36.2638 179.25 36.8413L181.141 40.0296L183.744 44.2821C185.274 46.4507 188.536 47.1995 190.906 45.7596C192.523 44.7778 193.619 42.703 193.465 40.7788Z" fill="url(#paint13_radial_123_16442)"/>
<path d="M193.465 40.7788V33.6655C193.39 32.9905 192.903 32.0835 191.637 32.0835C190.161 32.1538 190.102 33.6655 190.102 33.6655L187.852 29.646C187.289 28.7905 186.367 28.731 185.789 29.0835C185.212 29.436 185.086 30.1499 185.086 30.1499L184.618 29.5405C184.265 28.963 183.21 28.8958 182.672 29.2241C181.779 29.7691 181.65 30.8975 182.227 31.521C182.189 31.4801 181.543 31.3979 181.008 31.7788C180.412 32.2036 180.252 33.1851 180.575 33.7827C180.897 34.3803 180.944 34.4741 180.944 34.4741C180.944 34.4741 180.446 34.2397 179.661 34.7671C179.099 35.1443 178.898 36.2638 179.25 36.8413L181.141 40.0296L183.744 44.2821C185.274 46.4507 188.536 47.1995 190.906 45.7596C192.523 44.7778 193.619 42.703 193.465 40.7788Z" fill="url(#paint14_radial_123_16442)"/>
<path d="M191.637 32.083C190.16 32.1533 190.102 33.665 190.102 33.665L191.508 35.9762C191.508 35.9762 190.77 33.8785 191.637 32.083Z" fill="url(#paint15_linear_123_16442)"/>
<g filter="url(#filter1_f_123_16442)">
<path d="M193.265 41.0621L192.843 34.3473C192.776 33.7398 192.576 32.3903 191.437 32.3903L191.203 36.2574L189.398 33.4215L187.57 30.1871C187.24 29.6859 187.019 29.6129 186.761 29.5543C186.504 29.4957 185.742 29.4958 185.906 29.777C186.07 30.0583 187.968 32.8942 188.66 34.0778C188.918 34.519 187.873 35.2731 187.476 34.7106C187.079 34.1481 184.289 29.9996 184.289 29.9996C183.971 29.4799 182.859 29.2783 182.859 29.777C182.859 30.2833 185.53 33.5752 186.129 35.2028C186.367 35.8514 185.48 36.2792 185.156 35.777C184.832 35.2748 183.468 33.0231 182.789 32.109C182.554 31.7933 181.871 31.4373 181.64 31.7223C181.193 32.2763 181.713 33.1063 182.004 33.6442C182.153 33.9217 183.855 36.4817 184.523 37.6286C184.848 38.1856 183.691 38.7067 183.386 38.32C183.082 37.9333 182.27 36.1882 181.5 35.2028C181.12 34.7174 180.35 34.7415 180.117 34.8981C179.611 35.2376 180.043 36.126 180.36 36.6458C181.85 39.3813 186.515 48.0598 190.781 45.4684C192.236 44.5847 193.404 42.7939 193.265 41.0621Z" fill="url(#paint16_radial_123_16442)"/>
</g>
<path d="M175.269 28.8298L173.874 28.2448C173.656 28.1548 173.596 27.8773 173.761 27.7048L174.489 26.9323C174.646 26.7598 174.931 26.8048 175.036 27.0148L175.704 28.3723C175.831 28.6498 175.554 28.9498 175.269 28.8298Z" fill="#1A80EA"/>
<path d="M175.269 28.8298L173.874 28.2448C173.656 28.1548 173.596 27.8773 173.761 27.7048L174.489 26.9323C174.646 26.7598 174.931 26.8048 175.036 27.0148L175.704 28.3723C175.831 28.6498 175.554 28.9498 175.269 28.8298Z" fill="url(#paint17_linear_123_16442)"/>
<path d="M175.269 28.8298L173.874 28.2448C173.656 28.1548 173.596 27.8773 173.761 27.7048L174.489 26.9323C174.646 26.7598 174.931 26.8048 175.036 27.0148L175.704 28.3723C175.831 28.6498 175.554 28.9498 175.269 28.8298Z" fill="url(#paint18_linear_123_16442)"/>
<path d="M175.269 28.8298L173.874 28.2448C173.656 28.1548 173.596 27.8773 173.761 27.7048L174.489 26.9323C174.646 26.7598 174.931 26.8048 175.036 27.0148L175.704 28.3723C175.831 28.6498 175.554 28.9498 175.269 28.8298Z" fill="url(#paint19_linear_123_16442)"/>
<path d="M177.039 27.6128L176.124 26.3741C175.982 26.1806 176.072 25.9019 176.297 25.8322L177.317 25.5148C177.542 25.4451 177.767 25.6309 177.752 25.8709L177.647 27.427C177.617 27.7444 177.227 27.8683 177.039 27.6128Z" fill="#1A80EA"/>
<path d="M177.039 27.6128L176.124 26.3741C175.982 26.1806 176.072 25.9019 176.297 25.8322L177.317 25.5148C177.542 25.4451 177.767 25.6309 177.752 25.8709L177.647 27.427C177.617 27.7444 177.227 27.8683 177.039 27.6128Z" fill="url(#paint20_linear_123_16442)"/>
<path d="M177.039 27.6128L176.124 26.3741C175.982 26.1806 176.072 25.9019 176.297 25.8322L177.317 25.5148C177.542 25.4451 177.767 25.6309 177.752 25.8709L177.647 27.427C177.617 27.7444 177.227 27.8683 177.039 27.6128Z" fill="url(#paint21_linear_123_16442)"/>
<path d="M177.039 27.6128L176.124 26.3741C175.982 26.1806 176.072 25.9019 176.297 25.8322L177.317 25.5148C177.542 25.4451 177.767 25.6309 177.752 25.8709L177.647 27.427C177.617 27.7444 177.227 27.8683 177.039 27.6128Z" fill="url(#paint22_linear_123_16442)"/>
<path d="M174.443 30.8169L172.89 31.0192C172.649 31.0504 172.455 30.8325 172.509 30.5912L172.766 29.5172C172.82 29.2837 173.1 29.1748 173.302 29.3071L174.599 30.1787C174.863 30.3655 174.762 30.778 174.443 30.8169Z" fill="#1A80EA"/>
<path d="M174.443 30.8169L172.89 31.0192C172.649 31.0504 172.455 30.8325 172.509 30.5912L172.766 29.5172C172.82 29.2837 173.1 29.1748 173.302 29.3071L174.599 30.1787C174.863 30.3655 174.762 30.778 174.443 30.8169Z" fill="url(#paint23_linear_123_16442)"/>
<path d="M174.443 30.8169L172.89 31.0192C172.649 31.0504 172.455 30.8325 172.509 30.5912L172.766 29.5172C172.82 29.2837 173.1 29.1748 173.302 29.3071L174.599 30.1787C174.863 30.3655 174.762 30.778 174.443 30.8169Z" fill="url(#paint24_linear_123_16442)"/>
<path d="M174.443 30.8169L172.89 31.0192C172.649 31.0504 172.455 30.8325 172.509 30.5912L172.766 29.5172C172.82 29.2837 173.1 29.1748 173.302 29.3071L174.599 30.1787C174.863 30.3655 174.762 30.778 174.443 30.8169Z" fill="url(#paint25_linear_123_16442)"/>
<path d="M181.031 34.4894C180.997 34.4756 180.964 34.463 180.932 34.4516C180.905 34.3991 180.819 34.2357 180.574 33.7824C180.545 33.7273 180.519 33.6684 180.498 33.6065C180.748 33.6032 181.048 33.6869 181.313 33.7946C181.618 33.9184 181.944 34.1016 182.195 34.3246C182.346 34.4596 182.506 34.6789 182.656 34.9078C182.812 35.146 182.979 35.4301 183.146 35.7205C183.247 35.8968 183.347 36.0745 183.445 36.2472C183.674 36.655 183.889 37.0357 184.065 37.3077C184.178 37.4816 184.128 37.7138 183.954 37.8263C183.78 37.9388 183.548 37.889 183.435 37.7152C183.246 37.4228 183.013 37.0085 182.777 36.5906C182.683 36.423 182.588 36.2548 182.495 36.0936C182.331 35.8062 182.172 35.5377 182.028 35.3185C181.879 35.09 181.766 34.9472 181.696 34.8852C181.525 34.7332 181.279 34.5903 181.031 34.4894Z" fill="url(#paint26_radial_123_16442)"/>
<path d="M182.166 31.4921C182.05 31.4702 181.948 31.4638 181.868 31.4663C182.006 31.4561 182.107 31.4732 182.166 31.4921Z" fill="url(#paint27_radial_123_16442)"/>
<path d="M183.131 31.9849C182.805 31.6944 182.472 31.5573 182.207 31.5004C182.014 31.2824 181.905 31.0062 181.881 30.7159C182.33 30.7112 183.004 30.8678 183.63 31.4243C183.784 31.5614 183.979 31.8362 184.173 32.1301C184.378 32.44 184.611 32.8208 184.844 33.2098C185.018 33.5001 185.19 33.793 185.352 34.0669C185.629 34.5373 185.873 34.9514 186.033 35.1989C186.146 35.3728 186.096 35.605 185.922 35.7175C185.748 35.83 185.516 35.7802 185.403 35.6063C185.235 35.3465 184.976 34.9067 184.691 34.4235C184.532 34.1531 184.364 33.8689 184.2 33.5952C183.969 33.2085 183.742 32.8389 183.547 32.5429C183.342 32.2311 183.199 32.0447 183.131 31.9849Z" fill="url(#paint28_radial_123_16442)"/>
<path d="M185.088 30.1371L185.098 30.1529C185.349 30.5565 185.689 31.103 186.045 31.6745C186.755 32.8154 187.534 34.0612 187.794 34.4631C187.907 34.637 188.139 34.6867 188.313 34.5742C188.487 34.4617 188.536 34.2295 188.424 34.0556C188.168 33.6606 187.394 32.422 186.681 31.2779C186.325 30.7067 185.985 30.1604 185.735 29.757L185.479 29.3457C185.194 29.6708 185.103 30.0633 185.088 30.1371Z" fill="url(#paint29_linear_123_16442)"/>
<g filter="url(#filter2_f_123_16442)">
<path d="M181.922 32.1797C182.242 32.2031 182.51 32.2521 182.885 32.8334C183.26 33.4146 184.463 35.3881 185.088 36.3724" stroke="#FFE240" stroke-linecap="round" stroke-linejoin="round"/>
</g>
<g filter="url(#filter3_f_123_16442)">
<path d="M180.68 35.0625C181 35.0859 181.268 35.1349 181.643 35.7162C182.018 36.2974 182.703 37.6406 183.328 38.625" stroke="#FFE240" stroke-linecap="round" stroke-linejoin="round"/>
</g>
<g filter="url(#filter4_f_123_16442)">
<path d="M181.5 33.3984C181.82 33.4219 182.182 33.5547 182.557 34.136C182.932 34.7172 183.734 36.3516 184.359 37.3359" stroke="url(#paint30_linear_123_16442)" stroke-width="2" stroke-linecap="round" stroke-linejoin="round"/>
</g>
<g filter="url(#filter5_f_123_16442)">
<path d="M182.812 30.6094C183.133 30.6328 183.893 30.8718 184.268 31.453C184.643 32.0343 185.703 34.0781 186.328 35.0625" stroke="url(#paint31_linear_123_16442)" stroke-width="2" stroke-linecap="round" stroke-linejoin="round"/>
</g>
<g filter="url(#filter6_f_123_16442)">
<path d="M183.584 29.8369C183.904 29.8604 184.172 29.9094 184.547 30.4906C184.922 31.0719 186.993 34.195 187.618 35.1794" stroke="#FFE240" stroke-linecap="round" stroke-linejoin="round"/>
</g>
<g filter="url(#filter7_f_123_16442)">
<path d="M186.392 29.6631C186.712 29.6865 186.98 29.7355 187.355 30.3168C187.73 30.898 189.824 34.7933 190.449 35.7777" stroke="#FFE240" stroke-linecap="round" stroke-linejoin="round"/>
</g>
<g filter="url(#filter8_f_123_16442)">
<path d="M192.26 32.8818C192.526 33.0619 192.734 33.238 192.769 33.9288C192.804 34.6196 192.677 39.0401 192.728 40.2051" stroke="#FFE240" stroke-linecap="round" stroke-linejoin="round"/>
</g>
</g>
<g filter="url(#filter9_i_123_16442)">
<circle cx="47" cy="106" r="28" fill="#FFE8E8"/>
<path d="M19 106L29.1818 106" stroke="#FFA4A9" stroke-width="1.6" stroke-linecap="round"/>
<path d="M19 104L19 108" stroke="#FFA4A9" stroke-width="1.6" stroke-linecap="round"/>
<path d="M75 106L64.8182 106" stroke="#FFA4A9" stroke-width="1.6" stroke-linecap="round"/>
<path d="M75 104L75 108" stroke="#FFA4A9" stroke-width="1.6" stroke-linecap="round"/>
<path d="M37.1712 101.223H35.8285L33.9056 102.469V103.747L35.721 102.587H35.764V109H37.1712V101.223ZM39.0619 109H44.4652V107.829H41.0062V107.775L42.3919 106.4C43.9227 104.956 44.3416 104.247 44.347 103.371C44.3416 102.066 43.2728 101.115 41.683 101.115C40.1307 101.115 39.0243 102.071 39.0296 103.543H40.3617C40.3563 102.753 40.8719 102.254 41.6722 102.254C42.4295 102.254 43.0042 102.71 43.0042 103.436C43.0042 104.091 42.596 104.553 41.8119 105.337L39.0619 107.99V109ZM48.2464 109.118C49.7127 109.118 50.6473 108.243 50.7494 107.013H49.4388C49.3153 107.641 48.8641 107.996 48.2572 108.001C47.3978 107.996 46.8392 107.281 46.8392 106.078C46.8392 104.902 47.4085 104.193 48.2572 104.188C48.9232 104.193 49.3314 104.617 49.4388 105.176H50.7494C50.6527 103.919 49.659 103.092 48.2464 103.092C46.5384 103.092 45.4535 104.322 45.4535 106.11C45.4535 107.872 46.5062 109.118 48.2464 109.118ZM51.7806 109H53.1556V105.455C53.1556 104.73 53.639 104.241 54.2298 104.241C54.8153 104.241 55.2127 104.633 55.2181 105.24V109H56.5501V105.358C56.5501 104.698 56.9422 104.241 57.6136 104.241C58.1722 104.241 58.6126 104.569 58.6126 105.294V109H59.9769V105.079C59.9823 103.779 59.2303 103.092 58.1615 103.092C57.3128 103.092 56.6629 103.511 56.4105 104.155H56.346C56.1258 103.495 55.5565 103.092 54.7669 103.092C53.9935 103.092 53.4081 103.489 53.1664 104.155H53.0912V103.167H51.7806V109Z" fill="#F1424D"/>
</g>
<rect x="27" y="158" width="40" height="22" rx="11" fill="#F1F1F1"/>
<path d="M42.1504 164.796H36.8184V172.273H42.1504V164.796ZM38.0117 171.296V165.748H40.9824V171.296H38.0117ZM44.3975 175.104H45.6035V163.704H44.3975V175.104ZM56.8643 163.704H55.6582V175.079H56.8643V163.704ZM48.1172 172.185H49.0693C50.8657 172.191 52.6938 172.051 54.7061 171.639L54.541 170.623C52.7192 170.991 50.9736 171.137 49.3105 171.144V164.809H48.1172V172.185Z" fill="#202020"/>
<g filter="url(#filter10_i_123_16442)">
<circle cx="122" cy="106" r="35" fill="#FFE8E8"/>
</g>
<path d="M87 105L87 109" stroke="#FFA4A9" stroke-width="1.6" stroke-linecap="round"/>
<path d="M87 107L105 107" stroke="#FFA4A9" stroke-width="1.6" stroke-linecap="round"/>
<path d="M157 105L157 109" stroke="#FFA4A9" stroke-width="1.6" stroke-linecap="round"/>
<path d="M157 107H139" stroke="#FFA4A9" stroke-width="1.6" stroke-linecap="round"/>
<path d="M111.793 102.223H110.451L108.528 103.469V104.747L110.343 103.587H110.386V110H111.793V102.223ZM116.445 110.107C118.126 110.107 119.297 108.996 119.292 107.443C119.297 105.945 118.223 104.871 116.778 104.865C116.139 104.871 115.575 105.118 115.274 105.456H115.199L115.435 103.394H118.883V102.223H114.286L113.813 106.627H115.113C115.354 106.17 115.795 105.956 116.402 105.961C117.299 105.966 117.943 106.595 117.938 107.486C117.943 108.346 117.315 108.974 116.445 108.979C115.709 108.974 115.113 108.523 115.07 107.895H113.706C113.749 109.178 114.893 110.107 116.445 110.107ZM123.03 110.118C124.496 110.118 125.431 109.243 125.533 108.013H124.222C124.099 108.641 123.647 108.996 123.041 109.001C122.181 108.996 121.623 108.281 121.623 107.078C121.623 105.902 122.192 105.193 123.041 105.188C123.707 105.193 124.115 105.617 124.222 106.176H125.533C125.436 104.919 124.442 104.092 123.03 104.092C121.322 104.092 120.237 105.322 120.237 107.11C120.237 108.872 121.29 110.118 123.03 110.118ZM126.564 110H127.939V106.455C127.939 105.73 128.422 105.241 129.013 105.241C129.599 105.241 129.996 105.633 130.001 106.24V110H131.333V106.358C131.333 105.698 131.726 105.241 132.397 105.241C132.956 105.241 133.396 105.569 133.396 106.294V110H134.76V106.079C134.766 104.779 134.014 104.092 132.945 104.092C132.096 104.092 131.446 104.511 131.194 105.155H131.129C130.909 104.495 130.34 104.092 129.55 104.092C128.777 104.092 128.191 104.489 127.95 105.155H127.875V104.167H126.564V110Z" fill="#F1424D"/>
<rect x="102" y="158" width="40" height="22" rx="11" fill="#F1F1F1"/>
<path d="M117.772 164.809H116.401L114.116 166.307V167.64L116.312 166.205H116.363V174H117.772V164.809ZM129.566 165.304H125.491V163.869H124.298V165.304H120.21V166.281H129.566V165.304ZM119.715 173.797H130.125V172.819H125.491V171.315C127.459 171.188 128.684 170.401 128.678 169.138C128.684 167.767 127.211 166.96 124.895 166.967C122.546 166.96 121.092 167.767 121.099 169.138C121.092 170.401 122.305 171.188 124.298 171.315V172.819H119.715V173.797ZM122.33 169.138C122.317 168.351 123.27 167.919 124.895 167.919C126.494 167.919 127.453 168.351 127.446 169.138C127.453 169.931 126.494 170.363 124.895 170.369C123.27 170.363 122.317 169.931 122.33 169.138Z" fill="#202020"/>
<g filter="url(#filter11_i_123_16442)">
<circle cx="207" cy="106" r="38" fill="#FFE8E8"/>
</g>
<path d="M169 104.5L169 108.5" stroke="#FFA4A9" stroke-width="1.6" stroke-linecap="round"/>
<path d="M169 106.25H188.77" stroke="#FFA4A9" stroke-width="1.6" stroke-linecap="round"/>
<path d="M196.786 102.223H195.443L193.52 103.469V104.747L195.335 103.587H195.378V110H196.786V102.223ZM201.501 110.107C203.22 110.107 204.45 109.184 204.456 107.916C204.45 106.928 203.709 106.122 202.78 105.972V105.929C203.585 105.757 204.155 105.053 204.155 104.199C204.155 102.996 203.027 102.115 201.501 102.115C199.965 102.115 198.843 102.996 198.837 104.199C198.843 105.048 199.396 105.757 200.212 105.929V105.972C199.278 106.122 198.542 106.928 198.547 107.916C198.542 109.184 199.767 110.107 201.501 110.107ZM199.987 107.787C199.981 107.051 200.626 106.514 201.501 106.52C202.377 106.514 203.011 107.057 203.016 107.787C203.011 108.507 202.415 109.001 201.501 109.001C200.578 109.001 199.981 108.507 199.987 107.787ZM200.202 104.328C200.207 103.667 200.723 103.211 201.501 103.211C202.264 103.211 202.791 103.667 202.791 104.328C202.791 105.01 202.248 105.478 201.501 105.478C200.744 105.478 200.207 105.01 200.202 104.328ZM208.172 110.118C209.639 110.118 210.573 109.243 210.675 108.013H209.365C209.241 108.641 208.79 108.996 208.183 109.001C207.324 108.996 206.765 108.281 206.765 107.078C206.765 105.902 207.334 105.193 208.183 105.188C208.849 105.193 209.257 105.617 209.365 106.176H210.675C210.579 104.919 209.585 104.092 208.172 104.092C206.464 104.092 205.379 105.322 205.379 107.11C205.379 108.872 206.432 110.118 208.172 110.118ZM211.707 110H213.082V106.455C213.082 105.73 213.565 105.241 214.156 105.241C214.741 105.241 215.139 105.633 215.144 106.24V110H216.476V106.358C216.476 105.698 216.868 105.241 217.54 105.241C218.098 105.241 218.539 105.569 218.539 106.294V110H219.903V106.079C219.908 104.779 219.156 104.092 218.087 104.092C217.239 104.092 216.589 104.511 216.336 105.155H216.272C216.052 104.495 215.482 104.092 214.693 104.092C213.919 104.092 213.334 104.489 213.092 105.155H213.017V104.167H211.707V110Z" fill="#F1424D"/>
<path d="M244.541 106.5L224.771 106.5" stroke="#FFA4A9" stroke-width="1.6" stroke-linecap="round"/>
<path d="M244.541 104.5L244.541 108.5" stroke="#FFA4A9" stroke-width="1.6" stroke-linecap="round"/>
<rect x="187" y="158" width="40" height="22" rx="11" fill="#F1F1F1"/>
<path d="M198.329 174H204.512V172.807H200.271V172.73L202.138 170.839C203.864 169.144 204.347 168.325 204.359 167.297C204.347 165.805 203.122 164.682 201.351 164.682C199.599 164.682 198.316 165.792 198.329 167.475H199.649C199.656 166.497 200.303 165.85 201.325 165.85C202.29 165.85 203.026 166.427 203.026 167.335C203.026 168.141 202.525 168.725 201.516 169.772L198.329 172.984V174ZM215.519 165.304H211.443V163.869H210.25V165.304H206.162V166.281H215.519V165.304ZM205.667 173.797H216.077V172.819H211.443V171.315C213.411 171.188 214.636 170.401 214.63 169.138C214.636 167.767 213.164 166.96 210.847 166.967C208.498 166.96 207.044 167.767 207.051 169.138C207.044 170.401 208.257 171.188 210.25 171.315V172.819H205.667V173.797ZM208.282 169.138C208.27 168.351 209.222 167.919 210.847 167.919C212.446 167.919 213.405 168.351 213.398 169.138C213.405 169.931 212.446 170.363 210.847 170.369C209.222 170.363 208.27 169.931 208.282 169.138Z" fill="#202020"/>
<g filter="url(#filter12_i_123_16442)">
<circle cx="299" cy="106" r="42" fill="#FFE8E8"/>
</g>
<path d="M257 106.5L281 106.5" stroke="#FFA4A9" stroke-width="1.6" stroke-linecap="round"/>
<path d="M257 104.5L257 108.5" stroke="#FFA4A9" stroke-width="1.6" stroke-linecap="round"/>
<path d="M286.013 110H291.416V108.829H287.957V108.775L289.343 107.4C290.874 105.956 291.292 105.247 291.298 104.371C291.292 103.066 290.224 102.115 288.634 102.115C287.082 102.115 285.975 103.071 285.98 104.543H287.312C287.307 103.753 287.823 103.254 288.623 103.254C289.38 103.254 289.955 103.71 289.955 104.436C289.955 105.091 289.547 105.553 288.763 106.337L286.013 108.99V110ZM295.799 102.223H294.456L292.533 103.469V104.747L294.349 103.587H294.392V110H295.799V102.223ZM300.246 110.118C301.712 110.118 302.647 109.243 302.749 108.013H301.438C301.315 108.641 300.864 108.996 300.257 109.001C299.397 108.996 298.839 108.281 298.839 107.078C298.839 105.902 299.408 105.193 300.257 105.188C300.923 105.193 301.331 105.617 301.438 106.176H302.749C302.652 104.919 301.659 104.092 300.246 104.092C298.538 104.092 297.453 105.322 297.453 107.11C297.453 108.872 298.506 110.118 300.246 110.118ZM303.78 110H305.155V106.455C305.155 105.73 305.639 105.241 306.229 105.241C306.815 105.241 307.212 105.633 307.218 106.24V110H308.55V106.358C308.55 105.698 308.942 105.241 309.613 105.241C310.172 105.241 310.612 105.569 310.612 106.294V110H311.977V106.079C311.982 104.779 311.23 104.092 310.161 104.092C309.312 104.092 308.663 104.511 308.41 105.155H308.346C308.125 104.495 307.556 104.092 306.767 104.092C305.993 104.092 305.408 104.489 305.166 105.155H305.091V104.167H303.78V110Z" fill="#F1424D"/>
<path d="M341 106.5L317 106.5" stroke="#FFA4A9" stroke-width="1.6" stroke-linecap="round"/>
<path d="M341 104.5L341 108.5" stroke="#FFA4A9" stroke-width="1.6" stroke-linecap="round"/>
<rect x="279" y="158" width="40" height="22" rx="11" fill="#F1F1F1"/>
<path d="M293.401 174.127C295.306 174.127 296.721 173.003 296.715 171.474C296.721 170.312 295.991 169.468 294.734 169.29V169.227C295.725 168.979 296.372 168.23 296.359 167.183C296.372 165.824 295.236 164.682 293.427 164.682C291.713 164.682 290.329 165.697 290.291 167.195H291.637C291.668 166.364 292.494 165.85 293.414 165.85C294.385 165.85 295.014 166.421 295.014 167.259C295.014 168.141 294.284 168.725 293.236 168.719H292.449V169.861H293.236C294.55 169.868 295.306 170.515 295.306 171.423C295.306 172.318 294.5 172.921 293.389 172.921C292.36 172.921 291.561 172.407 291.51 171.601H290.088C290.145 173.105 291.497 174.127 293.401 174.127ZM307.709 165.304H303.634V163.869H302.44V165.304H298.353V166.281H307.709V165.304ZM297.857 173.797H308.268V172.819H303.634V171.315C305.602 171.188 306.827 170.401 306.82 169.138C306.827 167.767 305.354 166.96 303.037 166.967C300.688 166.96 299.235 167.767 299.241 169.138C299.235 170.401 300.447 171.188 302.44 171.315V172.819H297.857V173.797ZM300.473 169.138C300.46 168.351 301.412 167.919 303.037 167.919C304.637 167.919 305.595 168.351 305.589 169.138C305.595 169.931 304.637 170.363 303.037 170.369C301.412 170.363 300.46 169.931 300.473 169.138Z" fill="#202020"/>
<defs>
<filter id="filter0_f_123_16442" x="175.438" y="28.5479" width="15.5469" height="19.6338" filterUnits="userSpaceOnUse" color-interpolation-filters="sRGB">
<feFlood flood-opacity="0" result="BackgroundImageFix"/>
<feBlend mode="normal" in="SourceGraphic" in2="BackgroundImageFix" result="shape"/>
<feGaussianBlur stdDeviation="1.25" result="effect1_foregroundBlur_123_16442"/>
</filter>
<filter id="filter1_f_123_16442" x="178.885" y="28.4902" width="15.3916" height="18.4551" filterUnits="userSpaceOnUse" color-interpolation-filters="sRGB">
<feFlood flood-opacity="0" result="BackgroundImageFix"/>
<feBlend mode="normal" in="SourceGraphic" in2="BackgroundImageFix" result="shape"/>
<feGaussianBlur stdDeviation="0.5" result="effect1_foregroundBlur_123_16442"/>
</filter>
<filter id="filter2_f_123_16442" x="180.422" y="30.6797" width="6.16699" height="7.19238" filterUnits="userSpaceOnUse" color-interpolation-filters="sRGB">
<feFlood flood-opacity="0" result="BackgroundImageFix"/>
<feBlend mode="normal" in="SourceGraphic" in2="BackgroundImageFix" result="shape"/>
<feGaussianBlur stdDeviation="0.5" result="effect1_foregroundBlur_123_16442"/>
</filter>
<filter id="filter3_f_123_16442" x="179.18" y="33.5625" width="5.64844" height="6.5625" filterUnits="userSpaceOnUse" color-interpolation-filters="sRGB">
<feFlood flood-opacity="0" result="BackgroundImageFix"/>
<feBlend mode="normal" in="SourceGraphic" in2="BackgroundImageFix" result="shape"/>
<feGaussianBlur stdDeviation="0.5" result="effect1_foregroundBlur_123_16442"/>
</filter>
<filter id="filter4_f_123_16442" x="180" y="31.8984" width="5.85938" height="6.9375" filterUnits="userSpaceOnUse" color-interpolation-filters="sRGB">
<feFlood flood-opacity="0" result="BackgroundImageFix"/>
<feBlend mode="normal" in="SourceGraphic" in2="BackgroundImageFix" result="shape"/>
<feGaussianBlur stdDeviation="0.25" result="effect1_foregroundBlur_123_16442"/>
</filter>
<filter id="filter5_f_123_16442" x="181.312" y="29.1094" width="6.51562" height="7.45312" filterUnits="userSpaceOnUse" color-interpolation-filters="sRGB">
<feFlood flood-opacity="0" result="BackgroundImageFix"/>
<feBlend mode="normal" in="SourceGraphic" in2="BackgroundImageFix" result="shape"/>
<feGaussianBlur stdDeviation="0.25" result="effect1_foregroundBlur_123_16442"/>
</filter>
<filter id="filter6_f_123_16442" x="182.084" y="28.3369" width="7.03418" height="8.34277" filterUnits="userSpaceOnUse" color-interpolation-filters="sRGB">
<feFlood flood-opacity="0" result="BackgroundImageFix"/>
<feBlend mode="normal" in="SourceGraphic" in2="BackgroundImageFix" result="shape"/>
<feGaussianBlur stdDeviation="0.5" result="effect1_foregroundBlur_123_16442"/>
</filter>
<filter id="filter7_f_123_16442" x="184.892" y="28.1631" width="7.05762" height="9.11426" filterUnits="userSpaceOnUse" color-interpolation-filters="sRGB">
<feFlood flood-opacity="0" result="BackgroundImageFix"/>
<feBlend mode="normal" in="SourceGraphic" in2="BackgroundImageFix" result="shape"/>
<feGaussianBlur stdDeviation="0.5" result="effect1_foregroundBlur_123_16442"/>
</filter>
<filter id="filter8_f_123_16442" x="190.76" y="31.3818" width="3.51562" height="10.3232" filterUnits="userSpaceOnUse" color-interpolation-filters="sRGB">
<feFlood flood-opacity="0" result="BackgroundImageFix"/>
<feBlend mode="normal" in="SourceGraphic" in2="BackgroundImageFix" result="shape"/>
<feGaussianBlur stdDeviation="0.5" result="effect1_foregroundBlur_123_16442"/>
</filter>
<filter id="filter9_i_123_16442" x="18.2002" y="74" width="60.5996" height="60" filterUnits="userSpaceOnUse" color-interpolation-filters="sRGB">
<feFlood flood-opacity="0" result="BackgroundImageFix"/>
<feBlend mode="normal" in="SourceGraphic" in2="BackgroundImageFix" result="shape"/>
<feColorMatrix in="SourceAlpha" type="matrix" values="0 0 0 0 0 0 0 0 0 0 0 0 0 0 0 0 0 0 127 0" result="hardAlpha"/>
<feOffset dx="3" dy="-4"/>
<feGaussianBlur stdDeviation="2"/>
<feComposite in2="hardAlpha" operator="arithmetic" k2="-1" k3="1"/>
<feColorMatrix type="matrix" values="0 0 0 0 1 0 0 0 0 1 0 0 0 0 1 0 0 0 0.25 0"/>
<feBlend mode="normal" in2="shape" result="effect1_innerShadow_123_16442"/>
</filter>
<filter id="filter10_i_123_16442" x="87" y="67" width="73" height="74" filterUnits="userSpaceOnUse" color-interpolation-filters="sRGB">
<feFlood flood-opacity="0" result="BackgroundImageFix"/>
<feBlend mode="normal" in="SourceGraphic" in2="BackgroundImageFix" result="shape"/>
<feColorMatrix in="SourceAlpha" type="matrix" values="0 0 0 0 0 0 0 0 0 0 0 0 0 0 0 0 0 0 127 0" result="hardAlpha"/>
<feOffset dx="3" dy="-4"/>
<feGaussianBlur stdDeviation="2"/>
<feComposite in2="hardAlpha" operator="arithmetic" k2="-1" k3="1"/>
<feColorMatrix type="matrix" values="0 0 0 0 1 0 0 0 0 1 0 0 0 0 1 0 0 0 0.25 0"/>
<feBlend mode="normal" in2="shape" result="effect1_innerShadow_123_16442"/>
</filter>
<filter id="filter11_i_123_16442" x="169" y="64" width="79" height="80" filterUnits="userSpaceOnUse" color-interpolation-filters="sRGB">
<feFlood flood-opacity="0" result="BackgroundImageFix"/>
<feBlend mode="normal" in="SourceGraphic" in2="BackgroundImageFix" result="shape"/>
<feColorMatrix in="SourceAlpha" type="matrix" values="0 0 0 0 0 0 0 0 0 0 0 0 0 0 0 0 0 0 127 0" result="hardAlpha"/>
<feOffset dx="3" dy="-4"/>
<feGaussianBlur stdDeviation="2"/>
<feComposite in2="hardAlpha" operator="arithmetic" k2="-1" k3="1"/>
<feColorMatrix type="matrix" values="0 0 0 0 1 0 0 0 0 1 0 0 0 0 1 0 0 0 0.25 0"/>
<feBlend mode="normal" in2="shape" result="effect1_innerShadow_123_16442"/>
</filter>
<filter id="filter12_i_123_16442" x="257" y="60" width="87" height="88" filterUnits="userSpaceOnUse" color-interpolation-filters="sRGB">
<feFlood flood-opacity="0" result="BackgroundImageFix"/>
<feBlend mode="normal" in="SourceGraphic" in2="BackgroundImageFix" result="shape"/>
<feColorMatrix in="SourceAlpha" type="matrix" values="0 0 0 0 0 0 0 0 0 0 0 0 0 0 0 0 0 0 127 0" result="hardAlpha"/>
<feOffset dx="3" dy="-4"/>
<feGaussianBlur stdDeviation="2"/>
<feComposite in2="hardAlpha" operator="arithmetic" k2="-1" k3="1"/>
<feColorMatrix type="matrix" values="0 0 0 0 1 0 0 0 0 1 0 0 0 0 1 0 0 0 0.25 0"/>
<feBlend mode="normal" in2="shape" result="effect1_innerShadow_123_16442"/>
</filter>
<linearGradient id="paint0_linear_123_16442" x1="186.985" y1="46.0308" x2="181.219" y2="35.6246" gradientUnits="userSpaceOnUse">
<stop stop-color="#FF6C4C"/>
<stop offset="1" stop-color="#FF6D47" stop-opacity="0"/>
</linearGradient>
<radialGradient id="paint1_radial_123_16442" cx="0" cy="0" r="1" gradientUnits="userSpaceOnUse" gradientTransform="translate(178.852 33.6089) rotate(58.4429) scale(3.49313 1.39639)">
<stop stop-color="#FFAF33"/>
<stop offset="1" stop-color="#FA8221"/>
</radialGradient>
<radialGradient id="paint2_radial_123_16442" cx="0" cy="0" r="1" gradientUnits="userSpaceOnUse" gradientTransform="translate(178.008 32.4839) rotate(92.0826) scale(1.28991 1.28318)">
<stop stop-color="#FFAE28"/>
<stop offset="1" stop-color="#FFAF31" stop-opacity="0"/>
</radialGradient>
<radialGradient id="paint3_radial_123_16442" cx="0" cy="0" r="1" gradientUnits="userSpaceOnUse" gradientTransform="translate(177.094 36.1636) rotate(57.3311) scale(3.6473 1.04478)">
<stop stop-color="#FE9E29"/>
<stop offset="1" stop-color="#FE9E28" stop-opacity="0"/>
</radialGradient>
<radialGradient id="paint4_radial_123_16442" cx="0" cy="0" r="1" gradientUnits="userSpaceOnUse" gradientTransform="translate(176.86 35.7652) rotate(63.4349) scale(1.51983 1.24252)">
<stop stop-color="#FF9D25"/>
<stop offset="1" stop-color="#FF9F24" stop-opacity="0"/>
</radialGradient>
<radialGradient id="paint5_radial_123_16442" cx="0" cy="0" r="1" gradientUnits="userSpaceOnUse" gradientTransform="translate(179.836 30.5855) rotate(58.3392) scale(3.30427 1.42804)">
<stop stop-color="#FFC133"/>
<stop offset="1" stop-color="#FFC93C" stop-opacity="0"/>
</radialGradient>
<radialGradient id="paint6_radial_123_16442" cx="0" cy="0" r="1" gradientUnits="userSpaceOnUse" gradientTransform="translate(179.696 29.9761) rotate(52.3738) scale(1.42044 1.0855)">
<stop stop-color="#FFC53A"/>
<stop offset="1" stop-color="#FFC83C" stop-opacity="0"/>
</radialGradient>
<radialGradient id="paint7_radial_123_16442" cx="0" cy="0" r="1" gradientUnits="userSpaceOnUse" gradientTransform="translate(182.391 32.3433) rotate(90.6384) scale(27.8455 24.0804)">
<stop offset="0.370081" stop-color="#FF6C5E" stop-opacity="0"/>
<stop offset="0.540093" stop-color="#FF6B5E"/>
</radialGradient>
<radialGradient id="paint8_radial_123_16442" cx="0" cy="0" r="1" gradientUnits="userSpaceOnUse" gradientTransform="translate(182.321 29.3668) rotate(59.8163) scale(2.65713 2.92196)">
<stop stop-color="#FFAC31"/>
<stop offset="1" stop-color="#FFA92E" stop-opacity="0"/>
</radialGradient>
<radialGradient id="paint9_radial_123_16442" cx="0" cy="0" r="1" gradientUnits="userSpaceOnUse" gradientTransform="translate(177.836 36.5636) rotate(-33.5248) scale(1.17317 3.52271)">
<stop stop-color="#DB5703"/>
<stop offset="0.594695" stop-color="#C94A04"/>
<stop offset="1" stop-color="#D65A05" stop-opacity="0"/>
</radialGradient>
<radialGradient id="paint10_radial_123_16442" cx="0" cy="0" r="1" gradientUnits="userSpaceOnUse" gradientTransform="translate(178.778 34.2766) rotate(-40.6877) scale(1.73144 5.51293)">
<stop stop-color="#DB5703"/>
<stop offset="0.594695" stop-color="#C94A04"/>
<stop offset="1" stop-color="#D65A05" stop-opacity="0"/>
</radialGradient>
<radialGradient id="paint11_radial_123_16442" cx="0" cy="0" r="1" gradientUnits="userSpaceOnUse" gradientTransform="translate(181.091 32.633) rotate(-38.4639) scale(1.13697 3.65376)">
<stop stop-color="#DB5703"/>
<stop offset="0.594695" stop-color="#C94A04"/>
<stop offset="1" stop-color="#D65A05" stop-opacity="0"/>
</radialGradient>
<radialGradient id="paint12_radial_123_16442" cx="0" cy="0" r="1" gradientUnits="userSpaceOnUse" gradientTransform="translate(187.922 39.0938) rotate(73.3649) scale(8.0233 5.32553)">
<stop stop-color="#FFD945"/>
<stop offset="0.633239" stop-color="#FFD343"/>
<stop offset="1" stop-color="#FFD543" stop-opacity="0"/>
</radialGradient>
<radialGradient id="paint13_radial_123_16442" cx="0" cy="0" r="1" gradientUnits="userSpaceOnUse" gradientTransform="translate(193.48 35.8595) rotate(98.4363) scale(11.0413 2.91585)">
<stop stop-color="#FFE044"/>
<stop offset="1" stop-color="#FFE143" stop-opacity="0"/>
</radialGradient>
<radialGradient id="paint14_radial_123_16442" cx="0" cy="0" r="1" gradientUnits="userSpaceOnUse" gradientTransform="translate(186.516 48.9376) rotate(-124.618) scale(17.6574 13.8967)">
<stop stop-color="#FA825D"/>
<stop offset="0.882533" stop-color="#F67B7D" stop-opacity="0"/>
</radialGradient>
<linearGradient id="paint15_linear_123_16442" x1="190.219" y1="34.0296" x2="191.754" y2="33.9254" gradientUnits="userSpaceOnUse">
<stop stop-color="#D48820"/>
<stop offset="0.344595" stop-color="#E39C2A" stop-opacity="0.648599"/>
<stop offset="0.735218" stop-color="#FFC03C" stop-opacity="0"/>
</linearGradient>
<radialGradient id="paint16_radial_123_16442" cx="0" cy="0" r="1" gradientUnits="userSpaceOnUse" gradientTransform="translate(189.422 39.3278) rotate(134.506) scale(7.69007 20.1201)">
<stop stop-color="#FFDB45"/>
<stop offset="0.484081" stop-color="#FFD646"/>
<stop offset="0.915211" stop-color="#FFDA45" stop-opacity="0"/>
<stop offset="0.970164" stop-color="#FFDA45" stop-opacity="0"/>
</radialGradient>
<linearGradient id="paint17_linear_123_16442" x1="173.918" y1="27.4106" x2="174.332" y2="27.7996" gradientUnits="userSpaceOnUse">
<stop stop-color="#2065A3"/>
<stop offset="1" stop-color="#2067AE" stop-opacity="0"/>
</linearGradient>
<linearGradient id="paint18_linear_123_16442" x1="174.451" y1="28.9399" x2="174.683" y2="28.4046" gradientUnits="userSpaceOnUse">
<stop offset="0.605233" stop-color="#1C60FF"/>
<stop offset="1" stop-color="#1963FF" stop-opacity="0"/>
</linearGradient>
<linearGradient id="paint19_linear_123_16442" x1="175.324" y1="27.4341" x2="175.022" y2="27.5941" gradientUnits="userSpaceOnUse">
<stop stop-color="#2093F1"/>
<stop offset="1" stop-color="#2294F3" stop-opacity="0"/>
</linearGradient>
<linearGradient id="paint20_linear_123_16442" x1="176.754" y1="25.418" x2="176.951" y2="26.0664" gradientUnits="userSpaceOnUse">
<stop stop-color="#2065A3"/>
<stop offset="1" stop-color="#2067AE" stop-opacity="0"/>
</linearGradient>
<linearGradient id="paint21_linear_123_16442" x1="176.532" y1="27.4395" x2="176.94" y2="27.1411" gradientUnits="userSpaceOnUse">
<stop offset="0.605233" stop-color="#1C60FF"/>
<stop offset="1" stop-color="#1963FF" stop-opacity="0"/>
</linearGradient>
<linearGradient id="paint22_linear_123_16442" x1="177.704" y1="26.2852" x2="177.498" y2="26.2745" gradientUnits="userSpaceOnUse">
<stop stop-color="#2093F1"/>
<stop offset="1" stop-color="#2294F3" stop-opacity="0"/>
</linearGradient>
<linearGradient id="paint23_linear_123_16442" x1="172.5" y1="30.1361" x2="173.004" y2="30.2578" gradientUnits="userSpaceOnUse">
<stop stop-color="#2065A3"/>
<stop offset="1" stop-color="#2067AE" stop-opacity="0"/>
</linearGradient>
<linearGradient id="paint24_linear_123_16442" x1="173.625" y1="31.3008" x2="173.578" y2="30.7031" gradientUnits="userSpaceOnUse">
<stop offset="0.605233" stop-color="#1C60FF"/>
<stop offset="1" stop-color="#1963FF" stop-opacity="0"/>
</linearGradient>
<linearGradient id="paint25_linear_123_16442" x1="173.933" y1="29.6221" x2="173.716" y2="29.9385" gradientUnits="userSpaceOnUse">
<stop stop-color="#2093F1"/>
<stop offset="1" stop-color="#2294F3" stop-opacity="0"/>
</linearGradient>
<radialGradient id="paint26_radial_123_16442" cx="0" cy="0" r="1" gradientUnits="userSpaceOnUse" gradientTransform="translate(181.992 35.7465) rotate(57.1255) scale(3.92938 0.736077)">
<stop stop-color="#B64200"/>
<stop offset="1" stop-color="#FFB02E" stop-opacity="0"/>
</radialGradient>
<radialGradient id="paint27_radial_123_16442" cx="0" cy="0" r="1" gradientUnits="userSpaceOnUse" gradientTransform="translate(183.609 33.2467) rotate(57.5206) scale(4.62664 0.861227)">
<stop stop-color="#B64200"/>
<stop offset="1" stop-color="#FFB02E" stop-opacity="0"/>
</radialGradient>
<radialGradient id="paint28_radial_123_16442" cx="0" cy="0" r="1" gradientUnits="userSpaceOnUse" gradientTransform="translate(183.609 33.2467) rotate(57.5206) scale(4.62664 0.861227)">
<stop stop-color="#B64200"/>
<stop offset="1" stop-color="#FFB02E" stop-opacity="0"/>
</radialGradient>
<linearGradient id="paint29_linear_123_16442" x1="186.14" y1="31.8277" x2="186.786" y2="31.4527" gradientUnits="userSpaceOnUse">
<stop stop-color="#E49224"/>
<stop offset="0.589269" stop-color="#FFB02E" stop-opacity="0"/>
</linearGradient>
<linearGradient id="paint30_linear_123_16442" x1="181.805" y1="35.0156" x2="183.234" y2="34.1953" gradientUnits="userSpaceOnUse">
<stop stop-color="#FDB137"/>
<stop offset="0.447171" stop-color="#FFBA3C" stop-opacity="0"/>
<stop offset="1" stop-color="#FCAD33" stop-opacity="0"/>
</linearGradient>
<linearGradient id="paint31_linear_123_16442" x1="183.516" y1="32.3327" x2="184.946" y2="31.5124" gradientUnits="userSpaceOnUse">
<stop stop-color="#FDB137"/>
<stop offset="0.447171" stop-color="#FFBA3C" stop-opacity="0"/>
<stop offset="1" stop-color="#FCAD33" stop-opacity="0"/>
</linearGradient>
<clipPath id="clip0_123_16442">
<rect width="24" height="24" fill="white" transform="translate(171 24)"/>
</clipPath>
</defs>
</svg>
