<svg width="72" height="72" viewBox="0 0 72 72" fill="none" xmlns="http://www.w3.org/2000/svg">
<rect x="1" y="1" width="70" height="70" rx="4" stroke="#848484" stroke-dasharray="2 2"/>
<path d="M31.1465 55.0977C32.7822 55.0977 33.7393 53.7793 33.7441 51.4648C33.7393 49.165 32.7676 47.832 31.1465 47.832C29.5205 47.832 28.5488 49.165 28.5488 51.4648C28.5488 53.7793 29.5107 55.0977 31.1465 55.0977ZM29.623 51.4648C29.623 49.707 30.1943 48.7451 31.1465 48.7402C32.0938 48.7451 32.6699 49.707 32.6699 51.4648C32.6699 53.2275 32.0986 54.1699 31.1465 54.1699C30.1895 54.1699 29.6182 53.2275 29.623 51.4648ZM37.5625 47.5977H36.6348L34.3594 56.0645H35.2871L37.5625 47.5977ZM40.834 55.0977C42.2988 55.0977 43.3877 54.2334 43.3828 53.0566C43.3877 52.1631 42.8262 51.5137 41.8594 51.377V51.3281C42.6211 51.1377 43.1191 50.5615 43.1094 49.7559C43.1191 48.7109 42.2451 47.832 40.8535 47.832C39.5352 47.832 38.4707 48.6133 38.4414 49.7656H39.4766C39.501 49.126 40.1357 48.7305 40.8438 48.7305C41.5908 48.7305 42.0742 49.1699 42.0742 49.8145C42.0742 50.4932 41.5127 50.9424 40.707 50.9375H40.1016V51.8164H40.707C41.7178 51.8213 42.2988 52.3193 42.2988 53.0176C42.2988 53.7061 41.6787 54.1699 40.8242 54.1699C40.0332 54.1699 39.418 53.7744 39.3789 53.1543H38.2852C38.3291 54.3115 39.3691 55.0977 40.834 55.0977Z" fill="#636363"/>
<rect x="28" y="21" width="16" height="16" rx="3" stroke="#848484" stroke-width="2"/>
<circle cx="31.95" cy="24.9501" r="1.35" fill="#848484"/>
<path d="M29 36.2L37.3972 30.093C38.2444 29.4768 39.4236 29.6188 40.1003 30.4185L43.85 34.85" stroke="#848484" stroke-width="2" stroke-linecap="round" stroke-linejoin="round"/>
<circle cx="44" cy="21" r="6" fill="#636363"/>
<path d="M44 17.4995V24.4993" stroke="white" stroke-width="1.2" stroke-linecap="round" stroke-linejoin="round"/>
<path d="M40.4999 21L47.4997 21" stroke="white" stroke-width="1.2" stroke-linecap="round" stroke-linejoin="round"/>
</svg>
