<svg width="18" height="19" viewBox="0 0 18 19" fill="none" xmlns="http://www.w3.org/2000/svg">
<path d="M2.59996 7.09961H9.79996C10.6836 7.09961 11.4 7.81595 11.4 8.69961V15.8996C11.4 16.7833 10.6836 17.4996 9.79996 17.4996H2.59996C1.71631 17.4996 0.999964 16.7833 0.999964 15.8996V8.69961C0.999964 7.81595 1.71631 7.09961 2.59996 7.09961Z" stroke="#2F438D" stroke-width="1.6" stroke-linecap="round" stroke-linejoin="round"/>
<path d="M14.6 11.9H15.4C15.8243 11.9 16.2313 11.7314 16.5314 11.4314C16.8314 11.1313 17 10.7243 17 10.3V3.1C17 2.67565 16.8314 2.26869 16.5314 1.96863C16.2313 1.66857 15.8243 1.5 15.4 1.5H8.2C7.77565 1.5 7.36869 1.66857 7.06863 1.96863C6.76857 2.26869 6.6 2.67565 6.6 3.1V3.9" stroke="#2F438D" stroke-width="1.6" stroke-linecap="round" stroke-linejoin="round"/>
</svg>
