<svg width="current" height="current" viewBox="0 0 20 20" fill="current" xmlns="http://www.w3.org/2000/svg">
<path d="M6.68917 15.2558C7.51853 15.2558 8.19085 14.5835 8.19085 13.7541C8.19085 12.9248 7.51853 12.2524 6.68917 12.2524C5.85982 12.2524 5.1875 12.9248 5.1875 13.7541C5.1875 14.5835 5.85982 15.2558 6.68917 15.2558Z" stroke="current" stroke-width="current" stroke-linecap="round" stroke-linejoin="round"/>
<path d="M14.197 15.2558C15.0263 15.2558 15.6987 14.5835 15.6987 13.7541C15.6987 12.9248 15.0263 12.2524 14.197 12.2524C13.3676 12.2524 12.6953 12.9248 12.6953 13.7541C12.6953 14.5835 13.3676 15.2558 14.197 15.2558Z" stroke="current" stroke-width="current" stroke-linecap="round" stroke-linejoin="round"/>
<path d="M5.18708 13.7542H3.68541V10.7508M2.93457 4.74414H11.1938V13.7542M8.19043 13.7542H12.6955M15.6988 13.7542H17.2005V9.24916M17.2005 9.24916H11.1938M17.2005 9.24916L14.948 5.49498H11.1938" stroke="current" stroke-width="current" stroke-linecap="round" stroke-linejoin="round"/>
<path d="M3.68555 7.74756H6.68889" stroke="current" stroke-width="current" stroke-linecap="round" stroke-linejoin="round"/>
</svg>
