<svg width="current" height="current" viewBox="0 0 24 24" fill="none" xmlns="http://www.w3.org/2000/svg">
<path d="M17.3632 5.84486C17.1021 5.55664 16.7432 5.38649 16.3633 5.37086H15.6361V4.42285C15.6424 4.23433 15.6115 4.04646 15.5452 3.87094C15.4789 3.69542 15.3787 3.536 15.2508 3.40261C15.1229 3.26922 14.9701 3.16472 14.8018 3.0956C14.6335 3.02648 14.4533 2.99423 14.2725 3.00085H3.36434C3.18357 2.99423 3.00342 3.02648 2.83512 3.0956C2.66682 3.16472 2.51396 3.26922 2.38606 3.40261C2.25815 3.536 2.15794 3.69542 2.09167 3.87094C2.02539 4.04646 1.99446 4.23433 2.00081 4.42285V17.2209C1.99446 17.4095 2.02539 17.5973 2.09167 17.7728C2.15794 17.9484 2.25815 18.1078 2.38606 18.2412C2.51396 18.3746 2.66682 18.4791 2.83512 18.5482C3.00342 18.6173 3.18357 18.6496 3.36434 18.6429H4.40971C4.6075 19.3246 5.01037 19.9219 5.55877 20.3463C6.10717 20.7708 6.77198 21 7.45491 21C8.13785 21 8.80266 20.7708 9.35106 20.3463C9.89946 19.9219 10.3023 19.3246 10.5001 18.6429H13.4999C13.6977 19.3246 14.1005 19.9219 14.6489 20.3463C15.1973 20.7708 15.8621 21 16.5451 21C17.228 21 17.8928 20.7708 18.4412 20.3463C18.9896 19.9219 19.3925 19.3246 19.5903 18.6429H20.6357C20.8164 18.6496 20.9966 18.6173 21.1649 18.5482C21.3332 18.4791 21.486 18.3746 21.6139 18.2412C21.7418 18.1078 21.8421 17.9484 21.9083 17.7728C21.9746 17.5973 22.0055 17.4095 21.9992 17.2209V11.1537L17.3632 5.84486ZM16.136 7.26687L19.4539 11.0589H15.6361V7.26687H16.136ZM7.45491 19.1169C7.18524 19.1169 6.92161 19.0335 6.69738 18.8773C6.47315 18.721 6.29838 18.4989 6.19518 18.2391C6.09198 17.9793 6.06498 17.6934 6.11759 17.4175C6.1702 17.1417 6.30006 16.8883 6.49076 16.6894C6.68145 16.4905 6.92441 16.3551 7.1889 16.3002C7.4534 16.2454 7.72756 16.2735 7.97671 16.3812C8.22587 16.4888 8.43882 16.6711 8.58865 16.9049C8.73847 17.1388 8.81844 17.4137 8.81844 17.6949C8.82479 17.8835 8.79386 18.0713 8.72759 18.2468C8.66131 18.4224 8.5611 18.5818 8.4332 18.7152C8.30529 18.8486 8.15243 18.9531 7.98413 19.0222C7.81583 19.0913 7.63569 19.1236 7.45491 19.1169ZM16.5451 19.1169C16.2754 19.1169 16.0118 19.0335 15.7876 18.8773C15.5633 18.721 15.3886 18.4989 15.2854 18.2391C15.1821 17.9793 15.1551 17.6934 15.2078 17.4175C15.2604 17.1417 15.3902 16.8883 15.5809 16.6894C15.7716 16.4905 16.0146 16.3551 16.2791 16.3002C16.5436 16.2454 16.8177 16.2735 17.0669 16.3812C17.316 16.4888 17.529 16.6711 17.6788 16.9049C17.8286 17.1388 17.9086 17.4137 17.9086 17.6949C17.915 17.8835 17.884 18.0713 17.8178 18.2468C17.7515 18.4224 17.6513 18.5818 17.5234 18.7152C17.3955 18.8486 17.2426 18.9531 17.0743 19.0222C16.906 19.0913 16.7259 19.1236 16.5451 19.1169Z" fill="current"/>
</svg>
