<svg width="current" height="current" viewBox="0 0 16 17" fill="current" xmlns="http://www.w3.org/2000/svg">
<path d="M6.83197 11.9687L6.83195 11.9687L6.63268 11.9476L6.47401 12.07C5.96524 12.4625 5.09587 12.8885 4.26697 13.2362C4.0687 13.3194 3.87744 13.3962 3.699 13.4653C3.91258 13.1582 4.07374 12.8685 4.19438 12.615C4.32355 12.3436 4.40639 12.1135 4.45765 11.9475C4.4833 11.8644 4.5011 11.7973 4.51286 11.7488C4.51875 11.7245 4.52313 11.705 4.52624 11.6904L4.52998 11.6723L4.53118 11.6661L4.53163 11.6638L4.53181 11.6628L4.53189 11.6623C4.53193 11.6621 4.53197 11.6619 4.04034 11.5708L4.53197 11.6619L4.5978 11.3066L4.28107 11.1326C2.56294 10.1888 1.5 8.64727 1.5 6.95759C1.5 4.24373 4.29993 1.86426 8 1.86426C11.7001 1.86426 14.5 4.2432 14.5 6.95759C14.5 9.67198 11.7001 12.0509 8 12.0509C7.81506 12.0509 7.52872 12.0314 7.27543 12.0102C7.1516 11.9998 7.04032 11.9894 6.96001 11.9815L6.86549 11.9721L6.84022 11.9695L6.83386 11.9689L6.83234 11.9687L6.83201 11.9687L6.83197 11.9687Z" fill="current" stroke="current"/>
</svg>
