<svg width="current" height="current" viewBox="0 0 16 16" fill="current" xmlns="http://www.w3.org/2000/svg">
<path d="M7.74057 6.37001C7.51482 6.64506 7.24973 6.86117 6.96141 7.01021C6.4708 7.26382 6 7.69614 6 8.24842V11.7471C6 12.3436 6.1945 12.9157 6.54073 13.3376C6.88695 13.7594 7.35652 13.9964 7.84615 13.9964H12.1538C12.4202 14.024 12.6843 13.8927 12.9062 13.6222C13.1282 13.3518 13.2961 12.9568 13.3846 12.4968L14 8.74797C14 8.35026 13.8703 7.96885 13.6395 7.68763C13.4087 7.40641 13.0957 7.24842 12.7692 7.24842H10.9231V3.49955C10.9231 3.10184 10.7934 2.72043 10.5626 2.43921C10.3318 2.15799 10.0187 2 9.69231 2C9.36589 2 9.05284 2.15799 8.82202 2.43921C8.59121 2.72043 8.46154 3.10184 8.46154 3.49955V4.24932C8.46154 5.04473 8.2022 5.80757 7.74057 6.37001Z" fill="current"/>
<rect x="2" y="8" width="3" height="6" rx="0.6" fill="current"/>
</svg>
