<svg width="40" height="40" viewBox="0 0 40 40" fill="none" xmlns="http://www.w3.org/2000/svg">
<circle cx="25.1517" cy="27.4747" r="2.52525" fill="#F45C65"/>
<rect x="22.6265" y="7.27271" width="5.0505" height="16.4141" rx="2.52525" fill="url(#paint0_linear_353_57889)"/>
<path fill-rule="evenodd" clip-rule="evenodd" d="M18.8379 30C13.9568 29.9997 10 26.0427 10 21.1616C10 16.2803 13.9571 12.3232 18.8384 12.3232C23.7036 12.3232 27.6507 16.2543 27.6766 21.1135C27.6769 21.1295 27.6771 21.1456 27.6771 21.1617C27.6771 21.178 27.6769 21.1942 27.6766 21.2104C27.6765 21.2257 27.6764 21.2408 27.6762 21.256V21.2268C27.6417 22.5914 26.5247 23.6869 25.1518 23.6869C23.7572 23.6869 22.6266 22.5563 22.6266 21.1617C22.6266 21.1541 22.6266 21.1466 22.6267 21.1391C22.6145 19.0575 20.9233 17.3738 18.8389 17.3738C16.7469 17.3738 15.051 19.0697 15.051 21.1617C15.051 23.2495 16.7402 24.9428 18.8265 24.9495L18.8385 24.9495C20.2332 24.9495 21.3638 26.0801 21.3638 27.4747C21.3638 28.8694 20.2332 30 18.8385 30L18.8379 30Z" fill="url(#paint1_linear_353_57889)"/>
<defs>
<linearGradient id="paint0_linear_353_57889" x1="25.1517" y1="7.27271" x2="25.1517" y2="20.7407" gradientUnits="userSpaceOnUse">
<stop stop-color="#F1424D"/>
<stop offset="1" stop-color="#F1424D" stop-opacity="0"/>
</linearGradient>
<linearGradient id="paint1_linear_353_57889" x1="24.31" y1="18.7991" x2="12.3281" y2="25.4812" gradientUnits="userSpaceOnUse">
<stop stop-color="#F1424D"/>
<stop offset="1" stop-color="#FFCCCF"/>
</linearGradient>
</defs>
</svg>
