<svg width="current" height="current" viewBox="0 0 12 12" fill="current" xmlns="http://www.w3.org/2000/svg">
<g clip-path="url(#clip0_161_16611)">
<path fill-rule="evenodd" clip-rule="evenodd" d="M6.80186 11.6202L9.5295 8.8657C10.2487 8.13937 10.7385 7.21398 10.9369 6.20656C11.1353 5.19913 11.0335 4.15491 10.6442 3.20595C10.255 2.25698 9.59578 1.44589 8.75005 0.875237C7.90431 0.304584 6.91001 0 5.89286 0C4.87571 0 3.8814 0.304584 3.03567 0.875237C2.18994 1.44589 1.53076 2.25698 1.1415 3.20595C0.752246 4.15491 0.650385 5.19913 0.848801 6.20656C1.04722 7.21398 1.537 8.13937 2.25622 8.8657L4.9845 11.6202C5.22558 11.8634 5.55241 12 5.89318 12C6.23395 12 6.56078 11.8634 6.80186 11.6202ZM7.60725 5.1426C7.60725 6.08937 6.83973 6.85688 5.89296 6.85688C4.94619 6.85688 4.17867 6.08937 4.17867 5.1426C4.17867 4.19582 4.94619 3.42831 5.89296 3.42831C6.83973 3.42831 7.60725 4.19582 7.60725 5.1426Z" fill="#current"/>
</g>
<defs>
<clipPath id="clip0_161_16611">
<rect width="12" height="12" fill="white"/>
</clipPath>
</defs>
</svg>
