<svg width="24" height="24" viewBox="0 0 24 24" fill="none" xmlns="http://www.w3.org/2000/svg">
<g clip-path="url(#clip0_161_16546)">
<path d="M18.1971 16.8352L18.0811 9.79273C18.0068 9.12445 17.6402 8.22644 16.3871 8.22644C14.9253 8.29605 14.8673 9.79273 14.8673 9.79273L12.6396 5.81321C12.0827 4.96624 11.1694 4.90729 10.5977 5.25629C10.0259 5.60528 9.90153 6.31209 9.90153 6.31209L9.43744 5.70878C9.08845 5.13702 8.04406 5.07044 7.51148 5.39552C6.6275 5.93509 6.49904 7.05227 7.0706 7.66954C7.03311 7.62905 6.5963 7.47779 5.86397 7.92479C5.29222 8.27378 5.11561 9.3171 5.43467 9.90876C5.75374 10.5004 5.80015 10.5933 5.80015 10.5933C5.80015 10.5933 5.30706 10.3612 4.52971 10.8833C3.97364 11.2568 3.77464 12.3652 4.12363 12.9369L5.99576 16.0935L8.57237 20.3037C10.0872 22.4507 13.3168 23.192 15.6636 21.7665C17.2638 20.7944 18.3495 18.7403 18.1971 16.8352Z" fill="#FF9D25"/>
<path d="M18.1971 16.8352L18.0811 9.79273C18.0068 9.12445 17.6402 8.22644 16.3871 8.22644C14.9253 8.29605 14.8673 9.79273 14.8673 9.79273L12.6396 5.81321C12.0827 4.96624 11.1694 4.90729 10.5977 5.25629C10.0259 5.60528 9.90153 6.31209 9.90153 6.31209L9.43744 5.70878C9.08845 5.13702 8.04406 5.07044 7.51148 5.39552C6.6275 5.93509 6.49904 7.05227 7.0706 7.66954C7.03311 7.62905 6.5963 7.47779 5.86397 7.92479C5.29222 8.27378 5.11561 9.3171 5.43467 9.90876C5.75374 10.5004 5.80015 10.5933 5.80015 10.5933C5.80015 10.5933 5.30706 10.3612 4.52971 10.8833C3.97364 11.2568 3.77464 12.3652 4.12363 12.9369L5.99576 16.0935L8.57237 20.3037C10.0872 22.4507 13.3168 23.192 15.6636 21.7665C17.2638 20.7944 18.3495 18.7403 18.1971 16.8352Z" fill="url(#paint0_linear_161_16546)"/>
<path d="M18.1971 16.8352L18.0811 9.79273C18.0068 9.12445 17.6402 8.22644 16.3871 8.22644C14.9253 8.29605 14.8673 9.79273 14.8673 9.79273L12.6396 5.81321C12.0827 4.96624 11.1694 4.90729 10.5977 5.25629C10.0259 5.60528 9.90153 6.31209 9.90153 6.31209L9.43744 5.70878C9.08845 5.13702 8.04406 5.07044 7.51148 5.39552C6.6275 5.93509 6.49904 7.05227 7.0706 7.66954C7.03311 7.62905 6.5963 7.47779 5.86397 7.92479C5.29222 8.27378 5.11561 9.3171 5.43467 9.90876C5.75374 10.5004 5.80015 10.5933 5.80015 10.5933C5.80015 10.5933 5.30706 10.3612 4.52971 10.8833C3.97364 11.2568 3.77464 12.3652 4.12363 12.9369L5.99576 16.0935L8.57237 20.3037C10.0872 22.4507 13.3168 23.192 15.6636 21.7665C17.2638 20.7944 18.3495 18.7403 18.1971 16.8352Z" fill="url(#paint1_radial_161_16546)"/>
<path d="M18.1971 16.8352L18.0811 9.79273C18.0068 9.12445 17.6402 8.22644 16.3871 8.22644C14.9253 8.29605 14.8673 9.79273 14.8673 9.79273L12.6396 5.81321C12.0827 4.96624 11.1694 4.90729 10.5977 5.25629C10.0259 5.60528 9.90153 6.31209 9.90153 6.31209L9.43744 5.70878C9.08845 5.13702 8.04406 5.07044 7.51148 5.39552C6.6275 5.93509 6.49904 7.05227 7.0706 7.66954C7.03311 7.62905 6.5963 7.47779 5.86397 7.92479C5.29222 8.27378 5.11561 9.3171 5.43467 9.90876C5.75374 10.5004 5.80015 10.5933 5.80015 10.5933C5.80015 10.5933 5.30706 10.3612 4.52971 10.8833C3.97364 11.2568 3.77464 12.3652 4.12363 12.9369L5.99576 16.0935L8.57237 20.3037C10.0872 22.4507 13.3168 23.192 15.6636 21.7665C17.2638 20.7944 18.3495 18.7403 18.1971 16.8352Z" fill="url(#paint2_radial_161_16546)"/>
<path d="M18.1971 16.8352L18.0811 9.79273C18.0068 9.12445 17.6402 8.22644 16.3871 8.22644C14.9253 8.29605 14.8673 9.79273 14.8673 9.79273L12.6396 5.81321C12.0827 4.96624 11.1694 4.90729 10.5977 5.25629C10.0259 5.60528 9.90153 6.31209 9.90153 6.31209L9.43744 5.70878C9.08845 5.13702 8.04406 5.07044 7.51148 5.39552C6.6275 5.93509 6.49904 7.05227 7.0706 7.66954C7.03311 7.62905 6.5963 7.47779 5.86397 7.92479C5.29222 8.27378 5.11561 9.3171 5.43467 9.90876C5.75374 10.5004 5.80015 10.5933 5.80015 10.5933C5.80015 10.5933 5.30706 10.3612 4.52971 10.8833C3.97364 11.2568 3.77464 12.3652 4.12363 12.9369L5.99576 16.0935L8.57237 20.3037C10.0872 22.4507 13.3168 23.192 15.6636 21.7665C17.2638 20.7944 18.3495 18.7403 18.1971 16.8352Z" fill="url(#paint3_radial_161_16546)"/>
<path d="M18.1971 16.8352L18.0811 9.79273C18.0068 9.12445 17.6402 8.22644 16.3871 8.22644C14.9253 8.29605 14.8673 9.79273 14.8673 9.79273L12.6396 5.81321C12.0827 4.96624 11.1694 4.90729 10.5977 5.25629C10.0259 5.60528 9.90153 6.31209 9.90153 6.31209L9.43744 5.70878C9.08845 5.13702 8.04406 5.07044 7.51148 5.39552C6.6275 5.93509 6.49904 7.05227 7.0706 7.66954C7.03311 7.62905 6.5963 7.47779 5.86397 7.92479C5.29222 8.27378 5.11561 9.3171 5.43467 9.90876C5.75374 10.5004 5.80015 10.5933 5.80015 10.5933C5.80015 10.5933 5.30706 10.3612 4.52971 10.8833C3.97364 11.2568 3.77464 12.3652 4.12363 12.9369L5.99576 16.0935L8.57237 20.3037C10.0872 22.4507 13.3168 23.192 15.6636 21.7665C17.2638 20.7944 18.3495 18.7403 18.1971 16.8352Z" fill="url(#paint4_radial_161_16546)"/>
<path d="M18.1971 16.8352L18.0811 9.79273C18.0068 9.12445 17.6402 8.22644 16.3871 8.22644C14.9253 8.29605 14.8673 9.79273 14.8673 9.79273L12.6396 5.81321C12.0827 4.96624 11.1694 4.90729 10.5977 5.25629C10.0259 5.60528 9.90153 6.31209 9.90153 6.31209L9.43744 5.70878C9.08845 5.13702 8.04406 5.07044 7.51148 5.39552C6.6275 5.93509 6.49904 7.05227 7.0706 7.66954C7.03311 7.62905 6.5963 7.47779 5.86397 7.92479C5.29222 8.27378 5.11561 9.3171 5.43467 9.90876C5.75374 10.5004 5.80015 10.5933 5.80015 10.5933C5.80015 10.5933 5.30706 10.3612 4.52971 10.8833C3.97364 11.2568 3.77464 12.3652 4.12363 12.9369L5.99576 16.0935L8.57237 20.3037C10.0872 22.4507 13.3168 23.192 15.6636 21.7665C17.2638 20.7944 18.3495 18.7403 18.1971 16.8352Z" fill="url(#paint5_radial_161_16546)"/>
<path d="M18.1971 16.8352L18.0811 9.79273C18.0068 9.12445 17.6402 8.22644 16.3871 8.22644C14.9253 8.29605 14.8673 9.79273 14.8673 9.79273L12.6396 5.81321C12.0827 4.96624 11.1694 4.90729 10.5977 5.25629C10.0259 5.60528 9.90153 6.31209 9.90153 6.31209L9.43744 5.70878C9.08845 5.13702 8.04406 5.07044 7.51148 5.39552C6.6275 5.93509 6.49904 7.05227 7.0706 7.66954C7.03311 7.62905 6.5963 7.47779 5.86397 7.92479C5.29222 8.27378 5.11561 9.3171 5.43467 9.90876C5.75374 10.5004 5.80015 10.5933 5.80015 10.5933C5.80015 10.5933 5.30706 10.3612 4.52971 10.8833C3.97364 11.2568 3.77464 12.3652 4.12363 12.9369L5.99576 16.0935L8.57237 20.3037C10.0872 22.4507 13.3168 23.192 15.6636 21.7665C17.2638 20.7944 18.3495 18.7403 18.1971 16.8352Z" fill="url(#paint6_radial_161_16546)"/>
<path d="M18.1971 16.8352L18.0811 9.79273C18.0068 9.12445 17.6402 8.22644 16.3871 8.22644C14.9253 8.29605 14.8673 9.79273 14.8673 9.79273L12.6396 5.81321C12.0827 4.96624 11.1694 4.90729 10.5977 5.25629C10.0259 5.60528 9.90153 6.31209 9.90153 6.31209L9.43744 5.70878C9.08845 5.13702 8.04406 5.07044 7.51148 5.39552C6.6275 5.93509 6.49904 7.05227 7.0706 7.66954C7.03311 7.62905 6.5963 7.47779 5.86397 7.92479C5.29222 8.27378 5.11561 9.3171 5.43467 9.90876C5.75374 10.5004 5.80015 10.5933 5.80015 10.5933C5.80015 10.5933 5.30706 10.3612 4.52971 10.8833C3.97364 11.2568 3.77464 12.3652 4.12363 12.9369L5.99576 16.0935L8.57237 20.3037C10.0872 22.4507 13.3168 23.192 15.6636 21.7665C17.2638 20.7944 18.3495 18.7403 18.1971 16.8352Z" fill="url(#paint7_radial_161_16546)"/>
<path d="M18.1971 16.8352L18.0811 9.79273C18.0068 9.12445 17.6402 8.22644 16.3871 8.22644C14.9253 8.29605 14.8673 9.79273 14.8673 9.79273L12.6396 5.81321C12.0827 4.96624 11.1694 4.90729 10.5977 5.25629C10.0259 5.60528 9.90153 6.31209 9.90153 6.31209L9.43744 5.70878C9.08845 5.13702 8.04406 5.07044 7.51148 5.39552C6.6275 5.93509 6.49904 7.05227 7.0706 7.66954C7.03311 7.62905 6.5963 7.47779 5.86397 7.92479C5.29222 8.27378 5.11561 9.3171 5.43467 9.90876C5.75374 10.5004 5.80015 10.5933 5.80015 10.5933C5.80015 10.5933 5.30706 10.3612 4.52971 10.8833C3.97364 11.2568 3.77464 12.3652 4.12363 12.9369L5.99576 16.0935L8.57237 20.3037C10.0872 22.4507 13.3168 23.192 15.6636 21.7665C17.2638 20.7944 18.3495 18.7403 18.1971 16.8352Z" fill="url(#paint8_radial_161_16546)"/>
<path fill-rule="evenodd" clip-rule="evenodd" d="M5.04883 10.6206C5.12383 10.6537 5.20803 10.6688 5.29544 10.6608C5.396 10.6517 5.60259 10.6645 5.83638 10.7268C6.06987 10.7889 6.27455 10.8857 6.40627 11.0027C6.47066 11.06 6.57867 11.1887 6.7263 11.398C6.86755 11.5982 7.02492 11.8428 7.18881 12.1069C7.3196 12.3176 7.45748 12.5458 7.59248 12.7692C7.78486 13.0876 7.97142 13.3963 8.12335 13.6311C8.27337 13.863 8.58292 13.9293 8.81476 13.7793C9.0466 13.6293 9.11294 13.3197 8.96292 13.0879C8.81538 12.8599 8.64647 12.5801 8.46401 12.2778L8.46401 12.2778C8.32855 12.0534 8.18563 11.8166 8.03843 11.5795C7.871 11.3097 7.70157 11.0457 7.54346 10.8216C7.39174 10.6065 7.22782 10.395 7.07063 10.2553C6.78047 9.99741 6.41288 9.84542 6.09364 9.76043C5.82864 9.68988 5.55834 9.65536 5.335 9.65839C5.35994 9.74796 5.39302 9.83244 5.43446 9.90929C5.75353 10.501 5.79994 10.5938 5.79994 10.5938C5.79994 10.5938 5.51975 10.4619 5.04883 10.6206Z" fill="url(#paint9_radial_161_16546)"/>
<path fill-rule="evenodd" clip-rule="evenodd" d="M6.36133 7.68936C6.43909 7.72595 6.52732 7.74296 6.61909 7.73462C6.82814 7.71562 7.21408 7.7423 7.71821 8.19041M6.72369 6.73047C6.71822 7.0783 6.83488 7.41649 7.06982 7.67023C7.04183 7.64 6.79127 7.54803 6.36133 7.68936M6.72369 6.73047C7.17934 6.73318 7.76041 6.88998 8.38257 7.443C8.4832 7.53245 8.58124 7.65915 8.66614 7.77853C8.75725 7.90662 8.85746 8.06137 8.96203 8.23079C9.17138 8.57 9.41083 8.98872 9.64883 9.41333C9.78383 9.65418 9.91745 9.89518 10.0453 10.1258C10.3777 10.7252 10.6712 11.2546 10.8491 11.5295C10.9991 11.7613 10.9328 12.0709 10.7009 12.2209C10.4691 12.3709 10.1595 12.3046 10.0095 12.0727C9.81167 11.767 9.48942 11.1857 9.1484 10.5706L9.1484 10.5706C9.02522 10.3485 8.8996 10.1219 8.7765 9.90226C8.53962 9.47962 8.30872 9.07628 8.11105 8.756C8.0121 8.59567 7.92463 8.46131 7.85124 8.35812C7.81462 8.30664 7.78377 8.26612 7.75868 8.23569C7.74627 8.22063 7.73633 8.20935 7.72879 8.20124" fill="url(#paint10_radial_161_16546)"/>
<path fill-rule="evenodd" clip-rule="evenodd" d="M9.37988 5.62745C9.38903 5.69517 9.41229 5.7621 9.45066 5.82392L9.5012 5.79254L9.4368 5.70882C9.41949 5.68046 9.40047 5.65334 9.37988 5.62745ZM9.50123 5.79258L9.45069 5.82397L9.45078 5.82411L9.45114 5.82468L9.45255 5.82696L9.45812 5.83593L9.47991 5.87101L9.56302 6.00484L9.86354 6.48847C10.1145 6.89213 10.4544 7.43868 10.8105 8.01016C11.521 9.15059 12.3004 10.3976 12.5611 10.8006C12.7112 11.0324 13.0207 11.0988 13.2526 10.9487C13.4844 10.7987 13.5507 10.4892 13.4007 10.2573C13.1459 9.86346 12.3725 8.62607 11.6592 7.48134C11.3034 6.91025 10.9636 6.36402 10.7128 5.96055L10.4125 5.4772L10.3793 5.42383C9.99241 5.79202 9.90089 6.31213 9.90089 6.31213L9.50123 5.79258Z" fill="url(#paint11_radial_161_16546)"/>
<g filter="url(#filter0_f_161_16546)">
<path fill-rule="evenodd" clip-rule="evenodd" d="M17.3642 10.2531L17.4709 16.7343C17.6112 18.4875 16.612 20.378 15.1394 21.2725C14.8615 21.4413 14.5702 21.5771 14.2706 21.6814C12.6551 21.6979 11.0434 20.9508 10.1189 19.6404L8.28951 17.1477L7.09872 15.081C6.77431 14.5495 6.95929 13.5192 7.47619 13.172C8.19877 12.6867 8.65712 12.9024 8.65712 12.9024C8.65712 12.9024 8.06455 11.9487 7.76796 11.3987C7.47137 10.8488 7.63026 10.0101 8.16173 9.68568C8.84246 9.27017 9.39837 9.75937 9.43322 9.79701C8.9879 9.1935 8.95136 7.83763 9.77306 7.33607C10.2681 7.03389 11.1643 6.96318 11.4887 7.49466L11.9201 8.05546C11.9201 8.05546 12.0357 7.39845 12.5672 7.07405C12.582 7.06502 12.597 7.05628 12.6123 7.04785L14.4065 10.2531C14.4065 10.2531 14.4432 9.30565 15.2233 8.94579L16.536 11.2909C16.536 11.2909 16.5718 10.3679 17.3194 9.99051C17.3403 10.0802 17.3548 10.1687 17.3642 10.2531Z" fill="#F06B0C"/>
</g>
<path d="M22.4652 16.7788V9.66553C22.3902 8.99053 21.9027 8.0835 20.6371 8.0835C19.1605 8.15381 19.102 9.66553 19.102 9.66553L16.852 5.64601C16.2895 4.79054 15.367 4.731 14.7895 5.0835C14.212 5.436 14.0863 6.14991 14.0863 6.14991L13.6176 5.54054C13.2651 4.96304 12.2102 4.89578 11.6723 5.22413C10.7794 5.76912 10.6497 6.89753 11.227 7.521C11.1891 7.48011 10.5431 7.3979 10.0082 7.77882C9.41181 8.20356 9.25232 9.18511 9.57459 9.78273C9.89687 10.3803 9.94374 10.4741 9.94374 10.4741C9.94374 10.4741 9.44569 10.2397 8.66053 10.7671C8.09888 11.1443 7.89787 12.2638 8.25037 12.8413L10.1413 16.0296L12.7438 20.2821C14.2738 22.4507 17.536 23.1995 19.9063 21.7596C21.5225 20.7778 22.6192 18.703 22.4652 16.7788Z" fill="#FFC03C"/>
<path d="M22.4652 16.7788V9.66553C22.3902 8.99053 21.9027 8.0835 20.6371 8.0835C19.1605 8.15381 19.102 9.66553 19.102 9.66553L16.852 5.64601C16.2895 4.79054 15.367 4.731 14.7895 5.0835C14.212 5.436 14.0863 6.14991 14.0863 6.14991L13.6176 5.54054C13.2651 4.96304 12.2102 4.89578 11.6723 5.22413C10.7794 5.76912 10.6497 6.89753 11.227 7.521C11.1891 7.48011 10.5431 7.3979 10.0082 7.77882C9.41181 8.20356 9.25232 9.18511 9.57459 9.78273C9.89687 10.3803 9.94374 10.4741 9.94374 10.4741C9.94374 10.4741 9.44569 10.2397 8.66053 10.7671C8.09888 11.1443 7.89787 12.2638 8.25037 12.8413L10.1413 16.0296L12.7438 20.2821C14.2738 22.4507 17.536 23.1995 19.9063 21.7596C21.5225 20.7778 22.6192 18.703 22.4652 16.7788Z" fill="url(#paint12_radial_161_16546)"/>
<path d="M22.4652 16.7788V9.66553C22.3902 8.99053 21.9027 8.0835 20.6371 8.0835C19.1605 8.15381 19.102 9.66553 19.102 9.66553L16.852 5.64601C16.2895 4.79054 15.367 4.731 14.7895 5.0835C14.212 5.436 14.0863 6.14991 14.0863 6.14991L13.6176 5.54054C13.2651 4.96304 12.2102 4.89578 11.6723 5.22413C10.7794 5.76912 10.6497 6.89753 11.227 7.521C11.1891 7.48011 10.5431 7.3979 10.0082 7.77882C9.41181 8.20356 9.25232 9.18511 9.57459 9.78273C9.89687 10.3803 9.94374 10.4741 9.94374 10.4741C9.94374 10.4741 9.44569 10.2397 8.66053 10.7671C8.09888 11.1443 7.89787 12.2638 8.25037 12.8413L10.1413 16.0296L12.7438 20.2821C14.2738 22.4507 17.536 23.1995 19.9063 21.7596C21.5225 20.7778 22.6192 18.703 22.4652 16.7788Z" fill="url(#paint13_radial_161_16546)"/>
<path d="M22.4652 16.7788V9.66553C22.3902 8.99053 21.9027 8.0835 20.6371 8.0835C19.1605 8.15381 19.102 9.66553 19.102 9.66553L16.852 5.64601C16.2895 4.79054 15.367 4.731 14.7895 5.0835C14.212 5.436 14.0863 6.14991 14.0863 6.14991L13.6176 5.54054C13.2651 4.96304 12.2102 4.89578 11.6723 5.22413C10.7794 5.76912 10.6497 6.89753 11.227 7.521C11.1891 7.48011 10.5431 7.3979 10.0082 7.77882C9.41181 8.20356 9.25232 9.18511 9.57459 9.78273C9.89687 10.3803 9.94374 10.4741 9.94374 10.4741C9.94374 10.4741 9.44569 10.2397 8.66053 10.7671C8.09888 11.1443 7.89787 12.2638 8.25037 12.8413L10.1413 16.0296L12.7438 20.2821C14.2738 22.4507 17.536 23.1995 19.9063 21.7596C21.5225 20.7778 22.6192 18.703 22.4652 16.7788Z" fill="url(#paint14_radial_161_16546)"/>
<path d="M20.6367 8.08301C19.1602 8.15332 19.1016 9.66504 19.1016 9.66504L20.5078 11.9762C20.5078 11.9762 19.7695 9.87854 20.6367 8.08301Z" fill="url(#paint15_linear_161_16546)"/>
<g filter="url(#filter1_f_161_16546)">
<path d="M22.2653 17.0621L21.8434 10.3473C21.7759 9.73978 21.5762 8.39029 20.4371 8.39029L20.2028 12.2574L18.3981 9.42151L16.57 6.18713C16.2404 5.6859 16.0192 5.61293 15.7614 5.55433C15.5035 5.49574 14.7418 5.49576 14.9059 5.77703C15.07 6.0583 16.9684 8.89417 17.6598 10.0778C17.9175 10.519 16.8733 11.2731 16.4762 10.7106C16.0791 10.1481 13.2887 5.99963 13.2887 5.99963C12.9714 5.47987 11.859 5.27831 11.859 5.77697C11.859 6.28326 14.5299 9.57519 15.1285 11.2028C15.3671 11.8514 14.4802 12.2792 14.1559 11.777C13.8316 11.2748 12.4684 9.0231 11.7887 8.10904C11.5539 7.79326 10.8705 7.43726 10.6403 7.72232C10.1928 8.27633 10.7135 9.10633 11.0035 9.6442C11.1532 9.92165 12.8551 12.4817 13.5231 13.6286C13.8475 14.1856 12.691 14.7067 12.3864 14.32C12.0817 13.9333 11.2701 12.1882 10.4996 11.2028C10.1201 10.7174 9.35003 10.7415 9.11683 10.8981C8.61133 11.2376 9.043 12.126 9.36026 12.6458C10.8498 15.3813 15.515 24.0598 19.7809 21.4684C21.2355 20.5847 22.4038 18.7939 22.2653 17.0621Z" fill="url(#paint16_radial_161_16546)"/>
</g>
<path d="M4.26888 4.82981L2.87388 4.24481C2.65638 4.15481 2.59638 3.87731 2.76138 3.70481L3.48888 2.93231C3.64638 2.75981 3.93138 2.80481 4.03638 3.01481L4.70388 4.37231C4.83138 4.64981 4.55388 4.94981 4.26888 4.82981Z" fill="#1A80EA"/>
<path d="M4.26888 4.82981L2.87388 4.24481C2.65638 4.15481 2.59638 3.87731 2.76138 3.70481L3.48888 2.93231C3.64638 2.75981 3.93138 2.80481 4.03638 3.01481L4.70388 4.37231C4.83138 4.64981 4.55388 4.94981 4.26888 4.82981Z" fill="url(#paint17_linear_161_16546)"/>
<path d="M4.26888 4.82981L2.87388 4.24481C2.65638 4.15481 2.59638 3.87731 2.76138 3.70481L3.48888 2.93231C3.64638 2.75981 3.93138 2.80481 4.03638 3.01481L4.70388 4.37231C4.83138 4.64981 4.55388 4.94981 4.26888 4.82981Z" fill="url(#paint18_linear_161_16546)"/>
<path d="M4.26888 4.82981L2.87388 4.24481C2.65638 4.15481 2.59638 3.87731 2.76138 3.70481L3.48888 2.93231C3.64638 2.75981 3.93138 2.80481 4.03638 3.01481L4.70388 4.37231C4.83138 4.64981 4.55388 4.94981 4.26888 4.82981Z" fill="url(#paint19_linear_161_16546)"/>
<path d="M6.03929 3.6128L5.12429 2.37414C4.98179 2.1806 5.07179 1.90188 5.29679 1.83221L6.31679 1.51481C6.54179 1.44513 6.76679 1.63093 6.75179 1.87092L6.64679 3.42701C6.61679 3.74442 6.22679 3.86828 6.03929 3.6128Z" fill="#1A80EA"/>
<path d="M6.03929 3.6128L5.12429 2.37414C4.98179 2.1806 5.07179 1.90188 5.29679 1.83221L6.31679 1.51481C6.54179 1.44513 6.76679 1.63093 6.75179 1.87092L6.64679 3.42701C6.61679 3.74442 6.22679 3.86828 6.03929 3.6128Z" fill="url(#paint20_linear_161_16546)"/>
<path d="M6.03929 3.6128L5.12429 2.37414C4.98179 2.1806 5.07179 1.90188 5.29679 1.83221L6.31679 1.51481C6.54179 1.44513 6.76679 1.63093 6.75179 1.87092L6.64679 3.42701C6.61679 3.74442 6.22679 3.86828 6.03929 3.6128Z" fill="url(#paint21_linear_161_16546)"/>
<path d="M6.03929 3.6128L5.12429 2.37414C4.98179 2.1806 5.07179 1.90188 5.29679 1.83221L6.31679 1.51481C6.54179 1.44513 6.76679 1.63093 6.75179 1.87092L6.64679 3.42701C6.61679 3.74442 6.22679 3.86828 6.03929 3.6128Z" fill="url(#paint22_linear_161_16546)"/>
<path d="M3.44346 6.81689L1.88984 7.01923C1.64903 7.05036 1.45483 6.83245 1.5092 6.5912L1.76555 5.51722C1.81993 5.28374 2.09958 5.1748 2.30155 5.3071L3.59882 6.17873C3.86293 6.36551 3.76195 6.77798 3.44346 6.81689Z" fill="#1A80EA"/>
<path d="M3.44346 6.81689L1.88984 7.01923C1.64903 7.05036 1.45483 6.83245 1.5092 6.5912L1.76555 5.51722C1.81993 5.28374 2.09958 5.1748 2.30155 5.3071L3.59882 6.17873C3.86293 6.36551 3.76195 6.77798 3.44346 6.81689Z" fill="url(#paint23_linear_161_16546)"/>
<path d="M3.44346 6.81689L1.88984 7.01923C1.64903 7.05036 1.45483 6.83245 1.5092 6.5912L1.76555 5.51722C1.81993 5.28374 2.09958 5.1748 2.30155 5.3071L3.59882 6.17873C3.86293 6.36551 3.76195 6.77798 3.44346 6.81689Z" fill="url(#paint24_linear_161_16546)"/>
<path d="M3.44346 6.81689L1.88984 7.01923C1.64903 7.05036 1.45483 6.83245 1.5092 6.5912L1.76555 5.51722C1.81993 5.28374 2.09958 5.1748 2.30155 5.3071L3.59882 6.17873C3.86293 6.36551 3.76195 6.77798 3.44346 6.81689Z" fill="url(#paint25_linear_161_16546)"/>
<path d="M10.0309 10.4894C9.9969 10.4756 9.96394 10.463 9.93217 10.4516C9.90491 10.3991 9.81893 10.2357 9.57443 9.78235C9.54475 9.72732 9.51931 9.66841 9.49805 9.60654C9.74796 9.60322 10.0482 9.68688 10.3133 9.7946C10.6178 9.91836 10.9438 10.1016 11.1947 10.3246C11.3465 10.4596 11.5059 10.6789 11.6557 10.9078C11.8117 11.146 11.9795 11.4301 12.146 11.7205C12.2471 11.8968 12.3472 12.0745 12.4446 12.2472C12.6745 12.655 12.889 13.0357 13.0651 13.3077C13.1776 13.4816 13.1278 13.7138 12.9539 13.8263C12.7801 13.9388 12.5479 13.889 12.4354 13.7152C12.2462 13.4228 12.0127 13.0085 11.7771 12.5906C11.6826 12.423 11.5878 12.2548 11.4954 12.0936C11.3306 11.8062 11.1716 11.5377 11.0282 11.3185C10.8786 11.09 10.7662 10.9472 10.6964 10.8852C10.5254 10.7332 10.2791 10.5903 10.0309 10.4894Z" fill="url(#paint26_radial_161_16546)"/>
<path d="M11.1662 7.49214C11.0499 7.47016 10.9483 7.46379 10.8682 7.46628C11.0063 7.45614 11.1069 7.47316 11.1662 7.49214Z" fill="url(#paint27_radial_161_16546)"/>
<path d="M12.1313 7.98485C11.8045 7.69439 11.4719 7.5573 11.2073 7.50045C11.0143 7.28243 10.9048 7.0062 10.8812 6.71592C11.3296 6.71122 12.0035 6.86782 12.6296 7.4243C12.7839 7.56145 12.9795 7.83618 13.1733 8.13013C13.3775 8.43998 13.6109 8.82082 13.8439 9.20979C14.0178 9.50006 14.1904 9.79304 14.3518 10.0669C14.629 10.5373 14.873 10.9514 15.0332 11.1989C15.1457 11.3728 15.0959 11.605 14.922 11.7175C14.7482 11.83 14.516 11.7802 14.4035 11.6063C14.2354 11.3465 13.9761 10.9067 13.6913 10.4235C13.5319 10.1531 13.3644 9.86885 13.2005 9.59519C12.9689 9.2085 12.7422 8.83886 12.5471 8.54291C12.3415 8.23106 12.1986 8.04466 12.1313 7.98485Z" fill="url(#paint28_radial_161_16546)"/>
<path d="M14.0879 6.13713L14.0977 6.15289C14.3486 6.55653 14.6885 7.10303 15.0446 7.67447C15.7555 8.81543 16.534 10.0612 16.7941 10.4631C16.9066 10.637 17.1388 10.6867 17.3126 10.5742C17.4865 10.4617 17.5363 10.2295 17.4238 10.0556C17.1682 9.66063 16.394 8.42204 15.6811 7.27785C15.3252 6.70671 14.9855 6.16044 14.7347 5.75695L14.4791 5.3457C14.1944 5.67081 14.1031 6.06331 14.0879 6.13713Z" fill="url(#paint29_linear_161_16546)"/>
<g filter="url(#filter2_f_161_16546)">
<path d="M10.9219 8.17969C11.2422 8.20312 11.5102 8.25212 11.8852 8.83337C12.2602 9.41462 13.4633 11.3881 14.0883 12.3724" stroke="#FFE240" stroke-linecap="round" stroke-linejoin="round"/>
</g>
<g filter="url(#filter3_f_161_16546)">
<path d="M9.67969 11.0625C10 11.0859 10.268 11.1349 10.643 11.7162C11.018 12.2974 11.7031 13.6406 12.3281 14.625" stroke="#FFE240" stroke-linecap="round" stroke-linejoin="round"/>
</g>
<g filter="url(#filter4_f_161_16546)">
<path d="M10.5 9.39844C10.8203 9.42188 11.1821 9.55474 11.5571 10.136C11.9321 10.7172 12.7344 12.3516 13.3594 13.3359" stroke="url(#paint30_linear_161_16546)" stroke-width="2" stroke-linecap="round" stroke-linejoin="round"/>
</g>
<g filter="url(#filter5_f_161_16546)">
<path d="M11.8125 6.60938C12.1328 6.63281 12.8932 6.87178 13.2682 7.45303C13.6432 8.03428 14.7031 10.0781 15.3281 11.0625" stroke="url(#paint31_linear_161_16546)" stroke-width="2" stroke-linecap="round" stroke-linejoin="round"/>
</g>
<g filter="url(#filter6_f_161_16546)">
<path d="M12.584 5.83691C12.9043 5.86035 13.1723 5.90935 13.5473 6.4906C13.9223 7.07185 15.9926 10.195 16.6176 11.1794" stroke="#FFE240" stroke-linecap="round" stroke-linejoin="round"/>
</g>
<g filter="url(#filter7_f_161_16546)">
<path d="M15.3916 5.66309C15.7119 5.68652 15.9799 5.73552 16.3549 6.31677C16.7299 6.89802 18.8237 10.7933 19.4487 11.7777" stroke="#FFE240" stroke-linecap="round" stroke-linejoin="round"/>
</g>
<g filter="url(#filter8_f_161_16546)">
<path d="M21.2598 8.88184C21.5257 9.06186 21.7336 9.23798 21.7689 9.9288C21.8041 10.6196 21.6768 15.0401 21.7278 16.2051" stroke="#FFE240" stroke-linecap="round" stroke-linejoin="round"/>
</g>
</g>
<defs>
<filter id="filter0_f_161_16546" x="4.4375" y="4.54785" width="15.5469" height="19.6338" filterUnits="userSpaceOnUse" color-interpolation-filters="sRGB">
<feFlood flood-opacity="0" result="BackgroundImageFix"/>
<feBlend mode="normal" in="SourceGraphic" in2="BackgroundImageFix" result="shape"/>
<feGaussianBlur stdDeviation="1.25" result="effect1_foregroundBlur_161_16546"/>
</filter>
<filter id="filter1_f_161_16546" x="7.88477" y="4.49023" width="15.3916" height="18.4551" filterUnits="userSpaceOnUse" color-interpolation-filters="sRGB">
<feFlood flood-opacity="0" result="BackgroundImageFix"/>
<feBlend mode="normal" in="SourceGraphic" in2="BackgroundImageFix" result="shape"/>
<feGaussianBlur stdDeviation="0.5" result="effect1_foregroundBlur_161_16546"/>
</filter>
<filter id="filter2_f_161_16546" x="9.42188" y="6.67969" width="6.16699" height="7.19238" filterUnits="userSpaceOnUse" color-interpolation-filters="sRGB">
<feFlood flood-opacity="0" result="BackgroundImageFix"/>
<feBlend mode="normal" in="SourceGraphic" in2="BackgroundImageFix" result="shape"/>
<feGaussianBlur stdDeviation="0.5" result="effect1_foregroundBlur_161_16546"/>
</filter>
<filter id="filter3_f_161_16546" x="8.17969" y="9.5625" width="5.64844" height="6.5625" filterUnits="userSpaceOnUse" color-interpolation-filters="sRGB">
<feFlood flood-opacity="0" result="BackgroundImageFix"/>
<feBlend mode="normal" in="SourceGraphic" in2="BackgroundImageFix" result="shape"/>
<feGaussianBlur stdDeviation="0.5" result="effect1_foregroundBlur_161_16546"/>
</filter>
<filter id="filter4_f_161_16546" x="9" y="7.89844" width="5.85938" height="6.9375" filterUnits="userSpaceOnUse" color-interpolation-filters="sRGB">
<feFlood flood-opacity="0" result="BackgroundImageFix"/>
<feBlend mode="normal" in="SourceGraphic" in2="BackgroundImageFix" result="shape"/>
<feGaussianBlur stdDeviation="0.25" result="effect1_foregroundBlur_161_16546"/>
</filter>
<filter id="filter5_f_161_16546" x="10.3125" y="5.10938" width="6.51562" height="7.45312" filterUnits="userSpaceOnUse" color-interpolation-filters="sRGB">
<feFlood flood-opacity="0" result="BackgroundImageFix"/>
<feBlend mode="normal" in="SourceGraphic" in2="BackgroundImageFix" result="shape"/>
<feGaussianBlur stdDeviation="0.25" result="effect1_foregroundBlur_161_16546"/>
</filter>
<filter id="filter6_f_161_16546" x="11.084" y="4.33691" width="7.03418" height="8.34277" filterUnits="userSpaceOnUse" color-interpolation-filters="sRGB">
<feFlood flood-opacity="0" result="BackgroundImageFix"/>
<feBlend mode="normal" in="SourceGraphic" in2="BackgroundImageFix" result="shape"/>
<feGaussianBlur stdDeviation="0.5" result="effect1_foregroundBlur_161_16546"/>
</filter>
<filter id="filter7_f_161_16546" x="13.8916" y="4.16309" width="7.05762" height="9.11426" filterUnits="userSpaceOnUse" color-interpolation-filters="sRGB">
<feFlood flood-opacity="0" result="BackgroundImageFix"/>
<feBlend mode="normal" in="SourceGraphic" in2="BackgroundImageFix" result="shape"/>
<feGaussianBlur stdDeviation="0.5" result="effect1_foregroundBlur_161_16546"/>
</filter>
<filter id="filter8_f_161_16546" x="19.7598" y="7.38184" width="3.51562" height="10.3232" filterUnits="userSpaceOnUse" color-interpolation-filters="sRGB">
<feFlood flood-opacity="0" result="BackgroundImageFix"/>
<feBlend mode="normal" in="SourceGraphic" in2="BackgroundImageFix" result="shape"/>
<feGaussianBlur stdDeviation="0.5" result="effect1_foregroundBlur_161_16546"/>
</filter>
<linearGradient id="paint0_linear_161_16546" x1="15.9848" y1="22.0308" x2="10.2191" y2="11.6246" gradientUnits="userSpaceOnUse">
<stop stop-color="#FF6C4C"/>
<stop offset="1" stop-color="#FF6D47" stop-opacity="0"/>
</linearGradient>
<radialGradient id="paint1_radial_161_16546" cx="0" cy="0" r="1" gradientUnits="userSpaceOnUse" gradientTransform="translate(7.85194 9.60895) rotate(58.4429) scale(3.49313 1.39639)">
<stop stop-color="#FFAF33"/>
<stop offset="1" stop-color="#FA8221"/>
</radialGradient>
<radialGradient id="paint2_radial_161_16546" cx="0" cy="0" r="1" gradientUnits="userSpaceOnUse" gradientTransform="translate(7.00819 8.48395) rotate(92.0826) scale(1.28991 1.28318)">
<stop stop-color="#FFAE28"/>
<stop offset="1" stop-color="#FFAF31" stop-opacity="0"/>
</radialGradient>
<radialGradient id="paint3_radial_161_16546" cx="0" cy="0" r="1" gradientUnits="userSpaceOnUse" gradientTransform="translate(6.09413 12.1636) rotate(57.3311) scale(3.6473 1.04478)">
<stop stop-color="#FE9E29"/>
<stop offset="1" stop-color="#FE9E28" stop-opacity="0"/>
</radialGradient>
<radialGradient id="paint4_radial_161_16546" cx="0" cy="0" r="1" gradientUnits="userSpaceOnUse" gradientTransform="translate(5.85976 11.7652) rotate(63.4349) scale(1.51983 1.24252)">
<stop stop-color="#FF9D25"/>
<stop offset="1" stop-color="#FF9F24" stop-opacity="0"/>
</radialGradient>
<radialGradient id="paint5_radial_161_16546" cx="0" cy="0" r="1" gradientUnits="userSpaceOnUse" gradientTransform="translate(8.83632 6.58551) rotate(58.3392) scale(3.30427 1.42804)">
<stop stop-color="#FFC133"/>
<stop offset="1" stop-color="#FFC93C" stop-opacity="0"/>
</radialGradient>
<radialGradient id="paint6_radial_161_16546" cx="0" cy="0" r="1" gradientUnits="userSpaceOnUse" gradientTransform="translate(8.69569 5.97614) rotate(52.3738) scale(1.42044 1.0855)">
<stop stop-color="#FFC53A"/>
<stop offset="1" stop-color="#FFC83C" stop-opacity="0"/>
</radialGradient>
<radialGradient id="paint7_radial_161_16546" cx="0" cy="0" r="1" gradientUnits="userSpaceOnUse" gradientTransform="translate(11.391 8.34332) rotate(90.6384) scale(27.8455 24.0804)">
<stop offset="0.370081" stop-color="#FF6C5E" stop-opacity="0"/>
<stop offset="0.540093" stop-color="#FF6B5E"/>
</radialGradient>
<radialGradient id="paint8_radial_161_16546" cx="0" cy="0" r="1" gradientUnits="userSpaceOnUse" gradientTransform="translate(11.3207 5.36676) rotate(59.8163) scale(2.65713 2.92196)">
<stop stop-color="#FFAC31"/>
<stop offset="1" stop-color="#FFA92E" stop-opacity="0"/>
</radialGradient>
<radialGradient id="paint9_radial_161_16546" cx="0" cy="0" r="1" gradientUnits="userSpaceOnUse" gradientTransform="translate(6.83601 12.5636) rotate(-33.5248) scale(1.17317 3.52271)">
<stop stop-color="#DB5703"/>
<stop offset="0.594695" stop-color="#C94A04"/>
<stop offset="1" stop-color="#D65A05" stop-opacity="0"/>
</radialGradient>
<radialGradient id="paint10_radial_161_16546" cx="0" cy="0" r="1" gradientUnits="userSpaceOnUse" gradientTransform="translate(7.77832 10.2766) rotate(-40.6877) scale(1.73144 5.51293)">
<stop stop-color="#DB5703"/>
<stop offset="0.594695" stop-color="#C94A04"/>
<stop offset="1" stop-color="#D65A05" stop-opacity="0"/>
</radialGradient>
<radialGradient id="paint11_radial_161_16546" cx="0" cy="0" r="1" gradientUnits="userSpaceOnUse" gradientTransform="translate(10.0907 8.63299) rotate(-38.4639) scale(1.13697 3.65376)">
<stop stop-color="#DB5703"/>
<stop offset="0.594695" stop-color="#C94A04"/>
<stop offset="1" stop-color="#D65A05" stop-opacity="0"/>
</radialGradient>
<radialGradient id="paint12_radial_161_16546" cx="0" cy="0" r="1" gradientUnits="userSpaceOnUse" gradientTransform="translate(16.9223 15.0938) rotate(73.3649) scale(8.0233 5.32553)">
<stop stop-color="#FFD945"/>
<stop offset="0.633239" stop-color="#FFD343"/>
<stop offset="1" stop-color="#FFD543" stop-opacity="0"/>
</radialGradient>
<radialGradient id="paint13_radial_161_16546" cx="0" cy="0" r="1" gradientUnits="userSpaceOnUse" gradientTransform="translate(22.4796 11.8595) rotate(98.4363) scale(11.0413 2.91585)">
<stop stop-color="#FFE044"/>
<stop offset="1" stop-color="#FFE143" stop-opacity="0"/>
</radialGradient>
<radialGradient id="paint14_radial_161_16546" cx="0" cy="0" r="1" gradientUnits="userSpaceOnUse" gradientTransform="translate(15.516 24.9376) rotate(-124.618) scale(17.6574 13.8967)">
<stop stop-color="#FA825D"/>
<stop offset="0.882533" stop-color="#F67B7D" stop-opacity="0"/>
</radialGradient>
<linearGradient id="paint15_linear_161_16546" x1="19.2187" y1="10.0296" x2="20.7539" y2="9.92542" gradientUnits="userSpaceOnUse">
<stop stop-color="#D48820"/>
<stop offset="0.344595" stop-color="#E39C2A" stop-opacity="0.648599"/>
<stop offset="0.735218" stop-color="#FFC03C" stop-opacity="0"/>
</linearGradient>
<radialGradient id="paint16_radial_161_16546" cx="0" cy="0" r="1" gradientUnits="userSpaceOnUse" gradientTransform="translate(18.4215 15.3278) rotate(134.506) scale(7.69007 20.1201)">
<stop stop-color="#FFDB45"/>
<stop offset="0.484081" stop-color="#FFD646"/>
<stop offset="0.915211" stop-color="#FFDA45" stop-opacity="0"/>
<stop offset="0.970164" stop-color="#FFDA45" stop-opacity="0"/>
</radialGradient>
<linearGradient id="paint17_linear_161_16546" x1="2.91796" y1="3.41064" x2="3.33237" y2="3.79959" gradientUnits="userSpaceOnUse">
<stop stop-color="#2065A3"/>
<stop offset="1" stop-color="#2067AE" stop-opacity="0"/>
</linearGradient>
<linearGradient id="paint18_linear_161_16546" x1="3.45116" y1="4.93994" x2="3.68284" y2="4.40458" gradientUnits="userSpaceOnUse">
<stop offset="0.605233" stop-color="#1C60FF"/>
<stop offset="1" stop-color="#1963FF" stop-opacity="0"/>
</linearGradient>
<linearGradient id="paint19_linear_161_16546" x1="4.32421" y1="3.43408" x2="4.02156" y2="3.59409" gradientUnits="userSpaceOnUse">
<stop stop-color="#2093F1"/>
<stop offset="1" stop-color="#2294F3" stop-opacity="0"/>
</linearGradient>
<linearGradient id="paint20_linear_161_16546" x1="5.7543" y1="1.41797" x2="5.95069" y2="2.06641" gradientUnits="userSpaceOnUse">
<stop stop-color="#2065A3"/>
<stop offset="1" stop-color="#2067AE" stop-opacity="0"/>
</linearGradient>
<linearGradient id="paint21_linear_161_16546" x1="5.53165" y1="3.43945" x2="5.9399" y2="3.14111" gradientUnits="userSpaceOnUse">
<stop offset="0.605233" stop-color="#1C60FF"/>
<stop offset="1" stop-color="#1963FF" stop-opacity="0"/>
</linearGradient>
<linearGradient id="paint22_linear_161_16546" x1="6.70352" y1="2.28516" x2="6.498" y2="2.2745" gradientUnits="userSpaceOnUse">
<stop stop-color="#2093F1"/>
<stop offset="1" stop-color="#2294F3" stop-opacity="0"/>
</linearGradient>
<linearGradient id="paint23_linear_161_16546" x1="1.5" y1="6.1361" x2="2.00391" y2="6.25781" gradientUnits="userSpaceOnUse">
<stop stop-color="#2065A3"/>
<stop offset="1" stop-color="#2067AE" stop-opacity="0"/>
</linearGradient>
<linearGradient id="paint24_linear_161_16546" x1="2.625" y1="7.30078" x2="2.57812" y2="6.70313" gradientUnits="userSpaceOnUse">
<stop offset="0.605233" stop-color="#1C60FF"/>
<stop offset="1" stop-color="#1963FF" stop-opacity="0"/>
</linearGradient>
<linearGradient id="paint25_linear_161_16546" x1="2.93262" y1="5.62207" x2="2.71582" y2="5.93848" gradientUnits="userSpaceOnUse">
<stop stop-color="#2093F1"/>
<stop offset="1" stop-color="#2294F3" stop-opacity="0"/>
</linearGradient>
<radialGradient id="paint26_radial_161_16546" cx="0" cy="0" r="1" gradientUnits="userSpaceOnUse" gradientTransform="translate(10.9924 11.7465) rotate(57.1255) scale(3.92938 0.736077)">
<stop stop-color="#B64200"/>
<stop offset="1" stop-color="#FFB02E" stop-opacity="0"/>
</radialGradient>
<radialGradient id="paint27_radial_161_16546" cx="0" cy="0" r="1" gradientUnits="userSpaceOnUse" gradientTransform="translate(12.6089 9.24675) rotate(57.5206) scale(4.62664 0.861227)">
<stop stop-color="#B64200"/>
<stop offset="1" stop-color="#FFB02E" stop-opacity="0"/>
</radialGradient>
<radialGradient id="paint28_radial_161_16546" cx="0" cy="0" r="1" gradientUnits="userSpaceOnUse" gradientTransform="translate(12.6089 9.24675) rotate(57.5206) scale(4.62664 0.861227)">
<stop stop-color="#B64200"/>
<stop offset="1" stop-color="#FFB02E" stop-opacity="0"/>
</radialGradient>
<linearGradient id="paint29_linear_161_16546" x1="15.1402" y1="7.8277" x2="15.7859" y2="7.4527" gradientUnits="userSpaceOnUse">
<stop stop-color="#E49224"/>
<stop offset="0.589269" stop-color="#FFB02E" stop-opacity="0"/>
</linearGradient>
<linearGradient id="paint30_linear_161_16546" x1="10.8047" y1="11.0156" x2="12.2344" y2="10.1953" gradientUnits="userSpaceOnUse">
<stop stop-color="#FDB137"/>
<stop offset="0.447171" stop-color="#FFBA3C" stop-opacity="0"/>
<stop offset="1" stop-color="#FCAD33" stop-opacity="0"/>
</linearGradient>
<linearGradient id="paint31_linear_161_16546" x1="12.5158" y1="8.33267" x2="13.9455" y2="7.51236" gradientUnits="userSpaceOnUse">
<stop stop-color="#FDB137"/>
<stop offset="0.447171" stop-color="#FFBA3C" stop-opacity="0"/>
<stop offset="1" stop-color="#FCAD33" stop-opacity="0"/>
</linearGradient>
<clipPath id="clip0_161_16546">
<rect width="24" height="24" fill="white"/>
</clipPath>
</defs>
</svg>
