<svg width="18" height="18" viewBox="0 0 18 18" fill="none" xmlns="http://www.w3.org/2000/svg">
<ellipse cx="14.7832" cy="8.96973" rx="2.12695" ry="2.12695" fill="url(#paint0_radial_161_16626)"/>
<ellipse cx="14.7832" cy="8.96973" rx="2.12695" ry="2.12695" fill="url(#paint1_linear_161_16626)"/>
<path d="M2.95312 11.835H5.67773V15.9307C5.67773 16.086 5.55181 16.2119 5.39648 16.2119H3.23438C3.07904 16.2119 2.95312 16.086 2.95312 15.9307V11.835Z" fill="url(#paint2_radial_161_16626)"/>
<path d="M2.95312 11.835H5.67773V15.9307C5.67773 16.086 5.55181 16.2119 5.39648 16.2119H3.23438C3.07904 16.2119 2.95312 16.086 2.95312 15.9307V11.835Z" fill="url(#paint3_linear_161_16626)"/>
<g filter="url(#filter0_i_161_16626)">
<path d="M1.20605 6.08105C1.20605 5.84806 1.39493 5.65918 1.62793 5.65918H6.8349V12.3412H1.62793C1.39494 12.3412 1.20605 12.1523 1.20605 11.9193V6.08105Z" fill="url(#paint4_linear_161_16626)"/>
</g>
<g filter="url(#filter1_i_161_16626)">
<path d="M12.4985 3.23926C10.6968 4.36426 8.83349 5.48047 6.83496 5.65625V12.3411H6.92245C8.88791 12.5412 10.7231 13.6413 12.4985 14.7498L13.1356 14.6632V12.3411C13.3667 12.3388 13.5533 12.1509 13.5533 11.9193V6.08104C13.5533 5.84946 13.3667 5.66146 13.1356 5.65919V3.32592L12.4985 3.23926Z" fill="url(#paint5_radial_161_16626)"/>
</g>
<g filter="url(#filter2_i_161_16626)">
<rect x="12.2344" y="1.72754" width="3.44531" height="14.4844" rx="1.72266" fill="url(#paint6_linear_161_16626)"/>
<rect x="12.2344" y="1.72754" width="3.44531" height="14.4844" rx="1.72266" fill="url(#paint7_radial_161_16626)"/>
</g>
<defs>
<filter id="filter0_i_161_16626" x="1.20605" y="3.65918" width="5.87891" height="8.68164" filterUnits="userSpaceOnUse" color-interpolation-filters="sRGB">
<feFlood flood-opacity="0" result="BackgroundImageFix"/>
<feBlend mode="normal" in="SourceGraphic" in2="BackgroundImageFix" result="shape"/>
<feColorMatrix in="SourceAlpha" type="matrix" values="0 0 0 0 0 0 0 0 0 0 0 0 0 0 0 0 0 0 127 0" result="hardAlpha"/>
<feOffset dx="0.25" dy="-2"/>
<feGaussianBlur stdDeviation="1.5"/>
<feComposite in2="hardAlpha" operator="arithmetic" k2="-1" k3="1"/>
<feColorMatrix type="matrix" values="0 0 0 0 0.698039 0 0 0 0 0.160784 0 0 0 0 0.352941 0 0 0 1 0"/>
<feBlend mode="normal" in2="shape" result="effect1_innerShadow_161_16626"/>
</filter>
<filter id="filter1_i_161_16626" x="6.83496" y="0.239258" width="6.71875" height="14.5107" filterUnits="userSpaceOnUse" color-interpolation-filters="sRGB">
<feFlood flood-opacity="0" result="BackgroundImageFix"/>
<feBlend mode="normal" in="SourceGraphic" in2="BackgroundImageFix" result="shape"/>
<feColorMatrix in="SourceAlpha" type="matrix" values="0 0 0 0 0 0 0 0 0 0 0 0 0 0 0 0 0 0 127 0" result="hardAlpha"/>
<feOffset dy="-4"/>
<feGaussianBlur stdDeviation="1.5"/>
<feComposite in2="hardAlpha" operator="arithmetic" k2="-1" k3="1"/>
<feColorMatrix type="matrix" values="0 0 0 0 0.717647 0 0 0 0 0.65098 0 0 0 0 0.827451 0 0 0 1 0"/>
<feBlend mode="normal" in2="shape" result="effect1_innerShadow_161_16626"/>
</filter>
<filter id="filter2_i_161_16626" x="12.2344" y="0.727539" width="3.94531" height="15.4844" filterUnits="userSpaceOnUse" color-interpolation-filters="sRGB">
<feFlood flood-opacity="0" result="BackgroundImageFix"/>
<feBlend mode="normal" in="SourceGraphic" in2="BackgroundImageFix" result="shape"/>
<feColorMatrix in="SourceAlpha" type="matrix" values="0 0 0 0 0 0 0 0 0 0 0 0 0 0 0 0 0 0 127 0" result="hardAlpha"/>
<feOffset dx="0.5" dy="-1"/>
<feGaussianBlur stdDeviation="1"/>
<feComposite in2="hardAlpha" operator="arithmetic" k2="-1" k3="1"/>
<feColorMatrix type="matrix" values="0 0 0 0 0.698039 0 0 0 0 0.164706 0 0 0 0 0.372549 0 0 0 1 0"/>
<feBlend mode="normal" in2="shape" result="effect1_innerShadow_161_16626"/>
</filter>
<radialGradient id="paint0_radial_161_16626" cx="0" cy="0" r="1" gradientUnits="userSpaceOnUse" gradientTransform="translate(16.6992 8.24902) rotate(143.556) scale(1.42035 1.37123)">
<stop offset="0.363271" stop-color="#6E6279"/>
<stop offset="1" stop-color="#5A4C67"/>
</radialGradient>
<linearGradient id="paint1_linear_161_16626" x1="15.6093" y1="11.0967" x2="15.8906" y2="9.12793" gradientUnits="userSpaceOnUse">
<stop offset="0.30625" stop-color="#3A3141"/>
<stop offset="1" stop-color="#3A3141" stop-opacity="0"/>
</linearGradient>
<radialGradient id="paint2_radial_161_16626" cx="0" cy="0" r="1" gradientUnits="userSpaceOnUse" gradientTransform="translate(4.31543 15.9131) rotate(-90) scale(3.65625 4.06808)">
<stop offset="0.428571" stop-color="#C0B2D4"/>
<stop offset="1" stop-color="#B4A0BC"/>
</radialGradient>
<linearGradient id="paint3_linear_161_16626" x1="4.31543" y1="16.2119" x2="4.31543" y2="15.2803" gradientUnits="userSpaceOnUse">
<stop stop-color="#B5A4D2"/>
<stop offset="1" stop-color="#B5A4D2" stop-opacity="0"/>
</linearGradient>
<linearGradient id="paint4_linear_161_16626" x1="1.44183" y1="9.93654" x2="7.24261" y2="9.93654" gradientUnits="userSpaceOnUse">
<stop stop-color="#F44065"/>
<stop offset="1" stop-color="#D52E84"/>
</linearGradient>
<radialGradient id="paint5_radial_161_16626" cx="0" cy="0" r="1" gradientUnits="userSpaceOnUse" gradientTransform="translate(7.52392 4.1709) rotate(69.2417) scale(9.32403 9.8874)">
<stop offset="0.253085" stop-color="#CFCCD5"/>
<stop offset="1" stop-color="#C1B6D2"/>
</radialGradient>
<linearGradient id="paint6_linear_161_16626" x1="13.957" y1="1.72754" x2="13.957" y2="16.2119" gradientUnits="userSpaceOnUse">
<stop stop-color="#F94E87"/>
<stop offset="1" stop-color="#D21F6B"/>
</linearGradient>
<radialGradient id="paint7_radial_161_16626" cx="0" cy="0" r="1" gradientUnits="userSpaceOnUse" gradientTransform="translate(15.1875 4.80371) rotate(90) scale(7.94531 1.89844)">
<stop offset="0.283186" stop-color="#FF4F8A"/>
<stop offset="1" stop-color="#FF4F8A" stop-opacity="0"/>
</radialGradient>
</defs>
</svg>
