<svg width="24" height="24" viewBox="0 0 24 24" fill="none" xmlns="http://www.w3.org/2000/svg">
<g clip-path="url(#clip0_161_16577)">
<path d="M11.9992 22.4983C19 22.4983 22.4983 17.7977 22.4983 11.9992C22.4983 6.20064 19 1.5 11.9992 1.5C4.99833 1.5 1.5 6.20064 1.5 11.9992C1.5 17.7977 4.99833 22.4983 11.9992 22.4983Z" fill="url(#paint0_radial_161_16577)"/>
<path d="M11.9992 22.4983C19 22.4983 22.4983 17.7977 22.4983 11.9992C22.4983 6.20064 19 1.5 11.9992 1.5C4.99833 1.5 1.5 6.20064 1.5 11.9992C1.5 17.7977 4.99833 22.4983 11.9992 22.4983Z" fill="url(#paint1_radial_161_16577)"/>
<path d="M11.9992 22.4983C19 22.4983 22.4983 17.7977 22.4983 11.9992C22.4983 6.20064 19 1.5 11.9992 1.5C4.99833 1.5 1.5 6.20064 1.5 11.9992C1.5 17.7977 4.99833 22.4983 11.9992 22.4983Z" fill="url(#paint2_radial_161_16577)" fill-opacity="0.6"/>
<path d="M11.9992 22.4983C19 22.4983 22.4983 17.7977 22.4983 11.9992C22.4983 6.20064 19 1.5 11.9992 1.5C4.99833 1.5 1.5 6.20064 1.5 11.9992C1.5 17.7977 4.99833 22.4983 11.9992 22.4983Z" fill="url(#paint3_radial_161_16577)"/>
<path d="M11.9992 22.4983C19 22.4983 22.4983 17.7977 22.4983 11.9992C22.4983 6.20064 19 1.5 11.9992 1.5C4.99833 1.5 1.5 6.20064 1.5 11.9992C1.5 17.7977 4.99833 22.4983 11.9992 22.4983Z" fill="url(#paint4_radial_161_16577)"/>
<path d="M11.9992 22.4983C19 22.4983 22.4983 17.7977 22.4983 11.9992C22.4983 6.20064 19 1.5 11.9992 1.5C4.99833 1.5 1.5 6.20064 1.5 11.9992C1.5 17.7977 4.99833 22.4983 11.9992 22.4983Z" fill="url(#paint5_radial_161_16577)"/>
<path d="M11.9992 22.4983C19 22.4983 22.4983 17.7977 22.4983 11.9992C22.4983 6.20064 19 1.5 11.9992 1.5C4.99833 1.5 1.5 6.20064 1.5 11.9992C1.5 17.7977 4.99833 22.4983 11.9992 22.4983Z" fill="url(#paint6_radial_161_16577)"/>
<path d="M7.5002 16.125V13.8295C7.5002 13.2333 7.0169 12.75 6.42071 12.75C5.79014 12.75 5.29181 13.2886 5.28261 13.9191C5.26771 14.9402 5.12657 16.2912 4.50021 16.5C2.25013 17.25 1.50024 20.625 3.3752 22.125C4.87524 23.3251 6.3752 23.25 7.5002 23.25H9.57315C10.0851 23.25 10.5002 22.8349 10.5002 22.3229C10.5002 21.9718 10.3018 21.6508 9.98774 21.4938L9.7502 21.375H10.2896C10.6338 21.375 10.9338 21.1408 11.0173 20.8069L11.0683 20.6026C11.1607 20.233 10.8812 19.875 10.5002 19.875L10.7471 19.7516C11.0554 19.5974 11.2502 19.2822 11.2502 18.9375C11.2502 18.5928 11.0554 18.2776 10.7471 18.1234L10.5002 18H11.8127C12.3305 18 12.7502 17.5803 12.7502 17.0625C12.7502 16.5447 12.3305 16.125 11.8127 16.125H7.5002Z" fill="url(#paint7_radial_161_16577)"/>
<path d="M9.75 14.25C9.75 14.25 10.593 13.2729 12.1875 13.5001C13.782 13.7272 14.25 15 14.25 15" stroke="#402A32" stroke-width="2" stroke-linecap="round" stroke-linejoin="round"/>
<circle cx="6.76278" cy="10.0655" r="3.50497" fill="url(#paint8_radial_161_16577)"/>
<ellipse cx="14.4332" cy="10.4576" rx="3.18323" ry="3.18323" fill="url(#paint9_radial_161_16577)"/>
<path d="M7.81463 12.1683C9.5568 12.1683 10.9691 10.756 10.9691 9.01385C10.9691 7.27168 9.5568 5.85938 7.81463 5.85938C6.07246 5.85938 4.66016 7.27168 4.66016 9.01385C4.66016 10.756 6.07246 12.1683 7.81463 12.1683Z" fill="white"/>
<path d="M16.1765 12.2258C17.9346 12.2258 19.3597 10.8007 19.3597 9.04261C19.3597 7.28456 17.9346 5.85938 16.1765 5.85938C14.4185 5.85938 12.9933 7.28456 12.9933 9.04261C12.9933 10.8007 14.4185 12.2258 16.1765 12.2258Z" fill="white"/>
<path fill-rule="evenodd" clip-rule="evenodd" d="M9.75 8.625C9.75 9.86764 8.74264 10.875 7.5 10.875C6.25736 10.875 5.25 9.86764 5.25 8.625C5.25 7.38236 6.25736 6.375 7.5 6.375C8.74264 6.375 9.75 7.38236 9.75 8.625ZM18 8.625C18 9.86764 16.9926 10.875 15.75 10.875C14.5074 10.875 13.5 9.86764 13.5 8.625C13.5 7.38236 14.5074 6.375 15.75 6.375C16.9926 6.375 18 7.38236 18 8.625Z" fill="url(#paint10_linear_161_16577)"/>
<g filter="url(#filter0_f_161_16577)">
<path fill-rule="evenodd" clip-rule="evenodd" d="M9.52717 21.5161L9.56803 21.3526C9.66041 20.983 9.38088 20.625 8.99991 20.625L9.24679 20.5016C9.55514 20.3474 9.74991 20.0322 9.74991 19.6875C9.74991 19.3428 9.55514 19.0276 9.24679 18.8734L8.99991 18.75H10.3124C10.8302 18.75 11.2499 18.3303 11.2499 17.8125C11.2499 17.2947 10.8302 16.875 10.3124 16.875H5.99991V14.5795C5.99991 13.9833 5.5166 13.5 4.92042 13.5C4.28985 13.5 3.79152 14.0386 3.78232 14.6691C3.77074 15.4624 3.68295 16.455 3.35059 16.9562C4.50348 19.2377 6.56215 20.9218 9.52717 21.5161Z" fill="#E4694E"/>
</g>
<path d="M7.5002 16.125V13.8295C7.5002 13.2333 7.0169 12.75 6.42071 12.75C5.79014 12.75 5.29181 13.2886 5.28261 13.9191C5.26771 14.9402 5.12657 16.2912 4.50021 16.5C2.25013 17.25 1.50024 20.625 3.3752 22.125C4.87524 23.3251 6.3752 23.25 7.5002 23.25H9.57315C10.0851 23.25 10.5002 22.8349 10.5002 22.3229C10.5002 21.9718 10.3018 21.6508 9.98774 21.4938L9.7502 21.375H10.2896C10.6338 21.375 10.9338 21.1408 11.0173 20.8069L11.0683 20.6026C11.1607 20.233 10.8812 19.875 10.5002 19.875L10.7471 19.7516C11.0554 19.5974 11.2502 19.2822 11.2502 18.9375C11.2502 18.5928 11.0554 18.2776 10.7471 18.1234L10.5002 18H11.8127C12.3305 18 12.7502 17.5803 12.7502 17.0625C12.7502 16.5447 12.3305 16.125 11.8127 16.125H7.5002Z" fill="url(#paint11_radial_161_16577)"/>
<path d="M7.5002 16.125V13.8295C7.5002 13.2333 7.0169 12.75 6.42071 12.75C5.79014 12.75 5.29181 13.2886 5.28261 13.9191C5.26771 14.9402 5.12657 16.2912 4.50021 16.5C2.25013 17.25 1.50024 20.625 3.3752 22.125C4.87524 23.3251 6.3752 23.25 7.5002 23.25H9.57315C10.0851 23.25 10.5002 22.8349 10.5002 22.3229C10.5002 21.9718 10.3018 21.6508 9.98774 21.4938L9.7502 21.375H10.2896C10.6338 21.375 10.9338 21.1408 11.0173 20.8069L11.0683 20.6026C11.1607 20.233 10.8812 19.875 10.5002 19.875L10.7471 19.7516C11.0554 19.5974 11.2502 19.2822 11.2502 18.9375C11.2502 18.5928 11.0554 18.2776 10.7471 18.1234L10.5002 18H11.8127C12.3305 18 12.7502 17.5803 12.7502 17.0625C12.7502 16.5447 12.3305 16.125 11.8127 16.125H7.5002Z" fill="url(#paint12_radial_161_16577)"/>
<path d="M9.375 3.375C9.125 3.125 8.4 2.625 7.5 2.625C6.6 2.625 5.875 3.125 5.625 3.375" stroke="#402A32" stroke-linecap="round" stroke-linejoin="round"/>
<path d="M13.875 6.375C13.875 6.375 14.625 5.625 16.125 5.625C17.625 5.625 18.375 6.375 18.375 6.375" stroke="#402A32" stroke-linecap="round" stroke-linejoin="round"/>
<g opacity="0.8" filter="url(#filter1_f_161_16577)">
<rect x="7.5" y="17.25" width="5.25" height="0.75" fill="#FFA048"/>
</g>
<path d="M8.25 18H10.5C10.9142 18 11.25 18.3358 11.25 18.75L8.25 18Z" fill="url(#paint13_linear_161_16577)"/>
<path d="M8.25 21.375H9.75C10.1642 21.375 10.5 21.7108 10.5 22.125L8.25 21.375Z" fill="url(#paint14_linear_161_16577)"/>
<path d="M8.25 19.875H10.5C10.9142 19.875 11.25 20.2108 11.25 20.625L8.25 19.875Z" fill="url(#paint15_linear_161_16577)"/>
</g>
<defs>
<filter id="filter0_f_161_16577" x="1.35059" y="11.5" width="11.8994" height="12.0156" filterUnits="userSpaceOnUse" color-interpolation-filters="sRGB">
<feFlood flood-opacity="0" result="BackgroundImageFix"/>
<feBlend mode="normal" in="SourceGraphic" in2="BackgroundImageFix" result="shape"/>
<feGaussianBlur stdDeviation="1" result="effect1_foregroundBlur_161_16577"/>
</filter>
<filter id="filter1_f_161_16577" x="6" y="15.75" width="8.25" height="3.75" filterUnits="userSpaceOnUse" color-interpolation-filters="sRGB">
<feFlood flood-opacity="0" result="BackgroundImageFix"/>
<feBlend mode="normal" in="SourceGraphic" in2="BackgroundImageFix" result="shape"/>
<feGaussianBlur stdDeviation="0.75" result="effect1_foregroundBlur_161_16577"/>
</filter>
<radialGradient id="paint0_radial_161_16577" cx="0" cy="0" r="1" gradientUnits="userSpaceOnUse" gradientTransform="translate(19.125 6.75) rotate(131.878) scale(29.2115)">
<stop stop-color="#FFF478"/>
<stop offset="0.474827" stop-color="#FFB02E"/>
<stop offset="1" stop-color="#F70A8D"/>
</radialGradient>
<radialGradient id="paint1_radial_161_16577" cx="0" cy="0" r="1" gradientUnits="userSpaceOnUse" gradientTransform="translate(12 9.375) rotate(101.31) scale(13.3849 17.1435)">
<stop offset="0.787821" stop-color="#F59639" stop-opacity="0"/>
<stop offset="0.972509" stop-color="#FF7DCE"/>
</radialGradient>
<radialGradient id="paint2_radial_161_16577" cx="0" cy="0" r="1" gradientUnits="userSpaceOnUse" gradientTransform="translate(13.5 10.5) rotate(135) scale(30.7591)">
<stop offset="0.314853" stop-opacity="0"/>
<stop offset="1"/>
</radialGradient>
<radialGradient id="paint3_radial_161_16577" cx="0" cy="0" r="1" gradientUnits="userSpaceOnUse" gradientTransform="translate(12 12.75) rotate(77.692) scale(21.1102)">
<stop offset="0.507903" stop-color="#7D6133" stop-opacity="0"/>
<stop offset="1" stop-color="#715B32"/>
</radialGradient>
<radialGradient id="paint4_radial_161_16577" cx="0" cy="0" r="1" gradientUnits="userSpaceOnUse" gradientTransform="translate(12.375 12.375) rotate(55.7131) scale(9.98515 7.23774)">
<stop stop-color="#FFB849"/>
<stop offset="1" stop-color="#FFB847" stop-opacity="0"/>
</radialGradient>
<radialGradient id="paint5_radial_161_16577" cx="0" cy="0" r="1" gradientUnits="userSpaceOnUse" gradientTransform="translate(15.375 13.5) rotate(9.86581) scale(8.75446)">
<stop stop-color="#FFA64B"/>
<stop offset="0.900412" stop-color="#FFAE46" stop-opacity="0"/>
</radialGradient>
<radialGradient id="paint6_radial_161_16577" cx="0" cy="0" r="1" gradientUnits="userSpaceOnUse" gradientTransform="translate(13.125 11.25) rotate(43.9708) scale(44.2897)">
<stop offset="0.185425" stop-opacity="0"/>
<stop offset="1" stop-opacity="0.4"/>
</radialGradient>
<radialGradient id="paint7_radial_161_16577" cx="0" cy="0" r="1" gradientUnits="userSpaceOnUse" gradientTransform="translate(11.6252 16.5) rotate(-178.264) scale(12.3807 11.5452)">
<stop offset="0.0661917" stop-color="#FFEA67"/>
<stop offset="0.593499" stop-color="#FFC13F"/>
<stop offset="0.904482" stop-color="#DF9030"/>
</radialGradient>
<radialGradient id="paint8_radial_161_16577" cx="0" cy="0" r="1" gradientUnits="userSpaceOnUse" gradientTransform="translate(9.48887 7.33943) rotate(135) scale(7.65192 3.96038)">
<stop stop-color="#392108"/>
<stop offset="1" stop-color="#C87928" stop-opacity="0"/>
</radialGradient>
<radialGradient id="paint9_radial_161_16577" cx="0" cy="0" r="1" gradientUnits="userSpaceOnUse" gradientTransform="translate(16.9091 7.9818) rotate(133.664) scale(7.11016 4.0138)">
<stop stop-color="#392108"/>
<stop offset="1" stop-color="#C87928" stop-opacity="0"/>
</radialGradient>
<linearGradient id="paint10_linear_161_16577" x1="12.375" y1="5.25" x2="11.625" y2="10.5" gradientUnits="userSpaceOnUse">
<stop stop-color="#553B3E"/>
<stop offset="1" stop-color="#3D2432"/>
</linearGradient>
<radialGradient id="paint11_radial_161_16577" cx="0" cy="0" r="1" gradientUnits="userSpaceOnUse" gradientTransform="translate(11.6252 16.5) rotate(-178.264) scale(12.3807 11.5452)">
<stop offset="0.0661917" stop-color="#FFEA67"/>
<stop offset="0.593499" stop-color="#FFC13F"/>
<stop offset="0.904482" stop-color="#DF9030"/>
</radialGradient>
<radialGradient id="paint12_radial_161_16577" cx="0" cy="0" r="1" gradientUnits="userSpaceOnUse" gradientTransform="translate(7.87524 16.875) rotate(172.235) scale(8.32635 8.53766)">
<stop offset="0.499571" stop-color="#FFEA67" stop-opacity="0"/>
<stop offset="0.851196" stop-color="#F9708E"/>
</radialGradient>
<linearGradient id="paint13_linear_161_16577" x1="9.375" y1="18" x2="10.5" y2="19.125" gradientUnits="userSpaceOnUse">
<stop stop-color="#FA9428"/>
<stop offset="1" stop-color="#FA9428" stop-opacity="0"/>
</linearGradient>
<linearGradient id="paint14_linear_161_16577" x1="8.625" y1="21.375" x2="9.75" y2="22.5" gradientUnits="userSpaceOnUse">
<stop stop-color="#FA9428"/>
<stop offset="1" stop-color="#FA9428" stop-opacity="0"/>
</linearGradient>
<linearGradient id="paint15_linear_161_16577" x1="8.625" y1="19.875" x2="9.75" y2="21" gradientUnits="userSpaceOnUse">
<stop stop-color="#FA9428"/>
<stop offset="1" stop-color="#FA9428" stop-opacity="0"/>
</linearGradient>
<clipPath id="clip0_161_16577">
<rect width="24" height="24" fill="white"/>
</clipPath>
</defs>
</svg>
