<svg width="24" height="24" viewBox="0 0 24 24" fill="none" xmlns="http://www.w3.org/2000/svg">
<g clip-path="url(#clip0_123_16507)">
<path d="M11.9992 22.4983C19 22.4983 22.4983 17.7977 22.4983 11.9992C22.4983 6.20064 19 1.5 11.9992 1.5C4.99833 1.5 1.5 6.20064 1.5 11.9992C1.5 17.7977 4.99833 22.4983 11.9992 22.4983Z" fill="url(#paint0_radial_123_16507)"/>
<path d="M11.9992 22.4983C19 22.4983 22.4983 17.7977 22.4983 11.9992C22.4983 6.20064 19 1.5 11.9992 1.5C4.99833 1.5 1.5 6.20064 1.5 11.9992C1.5 17.7977 4.99833 22.4983 11.9992 22.4983Z" fill="url(#paint1_radial_123_16507)"/>
<path d="M11.9992 22.4983C19 22.4983 22.4983 17.7977 22.4983 11.9992C22.4983 6.20064 19 1.5 11.9992 1.5C4.99833 1.5 1.5 6.20064 1.5 11.9992C1.5 17.7977 4.99833 22.4983 11.9992 22.4983Z" fill="url(#paint2_radial_123_16507)" fill-opacity="0.6"/>
<path d="M11.9992 22.4983C19 22.4983 22.4983 17.7977 22.4983 11.9992C22.4983 6.20064 19 1.5 11.9992 1.5C4.99833 1.5 1.5 6.20064 1.5 11.9992C1.5 17.7977 4.99833 22.4983 11.9992 22.4983Z" fill="url(#paint3_radial_123_16507)"/>
<path d="M11.9992 22.4983C19 22.4983 22.4983 17.7977 22.4983 11.9992C22.4983 6.20064 19 1.5 11.9992 1.5C4.99833 1.5 1.5 6.20064 1.5 11.9992C1.5 17.7977 4.99833 22.4983 11.9992 22.4983Z" fill="url(#paint4_radial_123_16507)"/>
<path d="M11.9992 22.4983C19 22.4983 22.4983 17.7977 22.4983 11.9992C22.4983 6.20064 19 1.5 11.9992 1.5C4.99833 1.5 1.5 6.20064 1.5 11.9992C1.5 17.7977 4.99833 22.4983 11.9992 22.4983Z" fill="url(#paint5_radial_123_16507)"/>
<path d="M11.9992 22.4983C19 22.4983 22.4983 17.7977 22.4983 11.9992C22.4983 6.20064 19 1.5 11.9992 1.5C4.99833 1.5 1.5 6.20064 1.5 11.9992C1.5 17.7977 4.99833 22.4983 11.9992 22.4983Z" fill="url(#paint6_radial_123_16507)"/>
<g opacity="0.5" filter="url(#filter0_f_123_16507)">
<path d="M5.625 8.625C5.625 8.625 5.8125 7.125 7.5 7.125C9.1875 7.125 9.375 8.625 9.375 8.625" stroke="#9A4609" stroke-width="1.6" stroke-linecap="round"/>
</g>
<g opacity="0.5" filter="url(#filter1_f_123_16507)">
<path d="M13.875 8.625C13.875 8.625 14.25 7.125 15.75 7.125C17.25 7.125 17.625 8.625 17.625 8.625" stroke="#9A4609" stroke-width="1.6" stroke-linecap="round"/>
</g>
<path d="M6 8.25C6 8.25 6.1875 6.75 7.875 6.75C9.5625 6.75 9.75 8.25 9.75 8.25" stroke="#43273B" stroke-width="1.6" stroke-linecap="round" stroke-linejoin="round"/>
<g opacity="0.26" filter="url(#filter2_f_123_16507)">
<path d="M6.1875 8.0625C6.1875 8.0625 6.375 6.5625 8.0625 6.5625C9.75 6.5625 9.9375 8.0625 9.9375 8.0625" stroke="white" stroke-width="1.6" stroke-linecap="round" stroke-linejoin="round"/>
</g>
<path d="M14.25 8.25C14.25 8.25 14.625 6.75 16.125 6.75C17.625 6.75 18 8.25 18 8.25" stroke="#43273B" stroke-width="1.6" stroke-linecap="round" stroke-linejoin="round"/>
<g opacity="0.26" filter="url(#filter3_f_123_16507)">
<path d="M14.4375 8.0625C14.4375 8.0625 14.625 6.5625 16.3125 6.5625C18 6.5625 18.1875 8.0625 18.1875 8.0625" stroke="white" stroke-width="1.6" stroke-linecap="round" stroke-linejoin="round"/>
</g>
<path d="M8.715 13.875H13.575L17.625 16.125L14.79 22.125L7.5 19.5L8.715 13.875Z" fill="url(#paint7_radial_123_16507)"/>
<path d="M13.7762 16.7762L11.625 14.625L17.625 12L18.3413 13.719C18.9671 15.2209 18.1855 16.9382 16.6419 17.4527C15.6356 17.7881 14.5262 17.5262 13.7762 16.7762Z" fill="url(#paint8_linear_123_16507)"/>
<path d="M6.75 12C7.125 12.5 8.625 13.875 12 13.875C15.375 13.875 16.875 12.5 17.25 12" stroke="url(#paint9_radial_123_16507)" stroke-width="1.6" stroke-linecap="round"/>
<path fill-rule="evenodd" clip-rule="evenodd" d="M13.6316 16.6316L13.7762 16.7762C14.5262 17.5262 15.6356 17.7881 16.6419 17.4527C18.1855 16.9382 18.9671 15.2209 18.3413 13.719L18.1409 13.2381C17.6694 12.9295 17.1056 12.75 16.5 12.75C16.1822 12.75 15.8759 12.7994 15.5884 12.891L15.0215 13.139C14.1129 13.6546 13.5 14.6307 13.5 15.75C13.5 16.0568 13.5461 16.3529 13.6316 16.6316Z" fill="url(#paint10_radial_123_16507)"/>
</g>
<defs>
<filter id="filter0_f_123_16507" x="3.3252" y="4.8252" width="8.34961" height="6.09961" filterUnits="userSpaceOnUse" color-interpolation-filters="sRGB">
<feFlood flood-opacity="0" result="BackgroundImageFix"/>
<feBlend mode="normal" in="SourceGraphic" in2="BackgroundImageFix" result="shape"/>
<feGaussianBlur stdDeviation="0.75" result="effect1_foregroundBlur_123_16507"/>
</filter>
<filter id="filter1_f_123_16507" x="11.5752" y="4.8252" width="8.34961" height="6.09961" filterUnits="userSpaceOnUse" color-interpolation-filters="sRGB">
<feFlood flood-opacity="0" result="BackgroundImageFix"/>
<feBlend mode="normal" in="SourceGraphic" in2="BackgroundImageFix" result="shape"/>
<feGaussianBlur stdDeviation="0.75" result="effect1_foregroundBlur_123_16507"/>
</filter>
<filter id="filter2_f_123_16507" x="3.8877" y="4.2627" width="8.34961" height="6.09961" filterUnits="userSpaceOnUse" color-interpolation-filters="sRGB">
<feFlood flood-opacity="0" result="BackgroundImageFix"/>
<feBlend mode="normal" in="SourceGraphic" in2="BackgroundImageFix" result="shape"/>
<feGaussianBlur stdDeviation="0.75" result="effect1_foregroundBlur_123_16507"/>
</filter>
<filter id="filter3_f_123_16507" x="12.1377" y="4.2627" width="8.34961" height="6.09961" filterUnits="userSpaceOnUse" color-interpolation-filters="sRGB">
<feFlood flood-opacity="0" result="BackgroundImageFix"/>
<feBlend mode="normal" in="SourceGraphic" in2="BackgroundImageFix" result="shape"/>
<feGaussianBlur stdDeviation="0.75" result="effect1_foregroundBlur_123_16507"/>
</filter>
<radialGradient id="paint0_radial_123_16507" cx="0" cy="0" r="1" gradientUnits="userSpaceOnUse" gradientTransform="translate(19.125 6.75) rotate(131.878) scale(29.2115)">
<stop stop-color="#FFF478"/>
<stop offset="0.474827" stop-color="#FFCB76"/>
<stop offset="1" stop-color="#FF82C7"/>
</radialGradient>
<radialGradient id="paint1_radial_123_16507" cx="0" cy="0" r="1" gradientUnits="userSpaceOnUse" gradientTransform="translate(12 9.375) rotate(101.31) scale(13.3849 17.1435)">
<stop offset="0.787821" stop-color="#F59639" stop-opacity="0"/>
<stop offset="0.972509" stop-color="#FF7DCE"/>
</radialGradient>
<radialGradient id="paint2_radial_123_16507" cx="0" cy="0" r="1" gradientUnits="userSpaceOnUse" gradientTransform="translate(13.5 10.5) rotate(135) scale(30.7591)">
<stop offset="0.314853" stop-opacity="0"/>
<stop offset="1"/>
</radialGradient>
<radialGradient id="paint3_radial_123_16507" cx="0" cy="0" r="1" gradientUnits="userSpaceOnUse" gradientTransform="translate(12 12.75) rotate(77.692) scale(21.1102)">
<stop offset="0.507903" stop-color="#7D6133" stop-opacity="0"/>
<stop offset="1" stop-color="#715B32"/>
</radialGradient>
<radialGradient id="paint4_radial_123_16507" cx="0" cy="0" r="1" gradientUnits="userSpaceOnUse" gradientTransform="translate(12.375 12.375) rotate(55.7131) scale(9.98515 7.23774)">
<stop stop-color="#FFB849"/>
<stop offset="1" stop-color="#FFB847" stop-opacity="0"/>
</radialGradient>
<radialGradient id="paint5_radial_123_16507" cx="0" cy="0" r="1" gradientUnits="userSpaceOnUse" gradientTransform="translate(15.375 13.5) rotate(9.86581) scale(8.75446)">
<stop stop-color="#FFA64B"/>
<stop offset="0.900412" stop-color="#FFAE46" stop-opacity="0"/>
</radialGradient>
<radialGradient id="paint6_radial_123_16507" cx="0" cy="0" r="1" gradientUnits="userSpaceOnUse" gradientTransform="translate(13.125 11.25) rotate(43.9708) scale(44.2897)">
<stop offset="0.185425" stop-opacity="0"/>
<stop offset="1" stop-opacity="0.4"/>
</radialGradient>
<radialGradient id="paint7_radial_123_16507" cx="0" cy="0" r="1" gradientUnits="userSpaceOnUse" gradientTransform="translate(14.79 13.875) rotate(129.007) scale(5.79103 3.91222)">
<stop stop-color="#F63711"/>
<stop offset="1" stop-color="#E24A2C" stop-opacity="0"/>
</radialGradient>
<linearGradient id="paint8_linear_123_16507" x1="17.625" y1="16.875" x2="15.287" y2="12.0043" gradientUnits="userSpaceOnUse">
<stop stop-color="#D40F31"/>
<stop offset="0.340515" stop-color="#FF2375"/>
<stop offset="1" stop-color="#FF278E"/>
</linearGradient>
<radialGradient id="paint9_radial_123_16507" cx="0" cy="0" r="1" gradientUnits="userSpaceOnUse" gradientTransform="translate(12 10.5) rotate(90) scale(4.5 6.8879)">
<stop offset="0.517632" stop-color="#4E2553"/>
<stop offset="0.702876" stop-color="#5B4852"/>
<stop offset="1" stop-color="#4E2553"/>
<stop offset="1" stop-color="#4E2553"/>
</radialGradient>
<radialGradient id="paint10_radial_123_16507" cx="0" cy="0" r="1" gradientUnits="userSpaceOnUse" gradientTransform="translate(17 15.75) rotate(56.3099) scale(1.80278 5.40832)">
<stop stop-color="#FF7291"/>
<stop offset="1" stop-color="#FF7291" stop-opacity="0"/>
</radialGradient>
<clipPath id="clip0_123_16507">
<rect width="24" height="24" fill="white"/>
</clipPath>
</defs>
</svg>
