<svg width="9" height="8" viewBox="0 0 9 8" fill="none" xmlns="http://www.w3.org/2000/svg">
<g clip-path="url(#clip0_541_60608)">
<path d="M3.08391 0.0264582L3.88574 1.02847C3.91737 1.06874 3.90717 1.13201 3.86432 1.15502C3.53073 1.33563 2.34532 2.0788 2.15761 3.62611H3.66029C3.848 3.62611 4 3.79752 4 4.0092V7.61806C4 7.82974 3.848 8.00115 3.66029 8.00115H0.339709C0.152002 8.00115 0 7.82974 0 7.61806V3.92177C0 3.80328 0.0122418 3.68593 0.0377455 3.56974C0.13568 3.11763 0.448865 1.96836 1.21296 1.19298C2.0556 0.337071 2.82683 0.0598202 3.0125 0.0022994C3.03902 -0.00575352 3.06554 0.00344982 3.08391 0.0264582Z" fill="#2F438D"/>
</g>
<g clip-path="url(#clip1_541_60608)">
<path d="M8.08391 0.0264582L8.88574 1.02847C8.91737 1.06874 8.90717 1.13201 8.86432 1.15502C8.53073 1.33563 7.34532 2.0788 7.15761 3.62611H8.66029C8.848 3.62611 9 3.79752 9 4.0092V7.61806C9 7.82974 8.848 8.00115 8.66029 8.00115H5.33971C5.152 8.00115 5 7.82974 5 7.61806V3.92177C5 3.80328 5.01224 3.68593 5.03775 3.56974C5.13568 3.11763 5.44887 1.96836 6.21296 1.19298C7.0556 0.337071 7.82683 0.0598202 8.0125 0.0022994C8.03902 -0.00575352 8.06554 0.00344982 8.08391 0.0264582Z" fill="#2F438D"/>
</g>
<defs>
<clipPath id="clip0_541_60608">
<rect width="4" height="8" fill="white"/>
</clipPath>
<clipPath id="clip1_541_60608">
<rect width="4" height="8" fill="white" transform="translate(5)"/>
</clipPath>
</defs>
</svg>
