<svg width="32" height="32" viewBox="0 0 32 32" fill="none" xmlns="http://www.w3.org/2000/svg">
<rect width="32" height="32" fill="white"/>
<g clip-path="url(#clip0_96_6319)">
<path fill-rule="evenodd" clip-rule="evenodd" d="M14 4C19.5228 4 24 8.47715 24 14C24 16.2243 23.2738 18.279 22.0455 19.9399C22.0928 19.9769 22.1383 20.0172 22.1818 20.0607L27.1315 25.0104C27.7173 25.5962 27.7173 26.5459 27.1315 27.1317C26.5457 27.7175 25.596 27.7175 25.0102 27.1317L20.0604 22.182C20.0169 22.1385 19.9767 22.093 19.9396 22.0457C18.2788 23.2739 16.2242 24 14 24C8.47715 24 4 19.5228 4 14C4 8.47715 8.47715 4 14 4Z" fill="current"/>
<path d="M13 8C10.4451 8.42863 8.42863 10.4451 8 13" stroke="white" stroke-width="2" stroke-linecap="round"/>
</g>
<defs>
<clipPath id="clip0_96_6319">
<rect width="24" height="24" fill="white" transform="translate(4 4)"/>
</clipPath>
</defs>
</svg>
