<svg width="current" height="current" viewBox="0 0 20 20" fill="current" xmlns="http://www.w3.org/2000/svg">
<path d="M4.40039 9.65039V15.3004C4.40039 15.8527 4.84811 16.3004 5.40039 16.3004H7.60039C8.15267 16.3004 8.60039 15.8527 8.60039 15.3004V14.2004C8.60039 13.4272 9.22719 12.8004 10.0004 12.8004V12.8004C10.7736 12.8004 11.4004 13.4272 11.4004 14.2004V15.3004C11.4004 15.8527 11.8481 16.3004 12.4004 16.3004H14.6004C15.1527 16.3004 15.6004 15.8527 15.6004 15.3004V9.65039" stroke="current" stroke-width="current"/>
<path d="M12.1004 7.90039C12.1004 9.06019 11.1602 10.0004 10.0004 10.0004C8.84059 10.0004 7.90039 9.06019 7.90039 7.90039" stroke="current" stroke-width="current"/>
<path d="M7.9002 7.90039C7.9002 9.06019 6.95999 10.0004 5.8002 10.0004C4.6404 10.0004 3.7002 9.06019 3.7002 7.90039" stroke="current" stroke-width="current"/>
<path d="M16.3006 7.90039C16.3006 9.06019 15.3604 10.0004 14.2006 10.0004C13.0408 10.0004 12.1006 9.06019 12.1006 7.90039" stroke="current" stroke-width="current"/>
<path d="M3.7002 7.9002L4.64435 5.06774C4.91658 4.25106 5.68085 3.7002 6.54171 3.7002H13.4587C14.3195 3.7002 15.0838 4.25106 15.356 5.06774L16.3002 7.9002" stroke="current" stroke-width="current" stroke-linecap="round"/>
<path d="M7.90039 7.90029V4.05029" stroke="current" stroke-width="current"/>
<path d="M12.0996 7.90029V4.05029" stroke="current" stroke-width="current"/>
</svg>
