<svg width="current" height="current" viewBox="0 0 24 24" fill="none" xmlns="http://www.w3.org/2000/svg">
<path d="M20.1554 19C20.1689 20.1006 19.2805 21 18.1798 21H5.818C4.71343 21 3.818 20.1046 3.818 19L3.818 13.1178C3.25839 12.748 2.79966 12.2471 2.48251 11.6596C2.16537 11.0721 1.99963 10.4162 2 9.75C2 9.0057 2.20362 8.2884 2.5754 7.6773L5.0406 3.45C5.12038 3.31319 5.23513 3.19957 5.37331 3.12058C5.51149 3.04159 5.66824 3 5.82779 3H18.1711C18.3307 3 18.4874 3.04159 18.6256 3.12058C18.7638 3.19957 18.8785 3.31319 18.9583 3.45L21.4144 7.6638C21.9567 8.55559 22.131 9.61998 21.9011 10.6357C21.6712 11.6515 21.0548 12.5404 20.18 13.1178L20.1279 19.7817L20.1554 19ZM6.3532 4.8L4.1416 8.5917C3.92669 9.11743 3.92024 9.70412 4.12354 10.2344C4.32684 10.7646 4.72489 11.1993 5.23802 11.4514C5.75115 11.7034 6.34151 11.7544 6.89094 11.5939C7.44037 11.4335 7.90834 11.0735 8.20119 10.5861C8.50571 9.8328 9.58287 9.8328 9.88829 10.5861C10.0567 11.0041 10.3479 11.3624 10.7241 11.6149C11.1004 11.8673 11.5445 12.0023 11.999 12.0023C12.4535 12.0023 12.8976 11.8673 13.2738 11.6149C13.6501 11.3624 13.9412 11.0041 14.1097 10.5861C14.4142 9.8328 15.4914 9.8328 15.7968 10.5861C15.9148 10.8736 16.0915 11.1338 16.316 11.3504C16.5404 11.5671 16.8077 11.7354 17.101 11.8448C17.3943 11.9542 17.7072 12.0023 18.0202 11.9862C18.3332 11.9701 18.6395 11.89 18.9197 11.7511C19.2 11.6121 19.4482 11.4173 19.6487 11.1788C19.8492 10.9403 19.9978 10.6633 20.085 10.3652C20.1722 10.0671 20.1961 9.75444 20.1554 9.44675C20.1146 9.13906 20.0101 8.84304 19.8482 8.5773L17.6439 4.8H6.3532Z" fill="current"/>
</svg>
